G04 #@! TF.GenerationSoftware,KiCad,Pcbnew,(2017-04-02 revision 2c33fad45)-master*
G04 #@! TF.CreationDate,2017-04-07T18:54:23+05:30*
G04 #@! TF.ProjectId,LoRaBoard,4C6F5261426F6172642E6B696361645F,rev?*
G04 #@! TF.FileFunction,Legend,Bot*
G04 #@! TF.FilePolarity,Positive*
%FSLAX46Y46*%
G04 Gerber Fmt 4.6, Leading zero omitted, Abs format (unit mm)*
G04 Created by KiCad (PCBNEW (2017-04-02 revision 2c33fad45)-master) date Fri Apr  7 18:54:23 2017*
%MOMM*%
%LPD*%
G01*
G04 APERTURE LIST*
%ADD10C,0.100000*%
%ADD11C,0.120000*%
%ADD12C,0.127000*%
%ADD13C,0.203200*%
%ADD14C,0.150000*%
%ADD15C,0.152400*%
%ADD16C,0.050800*%
G04 APERTURE END LIST*
D10*
D11*
X157350000Y-103800000D02*
X156650000Y-103800000D01*
X156650000Y-105000000D02*
X157350000Y-105000000D01*
X157400000Y-111350000D02*
X158100000Y-111350000D01*
X158100000Y-110150000D02*
X157400000Y-110150000D01*
X152700000Y-106080000D02*
X153700000Y-106080000D01*
X153700000Y-104720000D02*
X152700000Y-104720000D01*
X159360000Y-106600000D02*
X159360000Y-108400000D01*
X156140000Y-108400000D02*
X156140000Y-105950000D01*
D12*
X173300080Y-111500080D02*
X177099920Y-111500080D01*
X173300080Y-115299920D02*
X173800460Y-115299920D01*
X176599540Y-115299920D02*
X177099920Y-115299920D01*
D13*
X161302040Y-101347520D02*
X160801660Y-101347520D01*
X160801660Y-101347520D02*
X160801660Y-97852480D01*
X160801660Y-97852480D02*
X169798340Y-97852480D01*
X169798340Y-97852480D02*
X169798340Y-101347520D01*
X169798340Y-101347520D02*
X169297960Y-101347520D01*
D14*
X157166666Y-103257142D02*
X157214285Y-103304761D01*
X157357142Y-103352380D01*
X157452380Y-103352380D01*
X157595238Y-103304761D01*
X157690476Y-103209523D01*
X157738095Y-103114285D01*
X157785714Y-102923809D01*
X157785714Y-102780952D01*
X157738095Y-102590476D01*
X157690476Y-102495238D01*
X157595238Y-102400000D01*
X157452380Y-102352380D01*
X157357142Y-102352380D01*
X157214285Y-102400000D01*
X157166666Y-102447619D01*
X156785714Y-102447619D02*
X156738095Y-102400000D01*
X156642857Y-102352380D01*
X156404761Y-102352380D01*
X156309523Y-102400000D01*
X156261904Y-102447619D01*
X156214285Y-102542857D01*
X156214285Y-102638095D01*
X156261904Y-102780952D01*
X156833333Y-103352380D01*
X156214285Y-103352380D01*
X157916666Y-112607142D02*
X157964285Y-112654761D01*
X158107142Y-112702380D01*
X158202380Y-112702380D01*
X158345238Y-112654761D01*
X158440476Y-112559523D01*
X158488095Y-112464285D01*
X158535714Y-112273809D01*
X158535714Y-112130952D01*
X158488095Y-111940476D01*
X158440476Y-111845238D01*
X158345238Y-111750000D01*
X158202380Y-111702380D01*
X158107142Y-111702380D01*
X157964285Y-111750000D01*
X157916666Y-111797619D01*
X157583333Y-111702380D02*
X156964285Y-111702380D01*
X157297619Y-112083333D01*
X157154761Y-112083333D01*
X157059523Y-112130952D01*
X157011904Y-112178571D01*
X156964285Y-112273809D01*
X156964285Y-112511904D01*
X157011904Y-112607142D01*
X157059523Y-112654761D01*
X157154761Y-112702380D01*
X157440476Y-112702380D01*
X157535714Y-112654761D01*
X157583333Y-112607142D01*
X153366666Y-104402380D02*
X153700000Y-103926190D01*
X153938095Y-104402380D02*
X153938095Y-103402380D01*
X153557142Y-103402380D01*
X153461904Y-103450000D01*
X153414285Y-103497619D01*
X153366666Y-103592857D01*
X153366666Y-103735714D01*
X153414285Y-103830952D01*
X153461904Y-103878571D01*
X153557142Y-103926190D01*
X153938095Y-103926190D01*
X152414285Y-104402380D02*
X152985714Y-104402380D01*
X152700000Y-104402380D02*
X152700000Y-103402380D01*
X152795238Y-103545238D01*
X152890476Y-103640476D01*
X152985714Y-103688095D01*
X154302380Y-106738095D02*
X155111904Y-106738095D01*
X155207142Y-106785714D01*
X155254761Y-106833333D01*
X155302380Y-106928571D01*
X155302380Y-107119047D01*
X155254761Y-107214285D01*
X155207142Y-107261904D01*
X155111904Y-107309523D01*
X154302380Y-107309523D01*
X154397619Y-107738095D02*
X154350000Y-107785714D01*
X154302380Y-107880952D01*
X154302380Y-108119047D01*
X154350000Y-108214285D01*
X154397619Y-108261904D01*
X154492857Y-108309523D01*
X154588095Y-108309523D01*
X154730952Y-108261904D01*
X155302380Y-107690476D01*
X155302380Y-108309523D01*
D15*
X179287295Y-107657980D02*
X180100095Y-107116114D01*
X179287295Y-107116114D02*
X180100095Y-107657980D01*
X180100095Y-106380723D02*
X180100095Y-106845180D01*
X180100095Y-106612952D02*
X179287295Y-106612952D01*
X179403409Y-106690361D01*
X179480819Y-106767771D01*
X179519523Y-106845180D01*
D16*
X178931695Y-108509485D02*
X178951047Y-108451428D01*
X178951047Y-108354666D01*
X178931695Y-108315961D01*
X178912342Y-108296609D01*
X178873638Y-108277257D01*
X178834933Y-108277257D01*
X178796228Y-108296609D01*
X178776876Y-108315961D01*
X178757523Y-108354666D01*
X178738171Y-108432076D01*
X178718819Y-108470780D01*
X178699466Y-108490133D01*
X178660761Y-108509485D01*
X178622057Y-108509485D01*
X178583352Y-108490133D01*
X178564000Y-108470780D01*
X178544647Y-108432076D01*
X178544647Y-108335314D01*
X178564000Y-108277257D01*
X178951047Y-108103085D02*
X178544647Y-108103085D01*
X178834933Y-107967619D01*
X178544647Y-107832152D01*
X178951047Y-107832152D01*
X178834933Y-107657980D02*
X178834933Y-107464457D01*
X178951047Y-107696685D02*
X178544647Y-107561219D01*
X178951047Y-107425752D01*
X178912342Y-107058057D02*
X178931695Y-107077409D01*
X178951047Y-107135466D01*
X178951047Y-107174171D01*
X178931695Y-107232228D01*
X178892990Y-107270933D01*
X178854285Y-107290285D01*
X178776876Y-107309638D01*
X178718819Y-107309638D01*
X178641409Y-107290285D01*
X178602704Y-107270933D01*
X178564000Y-107232228D01*
X178544647Y-107174171D01*
X178544647Y-107135466D01*
X178564000Y-107077409D01*
X178583352Y-107058057D01*
X178544647Y-106806476D02*
X178544647Y-106729066D01*
X178564000Y-106690361D01*
X178602704Y-106651657D01*
X178680114Y-106632304D01*
X178815580Y-106632304D01*
X178892990Y-106651657D01*
X178931695Y-106690361D01*
X178951047Y-106729066D01*
X178951047Y-106806476D01*
X178931695Y-106845180D01*
X178892990Y-106883885D01*
X178815580Y-106903238D01*
X178680114Y-106903238D01*
X178602704Y-106883885D01*
X178564000Y-106845180D01*
X178544647Y-106806476D01*
X178951047Y-106458133D02*
X178544647Y-106458133D01*
X178951047Y-106225904D01*
X178544647Y-106225904D01*
X178951047Y-106032380D02*
X178544647Y-106032380D01*
X178951047Y-105800152D01*
X178544647Y-105800152D01*
X178738171Y-105606628D02*
X178738171Y-105471161D01*
X178951047Y-105413104D02*
X178951047Y-105606628D01*
X178544647Y-105606628D01*
X178544647Y-105413104D01*
X178912342Y-105006704D02*
X178931695Y-105026057D01*
X178951047Y-105084114D01*
X178951047Y-105122819D01*
X178931695Y-105180876D01*
X178892990Y-105219580D01*
X178854285Y-105238933D01*
X178776876Y-105258285D01*
X178718819Y-105258285D01*
X178641409Y-105238933D01*
X178602704Y-105219580D01*
X178564000Y-105180876D01*
X178544647Y-105122819D01*
X178544647Y-105084114D01*
X178564000Y-105026057D01*
X178583352Y-105006704D01*
X178544647Y-104890590D02*
X178544647Y-104658361D01*
X178951047Y-104774476D02*
X178544647Y-104774476D01*
X178544647Y-104445485D02*
X178544647Y-104368076D01*
X178564000Y-104329371D01*
X178602704Y-104290666D01*
X178680114Y-104271314D01*
X178815580Y-104271314D01*
X178892990Y-104290666D01*
X178931695Y-104329371D01*
X178951047Y-104368076D01*
X178951047Y-104445485D01*
X178931695Y-104484190D01*
X178892990Y-104522895D01*
X178815580Y-104542247D01*
X178680114Y-104542247D01*
X178602704Y-104522895D01*
X178564000Y-104484190D01*
X178544647Y-104445485D01*
X178951047Y-103864914D02*
X178757523Y-104000380D01*
X178951047Y-104097142D02*
X178544647Y-104097142D01*
X178544647Y-103942323D01*
X178564000Y-103903619D01*
X178583352Y-103884266D01*
X178622057Y-103864914D01*
X178680114Y-103864914D01*
X178718819Y-103884266D01*
X178738171Y-103903619D01*
X178757523Y-103942323D01*
X178757523Y-104097142D01*
D15*
X174261046Y-111229630D02*
X174377160Y-111268335D01*
X174570684Y-111268335D01*
X174648094Y-111229630D01*
X174686799Y-111190925D01*
X174725503Y-111113516D01*
X174725503Y-111036106D01*
X174686799Y-110958697D01*
X174648094Y-110919992D01*
X174570684Y-110881287D01*
X174415865Y-110842582D01*
X174338456Y-110803878D01*
X174299751Y-110765173D01*
X174261046Y-110687763D01*
X174261046Y-110610354D01*
X174299751Y-110532944D01*
X174338456Y-110494240D01*
X174415865Y-110455535D01*
X174609389Y-110455535D01*
X174725503Y-110494240D01*
X174996437Y-110455535D02*
X175189960Y-111268335D01*
X175344780Y-110687763D01*
X175499599Y-111268335D01*
X175693122Y-110455535D01*
X176428513Y-111268335D02*
X175964056Y-111268335D01*
X176196284Y-111268335D02*
X176196284Y-110455535D01*
X176118875Y-110571649D01*
X176041465Y-110649059D01*
X175964056Y-110687763D01*
D16*
X169986710Y-112218295D02*
X170044767Y-112237647D01*
X170141529Y-112237647D01*
X170180234Y-112218295D01*
X170199586Y-112198942D01*
X170218939Y-112160238D01*
X170218939Y-112121533D01*
X170199586Y-112082828D01*
X170180234Y-112063476D01*
X170141529Y-112044123D01*
X170064120Y-112024771D01*
X170025415Y-112005419D01*
X170006062Y-111986066D01*
X169986710Y-111947361D01*
X169986710Y-111908657D01*
X170006062Y-111869952D01*
X170025415Y-111850600D01*
X170064120Y-111831247D01*
X170160881Y-111831247D01*
X170218939Y-111850600D01*
X170354405Y-111831247D02*
X170451167Y-112237647D01*
X170528577Y-111947361D01*
X170605986Y-112237647D01*
X170702748Y-111831247D01*
X170857567Y-112237647D02*
X170857567Y-111831247D01*
X170993034Y-111831247D02*
X171225262Y-111831247D01*
X171109148Y-112237647D02*
X171109148Y-111831247D01*
X171592958Y-112198942D02*
X171573605Y-112218295D01*
X171515548Y-112237647D01*
X171476843Y-112237647D01*
X171418786Y-112218295D01*
X171380081Y-112179590D01*
X171360729Y-112140885D01*
X171341377Y-112063476D01*
X171341377Y-112005419D01*
X171360729Y-111928009D01*
X171380081Y-111889304D01*
X171418786Y-111850600D01*
X171476843Y-111831247D01*
X171515548Y-111831247D01*
X171573605Y-111850600D01*
X171592958Y-111869952D01*
X171767129Y-112237647D02*
X171767129Y-111831247D01*
X171767129Y-112024771D02*
X171999358Y-112024771D01*
X171999358Y-112237647D02*
X171999358Y-111831247D01*
X172096120Y-112276352D02*
X172405758Y-112276352D01*
X172502520Y-112237647D02*
X172502520Y-111831247D01*
X172657339Y-111831247D01*
X172696043Y-111850600D01*
X172715396Y-111869952D01*
X172734748Y-111908657D01*
X172734748Y-111966714D01*
X172715396Y-112005419D01*
X172696043Y-112024771D01*
X172657339Y-112044123D01*
X172502520Y-112044123D01*
X172908920Y-111831247D02*
X172908920Y-112160238D01*
X172928272Y-112198942D01*
X172947624Y-112218295D01*
X172986329Y-112237647D01*
X173063739Y-112237647D01*
X173102443Y-112218295D01*
X173121796Y-112198942D01*
X173141148Y-112160238D01*
X173141148Y-111831247D01*
X173315320Y-112218295D02*
X173373377Y-112237647D01*
X173470139Y-112237647D01*
X173508843Y-112218295D01*
X173528196Y-112198942D01*
X173547548Y-112160238D01*
X173547548Y-112121533D01*
X173528196Y-112082828D01*
X173508843Y-112063476D01*
X173470139Y-112044123D01*
X173392729Y-112024771D01*
X173354024Y-112005419D01*
X173334672Y-111986066D01*
X173315320Y-111947361D01*
X173315320Y-111908657D01*
X173334672Y-111869952D01*
X173354024Y-111850600D01*
X173392729Y-111831247D01*
X173489491Y-111831247D01*
X173547548Y-111850600D01*
X173721720Y-112237647D02*
X173721720Y-111831247D01*
X173721720Y-112024771D02*
X173953948Y-112024771D01*
X173953948Y-112237647D02*
X173953948Y-111831247D01*
X174282939Y-112024771D02*
X174340996Y-112044123D01*
X174360348Y-112063476D01*
X174379700Y-112102180D01*
X174379700Y-112160238D01*
X174360348Y-112198942D01*
X174340996Y-112218295D01*
X174302291Y-112237647D01*
X174147472Y-112237647D01*
X174147472Y-111831247D01*
X174282939Y-111831247D01*
X174321643Y-111850600D01*
X174340996Y-111869952D01*
X174360348Y-111908657D01*
X174360348Y-111947361D01*
X174340996Y-111986066D01*
X174321643Y-112005419D01*
X174282939Y-112024771D01*
X174147472Y-112024771D01*
X174553872Y-111831247D02*
X174553872Y-112160238D01*
X174573224Y-112198942D01*
X174592577Y-112218295D01*
X174631281Y-112237647D01*
X174708691Y-112237647D01*
X174747396Y-112218295D01*
X174766748Y-112198942D01*
X174786100Y-112160238D01*
X174786100Y-111831247D01*
X174921567Y-111831247D02*
X175153796Y-111831247D01*
X175037681Y-112237647D02*
X175037681Y-111831247D01*
X175231205Y-111831247D02*
X175463434Y-111831247D01*
X175347320Y-112237647D02*
X175347320Y-111831247D01*
X175676310Y-111831247D02*
X175753720Y-111831247D01*
X175792424Y-111850600D01*
X175831129Y-111889304D01*
X175850481Y-111966714D01*
X175850481Y-112102180D01*
X175831129Y-112179590D01*
X175792424Y-112218295D01*
X175753720Y-112237647D01*
X175676310Y-112237647D01*
X175637605Y-112218295D01*
X175598900Y-112179590D01*
X175579548Y-112102180D01*
X175579548Y-111966714D01*
X175598900Y-111889304D01*
X175637605Y-111850600D01*
X175676310Y-111831247D01*
X176024653Y-112237647D02*
X176024653Y-111831247D01*
X176256881Y-112237647D01*
X176256881Y-111831247D01*
X176682634Y-112198942D02*
X176663281Y-112218295D01*
X176605224Y-112237647D01*
X176566520Y-112237647D01*
X176508462Y-112218295D01*
X176469758Y-112179590D01*
X176450405Y-112140885D01*
X176431053Y-112063476D01*
X176431053Y-112005419D01*
X176450405Y-111928009D01*
X176469758Y-111889304D01*
X176508462Y-111850600D01*
X176566520Y-111831247D01*
X176605224Y-111831247D01*
X176663281Y-111850600D01*
X176682634Y-111869952D01*
X177185796Y-112237647D02*
X177166443Y-112237647D01*
X177127739Y-112218295D01*
X177069681Y-112160238D01*
X176972920Y-112044123D01*
X176934215Y-111986066D01*
X176914862Y-111928009D01*
X176914862Y-111889304D01*
X176934215Y-111850600D01*
X176972920Y-111831247D01*
X176992272Y-111831247D01*
X177030977Y-111850600D01*
X177050329Y-111889304D01*
X177050329Y-111908657D01*
X177030977Y-111947361D01*
X177011624Y-111966714D01*
X176895510Y-112044123D01*
X176876158Y-112063476D01*
X176856805Y-112102180D01*
X176856805Y-112160238D01*
X176876158Y-112198942D01*
X176895510Y-112218295D01*
X176934215Y-112237647D01*
X176992272Y-112237647D01*
X177030977Y-112218295D01*
X177050329Y-112198942D01*
X177108386Y-112121533D01*
X177127739Y-112063476D01*
X177127739Y-112024771D01*
X177359967Y-112237647D02*
X177359967Y-111831247D01*
X177592196Y-112237647D02*
X177418024Y-112005419D01*
X177592196Y-111831247D02*
X177359967Y-112063476D01*
X177669605Y-112276352D02*
X177979243Y-112276352D01*
X178076005Y-112237647D02*
X178076005Y-111831247D01*
X178308234Y-112237647D02*
X178134062Y-112005419D01*
X178308234Y-111831247D02*
X178076005Y-112063476D01*
X178463053Y-112218295D02*
X178521110Y-112237647D01*
X178617872Y-112237647D01*
X178656577Y-112218295D01*
X178675929Y-112198942D01*
X178695281Y-112160238D01*
X178695281Y-112121533D01*
X178675929Y-112082828D01*
X178656577Y-112063476D01*
X178617872Y-112044123D01*
X178540462Y-112024771D01*
X178501758Y-112005419D01*
X178482405Y-111986066D01*
X178463053Y-111947361D01*
X178463053Y-111908657D01*
X178482405Y-111869952D01*
X178501758Y-111850600D01*
X178540462Y-111831247D01*
X178637224Y-111831247D01*
X178695281Y-111850600D01*
X178850100Y-112218295D02*
X178908158Y-112237647D01*
X179004920Y-112237647D01*
X179043624Y-112218295D01*
X179062977Y-112198942D01*
X179082329Y-112160238D01*
X179082329Y-112121533D01*
X179062977Y-112082828D01*
X179043624Y-112063476D01*
X179004920Y-112044123D01*
X178927510Y-112024771D01*
X178888805Y-112005419D01*
X178869453Y-111986066D01*
X178850100Y-111947361D01*
X178850100Y-111908657D01*
X178869453Y-111869952D01*
X178888805Y-111850600D01*
X178927510Y-111831247D01*
X179024272Y-111831247D01*
X179082329Y-111850600D01*
X165089542Y-98906942D02*
X165176628Y-98935971D01*
X165321771Y-98935971D01*
X165379828Y-98906942D01*
X165408857Y-98877914D01*
X165437885Y-98819857D01*
X165437885Y-98761800D01*
X165408857Y-98703742D01*
X165379828Y-98674714D01*
X165321771Y-98645685D01*
X165205657Y-98616657D01*
X165147600Y-98587628D01*
X165118571Y-98558600D01*
X165089542Y-98500542D01*
X165089542Y-98442485D01*
X165118571Y-98384428D01*
X165147600Y-98355400D01*
X165205657Y-98326371D01*
X165350800Y-98326371D01*
X165437885Y-98355400D01*
X166018457Y-98935971D02*
X165670114Y-98935971D01*
X165844285Y-98935971D02*
X165844285Y-98326371D01*
X165786228Y-98413457D01*
X165728171Y-98471514D01*
X165670114Y-98500542D01*
X161678685Y-100811942D02*
X161765771Y-100840971D01*
X161910914Y-100840971D01*
X161968971Y-100811942D01*
X161998000Y-100782914D01*
X162027028Y-100724857D01*
X162027028Y-100666800D01*
X161998000Y-100608742D01*
X161968971Y-100579714D01*
X161910914Y-100550685D01*
X161794800Y-100521657D01*
X161736742Y-100492628D01*
X161707714Y-100463600D01*
X161678685Y-100405542D01*
X161678685Y-100347485D01*
X161707714Y-100289428D01*
X161736742Y-100260400D01*
X161794800Y-100231371D01*
X161939942Y-100231371D01*
X162027028Y-100260400D01*
X162230228Y-100231371D02*
X162375371Y-100840971D01*
X162491485Y-100405542D01*
X162607600Y-100840971D01*
X162752742Y-100231371D01*
X162984971Y-100840971D02*
X162984971Y-100231371D01*
X163188171Y-100231371D02*
X163536514Y-100231371D01*
X163362342Y-100840971D02*
X163362342Y-100231371D01*
X164088057Y-100782914D02*
X164059028Y-100811942D01*
X163971942Y-100840971D01*
X163913885Y-100840971D01*
X163826800Y-100811942D01*
X163768742Y-100753885D01*
X163739714Y-100695828D01*
X163710685Y-100579714D01*
X163710685Y-100492628D01*
X163739714Y-100376514D01*
X163768742Y-100318457D01*
X163826800Y-100260400D01*
X163913885Y-100231371D01*
X163971942Y-100231371D01*
X164059028Y-100260400D01*
X164088057Y-100289428D01*
X164349314Y-100840971D02*
X164349314Y-100231371D01*
X164349314Y-100521657D02*
X164697657Y-100521657D01*
X164697657Y-100840971D02*
X164697657Y-100231371D01*
X164987942Y-100608742D02*
X165452400Y-100608742D01*
X165713657Y-100811942D02*
X165800742Y-100840971D01*
X165945885Y-100840971D01*
X166003942Y-100811942D01*
X166032971Y-100782914D01*
X166062000Y-100724857D01*
X166062000Y-100666800D01*
X166032971Y-100608742D01*
X166003942Y-100579714D01*
X165945885Y-100550685D01*
X165829771Y-100521657D01*
X165771714Y-100492628D01*
X165742685Y-100463600D01*
X165713657Y-100405542D01*
X165713657Y-100347485D01*
X165742685Y-100289428D01*
X165771714Y-100260400D01*
X165829771Y-100231371D01*
X165974914Y-100231371D01*
X166062000Y-100260400D01*
X166323257Y-100840971D02*
X166323257Y-100231371D01*
X166555485Y-100231371D01*
X166613542Y-100260400D01*
X166642571Y-100289428D01*
X166671600Y-100347485D01*
X166671600Y-100434571D01*
X166642571Y-100492628D01*
X166613542Y-100521657D01*
X166555485Y-100550685D01*
X166323257Y-100550685D01*
X166932857Y-100840971D02*
X166932857Y-100231371D01*
X167078000Y-100231371D01*
X167165085Y-100260400D01*
X167223142Y-100318457D01*
X167252171Y-100376514D01*
X167281200Y-100492628D01*
X167281200Y-100579714D01*
X167252171Y-100695828D01*
X167223142Y-100753885D01*
X167165085Y-100811942D01*
X167078000Y-100840971D01*
X166932857Y-100840971D01*
X167455371Y-100231371D02*
X167803714Y-100231371D01*
X167629542Y-100840971D02*
X167629542Y-100231371D01*
X168006914Y-100840971D02*
X168006914Y-100231371D01*
X168239142Y-100231371D01*
X168297200Y-100260400D01*
X168326228Y-100289428D01*
X168355257Y-100347485D01*
X168355257Y-100434571D01*
X168326228Y-100492628D01*
X168297200Y-100521657D01*
X168239142Y-100550685D01*
X168006914Y-100550685D01*
X168529428Y-100231371D02*
X168877771Y-100231371D01*
X168703600Y-100840971D02*
X168703600Y-100231371D01*
X169080971Y-100840971D02*
X169080971Y-100231371D01*
X169080971Y-100521657D02*
X169429314Y-100521657D01*
X169429314Y-100840971D02*
X169429314Y-100231371D01*
X169690571Y-100289428D02*
X169719600Y-100260400D01*
X169777657Y-100231371D01*
X169922800Y-100231371D01*
X169980857Y-100260400D01*
X170009885Y-100289428D01*
X170038914Y-100347485D01*
X170038914Y-100405542D01*
X170009885Y-100492628D01*
X169661542Y-100840971D01*
X170038914Y-100840971D01*
M02*
