G04 #@! TF.GenerationSoftware,KiCad,Pcbnew,(2017-04-02 revision 2c33fad45)-master*
G04 #@! TF.CreationDate,2017-04-07T18:54:24+05:30*
G04 #@! TF.ProjectId,LoRaBoard,4C6F5261426F6172642E6B696361645F,rev?*
G04 #@! TF.FileFunction,Soldermask,Top*
G04 #@! TF.FilePolarity,Negative*
%FSLAX46Y46*%
G04 Gerber Fmt 4.6, Leading zero omitted, Abs format (unit mm)*
G04 Created by KiCad (PCBNEW (2017-04-02 revision 2c33fad45)-master) date Fri Apr  7 18:54:24 2017*
%MOMM*%
%LPD*%
G01*
G04 APERTURE LIST*
%ADD10C,0.100000*%
%ADD11C,2.500000*%
%ADD12R,2.200000X1.200000*%
%ADD13O,2.200000X1.200000*%
%ADD14O,1.200000X2.200000*%
%ADD15R,1.200000X2.200000*%
%ADD16R,0.800000X0.750000*%
%ADD17R,0.800000X0.800000*%
%ADD18R,1.700000X1.700000*%
%ADD19O,1.700000X1.700000*%
%ADD20R,0.500000X0.900000*%
%ADD21C,2.540000*%
%ADD22R,1.699260X3.698240*%
%ADD23R,1.198880X2.499360*%
%ADD24C,0.600000*%
G04 APERTURE END LIST*
D10*
D11*
X174500000Y-100100000D03*
X140800000Y-132000000D03*
D12*
X148501100Y-105003600D03*
X148501100Y-107003600D03*
X148501100Y-109003600D03*
X148501100Y-111003600D03*
X148501100Y-113003600D03*
X148501100Y-115003600D03*
X148501100Y-117003600D03*
X148501100Y-119003600D03*
X148501100Y-121003600D03*
X148501100Y-123003600D03*
X148501100Y-125003600D03*
D13*
X148501100Y-127003600D03*
D14*
X149831100Y-128903600D03*
D15*
X151831100Y-128903600D03*
X153831100Y-128903600D03*
X155831100Y-128903600D03*
X159831100Y-128903600D03*
X161831100Y-128903600D03*
X163831100Y-128903600D03*
D14*
X165831100Y-128903600D03*
D13*
X167831100Y-126903600D03*
D12*
X167831100Y-124903600D03*
X167831100Y-122903600D03*
X167831100Y-120903600D03*
X167831100Y-118903600D03*
X167831100Y-116903600D03*
X167831100Y-114903600D03*
X167831100Y-112903600D03*
X167831100Y-110903600D03*
X167831100Y-108903600D03*
X167831100Y-106903600D03*
X167831100Y-104903600D03*
D16*
X158750000Y-131250000D03*
X157250000Y-131250000D03*
D17*
X171600000Y-129100000D03*
X170000000Y-129100000D03*
X144100000Y-103100000D03*
X145700000Y-103100000D03*
D18*
X143800000Y-107060000D03*
D19*
X143800000Y-109600000D03*
X143800000Y-112140000D03*
D18*
X172500000Y-126250000D03*
D19*
X172500000Y-123710000D03*
X172500000Y-121170000D03*
D18*
X176000000Y-134000000D03*
D19*
X173460000Y-134000000D03*
X170920000Y-134000000D03*
D18*
X144000000Y-125740000D03*
D19*
X144000000Y-123200000D03*
X144000000Y-120660000D03*
X144000000Y-118120000D03*
D18*
X146500000Y-134000000D03*
D19*
X149040000Y-134000000D03*
X151580000Y-134000000D03*
X154120000Y-134000000D03*
X156660000Y-134000000D03*
X159200000Y-134000000D03*
X161740000Y-134000000D03*
X164280000Y-134000000D03*
D18*
X176750000Y-123600000D03*
D19*
X176750000Y-126140000D03*
D18*
X155660000Y-101400000D03*
D19*
X158200000Y-101400000D03*
D20*
X171650000Y-130700000D03*
X170150000Y-130700000D03*
X144150000Y-101600000D03*
X145650000Y-101600000D03*
D21*
X174500000Y-107000000D03*
X177040000Y-104460000D03*
X177040000Y-109540000D03*
X171960000Y-104460000D03*
X171960000Y-109540000D03*
D22*
X172251060Y-113400000D03*
X178148940Y-113400000D03*
D23*
X162800640Y-102348280D03*
X165300000Y-102348280D03*
X167799360Y-102348280D03*
D20*
X152550000Y-106900000D03*
X154050000Y-106900000D03*
X152550000Y-108600000D03*
X154050000Y-108600000D03*
D18*
X149600000Y-101300000D03*
D24*
X148800000Y-103600000D03*
X154800000Y-111800000D03*
X156400000Y-112200000D03*
X164600000Y-115400000D03*
X170200000Y-115600000D03*
X145600000Y-104300000D03*
X169000000Y-128500000D03*
X163900000Y-110600000D03*
X170400000Y-116800000D03*
X146800000Y-105200000D03*
X166000000Y-109200000D03*
X150600000Y-115000000D03*
X169600000Y-125000000D03*
X165600000Y-106200000D03*
X155600000Y-127000000D03*
X150800000Y-125200000D03*
X155100000Y-106900000D03*
X167400000Y-129800000D03*
X167400000Y-135200000D03*
X165200000Y-127000000D03*
X163200000Y-127000000D03*
X161800000Y-125200000D03*
X152500000Y-104100000D03*
X160200000Y-106400000D03*
X179200000Y-115800000D03*
X145000000Y-114400000D03*
M02*
