M48
;DRILL file {KiCad (2017-04-02 revision 2c33fad45)-master} date Fri Apr  7 18:54:29 2017
;FORMAT={3:3/ absolute / metric / suppress leading zeros}
FMAT,2
METRIC,TZ
T1C0.400
T2C1.000
T3C1.499
T4C1.598
%
G90
G05
M71
T1
X145000Y-114400
X145600Y-104300
X146800Y-105200
X148800Y-103600
X150600Y-115000
X150800Y-125200
X152500Y-104100
X154800Y-111800
X155100Y-106900
X155600Y-127000
X156400Y-112200
X160200Y-106400
X161800Y-125200
X163200Y-127000
X163900Y-110600
X164600Y-115400
X165200Y-127000
X165600Y-106200
X166000Y-109200
X167400Y-129800
X167400Y-135200
X169000Y-128500
X169600Y-125000
X170200Y-115600
X170400Y-116800
X179200Y-115800
T2
X143800Y-107060
X143800Y-109600
X143800Y-112140
X144000Y-118120
X144000Y-120660
X144000Y-123200
X144000Y-125740
X146500Y-134000
X149040Y-134000
X149600Y-101300
X151580Y-134000
X154120Y-134000
X155660Y-101400
X156660Y-134000
X158200Y-101400
X159200Y-134000
X161740Y-134000
X164280Y-134000
X170920Y-134000
X172500Y-121170
X172500Y-123710
X172500Y-126250
X173460Y-134000
X176000Y-134000
X176750Y-123600
X176750Y-126140
T3
X174500Y-107000
T4
X171960Y-104460
X171960Y-109540
X177040Y-104460
X177040Y-109540
T0
M30
