G04 #@! TF.GenerationSoftware,KiCad,Pcbnew,(2017-04-02 revision 2c33fad45)-master*
G04 #@! TF.CreationDate,2017-04-07T18:54:23+05:30*
G04 #@! TF.ProjectId,LoRaBoard,4C6F5261426F6172642E6B696361645F,rev?*
G04 #@! TF.FileFunction,Copper,L1,Top,Signal*
G04 #@! TF.FilePolarity,Positive*
%FSLAX46Y46*%
G04 Gerber Fmt 4.6, Leading zero omitted, Abs format (unit mm)*
G04 Created by KiCad (PCBNEW (2017-04-02 revision 2c33fad45)-master) date Fri Apr  7 18:54:23 2017*
%MOMM*%
%LPD*%
G01*
G04 APERTURE LIST*
%ADD10C,0.100000*%
%ADD11R,2.200000X1.200000*%
%ADD12O,2.200000X1.200000*%
%ADD13O,1.200000X2.200000*%
%ADD14R,1.200000X2.200000*%
%ADD15R,0.800000X0.750000*%
%ADD16R,0.800000X0.800000*%
%ADD17R,1.700000X1.700000*%
%ADD18O,1.700000X1.700000*%
%ADD19R,0.500000X0.900000*%
%ADD20C,2.540000*%
%ADD21R,1.699260X3.698240*%
%ADD22R,1.198880X2.499360*%
%ADD23C,0.600000*%
%ADD24C,0.550000*%
%ADD25C,0.600000*%
%ADD26C,1.000000*%
%ADD27C,0.450000*%
%ADD28C,0.500000*%
G04 APERTURE END LIST*
D10*
D11*
X148501100Y-105003600D03*
X148501100Y-107003600D03*
X148501100Y-109003600D03*
X148501100Y-111003600D03*
X148501100Y-113003600D03*
X148501100Y-115003600D03*
X148501100Y-117003600D03*
X148501100Y-119003600D03*
X148501100Y-121003600D03*
X148501100Y-123003600D03*
X148501100Y-125003600D03*
D12*
X148501100Y-127003600D03*
D13*
X149831100Y-128903600D03*
D14*
X151831100Y-128903600D03*
X153831100Y-128903600D03*
X155831100Y-128903600D03*
X159831100Y-128903600D03*
X161831100Y-128903600D03*
X163831100Y-128903600D03*
D13*
X165831100Y-128903600D03*
D12*
X167831100Y-126903600D03*
D11*
X167831100Y-124903600D03*
X167831100Y-122903600D03*
X167831100Y-120903600D03*
X167831100Y-118903600D03*
X167831100Y-116903600D03*
X167831100Y-114903600D03*
X167831100Y-112903600D03*
X167831100Y-110903600D03*
X167831100Y-108903600D03*
X167831100Y-106903600D03*
X167831100Y-104903600D03*
D15*
X158750000Y-131250000D03*
X157250000Y-131250000D03*
D16*
X171600000Y-129100000D03*
X170000000Y-129100000D03*
X144100000Y-103100000D03*
X145700000Y-103100000D03*
D17*
X143800000Y-107060000D03*
D18*
X143800000Y-109600000D03*
X143800000Y-112140000D03*
D17*
X172500000Y-126250000D03*
D18*
X172500000Y-123710000D03*
X172500000Y-121170000D03*
D17*
X176000000Y-134000000D03*
D18*
X173460000Y-134000000D03*
X170920000Y-134000000D03*
D17*
X144000000Y-125740000D03*
D18*
X144000000Y-123200000D03*
X144000000Y-120660000D03*
X144000000Y-118120000D03*
D17*
X146500000Y-134000000D03*
D18*
X149040000Y-134000000D03*
X151580000Y-134000000D03*
X154120000Y-134000000D03*
X156660000Y-134000000D03*
X159200000Y-134000000D03*
X161740000Y-134000000D03*
X164280000Y-134000000D03*
D17*
X176750000Y-123600000D03*
D18*
X176750000Y-126140000D03*
D17*
X155660000Y-101400000D03*
D18*
X158200000Y-101400000D03*
D19*
X171650000Y-130700000D03*
X170150000Y-130700000D03*
X144150000Y-101600000D03*
X145650000Y-101600000D03*
D20*
X174500000Y-107000000D03*
X177040000Y-104460000D03*
X177040000Y-109540000D03*
X171960000Y-104460000D03*
X171960000Y-109540000D03*
D21*
X172251060Y-113400000D03*
X178148940Y-113400000D03*
D22*
X162800640Y-102348280D03*
X165300000Y-102348280D03*
X167799360Y-102348280D03*
D19*
X152550000Y-106900000D03*
X154050000Y-106900000D03*
X152550000Y-108600000D03*
X154050000Y-108600000D03*
D17*
X149600000Y-101300000D03*
D23*
X148800000Y-103600000D03*
X154800000Y-111800000D03*
X156400000Y-112200000D03*
X164600000Y-115400000D03*
X170200000Y-115600000D03*
X145600000Y-104300000D03*
X169000000Y-128500000D03*
X163900000Y-110600000D03*
X170400000Y-116800000D03*
X146800000Y-105200000D03*
X166000000Y-109200000D03*
X150600000Y-115000000D03*
X169600000Y-125000000D03*
X165600000Y-106200000D03*
X155600000Y-127000000D03*
X150800000Y-125200000D03*
X155100000Y-106900000D03*
X167400000Y-129800000D03*
X167400000Y-135200000D03*
X165200000Y-127000000D03*
X163200000Y-127000000D03*
X161800000Y-125200000D03*
X152500000Y-104100000D03*
X160200000Y-106400000D03*
X179200000Y-115800000D03*
X145000000Y-114400000D03*
D24*
X176750000Y-123600000D02*
X176750000Y-122200000D01*
X176750000Y-122200000D02*
X177000000Y-121950000D01*
X177000000Y-121950000D02*
X177000000Y-119397500D01*
D25*
X146500000Y-101600000D02*
X147700000Y-102800000D01*
X147700000Y-102800000D02*
X147700000Y-103000000D01*
X147700000Y-103000000D02*
X148300000Y-103600000D01*
X148300000Y-103600000D02*
X148800000Y-103600000D01*
X145650000Y-101600000D02*
X146500000Y-101600000D01*
X175400000Y-118600000D02*
X176202500Y-118600000D01*
X176202500Y-118600000D02*
X177000000Y-119397500D01*
X174548980Y-117748980D02*
X175400000Y-118600000D01*
X171851480Y-117748980D02*
X174548980Y-117748980D01*
X170200000Y-115600000D02*
X170200000Y-114001430D01*
X170200000Y-114001430D02*
X170801430Y-113400000D01*
X170801430Y-113400000D02*
X172251060Y-113400000D01*
D26*
X154800000Y-123200000D02*
X154800000Y-111800000D01*
X155400000Y-123800000D02*
X154800000Y-123200000D01*
X157400000Y-123800000D02*
X155400000Y-123800000D01*
X159831100Y-126231100D02*
X157400000Y-123800000D01*
X159831100Y-128903600D02*
X159831100Y-126231100D01*
D25*
X159200000Y-115400000D02*
X156400000Y-112600000D01*
X156400000Y-112600000D02*
X156400000Y-112200000D01*
X164600000Y-115400000D02*
X159200000Y-115400000D01*
X171851480Y-116451480D02*
X171000000Y-115600000D01*
X171000000Y-115600000D02*
X170200000Y-115600000D01*
X171851480Y-116599540D02*
X171851480Y-116451480D01*
D24*
X171851480Y-117748980D02*
X171851480Y-116599540D01*
X158750000Y-131250000D02*
X159350000Y-131250000D01*
X159831100Y-130768900D02*
X159831100Y-128903600D01*
X159350000Y-131250000D02*
X159831100Y-130768900D01*
D25*
X145700000Y-103100000D02*
X145700000Y-104200000D01*
X145700000Y-104200000D02*
X145600000Y-104300000D01*
X170000000Y-129100000D02*
X169600000Y-129100000D01*
X169600000Y-129100000D02*
X169000000Y-128500000D01*
D27*
X154900000Y-108600000D02*
X156000000Y-109700000D01*
X156000000Y-109700000D02*
X163000000Y-109700000D01*
X163000000Y-109700000D02*
X163900000Y-110600000D01*
X154050000Y-108600000D02*
X154900000Y-108600000D01*
D25*
X170000000Y-116800000D02*
X170400000Y-116800000D01*
X169431101Y-116231101D02*
X170000000Y-116800000D01*
X167831100Y-114903600D02*
X168431102Y-114903600D01*
X168431102Y-114903600D02*
X169431101Y-115903599D01*
X169431101Y-115903599D02*
X169431101Y-116231101D01*
D24*
X148501100Y-105003600D02*
X146996400Y-105003600D01*
X146996400Y-105003600D02*
X146800000Y-105200000D01*
X167831100Y-108903600D02*
X166296400Y-108903600D01*
X166296400Y-108903600D02*
X166000000Y-109200000D01*
X150196400Y-115003600D02*
X150200000Y-115000000D01*
X150200000Y-115000000D02*
X150600000Y-115000000D01*
X148501100Y-115003600D02*
X150196400Y-115003600D01*
X167831100Y-114903600D02*
X168496400Y-114903600D01*
X167831100Y-124903600D02*
X169503600Y-124903600D01*
X169503600Y-124903600D02*
X169600000Y-125000000D01*
X166053600Y-106053600D02*
X165907200Y-106200000D01*
X165907200Y-106200000D02*
X165600000Y-106200000D01*
X167831100Y-104903600D02*
X167331100Y-104903600D01*
X167331100Y-104903600D02*
X166181100Y-106053600D01*
X166181100Y-106053600D02*
X166053600Y-106053600D01*
D25*
X155831100Y-128903600D02*
X155831100Y-127231100D01*
X155831100Y-127231100D02*
X155600000Y-127000000D01*
X148501100Y-125003600D02*
X150603600Y-125003600D01*
X150603600Y-125003600D02*
X150800000Y-125200000D01*
D24*
X157250000Y-131250000D02*
X156450000Y-131250000D01*
X155831100Y-130631100D02*
X155831100Y-128903600D01*
X156450000Y-131250000D02*
X155831100Y-130631100D01*
D25*
X154050000Y-106900000D02*
X155100000Y-106900000D01*
D24*
X171600000Y-129100000D02*
X171600000Y-130650000D01*
X171600000Y-130650000D02*
X171650000Y-130700000D01*
D25*
X144150000Y-101600000D02*
X144150000Y-103050000D01*
X144150000Y-103050000D02*
X144100000Y-103100000D01*
X143800000Y-107060000D02*
X148444700Y-107060000D01*
X148444700Y-107060000D02*
X148501100Y-107003600D01*
X143800000Y-112140000D02*
X145460000Y-112140000D01*
X145460000Y-112140000D02*
X146600000Y-111000000D01*
X146600000Y-109204700D02*
X147004700Y-108800000D01*
X146600000Y-111000000D02*
X146600000Y-109204700D01*
X147004700Y-108800000D02*
X148297500Y-108800000D01*
X148297500Y-108800000D02*
X148501100Y-109003600D01*
D28*
X167831100Y-126903600D02*
X171846400Y-126903600D01*
X171846400Y-126903600D02*
X172500000Y-126250000D01*
X167831100Y-122903600D02*
X169296400Y-122903600D01*
X171030000Y-121170000D02*
X172500000Y-121170000D01*
X169296400Y-122903600D02*
X171030000Y-121170000D01*
D25*
X163831100Y-128903600D02*
X163831100Y-129831100D01*
X163831100Y-129831100D02*
X164503610Y-130503610D01*
X164503610Y-130503610D02*
X166903610Y-130503610D01*
X166903610Y-130503610D02*
X168400000Y-132000000D01*
X168400000Y-132000000D02*
X175450000Y-132000000D01*
X175450000Y-132000000D02*
X176000000Y-132550000D01*
X176000000Y-132550000D02*
X176000000Y-134000000D01*
X162400000Y-131400000D02*
X161831100Y-130831100D01*
X161831100Y-130831100D02*
X161831100Y-128903600D01*
X166000000Y-131400000D02*
X162400000Y-131400000D01*
X167750001Y-133150001D02*
X166000000Y-131400000D01*
X170920000Y-134000000D02*
X170070001Y-133150001D01*
X170070001Y-133150001D02*
X167750001Y-133150001D01*
X144000000Y-123200000D02*
X144849999Y-122350001D01*
X144849999Y-122350001D02*
X146654699Y-122350001D01*
X146654699Y-122350001D02*
X148001100Y-121003600D01*
X148001100Y-121003600D02*
X148501100Y-121003600D01*
X144000000Y-120660000D02*
X145656400Y-119003600D01*
X145656400Y-119003600D02*
X148501100Y-119003600D01*
X165831100Y-128903600D02*
X167903600Y-128903600D01*
X169200000Y-130700000D02*
X170150000Y-130700000D01*
X168600000Y-130100000D02*
X169200000Y-130700000D01*
X168600000Y-129600000D02*
X168600000Y-130100000D01*
X167903600Y-128903600D02*
X168600000Y-129600000D01*
X167224264Y-129200000D02*
X167224264Y-129096764D01*
X167031100Y-128903600D02*
X165831100Y-128903600D01*
X167224264Y-129096764D02*
X167031100Y-128903600D01*
X167400000Y-129800000D02*
X167400000Y-129375736D01*
X167400000Y-129375736D02*
X167224264Y-129200000D01*
X166000000Y-136600000D02*
X167400000Y-135200000D01*
X144600000Y-136600000D02*
X166000000Y-136600000D01*
X144000000Y-136000000D02*
X144600000Y-136600000D01*
X144000000Y-130600000D02*
X144000000Y-136000000D01*
X141800000Y-128400000D02*
X144000000Y-130600000D01*
X141800000Y-119117919D02*
X141800000Y-128400000D01*
X144000000Y-118120000D02*
X142797919Y-118120000D01*
X142797919Y-118120000D02*
X141800000Y-119117919D01*
D28*
X146500000Y-134000000D02*
X146500000Y-129004700D01*
X146500000Y-129004700D02*
X148501100Y-127003600D01*
X149040000Y-134000000D02*
X149040000Y-129694700D01*
X149040000Y-129694700D02*
X149831100Y-128903600D01*
X151580000Y-134000000D02*
X151580000Y-129154700D01*
X151580000Y-129154700D02*
X151831100Y-128903600D01*
X154120000Y-134000000D02*
X154120000Y-129192500D01*
X154120000Y-129192500D02*
X153831100Y-128903600D01*
D25*
X165200000Y-127000000D02*
X165200000Y-122000000D01*
X166400000Y-120800000D02*
X166503600Y-120903600D01*
X165200000Y-122000000D02*
X166400000Y-120800000D01*
X166503600Y-120903600D02*
X167831100Y-120903600D01*
X167534700Y-121200000D02*
X167831100Y-120903600D01*
D24*
X167734700Y-121000000D02*
X167831100Y-120903600D01*
D25*
X166131100Y-118903600D02*
X167831100Y-118903600D01*
X163200000Y-127000000D02*
X163200000Y-121834700D01*
X163200000Y-121834700D02*
X166131100Y-118903600D01*
X167727500Y-118800000D02*
X167831100Y-118903600D01*
D24*
X152550000Y-108600000D02*
X152550000Y-109550000D01*
X156400000Y-111400000D02*
X165800000Y-111400000D01*
X154800000Y-109800000D02*
X156400000Y-111400000D01*
X152800000Y-109800000D02*
X154800000Y-109800000D01*
X152550000Y-109550000D02*
X152800000Y-109800000D01*
D25*
X152550000Y-106900000D02*
X152550000Y-108600000D01*
X161800000Y-121600000D02*
X161800000Y-125200000D01*
X165800000Y-117600000D02*
X165800000Y-111400000D01*
X161800000Y-121600000D02*
X165800000Y-117600000D01*
X165800000Y-111400000D02*
X165800000Y-111234700D01*
X166131100Y-110903600D02*
X167831100Y-110903600D01*
X165800000Y-111234700D02*
X166131100Y-110903600D01*
X167534700Y-111200000D02*
X167831100Y-110903600D01*
D24*
X167831100Y-116903600D02*
X168703600Y-116903600D01*
X174800000Y-125700000D02*
X175240000Y-126140000D01*
X168703600Y-116903600D02*
X169777549Y-117977549D01*
X169777549Y-117977549D02*
X169777549Y-119177549D01*
X169777549Y-119177549D02*
X170000000Y-119400000D01*
X175240000Y-126140000D02*
X176750000Y-126140000D01*
X170000000Y-119400000D02*
X174000000Y-119400000D01*
X174000000Y-119400000D02*
X174800000Y-120200000D01*
X174800000Y-120200000D02*
X174800000Y-125700000D01*
D25*
X161448920Y-103700000D02*
X162800640Y-102348280D01*
X152900000Y-103700000D02*
X161448920Y-103700000D01*
X152500000Y-104100000D02*
X152900000Y-103700000D01*
X165300000Y-104500000D02*
X165300000Y-102348280D01*
X163300000Y-106500000D02*
X165300000Y-104500000D01*
X160300000Y-106500000D02*
X163300000Y-106500000D01*
X160200000Y-106400000D02*
X160300000Y-106500000D01*
X179200000Y-115800000D02*
X179200000Y-114451060D01*
X179200000Y-114451060D02*
X178148940Y-113400000D01*
X145800000Y-116002500D02*
X145800000Y-115200000D01*
X145800000Y-115200000D02*
X145000000Y-114400000D01*
X148501100Y-117003600D02*
X146801100Y-117003600D01*
X146801100Y-117003600D02*
X145800000Y-116002500D01*
D26*
X167831100Y-106903600D02*
X174403600Y-106903600D01*
X174403600Y-106903600D02*
X174500000Y-107000000D01*
M02*
