G04 #@! TF.GenerationSoftware,KiCad,Pcbnew,(2017-04-02 revision 2c33fad45)-master*
G04 #@! TF.CreationDate,2017-04-07T18:54:24+05:30*
G04 #@! TF.ProjectId,LoRaBoard,4C6F5261426F6172642E6B696361645F,rev?*
G04 #@! TF.FileFunction,Soldermask,Bot*
G04 #@! TF.FilePolarity,Negative*
%FSLAX46Y46*%
G04 Gerber Fmt 4.6, Leading zero omitted, Abs format (unit mm)*
G04 Created by KiCad (PCBNEW (2017-04-02 revision 2c33fad45)-master) date Fri Apr  7 18:54:24 2017*
%MOMM*%
%LPD*%
G01*
G04 APERTURE LIST*
%ADD10C,0.100000*%
%ADD11C,2.500000*%
%ADD12R,0.800000X0.750000*%
%ADD13R,1.700000X1.700000*%
%ADD14O,1.700000X1.700000*%
%ADD15R,0.500000X0.900000*%
%ADD16R,0.650000X1.060000*%
%ADD17C,0.600000*%
G04 APERTURE END LIST*
D10*
D11*
X174500000Y-100100000D03*
X140800000Y-132000000D03*
D12*
X157750000Y-104400000D03*
X156250000Y-104400000D03*
X157000000Y-110750000D03*
X158500000Y-110750000D03*
D13*
X143800000Y-107060000D03*
D14*
X143800000Y-109600000D03*
X143800000Y-112140000D03*
D13*
X172500000Y-126250000D03*
D14*
X172500000Y-123710000D03*
X172500000Y-121170000D03*
D13*
X176000000Y-134000000D03*
D14*
X173460000Y-134000000D03*
X170920000Y-134000000D03*
D13*
X144000000Y-125740000D03*
D14*
X144000000Y-123200000D03*
X144000000Y-120660000D03*
X144000000Y-118120000D03*
D13*
X146500000Y-134000000D03*
D14*
X149040000Y-134000000D03*
X151580000Y-134000000D03*
X154120000Y-134000000D03*
X156660000Y-134000000D03*
X159200000Y-134000000D03*
X161740000Y-134000000D03*
X164280000Y-134000000D03*
D13*
X176750000Y-123600000D03*
D14*
X176750000Y-126140000D03*
D13*
X155660000Y-101400000D03*
D14*
X158200000Y-101400000D03*
D15*
X153950000Y-105400000D03*
X152450000Y-105400000D03*
D16*
X156800000Y-106400000D03*
X157750000Y-106400000D03*
X158700000Y-106400000D03*
X158700000Y-108600000D03*
X156800000Y-108600000D03*
D13*
X149600000Y-101300000D03*
D17*
X148800000Y-103600000D03*
X154800000Y-111800000D03*
X156400000Y-112200000D03*
X164600000Y-115400000D03*
X170200000Y-115600000D03*
X145600000Y-104300000D03*
X169000000Y-128500000D03*
X163900000Y-110600000D03*
X170400000Y-116800000D03*
X146800000Y-105200000D03*
X166000000Y-109200000D03*
X150600000Y-115000000D03*
X169600000Y-125000000D03*
X165600000Y-106200000D03*
X155600000Y-127000000D03*
X150800000Y-125200000D03*
X155100000Y-106900000D03*
X167400000Y-129800000D03*
X167400000Y-135200000D03*
X165200000Y-127000000D03*
X163200000Y-127000000D03*
X161800000Y-125200000D03*
X152500000Y-104100000D03*
X160200000Y-106400000D03*
X179200000Y-115800000D03*
X145000000Y-114400000D03*
M02*
