G04 #@! TF.GenerationSoftware,KiCad,Pcbnew,(2017-04-02 revision 2c33fad45)-master*
G04 #@! TF.CreationDate,2017-04-07T18:54:23+05:30*
G04 #@! TF.ProjectId,LoRaBoard,4C6F5261426F6172642E6B696361645F,rev?*
G04 #@! TF.FileFunction,Copper,L2,Bot,Signal*
G04 #@! TF.FilePolarity,Positive*
%FSLAX46Y46*%
G04 Gerber Fmt 4.6, Leading zero omitted, Abs format (unit mm)*
G04 Created by KiCad (PCBNEW (2017-04-02 revision 2c33fad45)-master) date Fri Apr  7 18:54:23 2017*
%MOMM*%
%LPD*%
G01*
G04 APERTURE LIST*
%ADD10C,0.100000*%
%ADD11R,0.800000X0.750000*%
%ADD12R,1.700000X1.700000*%
%ADD13O,1.700000X1.700000*%
%ADD14R,0.500000X0.900000*%
%ADD15R,0.650000X1.060000*%
%ADD16C,2.540000*%
%ADD17C,0.600000*%
%ADD18C,0.600000*%
%ADD19C,1.000000*%
%ADD20C,0.450000*%
%ADD21C,0.550000*%
%ADD22C,0.400000*%
%ADD23C,0.200000*%
G04 APERTURE END LIST*
D10*
D11*
X157750000Y-104400000D03*
X156250000Y-104400000D03*
X157000000Y-110750000D03*
X158500000Y-110750000D03*
D12*
X143800000Y-107060000D03*
D13*
X143800000Y-109600000D03*
X143800000Y-112140000D03*
D12*
X172500000Y-126250000D03*
D13*
X172500000Y-123710000D03*
X172500000Y-121170000D03*
D12*
X176000000Y-134000000D03*
D13*
X173460000Y-134000000D03*
X170920000Y-134000000D03*
D12*
X144000000Y-125740000D03*
D13*
X144000000Y-123200000D03*
X144000000Y-120660000D03*
X144000000Y-118120000D03*
D12*
X146500000Y-134000000D03*
D13*
X149040000Y-134000000D03*
X151580000Y-134000000D03*
X154120000Y-134000000D03*
X156660000Y-134000000D03*
X159200000Y-134000000D03*
X161740000Y-134000000D03*
X164280000Y-134000000D03*
D12*
X176750000Y-123600000D03*
D13*
X176750000Y-126140000D03*
D12*
X155660000Y-101400000D03*
D13*
X158200000Y-101400000D03*
D14*
X153950000Y-105400000D03*
X152450000Y-105400000D03*
D15*
X156800000Y-106400000D03*
X157750000Y-106400000D03*
X158700000Y-106400000D03*
X158700000Y-108600000D03*
X156800000Y-108600000D03*
D16*
X174500000Y-107000000D03*
X177040000Y-104460000D03*
X177040000Y-109540000D03*
X171960000Y-104460000D03*
X171960000Y-109540000D03*
D12*
X149600000Y-101300000D03*
D17*
X148800000Y-103600000D03*
X154800000Y-111800000D03*
X156400000Y-112200000D03*
X164600000Y-115400000D03*
X170200000Y-115600000D03*
X145600000Y-104300000D03*
X169000000Y-128500000D03*
X163900000Y-110600000D03*
X170400000Y-116800000D03*
X146800000Y-105200000D03*
X166000000Y-109200000D03*
X150600000Y-115000000D03*
X169600000Y-125000000D03*
X165600000Y-106200000D03*
X155600000Y-127000000D03*
X150800000Y-125200000D03*
X155100000Y-106900000D03*
X167400000Y-129800000D03*
X167400000Y-135200000D03*
X165200000Y-127000000D03*
X163200000Y-127000000D03*
X161800000Y-125200000D03*
X152500000Y-104100000D03*
X160200000Y-106400000D03*
X179200000Y-115800000D03*
X145000000Y-114400000D03*
D18*
X148800000Y-103600000D02*
X149000000Y-103600000D01*
D19*
X154800000Y-111800000D02*
X154800000Y-111000000D01*
D18*
X156400000Y-112200000D02*
X156400000Y-111200000D01*
X156400000Y-111200000D02*
X156550000Y-111200000D01*
X156550000Y-111200000D02*
X157000000Y-110750000D01*
X165000000Y-115600000D02*
X164800000Y-115400000D01*
X164800000Y-115400000D02*
X164600000Y-115400000D01*
X170200000Y-115600000D02*
X165000000Y-115600000D01*
X145600000Y-104300000D02*
X145600000Y-104700000D01*
X169000000Y-128500000D02*
X168800000Y-128300000D01*
X168800000Y-128300000D02*
X168500000Y-128300000D01*
D20*
X163900000Y-110600000D02*
X164700000Y-110600000D01*
X164700000Y-110600000D02*
X164800000Y-110500000D01*
D18*
X170400000Y-116800000D02*
X171100000Y-116800000D01*
D21*
X161300001Y-109499999D02*
X160050000Y-110750000D01*
X160050000Y-110750000D02*
X158500000Y-110750000D01*
X165699999Y-109499999D02*
X161300001Y-109499999D01*
X146800000Y-105200000D02*
X146600000Y-105400000D01*
X166000000Y-109200000D02*
X165699999Y-109499999D01*
X150600000Y-115000000D02*
X150800000Y-115200000D01*
X169600000Y-125000000D02*
X169899999Y-124699999D01*
X165600000Y-106200000D02*
X165300001Y-106500001D01*
D18*
X155400000Y-126200000D02*
X155200000Y-126000000D01*
X155400000Y-126375736D02*
X155400000Y-126200000D01*
X155600000Y-127000000D02*
X155600000Y-126575736D01*
X155600000Y-126575736D02*
X155400000Y-126375736D01*
X150800000Y-125200000D02*
X151600000Y-125200000D01*
X155100000Y-106900000D02*
X155200000Y-106800000D01*
X167400000Y-135200000D02*
X167400000Y-129800000D01*
X162589999Y-129210001D02*
X164800000Y-127000000D01*
X164800000Y-127000000D02*
X165200000Y-127000000D01*
X161740000Y-134000000D02*
X162589999Y-133150001D01*
X162589999Y-133150001D02*
X162589999Y-129210001D01*
X161800000Y-127000000D02*
X163200000Y-127000000D01*
X160049999Y-128750001D02*
X161800000Y-127000000D01*
X159200000Y-134000000D02*
X160049999Y-133150001D01*
X160049999Y-133150001D02*
X160049999Y-128750001D01*
X158000000Y-127000000D02*
X160000000Y-127000000D01*
X160000000Y-127000000D02*
X161800000Y-125200000D01*
X156660000Y-128340000D02*
X158000000Y-127000000D01*
X156660000Y-134000000D02*
X156660000Y-128340000D01*
X152450000Y-105400000D02*
X152450000Y-104150000D01*
X152450000Y-104150000D02*
X152500000Y-104100000D01*
X158700000Y-106400000D02*
X160200000Y-106400000D01*
D22*
X158700000Y-106400000D02*
X158700000Y-106700000D01*
D18*
X179200000Y-135200000D02*
X179200000Y-115800000D01*
X177800000Y-136600000D02*
X179200000Y-135200000D01*
X144600000Y-136600000D02*
X177800000Y-136600000D01*
X144000000Y-136000000D02*
X144600000Y-136600000D01*
X144000000Y-130600000D02*
X144000000Y-136000000D01*
X141600000Y-128200000D02*
X144000000Y-130600000D01*
X141600000Y-115000000D02*
X141600000Y-128200000D01*
X142200000Y-114400000D02*
X141600000Y-115000000D01*
X145000000Y-114400000D02*
X142200000Y-114400000D01*
D23*
G36*
X151700000Y-107800000D02*
X151707879Y-107838906D01*
X151730273Y-107871681D01*
X151763654Y-107893161D01*
X151800000Y-107900000D01*
X157500000Y-107900000D01*
X157500000Y-112900000D01*
X147900000Y-112900000D01*
X147900000Y-99400000D01*
X151700000Y-99400000D01*
X151700000Y-107800000D01*
X151700000Y-107800000D01*
G37*
X151700000Y-107800000D02*
X151707879Y-107838906D01*
X151730273Y-107871681D01*
X151763654Y-107893161D01*
X151800000Y-107900000D01*
X157500000Y-107900000D01*
X157500000Y-112900000D01*
X147900000Y-112900000D01*
X147900000Y-99400000D01*
X151700000Y-99400000D01*
X151700000Y-107800000D01*
G36*
X156700000Y-105200000D02*
X156707879Y-105238906D01*
X156730273Y-105271681D01*
X156763654Y-105293161D01*
X156800000Y-105300000D01*
X157100000Y-105300000D01*
X157100000Y-105637121D01*
X157049296Y-105711329D01*
X157017164Y-105870000D01*
X157017164Y-106930000D01*
X157045056Y-107078231D01*
X157100000Y-107163617D01*
X157100000Y-107300000D01*
X153500000Y-107300000D01*
X153500000Y-99300000D01*
X156700000Y-99300000D01*
X156700000Y-105200000D01*
X156700000Y-105200000D01*
G37*
X156700000Y-105200000D02*
X156707879Y-105238906D01*
X156730273Y-105271681D01*
X156763654Y-105293161D01*
X156800000Y-105300000D01*
X157100000Y-105300000D01*
X157100000Y-105637121D01*
X157049296Y-105711329D01*
X157017164Y-105870000D01*
X157017164Y-106930000D01*
X157045056Y-107078231D01*
X157100000Y-107163617D01*
X157100000Y-107300000D01*
X153500000Y-107300000D01*
X153500000Y-99300000D01*
X156700000Y-99300000D01*
X156700000Y-105200000D01*
G36*
X178898443Y-97538071D02*
X179236227Y-97763771D01*
X179461929Y-98101557D01*
X179550000Y-98544320D01*
X179550000Y-115187384D01*
X179339850Y-115100122D01*
X179061372Y-115099879D01*
X178804000Y-115206223D01*
X178606915Y-115402964D01*
X178500122Y-115660150D01*
X178499879Y-115938628D01*
X178500000Y-115938921D01*
X178500000Y-134910050D01*
X177510050Y-135900000D01*
X167538921Y-135900000D01*
X167796000Y-135793777D01*
X167993085Y-135597036D01*
X168099878Y-135339850D01*
X168100121Y-135061372D01*
X168100000Y-135061079D01*
X168100000Y-133975511D01*
X169670000Y-133975511D01*
X169670000Y-134024489D01*
X169765151Y-134502843D01*
X170036117Y-134908372D01*
X170441646Y-135179338D01*
X170920000Y-135274489D01*
X171398354Y-135179338D01*
X171803883Y-134908372D01*
X172074849Y-134502843D01*
X172134183Y-134204550D01*
X172328335Y-134204550D01*
X172492756Y-134622049D01*
X172804431Y-134944847D01*
X173215911Y-135123800D01*
X173255451Y-135131662D01*
X173435000Y-135074709D01*
X173435000Y-134025000D01*
X173485000Y-134025000D01*
X173485000Y-135074709D01*
X173664549Y-135131662D01*
X173704089Y-135123800D01*
X174115569Y-134944847D01*
X174427244Y-134622049D01*
X174591665Y-134204550D01*
X174534731Y-134025000D01*
X173485000Y-134025000D01*
X173435000Y-134025000D01*
X172385269Y-134025000D01*
X172328335Y-134204550D01*
X172134183Y-134204550D01*
X172170000Y-134024489D01*
X172170000Y-133975511D01*
X172134184Y-133795450D01*
X172328335Y-133795450D01*
X172385269Y-133975000D01*
X173435000Y-133975000D01*
X173435000Y-132925291D01*
X173485000Y-132925291D01*
X173485000Y-133975000D01*
X174534731Y-133975000D01*
X174591665Y-133795450D01*
X174427244Y-133377951D01*
X174207148Y-133150000D01*
X174742164Y-133150000D01*
X174742164Y-134850000D01*
X174770056Y-134998231D01*
X174857660Y-135134372D01*
X174991329Y-135225704D01*
X175150000Y-135257836D01*
X176850000Y-135257836D01*
X176998231Y-135229944D01*
X177134372Y-135142340D01*
X177225704Y-135008671D01*
X177257836Y-134850000D01*
X177257836Y-133150000D01*
X177229944Y-133001769D01*
X177142340Y-132865628D01*
X177008671Y-132774296D01*
X176850000Y-132742164D01*
X175150000Y-132742164D01*
X175001769Y-132770056D01*
X174865628Y-132857660D01*
X174774296Y-132991329D01*
X174742164Y-133150000D01*
X174207148Y-133150000D01*
X174115569Y-133055153D01*
X173704089Y-132876200D01*
X173664549Y-132868338D01*
X173485000Y-132925291D01*
X173435000Y-132925291D01*
X173255451Y-132868338D01*
X173215911Y-132876200D01*
X172804431Y-133055153D01*
X172492756Y-133377951D01*
X172328335Y-133795450D01*
X172134184Y-133795450D01*
X172074849Y-133497157D01*
X171803883Y-133091628D01*
X171398354Y-132820662D01*
X170920000Y-132725511D01*
X170441646Y-132820662D01*
X170036117Y-133091628D01*
X169765151Y-133497157D01*
X169670000Y-133975511D01*
X168100000Y-133975511D01*
X168100000Y-129800000D01*
X168100121Y-129661372D01*
X167993777Y-129404000D01*
X167797036Y-129206915D01*
X167539850Y-129100122D01*
X167261372Y-129099879D01*
X167004000Y-129206223D01*
X166806915Y-129402964D01*
X166700122Y-129660150D01*
X166699879Y-129938628D01*
X166700000Y-129938921D01*
X166700000Y-135199962D01*
X166699879Y-135338628D01*
X166806223Y-135596000D01*
X167002964Y-135793085D01*
X167260150Y-135899878D01*
X167399962Y-135900000D01*
X144889950Y-135900000D01*
X144700000Y-135710050D01*
X144700000Y-133150000D01*
X145242164Y-133150000D01*
X145242164Y-134850000D01*
X145270056Y-134998231D01*
X145357660Y-135134372D01*
X145491329Y-135225704D01*
X145650000Y-135257836D01*
X147350000Y-135257836D01*
X147498231Y-135229944D01*
X147634372Y-135142340D01*
X147725704Y-135008671D01*
X147757836Y-134850000D01*
X147757836Y-133975511D01*
X147790000Y-133975511D01*
X147790000Y-134024489D01*
X147885151Y-134502843D01*
X148156117Y-134908372D01*
X148561646Y-135179338D01*
X149040000Y-135274489D01*
X149518354Y-135179338D01*
X149923883Y-134908372D01*
X150194849Y-134502843D01*
X150290000Y-134024489D01*
X150290000Y-133975511D01*
X150330000Y-133975511D01*
X150330000Y-134024489D01*
X150425151Y-134502843D01*
X150696117Y-134908372D01*
X151101646Y-135179338D01*
X151580000Y-135274489D01*
X152058354Y-135179338D01*
X152463883Y-134908372D01*
X152734849Y-134502843D01*
X152830000Y-134024489D01*
X152830000Y-133975511D01*
X152870000Y-133975511D01*
X152870000Y-134024489D01*
X152965151Y-134502843D01*
X153236117Y-134908372D01*
X153641646Y-135179338D01*
X154120000Y-135274489D01*
X154598354Y-135179338D01*
X155003883Y-134908372D01*
X155274849Y-134502843D01*
X155370000Y-134024489D01*
X155370000Y-133975511D01*
X155410000Y-133975511D01*
X155410000Y-134024489D01*
X155505151Y-134502843D01*
X155776117Y-134908372D01*
X156181646Y-135179338D01*
X156660000Y-135274489D01*
X157138354Y-135179338D01*
X157543883Y-134908372D01*
X157814849Y-134502843D01*
X157910000Y-134024489D01*
X157910000Y-133975511D01*
X157814849Y-133497157D01*
X157543883Y-133091628D01*
X157360000Y-132968761D01*
X157360000Y-128629950D01*
X158289950Y-127700000D01*
X160000000Y-127700000D01*
X160137375Y-127672675D01*
X159555024Y-128255026D01*
X159403283Y-128482122D01*
X159403283Y-128482123D01*
X159349999Y-128750001D01*
X159349999Y-132755348D01*
X159200000Y-132725511D01*
X158721646Y-132820662D01*
X158316117Y-133091628D01*
X158045151Y-133497157D01*
X157950000Y-133975511D01*
X157950000Y-134024489D01*
X158045151Y-134502843D01*
X158316117Y-134908372D01*
X158721646Y-135179338D01*
X159200000Y-135274489D01*
X159678354Y-135179338D01*
X160083883Y-134908372D01*
X160354849Y-134502843D01*
X160450000Y-134024489D01*
X160450000Y-133975511D01*
X160410918Y-133779032D01*
X160544974Y-133644976D01*
X160560315Y-133622017D01*
X160490000Y-133975511D01*
X160490000Y-134024489D01*
X160585151Y-134502843D01*
X160856117Y-134908372D01*
X161261646Y-135179338D01*
X161740000Y-135274489D01*
X162218354Y-135179338D01*
X162623883Y-134908372D01*
X162894849Y-134502843D01*
X162954183Y-134204550D01*
X163148335Y-134204550D01*
X163312756Y-134622049D01*
X163624431Y-134944847D01*
X164035911Y-135123800D01*
X164075451Y-135131662D01*
X164255000Y-135074709D01*
X164255000Y-134025000D01*
X164305000Y-134025000D01*
X164305000Y-135074709D01*
X164484549Y-135131662D01*
X164524089Y-135123800D01*
X164935569Y-134944847D01*
X165247244Y-134622049D01*
X165411665Y-134204550D01*
X165354731Y-134025000D01*
X164305000Y-134025000D01*
X164255000Y-134025000D01*
X163205269Y-134025000D01*
X163148335Y-134204550D01*
X162954183Y-134204550D01*
X162990000Y-134024489D01*
X162990000Y-133975511D01*
X162954184Y-133795450D01*
X163148335Y-133795450D01*
X163205269Y-133975000D01*
X164255000Y-133975000D01*
X164255000Y-132925291D01*
X164305000Y-132925291D01*
X164305000Y-133975000D01*
X165354731Y-133975000D01*
X165411665Y-133795450D01*
X165247244Y-133377951D01*
X164935569Y-133055153D01*
X164524089Y-132876200D01*
X164484549Y-132868338D01*
X164305000Y-132925291D01*
X164255000Y-132925291D01*
X164075451Y-132868338D01*
X164035911Y-132876200D01*
X163624431Y-133055153D01*
X163312756Y-133377951D01*
X163148335Y-133795450D01*
X162954184Y-133795450D01*
X162950918Y-133779032D01*
X163084974Y-133644976D01*
X163236715Y-133417880D01*
X163289999Y-133150001D01*
X163289999Y-129499951D01*
X165089949Y-127700000D01*
X165199962Y-127700000D01*
X165338628Y-127700121D01*
X165596000Y-127593777D01*
X165793085Y-127397036D01*
X165899878Y-127139850D01*
X165900121Y-126861372D01*
X165793777Y-126604000D01*
X165597036Y-126406915D01*
X165339850Y-126300122D01*
X165061372Y-126299879D01*
X165061079Y-126300000D01*
X164800000Y-126300000D01*
X164532122Y-126353284D01*
X164305025Y-126505025D01*
X164305023Y-126505028D01*
X163900079Y-126909972D01*
X163900121Y-126861372D01*
X163793777Y-126604000D01*
X163597036Y-126406915D01*
X163339850Y-126300122D01*
X163061372Y-126299879D01*
X163061079Y-126300000D01*
X161800000Y-126300000D01*
X161662624Y-126327326D01*
X162294543Y-125695406D01*
X162393085Y-125597036D01*
X162474901Y-125400000D01*
X171242164Y-125400000D01*
X171242164Y-127100000D01*
X171270056Y-127248231D01*
X171357660Y-127384372D01*
X171491329Y-127475704D01*
X171650000Y-127507836D01*
X173350000Y-127507836D01*
X173498231Y-127479944D01*
X173634372Y-127392340D01*
X173725704Y-127258671D01*
X173757836Y-127100000D01*
X173757836Y-126140000D01*
X175475511Y-126140000D01*
X175570662Y-126618354D01*
X175841628Y-127023883D01*
X176247157Y-127294849D01*
X176725511Y-127390000D01*
X176774489Y-127390000D01*
X177252843Y-127294849D01*
X177658372Y-127023883D01*
X177929338Y-126618354D01*
X178024489Y-126140000D01*
X177929338Y-125661646D01*
X177658372Y-125256117D01*
X177252843Y-124985151D01*
X176774489Y-124890000D01*
X176725511Y-124890000D01*
X176247157Y-124985151D01*
X175841628Y-125256117D01*
X175570662Y-125661646D01*
X175475511Y-126140000D01*
X173757836Y-126140000D01*
X173757836Y-125400000D01*
X173729944Y-125251769D01*
X173642340Y-125115628D01*
X173508671Y-125024296D01*
X173350000Y-124992164D01*
X171650000Y-124992164D01*
X171501769Y-125020056D01*
X171365628Y-125107660D01*
X171274296Y-125241329D01*
X171242164Y-125400000D01*
X162474901Y-125400000D01*
X162499878Y-125339850D01*
X162500121Y-125061372D01*
X162393777Y-124804000D01*
X162197036Y-124606915D01*
X161939850Y-124500122D01*
X161661372Y-124499879D01*
X161404000Y-124606223D01*
X161206915Y-124802964D01*
X161206793Y-124803258D01*
X159710050Y-126300000D01*
X158000000Y-126300000D01*
X157732122Y-126353284D01*
X157505025Y-126505025D01*
X156165025Y-127845025D01*
X156013284Y-128072121D01*
X155976902Y-128255026D01*
X155960000Y-128340000D01*
X155960000Y-132968761D01*
X155776117Y-133091628D01*
X155505151Y-133497157D01*
X155410000Y-133975511D01*
X155370000Y-133975511D01*
X155274849Y-133497157D01*
X155003883Y-133091628D01*
X154598354Y-132820662D01*
X154120000Y-132725511D01*
X153641646Y-132820662D01*
X153236117Y-133091628D01*
X152965151Y-133497157D01*
X152870000Y-133975511D01*
X152830000Y-133975511D01*
X152734849Y-133497157D01*
X152463883Y-133091628D01*
X152058354Y-132820662D01*
X151580000Y-132725511D01*
X151101646Y-132820662D01*
X150696117Y-133091628D01*
X150425151Y-133497157D01*
X150330000Y-133975511D01*
X150290000Y-133975511D01*
X150194849Y-133497157D01*
X149923883Y-133091628D01*
X149518354Y-132820662D01*
X149040000Y-132725511D01*
X148561646Y-132820662D01*
X148156117Y-133091628D01*
X147885151Y-133497157D01*
X147790000Y-133975511D01*
X147757836Y-133975511D01*
X147757836Y-133150000D01*
X147729944Y-133001769D01*
X147642340Y-132865628D01*
X147508671Y-132774296D01*
X147350000Y-132742164D01*
X145650000Y-132742164D01*
X145501769Y-132770056D01*
X145365628Y-132857660D01*
X145274296Y-132991329D01*
X145242164Y-133150000D01*
X144700000Y-133150000D01*
X144700000Y-130600005D01*
X144700001Y-130600000D01*
X144646716Y-130332121D01*
X144555762Y-130196000D01*
X144494975Y-130105025D01*
X144494972Y-130105023D01*
X142300000Y-127910050D01*
X142300000Y-125840000D01*
X142850000Y-125840000D01*
X142850000Y-126649673D01*
X142895672Y-126759936D01*
X142980063Y-126844328D01*
X143090326Y-126890000D01*
X143900000Y-126890000D01*
X143975000Y-126815000D01*
X143975000Y-125765000D01*
X144025000Y-125765000D01*
X144025000Y-126815000D01*
X144100000Y-126890000D01*
X144909674Y-126890000D01*
X145019937Y-126844328D01*
X145104328Y-126759936D01*
X145150000Y-126649673D01*
X145150000Y-125840000D01*
X145075000Y-125765000D01*
X144025000Y-125765000D01*
X143975000Y-125765000D01*
X142925000Y-125765000D01*
X142850000Y-125840000D01*
X142300000Y-125840000D01*
X142300000Y-124830327D01*
X142850000Y-124830327D01*
X142850000Y-125640000D01*
X142925000Y-125715000D01*
X143975000Y-125715000D01*
X143975000Y-124665000D01*
X144025000Y-124665000D01*
X144025000Y-125715000D01*
X145075000Y-125715000D01*
X145150000Y-125640000D01*
X145150000Y-124830327D01*
X145104328Y-124720064D01*
X145019937Y-124635672D01*
X144909674Y-124590000D01*
X144100000Y-124590000D01*
X144025000Y-124665000D01*
X143975000Y-124665000D01*
X143900000Y-124590000D01*
X143090326Y-124590000D01*
X142980063Y-124635672D01*
X142895672Y-124720064D01*
X142850000Y-124830327D01*
X142300000Y-124830327D01*
X142300000Y-123200000D01*
X142725511Y-123200000D01*
X142820662Y-123678354D01*
X143091628Y-124083883D01*
X143497157Y-124354849D01*
X143975511Y-124450000D01*
X144024489Y-124450000D01*
X144502843Y-124354849D01*
X144908372Y-124083883D01*
X145021517Y-123914549D01*
X171368338Y-123914549D01*
X171376200Y-123954089D01*
X171555153Y-124365569D01*
X171877951Y-124677244D01*
X172295450Y-124841665D01*
X172475000Y-124784731D01*
X172475000Y-123735000D01*
X172525000Y-123735000D01*
X172525000Y-124784731D01*
X172704550Y-124841665D01*
X173122049Y-124677244D01*
X173444847Y-124365569D01*
X173623800Y-123954089D01*
X173631662Y-123914549D01*
X173574709Y-123735000D01*
X172525000Y-123735000D01*
X172475000Y-123735000D01*
X171425291Y-123735000D01*
X171368338Y-123914549D01*
X145021517Y-123914549D01*
X145179338Y-123678354D01*
X145213730Y-123505451D01*
X171368338Y-123505451D01*
X171425291Y-123685000D01*
X172475000Y-123685000D01*
X172475000Y-122635269D01*
X172525000Y-122635269D01*
X172525000Y-123685000D01*
X173574709Y-123685000D01*
X173631662Y-123505451D01*
X173623800Y-123465911D01*
X173444847Y-123054431D01*
X173129552Y-122750000D01*
X175492164Y-122750000D01*
X175492164Y-124450000D01*
X175520056Y-124598231D01*
X175607660Y-124734372D01*
X175741329Y-124825704D01*
X175900000Y-124857836D01*
X177600000Y-124857836D01*
X177748231Y-124829944D01*
X177884372Y-124742340D01*
X177975704Y-124608671D01*
X178007836Y-124450000D01*
X178007836Y-122750000D01*
X177979944Y-122601769D01*
X177892340Y-122465628D01*
X177758671Y-122374296D01*
X177600000Y-122342164D01*
X175900000Y-122342164D01*
X175751769Y-122370056D01*
X175615628Y-122457660D01*
X175524296Y-122591329D01*
X175492164Y-122750000D01*
X173129552Y-122750000D01*
X173122049Y-122742756D01*
X172704550Y-122578335D01*
X172525000Y-122635269D01*
X172475000Y-122635269D01*
X172295450Y-122578335D01*
X171877951Y-122742756D01*
X171555153Y-123054431D01*
X171376200Y-123465911D01*
X171368338Y-123505451D01*
X145213730Y-123505451D01*
X145274489Y-123200000D01*
X145179338Y-122721646D01*
X144908372Y-122316117D01*
X144502843Y-122045151D01*
X144024489Y-121950000D01*
X143975511Y-121950000D01*
X143497157Y-122045151D01*
X143091628Y-122316117D01*
X142820662Y-122721646D01*
X142725511Y-123200000D01*
X142300000Y-123200000D01*
X142300000Y-120660000D01*
X142725511Y-120660000D01*
X142820662Y-121138354D01*
X143091628Y-121543883D01*
X143497157Y-121814849D01*
X143975511Y-121910000D01*
X144024489Y-121910000D01*
X144502843Y-121814849D01*
X144908372Y-121543883D01*
X145158192Y-121170000D01*
X171225511Y-121170000D01*
X171320662Y-121648354D01*
X171591628Y-122053883D01*
X171997157Y-122324849D01*
X172475511Y-122420000D01*
X172524489Y-122420000D01*
X173002843Y-122324849D01*
X173408372Y-122053883D01*
X173679338Y-121648354D01*
X173774489Y-121170000D01*
X173679338Y-120691646D01*
X173408372Y-120286117D01*
X173002843Y-120015151D01*
X172524489Y-119920000D01*
X172475511Y-119920000D01*
X171997157Y-120015151D01*
X171591628Y-120286117D01*
X171320662Y-120691646D01*
X171225511Y-121170000D01*
X145158192Y-121170000D01*
X145179338Y-121138354D01*
X145274489Y-120660000D01*
X145179338Y-120181646D01*
X144908372Y-119776117D01*
X144502843Y-119505151D01*
X144024489Y-119410000D01*
X143975511Y-119410000D01*
X143497157Y-119505151D01*
X143091628Y-119776117D01*
X142820662Y-120181646D01*
X142725511Y-120660000D01*
X142300000Y-120660000D01*
X142300000Y-118120000D01*
X142725511Y-118120000D01*
X142820662Y-118598354D01*
X143091628Y-119003883D01*
X143497157Y-119274849D01*
X143975511Y-119370000D01*
X144024489Y-119370000D01*
X144502843Y-119274849D01*
X144908372Y-119003883D01*
X145179338Y-118598354D01*
X145274489Y-118120000D01*
X145179338Y-117641646D01*
X144908372Y-117236117D01*
X144502843Y-116965151D01*
X144024489Y-116870000D01*
X143975511Y-116870000D01*
X143497157Y-116965151D01*
X143091628Y-117236117D01*
X142820662Y-117641646D01*
X142725511Y-118120000D01*
X142300000Y-118120000D01*
X142300000Y-115538628D01*
X163899879Y-115538628D01*
X164006223Y-115796000D01*
X164202964Y-115993085D01*
X164460150Y-116099878D01*
X164512431Y-116099924D01*
X164732121Y-116246716D01*
X165000000Y-116300001D01*
X165000005Y-116300000D01*
X170199962Y-116300000D01*
X170338628Y-116300121D01*
X170596000Y-116193777D01*
X170793085Y-115997036D01*
X170899878Y-115739850D01*
X170900121Y-115461372D01*
X170793777Y-115204000D01*
X170597036Y-115006915D01*
X170339850Y-114900122D01*
X170061372Y-114899879D01*
X170061079Y-114900000D01*
X165287455Y-114900000D01*
X165067879Y-114753284D01*
X164800000Y-114700000D01*
X164600038Y-114700000D01*
X164461372Y-114699879D01*
X164204000Y-114806223D01*
X164006915Y-115002964D01*
X163900122Y-115260150D01*
X163899879Y-115538628D01*
X142300000Y-115538628D01*
X142300000Y-115289950D01*
X142489950Y-115100000D01*
X144999962Y-115100000D01*
X145138628Y-115100121D01*
X145396000Y-114993777D01*
X145593085Y-114797036D01*
X145699878Y-114539850D01*
X145700121Y-114261372D01*
X145593777Y-114004000D01*
X145397036Y-113806915D01*
X145139850Y-113700122D01*
X144861372Y-113699879D01*
X144861079Y-113700000D01*
X142200000Y-113700000D01*
X141932121Y-113753284D01*
X141705025Y-113905025D01*
X141105025Y-114505025D01*
X140953284Y-114732121D01*
X140940578Y-114796000D01*
X140900000Y-115000000D01*
X140900000Y-128200000D01*
X140953284Y-128467879D01*
X141105025Y-128694975D01*
X143300000Y-130889949D01*
X143300000Y-136000000D01*
X143353284Y-136267879D01*
X143505025Y-136494975D01*
X144105025Y-137094975D01*
X144332121Y-137246716D01*
X144600000Y-137300000D01*
X177800000Y-137300000D01*
X178067879Y-137246716D01*
X178294975Y-137094975D01*
X179550000Y-135839950D01*
X179550000Y-136455680D01*
X179461929Y-136898443D01*
X179236227Y-137236229D01*
X178898443Y-137461929D01*
X178455680Y-137550000D01*
X139550000Y-137550000D01*
X139547160Y-137550565D01*
X139101557Y-137461929D01*
X138763771Y-137236227D01*
X138538071Y-136898443D01*
X138450000Y-136455680D01*
X138450000Y-132326765D01*
X139149715Y-132326765D01*
X139400383Y-132933429D01*
X139864130Y-133397986D01*
X140470355Y-133649713D01*
X141126765Y-133650285D01*
X141733429Y-133399617D01*
X142197986Y-132935870D01*
X142449713Y-132329645D01*
X142450285Y-131673235D01*
X142199617Y-131066571D01*
X141735870Y-130602014D01*
X141129645Y-130350287D01*
X140473235Y-130349715D01*
X139866571Y-130600383D01*
X139402014Y-131064130D01*
X139150287Y-131670355D01*
X139149715Y-132326765D01*
X138450000Y-132326765D01*
X138450000Y-112140000D01*
X142525511Y-112140000D01*
X142620662Y-112618354D01*
X142891628Y-113023883D01*
X143297157Y-113294849D01*
X143775511Y-113390000D01*
X143824489Y-113390000D01*
X144302843Y-113294849D01*
X144708372Y-113023883D01*
X144979338Y-112618354D01*
X145074489Y-112140000D01*
X144979338Y-111661646D01*
X144708372Y-111256117D01*
X144302843Y-110985151D01*
X143824489Y-110890000D01*
X143775511Y-110890000D01*
X143297157Y-110985151D01*
X142891628Y-111256117D01*
X142620662Y-111661646D01*
X142525511Y-112140000D01*
X138450000Y-112140000D01*
X138450000Y-109804549D01*
X142668338Y-109804549D01*
X142676200Y-109844089D01*
X142855153Y-110255569D01*
X143177951Y-110567244D01*
X143595450Y-110731665D01*
X143775000Y-110674731D01*
X143775000Y-109625000D01*
X143825000Y-109625000D01*
X143825000Y-110674731D01*
X144004550Y-110731665D01*
X144422049Y-110567244D01*
X144744847Y-110255569D01*
X144923800Y-109844089D01*
X144931662Y-109804549D01*
X144874709Y-109625000D01*
X143825000Y-109625000D01*
X143775000Y-109625000D01*
X142725291Y-109625000D01*
X142668338Y-109804549D01*
X138450000Y-109804549D01*
X138450000Y-109395451D01*
X142668338Y-109395451D01*
X142725291Y-109575000D01*
X143775000Y-109575000D01*
X143775000Y-108525269D01*
X143825000Y-108525269D01*
X143825000Y-109575000D01*
X144874709Y-109575000D01*
X144931662Y-109395451D01*
X144923800Y-109355911D01*
X144744847Y-108944431D01*
X144422049Y-108632756D01*
X144004550Y-108468335D01*
X143825000Y-108525269D01*
X143775000Y-108525269D01*
X143595450Y-108468335D01*
X143177951Y-108632756D01*
X142855153Y-108944431D01*
X142676200Y-109355911D01*
X142668338Y-109395451D01*
X138450000Y-109395451D01*
X138450000Y-106210000D01*
X142542164Y-106210000D01*
X142542164Y-107910000D01*
X142570056Y-108058231D01*
X142657660Y-108194372D01*
X142791329Y-108285704D01*
X142950000Y-108317836D01*
X144650000Y-108317836D01*
X144798231Y-108289944D01*
X144934372Y-108202340D01*
X145025704Y-108068671D01*
X145057836Y-107910000D01*
X145057836Y-106210000D01*
X145029944Y-106061769D01*
X144942340Y-105925628D01*
X144808671Y-105834296D01*
X144650000Y-105802164D01*
X142950000Y-105802164D01*
X142801769Y-105830056D01*
X142665628Y-105917660D01*
X142574296Y-106051329D01*
X142542164Y-106210000D01*
X138450000Y-106210000D01*
X138450000Y-100044319D01*
X138598053Y-99300000D01*
X147400000Y-99300000D01*
X147400000Y-113000000D01*
X147427356Y-113145383D01*
X147513277Y-113278908D01*
X147644378Y-113368486D01*
X147800000Y-113400000D01*
X157600000Y-113400000D01*
X157745383Y-113372644D01*
X157878908Y-113286723D01*
X157968486Y-113155622D01*
X158000000Y-113000000D01*
X158000000Y-111408297D01*
X158040326Y-111425000D01*
X158400000Y-111425000D01*
X158475000Y-111350000D01*
X158475000Y-110775000D01*
X158525000Y-110775000D01*
X158525000Y-111350000D01*
X158600000Y-111425000D01*
X158959674Y-111425000D01*
X159069937Y-111379328D01*
X159154328Y-111294936D01*
X159200000Y-111184673D01*
X159200000Y-110850000D01*
X159125000Y-110775000D01*
X158525000Y-110775000D01*
X158475000Y-110775000D01*
X158455000Y-110775000D01*
X158455000Y-110725000D01*
X158475000Y-110725000D01*
X158475000Y-110150000D01*
X158525000Y-110150000D01*
X158525000Y-110725000D01*
X159125000Y-110725000D01*
X159200000Y-110650000D01*
X159200000Y-110636407D01*
X170898949Y-110636407D01*
X171039437Y-110849577D01*
X171610665Y-111102176D01*
X172235075Y-111116946D01*
X172817607Y-110891642D01*
X172880563Y-110849577D01*
X173021051Y-110636407D01*
X175978949Y-110636407D01*
X176119437Y-110849577D01*
X176690665Y-111102176D01*
X177315075Y-111116946D01*
X177897607Y-110891642D01*
X177960563Y-110849577D01*
X178101051Y-110636407D01*
X177040000Y-109575355D01*
X175978949Y-110636407D01*
X173021051Y-110636407D01*
X171960000Y-109575355D01*
X170898949Y-110636407D01*
X159200000Y-110636407D01*
X159200000Y-110315327D01*
X159154328Y-110205064D01*
X159069937Y-110120672D01*
X158959674Y-110075000D01*
X158600000Y-110075000D01*
X158525000Y-110150000D01*
X158475000Y-110150000D01*
X158400000Y-110075000D01*
X158040326Y-110075000D01*
X158000000Y-110091703D01*
X158000000Y-109815075D01*
X170383054Y-109815075D01*
X170608358Y-110397607D01*
X170650423Y-110460563D01*
X170863593Y-110601051D01*
X171924645Y-109540000D01*
X171995355Y-109540000D01*
X173056407Y-110601051D01*
X173269577Y-110460563D01*
X173522176Y-109889335D01*
X173523932Y-109815075D01*
X175463054Y-109815075D01*
X175688358Y-110397607D01*
X175730423Y-110460563D01*
X175943593Y-110601051D01*
X177004645Y-109540000D01*
X177075355Y-109540000D01*
X178136407Y-110601051D01*
X178349577Y-110460563D01*
X178602176Y-109889335D01*
X178616946Y-109264925D01*
X178391642Y-108682393D01*
X178349577Y-108619437D01*
X178136407Y-108478949D01*
X177075355Y-109540000D01*
X177004645Y-109540000D01*
X175943593Y-108478949D01*
X175730423Y-108619437D01*
X175477824Y-109190665D01*
X175463054Y-109815075D01*
X173523932Y-109815075D01*
X173536946Y-109264925D01*
X173311642Y-108682393D01*
X173269577Y-108619437D01*
X173056407Y-108478949D01*
X171995355Y-109540000D01*
X171924645Y-109540000D01*
X170863593Y-108478949D01*
X170650423Y-108619437D01*
X170397824Y-109190665D01*
X170383054Y-109815075D01*
X158000000Y-109815075D01*
X158000000Y-108700000D01*
X158075000Y-108700000D01*
X158075000Y-109189674D01*
X158120672Y-109299937D01*
X158205064Y-109384328D01*
X158315327Y-109430000D01*
X158600000Y-109430000D01*
X158675000Y-109355000D01*
X158675000Y-108625000D01*
X158725000Y-108625000D01*
X158725000Y-109355000D01*
X158800000Y-109430000D01*
X159084673Y-109430000D01*
X159194936Y-109384328D01*
X159279328Y-109299937D01*
X159325000Y-109189674D01*
X159325000Y-108700000D01*
X159250000Y-108625000D01*
X158725000Y-108625000D01*
X158675000Y-108625000D01*
X158150000Y-108625000D01*
X158075000Y-108700000D01*
X158000000Y-108700000D01*
X158000000Y-108010326D01*
X158075000Y-108010326D01*
X158075000Y-108500000D01*
X158150000Y-108575000D01*
X158675000Y-108575000D01*
X158675000Y-107845000D01*
X158725000Y-107845000D01*
X158725000Y-108575000D01*
X159250000Y-108575000D01*
X159325000Y-108500000D01*
X159325000Y-108443593D01*
X170898949Y-108443593D01*
X171960000Y-109504645D01*
X173021051Y-108443593D01*
X172880563Y-108230423D01*
X172309335Y-107977824D01*
X171684925Y-107963054D01*
X171102393Y-108188358D01*
X171039437Y-108230423D01*
X170898949Y-108443593D01*
X159325000Y-108443593D01*
X159325000Y-108010326D01*
X159279328Y-107900063D01*
X159194936Y-107815672D01*
X159084673Y-107770000D01*
X158800000Y-107770000D01*
X158725000Y-107845000D01*
X158675000Y-107845000D01*
X158600000Y-107770000D01*
X158315327Y-107770000D01*
X158205064Y-107815672D01*
X158120672Y-107900063D01*
X158075000Y-108010326D01*
X158000000Y-108010326D01*
X158000000Y-107800000D01*
X157972644Y-107654617D01*
X157886723Y-107521092D01*
X157755622Y-107431514D01*
X157600000Y-107400000D01*
X157600000Y-107230000D01*
X157650000Y-107230000D01*
X157725000Y-107155000D01*
X157725000Y-106425000D01*
X157705000Y-106425000D01*
X157705000Y-106375000D01*
X157725000Y-106375000D01*
X157725000Y-105645000D01*
X157775000Y-105645000D01*
X157775000Y-106375000D01*
X157795000Y-106375000D01*
X157795000Y-106425000D01*
X157775000Y-106425000D01*
X157775000Y-107155000D01*
X157850000Y-107230000D01*
X158105532Y-107230000D01*
X158216329Y-107305704D01*
X158375000Y-107337836D01*
X159025000Y-107337836D01*
X159062785Y-107330726D01*
X172829711Y-107330726D01*
X173083418Y-107944743D01*
X173552786Y-108414931D01*
X174166359Y-108669709D01*
X174830726Y-108670289D01*
X175379371Y-108443593D01*
X175978949Y-108443593D01*
X177040000Y-109504645D01*
X178101051Y-108443593D01*
X177960563Y-108230423D01*
X177389335Y-107977824D01*
X176764925Y-107963054D01*
X176182393Y-108188358D01*
X176119437Y-108230423D01*
X175978949Y-108443593D01*
X175379371Y-108443593D01*
X175444743Y-108416582D01*
X175914931Y-107947214D01*
X176169709Y-107333641D01*
X176170289Y-106669274D01*
X175916582Y-106055257D01*
X175447214Y-105585069D01*
X175378189Y-105556407D01*
X175978949Y-105556407D01*
X176119437Y-105769577D01*
X176690665Y-106022176D01*
X177315075Y-106036946D01*
X177897607Y-105811642D01*
X177960563Y-105769577D01*
X178101051Y-105556407D01*
X177040000Y-104495355D01*
X175978949Y-105556407D01*
X175378189Y-105556407D01*
X174833641Y-105330291D01*
X174169274Y-105329711D01*
X173555257Y-105583418D01*
X173085069Y-106052786D01*
X172830291Y-106666359D01*
X172829711Y-107330726D01*
X159062785Y-107330726D01*
X159173231Y-107309944D01*
X159309372Y-107222340D01*
X159392963Y-107100000D01*
X160199962Y-107100000D01*
X160338628Y-107100121D01*
X160596000Y-106993777D01*
X160793085Y-106797036D01*
X160899878Y-106539850D01*
X160900121Y-106261372D01*
X160793777Y-106004000D01*
X160597036Y-105806915D01*
X160339850Y-105700122D01*
X160061372Y-105699879D01*
X160061079Y-105700000D01*
X159390936Y-105700000D01*
X159317340Y-105585628D01*
X159274574Y-105556407D01*
X170898949Y-105556407D01*
X171039437Y-105769577D01*
X171610665Y-106022176D01*
X172235075Y-106036946D01*
X172817607Y-105811642D01*
X172880563Y-105769577D01*
X173021051Y-105556407D01*
X171960000Y-104495355D01*
X170898949Y-105556407D01*
X159274574Y-105556407D01*
X159183671Y-105494296D01*
X159025000Y-105462164D01*
X158375000Y-105462164D01*
X158226769Y-105490056D01*
X158102532Y-105570000D01*
X157850000Y-105570000D01*
X157775000Y-105645000D01*
X157725000Y-105645000D01*
X157650000Y-105570000D01*
X157600000Y-105570000D01*
X157600000Y-105200000D01*
X157576479Y-105075000D01*
X157650000Y-105075000D01*
X157725000Y-105000000D01*
X157725000Y-104425000D01*
X157775000Y-104425000D01*
X157775000Y-105000000D01*
X157850000Y-105075000D01*
X158209674Y-105075000D01*
X158319937Y-105029328D01*
X158404328Y-104944936D01*
X158450000Y-104834673D01*
X158450000Y-104735075D01*
X170383054Y-104735075D01*
X170608358Y-105317607D01*
X170650423Y-105380563D01*
X170863593Y-105521051D01*
X171924645Y-104460000D01*
X171995355Y-104460000D01*
X173056407Y-105521051D01*
X173269577Y-105380563D01*
X173522176Y-104809335D01*
X173523932Y-104735075D01*
X175463054Y-104735075D01*
X175688358Y-105317607D01*
X175730423Y-105380563D01*
X175943593Y-105521051D01*
X177004645Y-104460000D01*
X177075355Y-104460000D01*
X178136407Y-105521051D01*
X178349577Y-105380563D01*
X178602176Y-104809335D01*
X178616946Y-104184925D01*
X178391642Y-103602393D01*
X178349577Y-103539437D01*
X178136407Y-103398949D01*
X177075355Y-104460000D01*
X177004645Y-104460000D01*
X175943593Y-103398949D01*
X175730423Y-103539437D01*
X175477824Y-104110665D01*
X175463054Y-104735075D01*
X173523932Y-104735075D01*
X173536946Y-104184925D01*
X173311642Y-103602393D01*
X173269577Y-103539437D01*
X173056407Y-103398949D01*
X171995355Y-104460000D01*
X171924645Y-104460000D01*
X170863593Y-103398949D01*
X170650423Y-103539437D01*
X170397824Y-104110665D01*
X170383054Y-104735075D01*
X158450000Y-104735075D01*
X158450000Y-104500000D01*
X158375000Y-104425000D01*
X157775000Y-104425000D01*
X157725000Y-104425000D01*
X157705000Y-104425000D01*
X157705000Y-104375000D01*
X157725000Y-104375000D01*
X157725000Y-103800000D01*
X157775000Y-103800000D01*
X157775000Y-104375000D01*
X158375000Y-104375000D01*
X158450000Y-104300000D01*
X158450000Y-103965327D01*
X158404328Y-103855064D01*
X158319937Y-103770672D01*
X158209674Y-103725000D01*
X157850000Y-103725000D01*
X157775000Y-103800000D01*
X157725000Y-103800000D01*
X157650000Y-103725000D01*
X157290326Y-103725000D01*
X157200000Y-103762414D01*
X157200000Y-103363593D01*
X170898949Y-103363593D01*
X171960000Y-104424645D01*
X173021051Y-103363593D01*
X175978949Y-103363593D01*
X177040000Y-104424645D01*
X178101051Y-103363593D01*
X177960563Y-103150423D01*
X177389335Y-102897824D01*
X176764925Y-102883054D01*
X176182393Y-103108358D01*
X176119437Y-103150423D01*
X175978949Y-103363593D01*
X173021051Y-103363593D01*
X172880563Y-103150423D01*
X172309335Y-102897824D01*
X171684925Y-102883054D01*
X171102393Y-103108358D01*
X171039437Y-103150423D01*
X170898949Y-103363593D01*
X157200000Y-103363593D01*
X157200000Y-101938875D01*
X157232756Y-102022049D01*
X157544431Y-102344847D01*
X157955911Y-102523800D01*
X157995451Y-102531662D01*
X158175000Y-102474709D01*
X158175000Y-101425000D01*
X158225000Y-101425000D01*
X158225000Y-102474709D01*
X158404549Y-102531662D01*
X158444089Y-102523800D01*
X158855569Y-102344847D01*
X159167244Y-102022049D01*
X159331665Y-101604550D01*
X159274731Y-101425000D01*
X158225000Y-101425000D01*
X158175000Y-101425000D01*
X158155000Y-101425000D01*
X158155000Y-101375000D01*
X158175000Y-101375000D01*
X158175000Y-100325291D01*
X158225000Y-100325291D01*
X158225000Y-101375000D01*
X159274731Y-101375000D01*
X159331665Y-101195450D01*
X159167244Y-100777951D01*
X158855569Y-100455153D01*
X158790295Y-100426765D01*
X172849715Y-100426765D01*
X173100383Y-101033429D01*
X173564130Y-101497986D01*
X174170355Y-101749713D01*
X174826765Y-101750285D01*
X175433429Y-101499617D01*
X175897986Y-101035870D01*
X176149713Y-100429645D01*
X176150285Y-99773235D01*
X175899617Y-99166571D01*
X175435870Y-98702014D01*
X174829645Y-98450287D01*
X174173235Y-98449715D01*
X173566571Y-98700383D01*
X173102014Y-99164130D01*
X172850287Y-99770355D01*
X172849715Y-100426765D01*
X158790295Y-100426765D01*
X158444089Y-100276200D01*
X158404549Y-100268338D01*
X158225000Y-100325291D01*
X158175000Y-100325291D01*
X157995451Y-100268338D01*
X157955911Y-100276200D01*
X157544431Y-100455153D01*
X157232756Y-100777951D01*
X157200000Y-100861125D01*
X157200000Y-99200000D01*
X157172644Y-99054617D01*
X157086723Y-98921092D01*
X156955622Y-98831514D01*
X156800000Y-98800000D01*
X153400000Y-98800000D01*
X153254617Y-98827356D01*
X153121092Y-98913277D01*
X153031514Y-99044378D01*
X153000000Y-99200000D01*
X153000000Y-103610059D01*
X152897036Y-103506915D01*
X152767880Y-103453285D01*
X152767879Y-103453284D01*
X152767878Y-103453284D01*
X152639850Y-103400122D01*
X152500005Y-103400000D01*
X152500000Y-103399999D01*
X152499995Y-103400000D01*
X152361372Y-103399879D01*
X152232123Y-103453284D01*
X152232121Y-103453284D01*
X152232119Y-103453285D01*
X152200000Y-103466557D01*
X152200000Y-99300000D01*
X152172644Y-99154617D01*
X152086723Y-99021092D01*
X151955622Y-98931514D01*
X151800000Y-98900000D01*
X147800000Y-98900000D01*
X147654617Y-98927356D01*
X147521092Y-99013277D01*
X147431514Y-99144378D01*
X147400000Y-99300000D01*
X138598053Y-99300000D01*
X138652251Y-99027532D01*
X139203112Y-98203112D01*
X140027532Y-97652251D01*
X141044320Y-97450000D01*
X178455680Y-97450000D01*
X178898443Y-97538071D01*
X178898443Y-97538071D01*
G37*
X178898443Y-97538071D02*
X179236227Y-97763771D01*
X179461929Y-98101557D01*
X179550000Y-98544320D01*
X179550000Y-115187384D01*
X179339850Y-115100122D01*
X179061372Y-115099879D01*
X178804000Y-115206223D01*
X178606915Y-115402964D01*
X178500122Y-115660150D01*
X178499879Y-115938628D01*
X178500000Y-115938921D01*
X178500000Y-134910050D01*
X177510050Y-135900000D01*
X167538921Y-135900000D01*
X167796000Y-135793777D01*
X167993085Y-135597036D01*
X168099878Y-135339850D01*
X168100121Y-135061372D01*
X168100000Y-135061079D01*
X168100000Y-133975511D01*
X169670000Y-133975511D01*
X169670000Y-134024489D01*
X169765151Y-134502843D01*
X170036117Y-134908372D01*
X170441646Y-135179338D01*
X170920000Y-135274489D01*
X171398354Y-135179338D01*
X171803883Y-134908372D01*
X172074849Y-134502843D01*
X172134183Y-134204550D01*
X172328335Y-134204550D01*
X172492756Y-134622049D01*
X172804431Y-134944847D01*
X173215911Y-135123800D01*
X173255451Y-135131662D01*
X173435000Y-135074709D01*
X173435000Y-134025000D01*
X173485000Y-134025000D01*
X173485000Y-135074709D01*
X173664549Y-135131662D01*
X173704089Y-135123800D01*
X174115569Y-134944847D01*
X174427244Y-134622049D01*
X174591665Y-134204550D01*
X174534731Y-134025000D01*
X173485000Y-134025000D01*
X173435000Y-134025000D01*
X172385269Y-134025000D01*
X172328335Y-134204550D01*
X172134183Y-134204550D01*
X172170000Y-134024489D01*
X172170000Y-133975511D01*
X172134184Y-133795450D01*
X172328335Y-133795450D01*
X172385269Y-133975000D01*
X173435000Y-133975000D01*
X173435000Y-132925291D01*
X173485000Y-132925291D01*
X173485000Y-133975000D01*
X174534731Y-133975000D01*
X174591665Y-133795450D01*
X174427244Y-133377951D01*
X174207148Y-133150000D01*
X174742164Y-133150000D01*
X174742164Y-134850000D01*
X174770056Y-134998231D01*
X174857660Y-135134372D01*
X174991329Y-135225704D01*
X175150000Y-135257836D01*
X176850000Y-135257836D01*
X176998231Y-135229944D01*
X177134372Y-135142340D01*
X177225704Y-135008671D01*
X177257836Y-134850000D01*
X177257836Y-133150000D01*
X177229944Y-133001769D01*
X177142340Y-132865628D01*
X177008671Y-132774296D01*
X176850000Y-132742164D01*
X175150000Y-132742164D01*
X175001769Y-132770056D01*
X174865628Y-132857660D01*
X174774296Y-132991329D01*
X174742164Y-133150000D01*
X174207148Y-133150000D01*
X174115569Y-133055153D01*
X173704089Y-132876200D01*
X173664549Y-132868338D01*
X173485000Y-132925291D01*
X173435000Y-132925291D01*
X173255451Y-132868338D01*
X173215911Y-132876200D01*
X172804431Y-133055153D01*
X172492756Y-133377951D01*
X172328335Y-133795450D01*
X172134184Y-133795450D01*
X172074849Y-133497157D01*
X171803883Y-133091628D01*
X171398354Y-132820662D01*
X170920000Y-132725511D01*
X170441646Y-132820662D01*
X170036117Y-133091628D01*
X169765151Y-133497157D01*
X169670000Y-133975511D01*
X168100000Y-133975511D01*
X168100000Y-129800000D01*
X168100121Y-129661372D01*
X167993777Y-129404000D01*
X167797036Y-129206915D01*
X167539850Y-129100122D01*
X167261372Y-129099879D01*
X167004000Y-129206223D01*
X166806915Y-129402964D01*
X166700122Y-129660150D01*
X166699879Y-129938628D01*
X166700000Y-129938921D01*
X166700000Y-135199962D01*
X166699879Y-135338628D01*
X166806223Y-135596000D01*
X167002964Y-135793085D01*
X167260150Y-135899878D01*
X167399962Y-135900000D01*
X144889950Y-135900000D01*
X144700000Y-135710050D01*
X144700000Y-133150000D01*
X145242164Y-133150000D01*
X145242164Y-134850000D01*
X145270056Y-134998231D01*
X145357660Y-135134372D01*
X145491329Y-135225704D01*
X145650000Y-135257836D01*
X147350000Y-135257836D01*
X147498231Y-135229944D01*
X147634372Y-135142340D01*
X147725704Y-135008671D01*
X147757836Y-134850000D01*
X147757836Y-133975511D01*
X147790000Y-133975511D01*
X147790000Y-134024489D01*
X147885151Y-134502843D01*
X148156117Y-134908372D01*
X148561646Y-135179338D01*
X149040000Y-135274489D01*
X149518354Y-135179338D01*
X149923883Y-134908372D01*
X150194849Y-134502843D01*
X150290000Y-134024489D01*
X150290000Y-133975511D01*
X150330000Y-133975511D01*
X150330000Y-134024489D01*
X150425151Y-134502843D01*
X150696117Y-134908372D01*
X151101646Y-135179338D01*
X151580000Y-135274489D01*
X152058354Y-135179338D01*
X152463883Y-134908372D01*
X152734849Y-134502843D01*
X152830000Y-134024489D01*
X152830000Y-133975511D01*
X152870000Y-133975511D01*
X152870000Y-134024489D01*
X152965151Y-134502843D01*
X153236117Y-134908372D01*
X153641646Y-135179338D01*
X154120000Y-135274489D01*
X154598354Y-135179338D01*
X155003883Y-134908372D01*
X155274849Y-134502843D01*
X155370000Y-134024489D01*
X155370000Y-133975511D01*
X155410000Y-133975511D01*
X155410000Y-134024489D01*
X155505151Y-134502843D01*
X155776117Y-134908372D01*
X156181646Y-135179338D01*
X156660000Y-135274489D01*
X157138354Y-135179338D01*
X157543883Y-134908372D01*
X157814849Y-134502843D01*
X157910000Y-134024489D01*
X157910000Y-133975511D01*
X157814849Y-133497157D01*
X157543883Y-133091628D01*
X157360000Y-132968761D01*
X157360000Y-128629950D01*
X158289950Y-127700000D01*
X160000000Y-127700000D01*
X160137375Y-127672675D01*
X159555024Y-128255026D01*
X159403283Y-128482122D01*
X159403283Y-128482123D01*
X159349999Y-128750001D01*
X159349999Y-132755348D01*
X159200000Y-132725511D01*
X158721646Y-132820662D01*
X158316117Y-133091628D01*
X158045151Y-133497157D01*
X157950000Y-133975511D01*
X157950000Y-134024489D01*
X158045151Y-134502843D01*
X158316117Y-134908372D01*
X158721646Y-135179338D01*
X159200000Y-135274489D01*
X159678354Y-135179338D01*
X160083883Y-134908372D01*
X160354849Y-134502843D01*
X160450000Y-134024489D01*
X160450000Y-133975511D01*
X160410918Y-133779032D01*
X160544974Y-133644976D01*
X160560315Y-133622017D01*
X160490000Y-133975511D01*
X160490000Y-134024489D01*
X160585151Y-134502843D01*
X160856117Y-134908372D01*
X161261646Y-135179338D01*
X161740000Y-135274489D01*
X162218354Y-135179338D01*
X162623883Y-134908372D01*
X162894849Y-134502843D01*
X162954183Y-134204550D01*
X163148335Y-134204550D01*
X163312756Y-134622049D01*
X163624431Y-134944847D01*
X164035911Y-135123800D01*
X164075451Y-135131662D01*
X164255000Y-135074709D01*
X164255000Y-134025000D01*
X164305000Y-134025000D01*
X164305000Y-135074709D01*
X164484549Y-135131662D01*
X164524089Y-135123800D01*
X164935569Y-134944847D01*
X165247244Y-134622049D01*
X165411665Y-134204550D01*
X165354731Y-134025000D01*
X164305000Y-134025000D01*
X164255000Y-134025000D01*
X163205269Y-134025000D01*
X163148335Y-134204550D01*
X162954183Y-134204550D01*
X162990000Y-134024489D01*
X162990000Y-133975511D01*
X162954184Y-133795450D01*
X163148335Y-133795450D01*
X163205269Y-133975000D01*
X164255000Y-133975000D01*
X164255000Y-132925291D01*
X164305000Y-132925291D01*
X164305000Y-133975000D01*
X165354731Y-133975000D01*
X165411665Y-133795450D01*
X165247244Y-133377951D01*
X164935569Y-133055153D01*
X164524089Y-132876200D01*
X164484549Y-132868338D01*
X164305000Y-132925291D01*
X164255000Y-132925291D01*
X164075451Y-132868338D01*
X164035911Y-132876200D01*
X163624431Y-133055153D01*
X163312756Y-133377951D01*
X163148335Y-133795450D01*
X162954184Y-133795450D01*
X162950918Y-133779032D01*
X163084974Y-133644976D01*
X163236715Y-133417880D01*
X163289999Y-133150001D01*
X163289999Y-129499951D01*
X165089949Y-127700000D01*
X165199962Y-127700000D01*
X165338628Y-127700121D01*
X165596000Y-127593777D01*
X165793085Y-127397036D01*
X165899878Y-127139850D01*
X165900121Y-126861372D01*
X165793777Y-126604000D01*
X165597036Y-126406915D01*
X165339850Y-126300122D01*
X165061372Y-126299879D01*
X165061079Y-126300000D01*
X164800000Y-126300000D01*
X164532122Y-126353284D01*
X164305025Y-126505025D01*
X164305023Y-126505028D01*
X163900079Y-126909972D01*
X163900121Y-126861372D01*
X163793777Y-126604000D01*
X163597036Y-126406915D01*
X163339850Y-126300122D01*
X163061372Y-126299879D01*
X163061079Y-126300000D01*
X161800000Y-126300000D01*
X161662624Y-126327326D01*
X162294543Y-125695406D01*
X162393085Y-125597036D01*
X162474901Y-125400000D01*
X171242164Y-125400000D01*
X171242164Y-127100000D01*
X171270056Y-127248231D01*
X171357660Y-127384372D01*
X171491329Y-127475704D01*
X171650000Y-127507836D01*
X173350000Y-127507836D01*
X173498231Y-127479944D01*
X173634372Y-127392340D01*
X173725704Y-127258671D01*
X173757836Y-127100000D01*
X173757836Y-126140000D01*
X175475511Y-126140000D01*
X175570662Y-126618354D01*
X175841628Y-127023883D01*
X176247157Y-127294849D01*
X176725511Y-127390000D01*
X176774489Y-127390000D01*
X177252843Y-127294849D01*
X177658372Y-127023883D01*
X177929338Y-126618354D01*
X178024489Y-126140000D01*
X177929338Y-125661646D01*
X177658372Y-125256117D01*
X177252843Y-124985151D01*
X176774489Y-124890000D01*
X176725511Y-124890000D01*
X176247157Y-124985151D01*
X175841628Y-125256117D01*
X175570662Y-125661646D01*
X175475511Y-126140000D01*
X173757836Y-126140000D01*
X173757836Y-125400000D01*
X173729944Y-125251769D01*
X173642340Y-125115628D01*
X173508671Y-125024296D01*
X173350000Y-124992164D01*
X171650000Y-124992164D01*
X171501769Y-125020056D01*
X171365628Y-125107660D01*
X171274296Y-125241329D01*
X171242164Y-125400000D01*
X162474901Y-125400000D01*
X162499878Y-125339850D01*
X162500121Y-125061372D01*
X162393777Y-124804000D01*
X162197036Y-124606915D01*
X161939850Y-124500122D01*
X161661372Y-124499879D01*
X161404000Y-124606223D01*
X161206915Y-124802964D01*
X161206793Y-124803258D01*
X159710050Y-126300000D01*
X158000000Y-126300000D01*
X157732122Y-126353284D01*
X157505025Y-126505025D01*
X156165025Y-127845025D01*
X156013284Y-128072121D01*
X155976902Y-128255026D01*
X155960000Y-128340000D01*
X155960000Y-132968761D01*
X155776117Y-133091628D01*
X155505151Y-133497157D01*
X155410000Y-133975511D01*
X155370000Y-133975511D01*
X155274849Y-133497157D01*
X155003883Y-133091628D01*
X154598354Y-132820662D01*
X154120000Y-132725511D01*
X153641646Y-132820662D01*
X153236117Y-133091628D01*
X152965151Y-133497157D01*
X152870000Y-133975511D01*
X152830000Y-133975511D01*
X152734849Y-133497157D01*
X152463883Y-133091628D01*
X152058354Y-132820662D01*
X151580000Y-132725511D01*
X151101646Y-132820662D01*
X150696117Y-133091628D01*
X150425151Y-133497157D01*
X150330000Y-133975511D01*
X150290000Y-133975511D01*
X150194849Y-133497157D01*
X149923883Y-133091628D01*
X149518354Y-132820662D01*
X149040000Y-132725511D01*
X148561646Y-132820662D01*
X148156117Y-133091628D01*
X147885151Y-133497157D01*
X147790000Y-133975511D01*
X147757836Y-133975511D01*
X147757836Y-133150000D01*
X147729944Y-133001769D01*
X147642340Y-132865628D01*
X147508671Y-132774296D01*
X147350000Y-132742164D01*
X145650000Y-132742164D01*
X145501769Y-132770056D01*
X145365628Y-132857660D01*
X145274296Y-132991329D01*
X145242164Y-133150000D01*
X144700000Y-133150000D01*
X144700000Y-130600005D01*
X144700001Y-130600000D01*
X144646716Y-130332121D01*
X144555762Y-130196000D01*
X144494975Y-130105025D01*
X144494972Y-130105023D01*
X142300000Y-127910050D01*
X142300000Y-125840000D01*
X142850000Y-125840000D01*
X142850000Y-126649673D01*
X142895672Y-126759936D01*
X142980063Y-126844328D01*
X143090326Y-126890000D01*
X143900000Y-126890000D01*
X143975000Y-126815000D01*
X143975000Y-125765000D01*
X144025000Y-125765000D01*
X144025000Y-126815000D01*
X144100000Y-126890000D01*
X144909674Y-126890000D01*
X145019937Y-126844328D01*
X145104328Y-126759936D01*
X145150000Y-126649673D01*
X145150000Y-125840000D01*
X145075000Y-125765000D01*
X144025000Y-125765000D01*
X143975000Y-125765000D01*
X142925000Y-125765000D01*
X142850000Y-125840000D01*
X142300000Y-125840000D01*
X142300000Y-124830327D01*
X142850000Y-124830327D01*
X142850000Y-125640000D01*
X142925000Y-125715000D01*
X143975000Y-125715000D01*
X143975000Y-124665000D01*
X144025000Y-124665000D01*
X144025000Y-125715000D01*
X145075000Y-125715000D01*
X145150000Y-125640000D01*
X145150000Y-124830327D01*
X145104328Y-124720064D01*
X145019937Y-124635672D01*
X144909674Y-124590000D01*
X144100000Y-124590000D01*
X144025000Y-124665000D01*
X143975000Y-124665000D01*
X143900000Y-124590000D01*
X143090326Y-124590000D01*
X142980063Y-124635672D01*
X142895672Y-124720064D01*
X142850000Y-124830327D01*
X142300000Y-124830327D01*
X142300000Y-123200000D01*
X142725511Y-123200000D01*
X142820662Y-123678354D01*
X143091628Y-124083883D01*
X143497157Y-124354849D01*
X143975511Y-124450000D01*
X144024489Y-124450000D01*
X144502843Y-124354849D01*
X144908372Y-124083883D01*
X145021517Y-123914549D01*
X171368338Y-123914549D01*
X171376200Y-123954089D01*
X171555153Y-124365569D01*
X171877951Y-124677244D01*
X172295450Y-124841665D01*
X172475000Y-124784731D01*
X172475000Y-123735000D01*
X172525000Y-123735000D01*
X172525000Y-124784731D01*
X172704550Y-124841665D01*
X173122049Y-124677244D01*
X173444847Y-124365569D01*
X173623800Y-123954089D01*
X173631662Y-123914549D01*
X173574709Y-123735000D01*
X172525000Y-123735000D01*
X172475000Y-123735000D01*
X171425291Y-123735000D01*
X171368338Y-123914549D01*
X145021517Y-123914549D01*
X145179338Y-123678354D01*
X145213730Y-123505451D01*
X171368338Y-123505451D01*
X171425291Y-123685000D01*
X172475000Y-123685000D01*
X172475000Y-122635269D01*
X172525000Y-122635269D01*
X172525000Y-123685000D01*
X173574709Y-123685000D01*
X173631662Y-123505451D01*
X173623800Y-123465911D01*
X173444847Y-123054431D01*
X173129552Y-122750000D01*
X175492164Y-122750000D01*
X175492164Y-124450000D01*
X175520056Y-124598231D01*
X175607660Y-124734372D01*
X175741329Y-124825704D01*
X175900000Y-124857836D01*
X177600000Y-124857836D01*
X177748231Y-124829944D01*
X177884372Y-124742340D01*
X177975704Y-124608671D01*
X178007836Y-124450000D01*
X178007836Y-122750000D01*
X177979944Y-122601769D01*
X177892340Y-122465628D01*
X177758671Y-122374296D01*
X177600000Y-122342164D01*
X175900000Y-122342164D01*
X175751769Y-122370056D01*
X175615628Y-122457660D01*
X175524296Y-122591329D01*
X175492164Y-122750000D01*
X173129552Y-122750000D01*
X173122049Y-122742756D01*
X172704550Y-122578335D01*
X172525000Y-122635269D01*
X172475000Y-122635269D01*
X172295450Y-122578335D01*
X171877951Y-122742756D01*
X171555153Y-123054431D01*
X171376200Y-123465911D01*
X171368338Y-123505451D01*
X145213730Y-123505451D01*
X145274489Y-123200000D01*
X145179338Y-122721646D01*
X144908372Y-122316117D01*
X144502843Y-122045151D01*
X144024489Y-121950000D01*
X143975511Y-121950000D01*
X143497157Y-122045151D01*
X143091628Y-122316117D01*
X142820662Y-122721646D01*
X142725511Y-123200000D01*
X142300000Y-123200000D01*
X142300000Y-120660000D01*
X142725511Y-120660000D01*
X142820662Y-121138354D01*
X143091628Y-121543883D01*
X143497157Y-121814849D01*
X143975511Y-121910000D01*
X144024489Y-121910000D01*
X144502843Y-121814849D01*
X144908372Y-121543883D01*
X145158192Y-121170000D01*
X171225511Y-121170000D01*
X171320662Y-121648354D01*
X171591628Y-122053883D01*
X171997157Y-122324849D01*
X172475511Y-122420000D01*
X172524489Y-122420000D01*
X173002843Y-122324849D01*
X173408372Y-122053883D01*
X173679338Y-121648354D01*
X173774489Y-121170000D01*
X173679338Y-120691646D01*
X173408372Y-120286117D01*
X173002843Y-120015151D01*
X172524489Y-119920000D01*
X172475511Y-119920000D01*
X171997157Y-120015151D01*
X171591628Y-120286117D01*
X171320662Y-120691646D01*
X171225511Y-121170000D01*
X145158192Y-121170000D01*
X145179338Y-121138354D01*
X145274489Y-120660000D01*
X145179338Y-120181646D01*
X144908372Y-119776117D01*
X144502843Y-119505151D01*
X144024489Y-119410000D01*
X143975511Y-119410000D01*
X143497157Y-119505151D01*
X143091628Y-119776117D01*
X142820662Y-120181646D01*
X142725511Y-120660000D01*
X142300000Y-120660000D01*
X142300000Y-118120000D01*
X142725511Y-118120000D01*
X142820662Y-118598354D01*
X143091628Y-119003883D01*
X143497157Y-119274849D01*
X143975511Y-119370000D01*
X144024489Y-119370000D01*
X144502843Y-119274849D01*
X144908372Y-119003883D01*
X145179338Y-118598354D01*
X145274489Y-118120000D01*
X145179338Y-117641646D01*
X144908372Y-117236117D01*
X144502843Y-116965151D01*
X144024489Y-116870000D01*
X143975511Y-116870000D01*
X143497157Y-116965151D01*
X143091628Y-117236117D01*
X142820662Y-117641646D01*
X142725511Y-118120000D01*
X142300000Y-118120000D01*
X142300000Y-115538628D01*
X163899879Y-115538628D01*
X164006223Y-115796000D01*
X164202964Y-115993085D01*
X164460150Y-116099878D01*
X164512431Y-116099924D01*
X164732121Y-116246716D01*
X165000000Y-116300001D01*
X165000005Y-116300000D01*
X170199962Y-116300000D01*
X170338628Y-116300121D01*
X170596000Y-116193777D01*
X170793085Y-115997036D01*
X170899878Y-115739850D01*
X170900121Y-115461372D01*
X170793777Y-115204000D01*
X170597036Y-115006915D01*
X170339850Y-114900122D01*
X170061372Y-114899879D01*
X170061079Y-114900000D01*
X165287455Y-114900000D01*
X165067879Y-114753284D01*
X164800000Y-114700000D01*
X164600038Y-114700000D01*
X164461372Y-114699879D01*
X164204000Y-114806223D01*
X164006915Y-115002964D01*
X163900122Y-115260150D01*
X163899879Y-115538628D01*
X142300000Y-115538628D01*
X142300000Y-115289950D01*
X142489950Y-115100000D01*
X144999962Y-115100000D01*
X145138628Y-115100121D01*
X145396000Y-114993777D01*
X145593085Y-114797036D01*
X145699878Y-114539850D01*
X145700121Y-114261372D01*
X145593777Y-114004000D01*
X145397036Y-113806915D01*
X145139850Y-113700122D01*
X144861372Y-113699879D01*
X144861079Y-113700000D01*
X142200000Y-113700000D01*
X141932121Y-113753284D01*
X141705025Y-113905025D01*
X141105025Y-114505025D01*
X140953284Y-114732121D01*
X140940578Y-114796000D01*
X140900000Y-115000000D01*
X140900000Y-128200000D01*
X140953284Y-128467879D01*
X141105025Y-128694975D01*
X143300000Y-130889949D01*
X143300000Y-136000000D01*
X143353284Y-136267879D01*
X143505025Y-136494975D01*
X144105025Y-137094975D01*
X144332121Y-137246716D01*
X144600000Y-137300000D01*
X177800000Y-137300000D01*
X178067879Y-137246716D01*
X178294975Y-137094975D01*
X179550000Y-135839950D01*
X179550000Y-136455680D01*
X179461929Y-136898443D01*
X179236227Y-137236229D01*
X178898443Y-137461929D01*
X178455680Y-137550000D01*
X139550000Y-137550000D01*
X139547160Y-137550565D01*
X139101557Y-137461929D01*
X138763771Y-137236227D01*
X138538071Y-136898443D01*
X138450000Y-136455680D01*
X138450000Y-132326765D01*
X139149715Y-132326765D01*
X139400383Y-132933429D01*
X139864130Y-133397986D01*
X140470355Y-133649713D01*
X141126765Y-133650285D01*
X141733429Y-133399617D01*
X142197986Y-132935870D01*
X142449713Y-132329645D01*
X142450285Y-131673235D01*
X142199617Y-131066571D01*
X141735870Y-130602014D01*
X141129645Y-130350287D01*
X140473235Y-130349715D01*
X139866571Y-130600383D01*
X139402014Y-131064130D01*
X139150287Y-131670355D01*
X139149715Y-132326765D01*
X138450000Y-132326765D01*
X138450000Y-112140000D01*
X142525511Y-112140000D01*
X142620662Y-112618354D01*
X142891628Y-113023883D01*
X143297157Y-113294849D01*
X143775511Y-113390000D01*
X143824489Y-113390000D01*
X144302843Y-113294849D01*
X144708372Y-113023883D01*
X144979338Y-112618354D01*
X145074489Y-112140000D01*
X144979338Y-111661646D01*
X144708372Y-111256117D01*
X144302843Y-110985151D01*
X143824489Y-110890000D01*
X143775511Y-110890000D01*
X143297157Y-110985151D01*
X142891628Y-111256117D01*
X142620662Y-111661646D01*
X142525511Y-112140000D01*
X138450000Y-112140000D01*
X138450000Y-109804549D01*
X142668338Y-109804549D01*
X142676200Y-109844089D01*
X142855153Y-110255569D01*
X143177951Y-110567244D01*
X143595450Y-110731665D01*
X143775000Y-110674731D01*
X143775000Y-109625000D01*
X143825000Y-109625000D01*
X143825000Y-110674731D01*
X144004550Y-110731665D01*
X144422049Y-110567244D01*
X144744847Y-110255569D01*
X144923800Y-109844089D01*
X144931662Y-109804549D01*
X144874709Y-109625000D01*
X143825000Y-109625000D01*
X143775000Y-109625000D01*
X142725291Y-109625000D01*
X142668338Y-109804549D01*
X138450000Y-109804549D01*
X138450000Y-109395451D01*
X142668338Y-109395451D01*
X142725291Y-109575000D01*
X143775000Y-109575000D01*
X143775000Y-108525269D01*
X143825000Y-108525269D01*
X143825000Y-109575000D01*
X144874709Y-109575000D01*
X144931662Y-109395451D01*
X144923800Y-109355911D01*
X144744847Y-108944431D01*
X144422049Y-108632756D01*
X144004550Y-108468335D01*
X143825000Y-108525269D01*
X143775000Y-108525269D01*
X143595450Y-108468335D01*
X143177951Y-108632756D01*
X142855153Y-108944431D01*
X142676200Y-109355911D01*
X142668338Y-109395451D01*
X138450000Y-109395451D01*
X138450000Y-106210000D01*
X142542164Y-106210000D01*
X142542164Y-107910000D01*
X142570056Y-108058231D01*
X142657660Y-108194372D01*
X142791329Y-108285704D01*
X142950000Y-108317836D01*
X144650000Y-108317836D01*
X144798231Y-108289944D01*
X144934372Y-108202340D01*
X145025704Y-108068671D01*
X145057836Y-107910000D01*
X145057836Y-106210000D01*
X145029944Y-106061769D01*
X144942340Y-105925628D01*
X144808671Y-105834296D01*
X144650000Y-105802164D01*
X142950000Y-105802164D01*
X142801769Y-105830056D01*
X142665628Y-105917660D01*
X142574296Y-106051329D01*
X142542164Y-106210000D01*
X138450000Y-106210000D01*
X138450000Y-100044319D01*
X138598053Y-99300000D01*
X147400000Y-99300000D01*
X147400000Y-113000000D01*
X147427356Y-113145383D01*
X147513277Y-113278908D01*
X147644378Y-113368486D01*
X147800000Y-113400000D01*
X157600000Y-113400000D01*
X157745383Y-113372644D01*
X157878908Y-113286723D01*
X157968486Y-113155622D01*
X158000000Y-113000000D01*
X158000000Y-111408297D01*
X158040326Y-111425000D01*
X158400000Y-111425000D01*
X158475000Y-111350000D01*
X158475000Y-110775000D01*
X158525000Y-110775000D01*
X158525000Y-111350000D01*
X158600000Y-111425000D01*
X158959674Y-111425000D01*
X159069937Y-111379328D01*
X159154328Y-111294936D01*
X159200000Y-111184673D01*
X159200000Y-110850000D01*
X159125000Y-110775000D01*
X158525000Y-110775000D01*
X158475000Y-110775000D01*
X158455000Y-110775000D01*
X158455000Y-110725000D01*
X158475000Y-110725000D01*
X158475000Y-110150000D01*
X158525000Y-110150000D01*
X158525000Y-110725000D01*
X159125000Y-110725000D01*
X159200000Y-110650000D01*
X159200000Y-110636407D01*
X170898949Y-110636407D01*
X171039437Y-110849577D01*
X171610665Y-111102176D01*
X172235075Y-111116946D01*
X172817607Y-110891642D01*
X172880563Y-110849577D01*
X173021051Y-110636407D01*
X175978949Y-110636407D01*
X176119437Y-110849577D01*
X176690665Y-111102176D01*
X177315075Y-111116946D01*
X177897607Y-110891642D01*
X177960563Y-110849577D01*
X178101051Y-110636407D01*
X177040000Y-109575355D01*
X175978949Y-110636407D01*
X173021051Y-110636407D01*
X171960000Y-109575355D01*
X170898949Y-110636407D01*
X159200000Y-110636407D01*
X159200000Y-110315327D01*
X159154328Y-110205064D01*
X159069937Y-110120672D01*
X158959674Y-110075000D01*
X158600000Y-110075000D01*
X158525000Y-110150000D01*
X158475000Y-110150000D01*
X158400000Y-110075000D01*
X158040326Y-110075000D01*
X158000000Y-110091703D01*
X158000000Y-109815075D01*
X170383054Y-109815075D01*
X170608358Y-110397607D01*
X170650423Y-110460563D01*
X170863593Y-110601051D01*
X171924645Y-109540000D01*
X171995355Y-109540000D01*
X173056407Y-110601051D01*
X173269577Y-110460563D01*
X173522176Y-109889335D01*
X173523932Y-109815075D01*
X175463054Y-109815075D01*
X175688358Y-110397607D01*
X175730423Y-110460563D01*
X175943593Y-110601051D01*
X177004645Y-109540000D01*
X177075355Y-109540000D01*
X178136407Y-110601051D01*
X178349577Y-110460563D01*
X178602176Y-109889335D01*
X178616946Y-109264925D01*
X178391642Y-108682393D01*
X178349577Y-108619437D01*
X178136407Y-108478949D01*
X177075355Y-109540000D01*
X177004645Y-109540000D01*
X175943593Y-108478949D01*
X175730423Y-108619437D01*
X175477824Y-109190665D01*
X175463054Y-109815075D01*
X173523932Y-109815075D01*
X173536946Y-109264925D01*
X173311642Y-108682393D01*
X173269577Y-108619437D01*
X173056407Y-108478949D01*
X171995355Y-109540000D01*
X171924645Y-109540000D01*
X170863593Y-108478949D01*
X170650423Y-108619437D01*
X170397824Y-109190665D01*
X170383054Y-109815075D01*
X158000000Y-109815075D01*
X158000000Y-108700000D01*
X158075000Y-108700000D01*
X158075000Y-109189674D01*
X158120672Y-109299937D01*
X158205064Y-109384328D01*
X158315327Y-109430000D01*
X158600000Y-109430000D01*
X158675000Y-109355000D01*
X158675000Y-108625000D01*
X158725000Y-108625000D01*
X158725000Y-109355000D01*
X158800000Y-109430000D01*
X159084673Y-109430000D01*
X159194936Y-109384328D01*
X159279328Y-109299937D01*
X159325000Y-109189674D01*
X159325000Y-108700000D01*
X159250000Y-108625000D01*
X158725000Y-108625000D01*
X158675000Y-108625000D01*
X158150000Y-108625000D01*
X158075000Y-108700000D01*
X158000000Y-108700000D01*
X158000000Y-108010326D01*
X158075000Y-108010326D01*
X158075000Y-108500000D01*
X158150000Y-108575000D01*
X158675000Y-108575000D01*
X158675000Y-107845000D01*
X158725000Y-107845000D01*
X158725000Y-108575000D01*
X159250000Y-108575000D01*
X159325000Y-108500000D01*
X159325000Y-108443593D01*
X170898949Y-108443593D01*
X171960000Y-109504645D01*
X173021051Y-108443593D01*
X172880563Y-108230423D01*
X172309335Y-107977824D01*
X171684925Y-107963054D01*
X171102393Y-108188358D01*
X171039437Y-108230423D01*
X170898949Y-108443593D01*
X159325000Y-108443593D01*
X159325000Y-108010326D01*
X159279328Y-107900063D01*
X159194936Y-107815672D01*
X159084673Y-107770000D01*
X158800000Y-107770000D01*
X158725000Y-107845000D01*
X158675000Y-107845000D01*
X158600000Y-107770000D01*
X158315327Y-107770000D01*
X158205064Y-107815672D01*
X158120672Y-107900063D01*
X158075000Y-108010326D01*
X158000000Y-108010326D01*
X158000000Y-107800000D01*
X157972644Y-107654617D01*
X157886723Y-107521092D01*
X157755622Y-107431514D01*
X157600000Y-107400000D01*
X157600000Y-107230000D01*
X157650000Y-107230000D01*
X157725000Y-107155000D01*
X157725000Y-106425000D01*
X157705000Y-106425000D01*
X157705000Y-106375000D01*
X157725000Y-106375000D01*
X157725000Y-105645000D01*
X157775000Y-105645000D01*
X157775000Y-106375000D01*
X157795000Y-106375000D01*
X157795000Y-106425000D01*
X157775000Y-106425000D01*
X157775000Y-107155000D01*
X157850000Y-107230000D01*
X158105532Y-107230000D01*
X158216329Y-107305704D01*
X158375000Y-107337836D01*
X159025000Y-107337836D01*
X159062785Y-107330726D01*
X172829711Y-107330726D01*
X173083418Y-107944743D01*
X173552786Y-108414931D01*
X174166359Y-108669709D01*
X174830726Y-108670289D01*
X175379371Y-108443593D01*
X175978949Y-108443593D01*
X177040000Y-109504645D01*
X178101051Y-108443593D01*
X177960563Y-108230423D01*
X177389335Y-107977824D01*
X176764925Y-107963054D01*
X176182393Y-108188358D01*
X176119437Y-108230423D01*
X175978949Y-108443593D01*
X175379371Y-108443593D01*
X175444743Y-108416582D01*
X175914931Y-107947214D01*
X176169709Y-107333641D01*
X176170289Y-106669274D01*
X175916582Y-106055257D01*
X175447214Y-105585069D01*
X175378189Y-105556407D01*
X175978949Y-105556407D01*
X176119437Y-105769577D01*
X176690665Y-106022176D01*
X177315075Y-106036946D01*
X177897607Y-105811642D01*
X177960563Y-105769577D01*
X178101051Y-105556407D01*
X177040000Y-104495355D01*
X175978949Y-105556407D01*
X175378189Y-105556407D01*
X174833641Y-105330291D01*
X174169274Y-105329711D01*
X173555257Y-105583418D01*
X173085069Y-106052786D01*
X172830291Y-106666359D01*
X172829711Y-107330726D01*
X159062785Y-107330726D01*
X159173231Y-107309944D01*
X159309372Y-107222340D01*
X159392963Y-107100000D01*
X160199962Y-107100000D01*
X160338628Y-107100121D01*
X160596000Y-106993777D01*
X160793085Y-106797036D01*
X160899878Y-106539850D01*
X160900121Y-106261372D01*
X160793777Y-106004000D01*
X160597036Y-105806915D01*
X160339850Y-105700122D01*
X160061372Y-105699879D01*
X160061079Y-105700000D01*
X159390936Y-105700000D01*
X159317340Y-105585628D01*
X159274574Y-105556407D01*
X170898949Y-105556407D01*
X171039437Y-105769577D01*
X171610665Y-106022176D01*
X172235075Y-106036946D01*
X172817607Y-105811642D01*
X172880563Y-105769577D01*
X173021051Y-105556407D01*
X171960000Y-104495355D01*
X170898949Y-105556407D01*
X159274574Y-105556407D01*
X159183671Y-105494296D01*
X159025000Y-105462164D01*
X158375000Y-105462164D01*
X158226769Y-105490056D01*
X158102532Y-105570000D01*
X157850000Y-105570000D01*
X157775000Y-105645000D01*
X157725000Y-105645000D01*
X157650000Y-105570000D01*
X157600000Y-105570000D01*
X157600000Y-105200000D01*
X157576479Y-105075000D01*
X157650000Y-105075000D01*
X157725000Y-105000000D01*
X157725000Y-104425000D01*
X157775000Y-104425000D01*
X157775000Y-105000000D01*
X157850000Y-105075000D01*
X158209674Y-105075000D01*
X158319937Y-105029328D01*
X158404328Y-104944936D01*
X158450000Y-104834673D01*
X158450000Y-104735075D01*
X170383054Y-104735075D01*
X170608358Y-105317607D01*
X170650423Y-105380563D01*
X170863593Y-105521051D01*
X171924645Y-104460000D01*
X171995355Y-104460000D01*
X173056407Y-105521051D01*
X173269577Y-105380563D01*
X173522176Y-104809335D01*
X173523932Y-104735075D01*
X175463054Y-104735075D01*
X175688358Y-105317607D01*
X175730423Y-105380563D01*
X175943593Y-105521051D01*
X177004645Y-104460000D01*
X177075355Y-104460000D01*
X178136407Y-105521051D01*
X178349577Y-105380563D01*
X178602176Y-104809335D01*
X178616946Y-104184925D01*
X178391642Y-103602393D01*
X178349577Y-103539437D01*
X178136407Y-103398949D01*
X177075355Y-104460000D01*
X177004645Y-104460000D01*
X175943593Y-103398949D01*
X175730423Y-103539437D01*
X175477824Y-104110665D01*
X175463054Y-104735075D01*
X173523932Y-104735075D01*
X173536946Y-104184925D01*
X173311642Y-103602393D01*
X173269577Y-103539437D01*
X173056407Y-103398949D01*
X171995355Y-104460000D01*
X171924645Y-104460000D01*
X170863593Y-103398949D01*
X170650423Y-103539437D01*
X170397824Y-104110665D01*
X170383054Y-104735075D01*
X158450000Y-104735075D01*
X158450000Y-104500000D01*
X158375000Y-104425000D01*
X157775000Y-104425000D01*
X157725000Y-104425000D01*
X157705000Y-104425000D01*
X157705000Y-104375000D01*
X157725000Y-104375000D01*
X157725000Y-103800000D01*
X157775000Y-103800000D01*
X157775000Y-104375000D01*
X158375000Y-104375000D01*
X158450000Y-104300000D01*
X158450000Y-103965327D01*
X158404328Y-103855064D01*
X158319937Y-103770672D01*
X158209674Y-103725000D01*
X157850000Y-103725000D01*
X157775000Y-103800000D01*
X157725000Y-103800000D01*
X157650000Y-103725000D01*
X157290326Y-103725000D01*
X157200000Y-103762414D01*
X157200000Y-103363593D01*
X170898949Y-103363593D01*
X171960000Y-104424645D01*
X173021051Y-103363593D01*
X175978949Y-103363593D01*
X177040000Y-104424645D01*
X178101051Y-103363593D01*
X177960563Y-103150423D01*
X177389335Y-102897824D01*
X176764925Y-102883054D01*
X176182393Y-103108358D01*
X176119437Y-103150423D01*
X175978949Y-103363593D01*
X173021051Y-103363593D01*
X172880563Y-103150423D01*
X172309335Y-102897824D01*
X171684925Y-102883054D01*
X171102393Y-103108358D01*
X171039437Y-103150423D01*
X170898949Y-103363593D01*
X157200000Y-103363593D01*
X157200000Y-101938875D01*
X157232756Y-102022049D01*
X157544431Y-102344847D01*
X157955911Y-102523800D01*
X157995451Y-102531662D01*
X158175000Y-102474709D01*
X158175000Y-101425000D01*
X158225000Y-101425000D01*
X158225000Y-102474709D01*
X158404549Y-102531662D01*
X158444089Y-102523800D01*
X158855569Y-102344847D01*
X159167244Y-102022049D01*
X159331665Y-101604550D01*
X159274731Y-101425000D01*
X158225000Y-101425000D01*
X158175000Y-101425000D01*
X158155000Y-101425000D01*
X158155000Y-101375000D01*
X158175000Y-101375000D01*
X158175000Y-100325291D01*
X158225000Y-100325291D01*
X158225000Y-101375000D01*
X159274731Y-101375000D01*
X159331665Y-101195450D01*
X159167244Y-100777951D01*
X158855569Y-100455153D01*
X158790295Y-100426765D01*
X172849715Y-100426765D01*
X173100383Y-101033429D01*
X173564130Y-101497986D01*
X174170355Y-101749713D01*
X174826765Y-101750285D01*
X175433429Y-101499617D01*
X175897986Y-101035870D01*
X176149713Y-100429645D01*
X176150285Y-99773235D01*
X175899617Y-99166571D01*
X175435870Y-98702014D01*
X174829645Y-98450287D01*
X174173235Y-98449715D01*
X173566571Y-98700383D01*
X173102014Y-99164130D01*
X172850287Y-99770355D01*
X172849715Y-100426765D01*
X158790295Y-100426765D01*
X158444089Y-100276200D01*
X158404549Y-100268338D01*
X158225000Y-100325291D01*
X158175000Y-100325291D01*
X157995451Y-100268338D01*
X157955911Y-100276200D01*
X157544431Y-100455153D01*
X157232756Y-100777951D01*
X157200000Y-100861125D01*
X157200000Y-99200000D01*
X157172644Y-99054617D01*
X157086723Y-98921092D01*
X156955622Y-98831514D01*
X156800000Y-98800000D01*
X153400000Y-98800000D01*
X153254617Y-98827356D01*
X153121092Y-98913277D01*
X153031514Y-99044378D01*
X153000000Y-99200000D01*
X153000000Y-103610059D01*
X152897036Y-103506915D01*
X152767880Y-103453285D01*
X152767879Y-103453284D01*
X152767878Y-103453284D01*
X152639850Y-103400122D01*
X152500005Y-103400000D01*
X152500000Y-103399999D01*
X152499995Y-103400000D01*
X152361372Y-103399879D01*
X152232123Y-103453284D01*
X152232121Y-103453284D01*
X152232119Y-103453285D01*
X152200000Y-103466557D01*
X152200000Y-99300000D01*
X152172644Y-99154617D01*
X152086723Y-99021092D01*
X151955622Y-98931514D01*
X151800000Y-98900000D01*
X147800000Y-98900000D01*
X147654617Y-98927356D01*
X147521092Y-99013277D01*
X147431514Y-99144378D01*
X147400000Y-99300000D01*
X138598053Y-99300000D01*
X138652251Y-99027532D01*
X139203112Y-98203112D01*
X140027532Y-97652251D01*
X141044320Y-97450000D01*
X178455680Y-97450000D01*
X178898443Y-97538071D01*
M02*
