G04 #@! TF.FileFunction,Soldermask,Bot*
%FSLAX46Y46*%
G04 Gerber Fmt 4.6, Leading zero omitted, Abs format (unit mm)*
G04 Created by KiCad (PCBNEW 4.0.6-e0-6349~53~ubuntu14.04.1) date Mon Apr 10 17:45:15 2017*
%MOMM*%
%LPD*%
G01*
G04 APERTURE LIST*
%ADD10C,0.100000*%
%ADD11O,1.700000X1.700000*%
%ADD12R,1.700000X1.700000*%
%ADD13C,2.500000*%
%ADD14R,0.800000X0.750000*%
%ADD15R,0.900000X0.500000*%
%ADD16R,0.500000X0.900000*%
%ADD17R,0.650000X1.060000*%
%ADD18C,2.000000*%
%ADD19C,2.200000*%
%ADD20O,3.048000X1.524000*%
G04 APERTURE END LIST*
D10*
D11*
X137500000Y-73510000D03*
X137500000Y-76050000D03*
X137500000Y-78590000D03*
X137500000Y-81130000D03*
X137500000Y-83670000D03*
X137500000Y-86210000D03*
X137500000Y-88750000D03*
X137500000Y-91290000D03*
D12*
X137500000Y-93830000D03*
D13*
X111750000Y-61000000D03*
X141750000Y-96250000D03*
D14*
X123250000Y-63900000D03*
X121750000Y-63900000D03*
X123250000Y-70100000D03*
X121750000Y-70100000D03*
D12*
X106900000Y-61700000D03*
D11*
X106900000Y-64240000D03*
X106900000Y-66780000D03*
X106900000Y-69320000D03*
X106900000Y-71860000D03*
X106900000Y-74400000D03*
X106900000Y-76940000D03*
X106900000Y-79480000D03*
X106900000Y-82020000D03*
X106900000Y-84560000D03*
X106900000Y-87100000D03*
X106900000Y-89640000D03*
X132380000Y-94600000D03*
X129840000Y-94600000D03*
X127300000Y-94600000D03*
X124760000Y-94600000D03*
X122220000Y-94600000D03*
X119680000Y-94600000D03*
X117140000Y-94600000D03*
D12*
X114600000Y-94600000D03*
X121700000Y-61200000D03*
D11*
X124240000Y-61200000D03*
D15*
X119500000Y-65500000D03*
X119500000Y-67000000D03*
D16*
X116400000Y-68200000D03*
X117900000Y-68200000D03*
X117000000Y-64000000D03*
X118500000Y-64000000D03*
X114000000Y-64000000D03*
X115500000Y-64000000D03*
D17*
X121650000Y-67800000D03*
X123550000Y-67800000D03*
X123550000Y-65600000D03*
X122600000Y-65600000D03*
X121650000Y-65600000D03*
D18*
X139420000Y-67100000D03*
D19*
X141960000Y-69640000D03*
X141960000Y-64560000D03*
X136880000Y-64560000D03*
X136880000Y-69640000D03*
D12*
X124750000Y-97250000D03*
D11*
X137500000Y-119010000D03*
X137500000Y-121550000D03*
X137500000Y-124090000D03*
X137500000Y-126630000D03*
X137500000Y-129170000D03*
X137500000Y-131710000D03*
X137500000Y-134250000D03*
X137500000Y-136790000D03*
D12*
X137500000Y-139330000D03*
D13*
X111750000Y-106500000D03*
X141750000Y-141750000D03*
D14*
X123250000Y-109400000D03*
X121750000Y-109400000D03*
X123250000Y-115600000D03*
X121750000Y-115600000D03*
D12*
X106900000Y-107200000D03*
D11*
X106900000Y-109740000D03*
X106900000Y-112280000D03*
X106900000Y-114820000D03*
X106900000Y-117360000D03*
X106900000Y-119900000D03*
X106900000Y-122440000D03*
X106900000Y-124980000D03*
X106900000Y-127520000D03*
X106900000Y-130060000D03*
X106900000Y-132600000D03*
X106900000Y-135140000D03*
X132380000Y-140100000D03*
X129840000Y-140100000D03*
X127300000Y-140100000D03*
X124760000Y-140100000D03*
X122220000Y-140100000D03*
X119680000Y-140100000D03*
X117140000Y-140100000D03*
D12*
X114600000Y-140100000D03*
X121700000Y-106700000D03*
D11*
X124240000Y-106700000D03*
D15*
X119500000Y-111000000D03*
X119500000Y-112500000D03*
D16*
X116400000Y-113700000D03*
X117900000Y-113700000D03*
X117000000Y-109500000D03*
X118500000Y-109500000D03*
X114000000Y-109500000D03*
X115500000Y-109500000D03*
D17*
X121650000Y-113300000D03*
X123550000Y-113300000D03*
X123550000Y-111100000D03*
X122600000Y-111100000D03*
X121650000Y-111100000D03*
D18*
X139420000Y-112600000D03*
D19*
X141960000Y-115140000D03*
X141960000Y-110060000D03*
X136880000Y-110060000D03*
X136880000Y-115140000D03*
D12*
X124750000Y-142750000D03*
X176100000Y-57400000D03*
D11*
X178640000Y-57400000D03*
D20*
X156452240Y-53493600D03*
X156452240Y-56033600D03*
X156452240Y-58573600D03*
X156452240Y-61113600D03*
X156452240Y-63653600D03*
X156452240Y-66193600D03*
X156452240Y-68733600D03*
X156452240Y-71273600D03*
X156452240Y-73813600D03*
X156452240Y-76353600D03*
X156452240Y-78893600D03*
X156452240Y-81433600D03*
X156452240Y-83973600D03*
X156452240Y-86513600D03*
X156452240Y-89053600D03*
X156452240Y-91593600D03*
X156452240Y-94133600D03*
X156452240Y-96673600D03*
X193559100Y-96673600D03*
X193559100Y-94133600D03*
X193559100Y-91593600D03*
X193559100Y-89053600D03*
X193559100Y-86513600D03*
X193559100Y-83973600D03*
X193559100Y-81433600D03*
X193559100Y-78893600D03*
X193559100Y-76353600D03*
X193559100Y-73813600D03*
X193559100Y-71273600D03*
X193559100Y-68733600D03*
X193559100Y-66193600D03*
X193559100Y-63653600D03*
X193559100Y-61113600D03*
X193559100Y-58573600D03*
X193559100Y-56033600D03*
X193559100Y-53493600D03*
D12*
X173900000Y-143100000D03*
D11*
X171360000Y-143100000D03*
D20*
X193547760Y-147006400D03*
X193547760Y-144466400D03*
X193547760Y-141926400D03*
X193547760Y-139386400D03*
X193547760Y-136846400D03*
X193547760Y-134306400D03*
X193547760Y-131766400D03*
X193547760Y-129226400D03*
X193547760Y-126686400D03*
X193547760Y-124146400D03*
X193547760Y-121606400D03*
X193547760Y-119066400D03*
X193547760Y-116526400D03*
X193547760Y-113986400D03*
X193547760Y-111446400D03*
X193547760Y-108906400D03*
X193547760Y-106366400D03*
X193547760Y-103826400D03*
X156440900Y-103826400D03*
X156440900Y-106366400D03*
X156440900Y-108906400D03*
X156440900Y-111446400D03*
X156440900Y-113986400D03*
X156440900Y-116526400D03*
X156440900Y-119066400D03*
X156440900Y-121606400D03*
X156440900Y-124146400D03*
X156440900Y-126686400D03*
X156440900Y-129226400D03*
X156440900Y-131766400D03*
X156440900Y-134306400D03*
X156440900Y-136846400D03*
X156440900Y-139386400D03*
X156440900Y-141926400D03*
X156440900Y-144466400D03*
X156440900Y-147006400D03*
M02*
