G04 #@! TF.FileFunction,Profile,NP*
%FSLAX46Y46*%
G04 Gerber Fmt 4.6, Leading zero omitted, Abs format (unit mm)*
G04 Created by KiCad (PCBNEW 4.0.6-e0-6349~53~ubuntu14.04.1) date Mon Apr 10 17:45:15 2017*
%MOMM*%
%LPD*%
G01*
G04 APERTURE LIST*
%ADD10C,0.100000*%
%ADD11C,0.150000*%
G04 APERTURE END LIST*
D10*
X154000000Y-51900000D02*
X154500000Y-51900000D01*
X154000000Y-74000000D02*
X154000000Y-51900000D01*
X144800000Y-74000000D02*
X154000000Y-74000000D01*
X144800000Y-57000000D02*
X144800000Y-74000000D01*
X144700000Y-57000000D02*
X144800000Y-57000000D01*
X177000000Y-99000000D02*
X195500000Y-99000000D01*
X177000000Y-101500000D02*
X195500000Y-101500000D01*
X177000000Y-99000000D02*
X177000000Y-101500000D01*
X154500000Y-148600000D02*
X154500000Y-148010000D01*
X154500000Y-127500000D02*
X154500000Y-148000000D01*
X145000000Y-127500000D02*
X154500000Y-127500000D01*
X145000000Y-144500000D02*
X145000000Y-127500000D01*
X144500000Y-144500000D02*
X145000000Y-144500000D01*
X145000000Y-99000000D02*
X127000000Y-99000000D01*
X145000000Y-77500000D02*
X145000000Y-99000000D01*
X154000000Y-77500000D02*
X145000000Y-77500000D01*
X154000000Y-99000000D02*
X154000000Y-77500000D01*
X173500000Y-99000000D02*
X154000000Y-99000000D01*
X173500000Y-101500000D02*
X173500000Y-99000000D01*
X154500000Y-101500000D02*
X173500000Y-101500000D01*
X154500000Y-123500000D02*
X154500000Y-101500000D01*
X145000000Y-123500000D02*
X154500000Y-123500000D01*
X145000000Y-102500000D02*
X145000000Y-123500000D01*
X127000000Y-102500000D02*
X145000000Y-102500000D01*
X127000000Y-99000000D02*
X127000000Y-102500000D01*
X123500000Y-102500000D02*
X104000000Y-102500000D01*
X123500000Y-99000000D02*
X123500000Y-102500000D01*
X104000000Y-99000000D02*
X123500000Y-99000000D01*
D11*
X100000000Y-150000000D02*
X100000000Y-50000000D01*
X200000000Y-150000000D02*
X100000000Y-150000000D01*
X200000000Y-50000000D02*
X200000000Y-150000000D01*
X100000000Y-50000000D02*
X200000000Y-50000000D01*
D10*
X144000000Y-57000000D02*
X104000000Y-57000000D01*
X144000000Y-57000000D02*
X144750000Y-57000000D01*
X144750000Y-57000000D02*
X144750000Y-57000000D01*
X144750000Y-57000000D02*
X144750000Y-57000000D01*
X104000000Y-59000000D02*
X104000000Y-59000000D01*
X104000000Y-57000000D02*
X104000000Y-59000000D01*
X104000000Y-99000000D02*
X104000000Y-99000000D01*
X104000000Y-99000000D02*
X104000000Y-59000000D01*
X144000000Y-144500000D02*
X144750000Y-144500000D01*
X104000000Y-104500000D02*
X104000000Y-104500000D01*
X104000000Y-102500000D02*
X104000000Y-104500000D01*
X104000000Y-144500000D02*
X104000000Y-144500000D01*
X144000000Y-144500000D02*
X104000000Y-144500000D01*
X104000000Y-144500000D02*
X104000000Y-104500000D01*
X195500000Y-51900000D02*
X195500000Y-99000000D01*
X154500000Y-51900000D02*
X195500000Y-51900000D01*
X195500000Y-101500000D02*
X195500000Y-148600000D01*
X195500000Y-148600000D02*
X154500000Y-148600000D01*
M02*
