G04 #@! TF.FileFunction,Legend,Bot*
%FSLAX46Y46*%
G04 Gerber Fmt 4.6, Leading zero omitted, Abs format (unit mm)*
G04 Created by KiCad (PCBNEW 4.0.6-e0-6349~53~ubuntu14.04.1) date Mon Apr 10 17:45:15 2017*
%MOMM*%
%LPD*%
G01*
G04 APERTURE LIST*
%ADD10C,0.100000*%
%ADD11C,0.120000*%
%ADD12C,0.381000*%
%ADD13C,0.152400*%
%ADD14C,0.150000*%
%ADD15C,0.025400*%
%ADD16C,0.127000*%
%ADD17C,0.101600*%
%ADD18C,0.050800*%
G04 APERTURE END LIST*
D10*
D11*
X122850000Y-63300000D02*
X122150000Y-63300000D01*
X122150000Y-64500000D02*
X122850000Y-64500000D01*
X122850000Y-69500000D02*
X122150000Y-69500000D01*
X122150000Y-70700000D02*
X122850000Y-70700000D01*
X120180000Y-66750000D02*
X120180000Y-65750000D01*
X118820000Y-65750000D02*
X118820000Y-66750000D01*
X117650000Y-67520000D02*
X116650000Y-67520000D01*
X116650000Y-68880000D02*
X117650000Y-68880000D01*
X118250000Y-63320000D02*
X117250000Y-63320000D01*
X117250000Y-64680000D02*
X118250000Y-64680000D01*
X115250000Y-63320000D02*
X114250000Y-63320000D01*
X114250000Y-64680000D02*
X115250000Y-64680000D01*
X120990000Y-67600000D02*
X120990000Y-65150000D01*
X124210000Y-65800000D02*
X124210000Y-67600000D01*
X122850000Y-108800000D02*
X122150000Y-108800000D01*
X122150000Y-110000000D02*
X122850000Y-110000000D01*
X122850000Y-115000000D02*
X122150000Y-115000000D01*
X122150000Y-116200000D02*
X122850000Y-116200000D01*
X120180000Y-112250000D02*
X120180000Y-111250000D01*
X118820000Y-111250000D02*
X118820000Y-112250000D01*
X117650000Y-113020000D02*
X116650000Y-113020000D01*
X116650000Y-114380000D02*
X117650000Y-114380000D01*
X118250000Y-108820000D02*
X117250000Y-108820000D01*
X117250000Y-110180000D02*
X118250000Y-110180000D01*
X115250000Y-108820000D02*
X114250000Y-108820000D01*
X114250000Y-110180000D02*
X115250000Y-110180000D01*
X120990000Y-113100000D02*
X120990000Y-110650000D01*
X124210000Y-111300000D02*
X124210000Y-113100000D01*
D12*
X189327940Y-71751640D02*
X189272060Y-71751640D01*
D13*
X163065000Y-84230000D02*
X164335000Y-84230000D01*
X164335000Y-84230000D02*
X164970000Y-84865000D01*
X164970000Y-84865000D02*
X164970000Y-86135000D01*
X164970000Y-86135000D02*
X164335000Y-86770000D01*
X162430000Y-84865000D02*
X162430000Y-86135000D01*
X163065000Y-84230000D02*
X162430000Y-84865000D01*
X162430000Y-86135000D02*
X163065000Y-86770000D01*
X164335000Y-86770000D02*
X163065000Y-86770000D01*
X165865000Y-84230000D02*
X167135000Y-84230000D01*
X167135000Y-84230000D02*
X167770000Y-84865000D01*
X167770000Y-84865000D02*
X167770000Y-86135000D01*
X167770000Y-86135000D02*
X167135000Y-86770000D01*
X165230000Y-84865000D02*
X165230000Y-86135000D01*
X165865000Y-84230000D02*
X165230000Y-84865000D01*
X165230000Y-86135000D02*
X165865000Y-86770000D01*
X167135000Y-86770000D02*
X165865000Y-86770000D01*
X173365000Y-84730000D02*
X174635000Y-84730000D01*
X174635000Y-84730000D02*
X175270000Y-85365000D01*
X175270000Y-85365000D02*
X175270000Y-86635000D01*
X175270000Y-86635000D02*
X174635000Y-87270000D01*
X172730000Y-85365000D02*
X172730000Y-86635000D01*
X173365000Y-84730000D02*
X172730000Y-85365000D01*
X172730000Y-86635000D02*
X173365000Y-87270000D01*
X174635000Y-87270000D02*
X173365000Y-87270000D01*
X184865000Y-84230000D02*
X186135000Y-84230000D01*
X186135000Y-84230000D02*
X186770000Y-84865000D01*
X186770000Y-84865000D02*
X186770000Y-86135000D01*
X186770000Y-86135000D02*
X186135000Y-86770000D01*
X184230000Y-84865000D02*
X184230000Y-86135000D01*
X184865000Y-84230000D02*
X184230000Y-84865000D01*
X184230000Y-86135000D02*
X184865000Y-86770000D01*
X186135000Y-86770000D02*
X184865000Y-86770000D01*
X181365000Y-84230000D02*
X182635000Y-84230000D01*
X182635000Y-84230000D02*
X183270000Y-84865000D01*
X183270000Y-84865000D02*
X183270000Y-86135000D01*
X183270000Y-86135000D02*
X182635000Y-86770000D01*
X180730000Y-84865000D02*
X180730000Y-86135000D01*
X181365000Y-84230000D02*
X180730000Y-84865000D01*
X180730000Y-86135000D02*
X181365000Y-86770000D01*
X182635000Y-86770000D02*
X181365000Y-86770000D01*
D12*
X160672060Y-128748360D02*
X160727940Y-128748360D01*
D13*
X186935000Y-116270000D02*
X185665000Y-116270000D01*
X185665000Y-116270000D02*
X185030000Y-115635000D01*
X185030000Y-115635000D02*
X185030000Y-114365000D01*
X185030000Y-114365000D02*
X185665000Y-113730000D01*
X187570000Y-115635000D02*
X187570000Y-114365000D01*
X186935000Y-116270000D02*
X187570000Y-115635000D01*
X187570000Y-114365000D02*
X186935000Y-113730000D01*
X185665000Y-113730000D02*
X186935000Y-113730000D01*
X184135000Y-116270000D02*
X182865000Y-116270000D01*
X182865000Y-116270000D02*
X182230000Y-115635000D01*
X182230000Y-115635000D02*
X182230000Y-114365000D01*
X182230000Y-114365000D02*
X182865000Y-113730000D01*
X184770000Y-115635000D02*
X184770000Y-114365000D01*
X184135000Y-116270000D02*
X184770000Y-115635000D01*
X184770000Y-114365000D02*
X184135000Y-113730000D01*
X182865000Y-113730000D02*
X184135000Y-113730000D01*
X176635000Y-115770000D02*
X175365000Y-115770000D01*
X175365000Y-115770000D02*
X174730000Y-115135000D01*
X174730000Y-115135000D02*
X174730000Y-113865000D01*
X174730000Y-113865000D02*
X175365000Y-113230000D01*
X177270000Y-115135000D02*
X177270000Y-113865000D01*
X176635000Y-115770000D02*
X177270000Y-115135000D01*
X177270000Y-113865000D02*
X176635000Y-113230000D01*
X175365000Y-113230000D02*
X176635000Y-113230000D01*
X165135000Y-116270000D02*
X163865000Y-116270000D01*
X163865000Y-116270000D02*
X163230000Y-115635000D01*
X163230000Y-115635000D02*
X163230000Y-114365000D01*
X163230000Y-114365000D02*
X163865000Y-113730000D01*
X165770000Y-115635000D02*
X165770000Y-114365000D01*
X165135000Y-116270000D02*
X165770000Y-115635000D01*
X165770000Y-114365000D02*
X165135000Y-113730000D01*
X163865000Y-113730000D02*
X165135000Y-113730000D01*
X168635000Y-116270000D02*
X167365000Y-116270000D01*
X167365000Y-116270000D02*
X166730000Y-115635000D01*
X166730000Y-115635000D02*
X166730000Y-114365000D01*
X166730000Y-114365000D02*
X167365000Y-113730000D01*
X169270000Y-115635000D02*
X169270000Y-114365000D01*
X168635000Y-116270000D02*
X169270000Y-115635000D01*
X169270000Y-114365000D02*
X168635000Y-113730000D01*
X167365000Y-113730000D02*
X168635000Y-113730000D01*
D14*
X122666666Y-62757143D02*
X122714285Y-62804762D01*
X122857142Y-62852381D01*
X122952380Y-62852381D01*
X123095238Y-62804762D01*
X123190476Y-62709524D01*
X123238095Y-62614286D01*
X123285714Y-62423810D01*
X123285714Y-62280952D01*
X123238095Y-62090476D01*
X123190476Y-61995238D01*
X123095238Y-61900000D01*
X122952380Y-61852381D01*
X122857142Y-61852381D01*
X122714285Y-61900000D01*
X122666666Y-61947619D01*
X122285714Y-61947619D02*
X122238095Y-61900000D01*
X122142857Y-61852381D01*
X121904761Y-61852381D01*
X121809523Y-61900000D01*
X121761904Y-61947619D01*
X121714285Y-62042857D01*
X121714285Y-62138095D01*
X121761904Y-62280952D01*
X122333333Y-62852381D01*
X121714285Y-62852381D01*
X122666666Y-71957143D02*
X122714285Y-72004762D01*
X122857142Y-72052381D01*
X122952380Y-72052381D01*
X123095238Y-72004762D01*
X123190476Y-71909524D01*
X123238095Y-71814286D01*
X123285714Y-71623810D01*
X123285714Y-71480952D01*
X123238095Y-71290476D01*
X123190476Y-71195238D01*
X123095238Y-71100000D01*
X122952380Y-71052381D01*
X122857142Y-71052381D01*
X122714285Y-71100000D01*
X122666666Y-71147619D01*
X122333333Y-71052381D02*
X121714285Y-71052381D01*
X122047619Y-71433333D01*
X121904761Y-71433333D01*
X121809523Y-71480952D01*
X121761904Y-71528571D01*
X121714285Y-71623810D01*
X121714285Y-71861905D01*
X121761904Y-71957143D01*
X121809523Y-72004762D01*
X121904761Y-72052381D01*
X122190476Y-72052381D01*
X122285714Y-72004762D01*
X122333333Y-71957143D01*
X121752381Y-66083334D02*
X121276190Y-65750000D01*
X121752381Y-65511905D02*
X120752381Y-65511905D01*
X120752381Y-65892858D01*
X120800000Y-65988096D01*
X120847619Y-66035715D01*
X120942857Y-66083334D01*
X121085714Y-66083334D01*
X121180952Y-66035715D01*
X121228571Y-65988096D01*
X121276190Y-65892858D01*
X121276190Y-65511905D01*
X121752381Y-67035715D02*
X121752381Y-66464286D01*
X121752381Y-66750000D02*
X120752381Y-66750000D01*
X120895238Y-66654762D01*
X120990476Y-66559524D01*
X121038095Y-66464286D01*
X117316666Y-70102381D02*
X117650000Y-69626190D01*
X117888095Y-70102381D02*
X117888095Y-69102381D01*
X117507142Y-69102381D01*
X117411904Y-69150000D01*
X117364285Y-69197619D01*
X117316666Y-69292857D01*
X117316666Y-69435714D01*
X117364285Y-69530952D01*
X117411904Y-69578571D01*
X117507142Y-69626190D01*
X117888095Y-69626190D01*
X116983333Y-69102381D02*
X116364285Y-69102381D01*
X116697619Y-69483333D01*
X116554761Y-69483333D01*
X116459523Y-69530952D01*
X116411904Y-69578571D01*
X116364285Y-69673810D01*
X116364285Y-69911905D01*
X116411904Y-70007143D01*
X116459523Y-70054762D01*
X116554761Y-70102381D01*
X116840476Y-70102381D01*
X116935714Y-70054762D01*
X116983333Y-70007143D01*
X117916666Y-65902381D02*
X118250000Y-65426190D01*
X118488095Y-65902381D02*
X118488095Y-64902381D01*
X118107142Y-64902381D01*
X118011904Y-64950000D01*
X117964285Y-64997619D01*
X117916666Y-65092857D01*
X117916666Y-65235714D01*
X117964285Y-65330952D01*
X118011904Y-65378571D01*
X118107142Y-65426190D01*
X118488095Y-65426190D01*
X117059523Y-65235714D02*
X117059523Y-65902381D01*
X117297619Y-64854762D02*
X117535714Y-65569048D01*
X116916666Y-65569048D01*
X114916666Y-63002381D02*
X115250000Y-62526190D01*
X115488095Y-63002381D02*
X115488095Y-62002381D01*
X115107142Y-62002381D01*
X115011904Y-62050000D01*
X114964285Y-62097619D01*
X114916666Y-62192857D01*
X114916666Y-62335714D01*
X114964285Y-62430952D01*
X115011904Y-62478571D01*
X115107142Y-62526190D01*
X115488095Y-62526190D01*
X114011904Y-62002381D02*
X114488095Y-62002381D01*
X114535714Y-62478571D01*
X114488095Y-62430952D01*
X114392857Y-62383333D01*
X114154761Y-62383333D01*
X114059523Y-62430952D01*
X114011904Y-62478571D01*
X113964285Y-62573810D01*
X113964285Y-62811905D01*
X114011904Y-62907143D01*
X114059523Y-62954762D01*
X114154761Y-63002381D01*
X114392857Y-63002381D01*
X114488095Y-62954762D01*
X114535714Y-62907143D01*
X119152381Y-65938095D02*
X119961905Y-65938095D01*
X120057143Y-65985714D01*
X120104762Y-66033333D01*
X120152381Y-66128571D01*
X120152381Y-66319048D01*
X120104762Y-66414286D01*
X120057143Y-66461905D01*
X119961905Y-66509524D01*
X119152381Y-66509524D01*
X119247619Y-66938095D02*
X119200000Y-66985714D01*
X119152381Y-67080952D01*
X119152381Y-67319048D01*
X119200000Y-67414286D01*
X119247619Y-67461905D01*
X119342857Y-67509524D01*
X119438095Y-67509524D01*
X119580952Y-67461905D01*
X120152381Y-66890476D01*
X120152381Y-67509524D01*
X122666666Y-108257143D02*
X122714285Y-108304762D01*
X122857142Y-108352381D01*
X122952380Y-108352381D01*
X123095238Y-108304762D01*
X123190476Y-108209524D01*
X123238095Y-108114286D01*
X123285714Y-107923810D01*
X123285714Y-107780952D01*
X123238095Y-107590476D01*
X123190476Y-107495238D01*
X123095238Y-107400000D01*
X122952380Y-107352381D01*
X122857142Y-107352381D01*
X122714285Y-107400000D01*
X122666666Y-107447619D01*
X122285714Y-107447619D02*
X122238095Y-107400000D01*
X122142857Y-107352381D01*
X121904761Y-107352381D01*
X121809523Y-107400000D01*
X121761904Y-107447619D01*
X121714285Y-107542857D01*
X121714285Y-107638095D01*
X121761904Y-107780952D01*
X122333333Y-108352381D01*
X121714285Y-108352381D01*
X122666666Y-117457143D02*
X122714285Y-117504762D01*
X122857142Y-117552381D01*
X122952380Y-117552381D01*
X123095238Y-117504762D01*
X123190476Y-117409524D01*
X123238095Y-117314286D01*
X123285714Y-117123810D01*
X123285714Y-116980952D01*
X123238095Y-116790476D01*
X123190476Y-116695238D01*
X123095238Y-116600000D01*
X122952380Y-116552381D01*
X122857142Y-116552381D01*
X122714285Y-116600000D01*
X122666666Y-116647619D01*
X122333333Y-116552381D02*
X121714285Y-116552381D01*
X122047619Y-116933333D01*
X121904761Y-116933333D01*
X121809523Y-116980952D01*
X121761904Y-117028571D01*
X121714285Y-117123810D01*
X121714285Y-117361905D01*
X121761904Y-117457143D01*
X121809523Y-117504762D01*
X121904761Y-117552381D01*
X122190476Y-117552381D01*
X122285714Y-117504762D01*
X122333333Y-117457143D01*
X121752381Y-111583334D02*
X121276190Y-111250000D01*
X121752381Y-111011905D02*
X120752381Y-111011905D01*
X120752381Y-111392858D01*
X120800000Y-111488096D01*
X120847619Y-111535715D01*
X120942857Y-111583334D01*
X121085714Y-111583334D01*
X121180952Y-111535715D01*
X121228571Y-111488096D01*
X121276190Y-111392858D01*
X121276190Y-111011905D01*
X121752381Y-112535715D02*
X121752381Y-111964286D01*
X121752381Y-112250000D02*
X120752381Y-112250000D01*
X120895238Y-112154762D01*
X120990476Y-112059524D01*
X121038095Y-111964286D01*
X117316666Y-115602381D02*
X117650000Y-115126190D01*
X117888095Y-115602381D02*
X117888095Y-114602381D01*
X117507142Y-114602381D01*
X117411904Y-114650000D01*
X117364285Y-114697619D01*
X117316666Y-114792857D01*
X117316666Y-114935714D01*
X117364285Y-115030952D01*
X117411904Y-115078571D01*
X117507142Y-115126190D01*
X117888095Y-115126190D01*
X116983333Y-114602381D02*
X116364285Y-114602381D01*
X116697619Y-114983333D01*
X116554761Y-114983333D01*
X116459523Y-115030952D01*
X116411904Y-115078571D01*
X116364285Y-115173810D01*
X116364285Y-115411905D01*
X116411904Y-115507143D01*
X116459523Y-115554762D01*
X116554761Y-115602381D01*
X116840476Y-115602381D01*
X116935714Y-115554762D01*
X116983333Y-115507143D01*
X117916666Y-111402381D02*
X118250000Y-110926190D01*
X118488095Y-111402381D02*
X118488095Y-110402381D01*
X118107142Y-110402381D01*
X118011904Y-110450000D01*
X117964285Y-110497619D01*
X117916666Y-110592857D01*
X117916666Y-110735714D01*
X117964285Y-110830952D01*
X118011904Y-110878571D01*
X118107142Y-110926190D01*
X118488095Y-110926190D01*
X117059523Y-110735714D02*
X117059523Y-111402381D01*
X117297619Y-110354762D02*
X117535714Y-111069048D01*
X116916666Y-111069048D01*
X114916666Y-108502381D02*
X115250000Y-108026190D01*
X115488095Y-108502381D02*
X115488095Y-107502381D01*
X115107142Y-107502381D01*
X115011904Y-107550000D01*
X114964285Y-107597619D01*
X114916666Y-107692857D01*
X114916666Y-107835714D01*
X114964285Y-107930952D01*
X115011904Y-107978571D01*
X115107142Y-108026190D01*
X115488095Y-108026190D01*
X114011904Y-107502381D02*
X114488095Y-107502381D01*
X114535714Y-107978571D01*
X114488095Y-107930952D01*
X114392857Y-107883333D01*
X114154761Y-107883333D01*
X114059523Y-107930952D01*
X114011904Y-107978571D01*
X113964285Y-108073810D01*
X113964285Y-108311905D01*
X114011904Y-108407143D01*
X114059523Y-108454762D01*
X114154761Y-108502381D01*
X114392857Y-108502381D01*
X114488095Y-108454762D01*
X114535714Y-108407143D01*
X119152381Y-111438095D02*
X119961905Y-111438095D01*
X120057143Y-111485714D01*
X120104762Y-111533333D01*
X120152381Y-111628571D01*
X120152381Y-111819048D01*
X120104762Y-111914286D01*
X120057143Y-111961905D01*
X119961905Y-112009524D01*
X119152381Y-112009524D01*
X119247619Y-112438095D02*
X119200000Y-112485714D01*
X119152381Y-112580952D01*
X119152381Y-112819048D01*
X119200000Y-112914286D01*
X119247619Y-112961905D01*
X119342857Y-113009524D01*
X119438095Y-113009524D01*
X119580952Y-112961905D01*
X120152381Y-112390476D01*
X120152381Y-113009524D01*
D15*
X190410343Y-71946374D02*
X190429695Y-71965726D01*
X190449048Y-72023783D01*
X190449048Y-72062488D01*
X190429695Y-72120545D01*
X190390990Y-72159250D01*
X190352286Y-72178602D01*
X190274876Y-72197954D01*
X190216819Y-72197954D01*
X190139410Y-72178602D01*
X190100705Y-72159250D01*
X190062000Y-72120545D01*
X190042648Y-72062488D01*
X190042648Y-72023783D01*
X190062000Y-71965726D01*
X190081352Y-71946374D01*
X190449048Y-71559326D02*
X190449048Y-71791554D01*
X190449048Y-71675440D02*
X190042648Y-71675440D01*
X190100705Y-71714145D01*
X190139410Y-71752850D01*
X190158762Y-71791554D01*
X188137648Y-72641850D02*
X188137648Y-72603145D01*
X188157000Y-72564440D01*
X188176352Y-72545088D01*
X188215057Y-72525735D01*
X188292467Y-72506383D01*
X188389229Y-72506383D01*
X188466638Y-72525735D01*
X188505343Y-72545088D01*
X188524695Y-72564440D01*
X188544048Y-72603145D01*
X188544048Y-72641850D01*
X188524695Y-72680554D01*
X188505343Y-72699907D01*
X188466638Y-72719259D01*
X188389229Y-72738611D01*
X188292467Y-72738611D01*
X188215057Y-72719259D01*
X188176352Y-72699907D01*
X188157000Y-72680554D01*
X188137648Y-72641850D01*
X188505343Y-72332211D02*
X188524695Y-72312859D01*
X188544048Y-72332211D01*
X188524695Y-72351563D01*
X188505343Y-72332211D01*
X188544048Y-72332211D01*
X188273114Y-71964516D02*
X188544048Y-71964516D01*
X188118295Y-72061278D02*
X188408581Y-72158039D01*
X188408581Y-71906459D01*
X188137648Y-71790344D02*
X188137648Y-71519411D01*
X188544048Y-71693582D01*
X188273114Y-71190420D02*
X188544048Y-71190420D01*
X188273114Y-71364591D02*
X188485990Y-71364591D01*
X188524695Y-71345239D01*
X188544048Y-71306534D01*
X188544048Y-71248477D01*
X188524695Y-71209772D01*
X188505343Y-71190420D01*
D16*
X164470467Y-82340724D02*
X164470467Y-83247867D01*
X164409991Y-83429295D01*
X164289039Y-83550248D01*
X164107610Y-83610724D01*
X163986658Y-83610724D01*
X165075229Y-83610724D02*
X165075229Y-82340724D01*
X165559038Y-82340724D01*
X165679991Y-82401200D01*
X165740467Y-82461676D01*
X165800943Y-82582629D01*
X165800943Y-82764057D01*
X165740467Y-82885010D01*
X165679991Y-82945486D01*
X165559038Y-83005962D01*
X165075229Y-83005962D01*
X166224277Y-82340724D02*
X167010467Y-82340724D01*
X166587134Y-82824533D01*
X166768562Y-82824533D01*
X166889515Y-82885010D01*
X166949991Y-82945486D01*
X167010467Y-83066438D01*
X167010467Y-83368819D01*
X166949991Y-83489771D01*
X166889515Y-83550248D01*
X166768562Y-83610724D01*
X166405705Y-83610724D01*
X166284753Y-83550248D01*
X166224277Y-83489771D01*
D17*
X161039048Y-88614524D02*
X161039048Y-87344524D01*
X161522857Y-87344524D01*
X161643810Y-87405000D01*
X161704286Y-87465476D01*
X161764762Y-87586429D01*
X161764762Y-87767857D01*
X161704286Y-87888810D01*
X161643810Y-87949286D01*
X161522857Y-88009762D01*
X161039048Y-88009762D01*
X162309048Y-88614524D02*
X162309048Y-87344524D01*
X162913810Y-88614524D02*
X162913810Y-87344524D01*
X163639524Y-88614524D01*
X163639524Y-87344524D01*
X164244286Y-88614524D02*
X164244286Y-87344524D01*
X164244286Y-87949286D02*
X164970000Y-87949286D01*
X164970000Y-88614524D02*
X164970000Y-87344524D01*
X165574762Y-88614524D02*
X165574762Y-87344524D01*
X165877143Y-87344524D01*
X166058571Y-87405000D01*
X166179524Y-87525952D01*
X166240000Y-87646905D01*
X166300476Y-87888810D01*
X166300476Y-88070238D01*
X166240000Y-88312143D01*
X166179524Y-88433095D01*
X166058571Y-88554048D01*
X165877143Y-88614524D01*
X165574762Y-88614524D01*
X166844762Y-88130714D02*
X167812381Y-88130714D01*
X169082381Y-88614524D02*
X168356667Y-88614524D01*
X168719524Y-88614524D02*
X168719524Y-87344524D01*
X168598572Y-87525952D01*
X168477619Y-87646905D01*
X168356667Y-87707381D01*
X169505715Y-87344524D02*
X170352381Y-88614524D01*
X170352381Y-87344524D02*
X169505715Y-88614524D01*
X171501429Y-88614524D02*
X170775715Y-88614524D01*
X171138572Y-88614524D02*
X171138572Y-87344524D01*
X171017620Y-87525952D01*
X170896667Y-87646905D01*
X170775715Y-87707381D01*
D16*
X167270467Y-82340724D02*
X167270467Y-83247867D01*
X167209991Y-83429295D01*
X167089039Y-83550248D01*
X166907610Y-83610724D01*
X166786658Y-83610724D01*
X167875229Y-83610724D02*
X167875229Y-82340724D01*
X168359038Y-82340724D01*
X168479991Y-82401200D01*
X168540467Y-82461676D01*
X168600943Y-82582629D01*
X168600943Y-82764057D01*
X168540467Y-82885010D01*
X168479991Y-82945486D01*
X168359038Y-83005962D01*
X167875229Y-83005962D01*
X169689515Y-82764057D02*
X169689515Y-83610724D01*
X169387134Y-82280248D02*
X169084753Y-83187390D01*
X169870943Y-83187390D01*
D17*
X163839048Y-88614524D02*
X163839048Y-87344524D01*
X164322857Y-87344524D01*
X164443810Y-87405000D01*
X164504286Y-87465476D01*
X164564762Y-87586429D01*
X164564762Y-87767857D01*
X164504286Y-87888810D01*
X164443810Y-87949286D01*
X164322857Y-88009762D01*
X163839048Y-88009762D01*
X165109048Y-88614524D02*
X165109048Y-87344524D01*
X165713810Y-88614524D02*
X165713810Y-87344524D01*
X166439524Y-88614524D01*
X166439524Y-87344524D01*
X167044286Y-88614524D02*
X167044286Y-87344524D01*
X167044286Y-87949286D02*
X167770000Y-87949286D01*
X167770000Y-88614524D02*
X167770000Y-87344524D01*
X168374762Y-88614524D02*
X168374762Y-87344524D01*
X168677143Y-87344524D01*
X168858571Y-87405000D01*
X168979524Y-87525952D01*
X169040000Y-87646905D01*
X169100476Y-87888810D01*
X169100476Y-88070238D01*
X169040000Y-88312143D01*
X168979524Y-88433095D01*
X168858571Y-88554048D01*
X168677143Y-88614524D01*
X168374762Y-88614524D01*
X169644762Y-88130714D02*
X170612381Y-88130714D01*
X171882381Y-88614524D02*
X171156667Y-88614524D01*
X171519524Y-88614524D02*
X171519524Y-87344524D01*
X171398572Y-87525952D01*
X171277619Y-87646905D01*
X171156667Y-87707381D01*
X172305715Y-87344524D02*
X173152381Y-88614524D01*
X173152381Y-87344524D02*
X172305715Y-88614524D01*
X174301429Y-88614524D02*
X173575715Y-88614524D01*
X173938572Y-88614524D02*
X173938572Y-87344524D01*
X173817620Y-87525952D01*
X173696667Y-87646905D01*
X173575715Y-87707381D01*
D16*
X174770467Y-82840724D02*
X174770467Y-83747867D01*
X174709991Y-83929295D01*
X174589039Y-84050248D01*
X174407610Y-84110724D01*
X174286658Y-84110724D01*
X175375229Y-84110724D02*
X175375229Y-82840724D01*
X175859038Y-82840724D01*
X175979991Y-82901200D01*
X176040467Y-82961676D01*
X176100943Y-83082629D01*
X176100943Y-83264057D01*
X176040467Y-83385010D01*
X175979991Y-83445486D01*
X175859038Y-83505962D01*
X175375229Y-83505962D01*
X177249991Y-82840724D02*
X176645229Y-82840724D01*
X176584753Y-83445486D01*
X176645229Y-83385010D01*
X176766181Y-83324533D01*
X177068562Y-83324533D01*
X177189515Y-83385010D01*
X177249991Y-83445486D01*
X177310467Y-83566438D01*
X177310467Y-83868819D01*
X177249991Y-83989771D01*
X177189515Y-84050248D01*
X177068562Y-84110724D01*
X176766181Y-84110724D01*
X176645229Y-84050248D01*
X176584753Y-83989771D01*
D17*
X171339048Y-89114524D02*
X171339048Y-87844524D01*
X171822857Y-87844524D01*
X171943810Y-87905000D01*
X172004286Y-87965476D01*
X172064762Y-88086429D01*
X172064762Y-88267857D01*
X172004286Y-88388810D01*
X171943810Y-88449286D01*
X171822857Y-88509762D01*
X171339048Y-88509762D01*
X172609048Y-89114524D02*
X172609048Y-87844524D01*
X173213810Y-89114524D02*
X173213810Y-87844524D01*
X173939524Y-89114524D01*
X173939524Y-87844524D01*
X174544286Y-89114524D02*
X174544286Y-87844524D01*
X174544286Y-88449286D02*
X175270000Y-88449286D01*
X175270000Y-89114524D02*
X175270000Y-87844524D01*
X175874762Y-89114524D02*
X175874762Y-87844524D01*
X176177143Y-87844524D01*
X176358571Y-87905000D01*
X176479524Y-88025952D01*
X176540000Y-88146905D01*
X176600476Y-88388810D01*
X176600476Y-88570238D01*
X176540000Y-88812143D01*
X176479524Y-88933095D01*
X176358571Y-89054048D01*
X176177143Y-89114524D01*
X175874762Y-89114524D01*
X177144762Y-88630714D02*
X178112381Y-88630714D01*
X179382381Y-89114524D02*
X178656667Y-89114524D01*
X179019524Y-89114524D02*
X179019524Y-87844524D01*
X178898572Y-88025952D01*
X178777619Y-88146905D01*
X178656667Y-88207381D01*
X179805715Y-87844524D02*
X180652381Y-89114524D01*
X180652381Y-87844524D02*
X179805715Y-89114524D01*
X181801429Y-89114524D02*
X181075715Y-89114524D01*
X181438572Y-89114524D02*
X181438572Y-87844524D01*
X181317620Y-88025952D01*
X181196667Y-88146905D01*
X181075715Y-88207381D01*
D16*
X186270467Y-82340724D02*
X186270467Y-83247867D01*
X186209991Y-83429295D01*
X186089039Y-83550248D01*
X185907610Y-83610724D01*
X185786658Y-83610724D01*
X186875229Y-83610724D02*
X186875229Y-82340724D01*
X187359038Y-82340724D01*
X187479991Y-82401200D01*
X187540467Y-82461676D01*
X187600943Y-82582629D01*
X187600943Y-82764057D01*
X187540467Y-82885010D01*
X187479991Y-82945486D01*
X187359038Y-83005962D01*
X186875229Y-83005962D01*
X188689515Y-82340724D02*
X188447610Y-82340724D01*
X188326658Y-82401200D01*
X188266181Y-82461676D01*
X188145229Y-82643105D01*
X188084753Y-82885010D01*
X188084753Y-83368819D01*
X188145229Y-83489771D01*
X188205705Y-83550248D01*
X188326658Y-83610724D01*
X188568562Y-83610724D01*
X188689515Y-83550248D01*
X188749991Y-83489771D01*
X188810467Y-83368819D01*
X188810467Y-83066438D01*
X188749991Y-82945486D01*
X188689515Y-82885010D01*
X188568562Y-82824533D01*
X188326658Y-82824533D01*
X188205705Y-82885010D01*
X188145229Y-82945486D01*
X188084753Y-83066438D01*
D17*
X182839048Y-88614524D02*
X182839048Y-87344524D01*
X183322857Y-87344524D01*
X183443810Y-87405000D01*
X183504286Y-87465476D01*
X183564762Y-87586429D01*
X183564762Y-87767857D01*
X183504286Y-87888810D01*
X183443810Y-87949286D01*
X183322857Y-88009762D01*
X182839048Y-88009762D01*
X184109048Y-88614524D02*
X184109048Y-87344524D01*
X184713810Y-88614524D02*
X184713810Y-87344524D01*
X185439524Y-88614524D01*
X185439524Y-87344524D01*
X186044286Y-88614524D02*
X186044286Y-87344524D01*
X186044286Y-87949286D02*
X186770000Y-87949286D01*
X186770000Y-88614524D02*
X186770000Y-87344524D01*
X187374762Y-88614524D02*
X187374762Y-87344524D01*
X187677143Y-87344524D01*
X187858571Y-87405000D01*
X187979524Y-87525952D01*
X188040000Y-87646905D01*
X188100476Y-87888810D01*
X188100476Y-88070238D01*
X188040000Y-88312143D01*
X187979524Y-88433095D01*
X187858571Y-88554048D01*
X187677143Y-88614524D01*
X187374762Y-88614524D01*
X188644762Y-88130714D02*
X189612381Y-88130714D01*
X190882381Y-88614524D02*
X190156667Y-88614524D01*
X190519524Y-88614524D02*
X190519524Y-87344524D01*
X190398572Y-87525952D01*
X190277619Y-87646905D01*
X190156667Y-87707381D01*
X191305715Y-87344524D02*
X192152381Y-88614524D01*
X192152381Y-87344524D02*
X191305715Y-88614524D01*
X193301429Y-88614524D02*
X192575715Y-88614524D01*
X192938572Y-88614524D02*
X192938572Y-87344524D01*
X192817620Y-87525952D01*
X192696667Y-87646905D01*
X192575715Y-87707381D01*
D16*
X182770467Y-82340724D02*
X182770467Y-83247867D01*
X182709991Y-83429295D01*
X182589039Y-83550248D01*
X182407610Y-83610724D01*
X182286658Y-83610724D01*
X183375229Y-83610724D02*
X183375229Y-82340724D01*
X183859038Y-82340724D01*
X183979991Y-82401200D01*
X184040467Y-82461676D01*
X184100943Y-82582629D01*
X184100943Y-82764057D01*
X184040467Y-82885010D01*
X183979991Y-82945486D01*
X183859038Y-83005962D01*
X183375229Y-83005962D01*
X184524277Y-82340724D02*
X185370943Y-82340724D01*
X184826658Y-83610724D01*
D17*
X179339048Y-88614524D02*
X179339048Y-87344524D01*
X179822857Y-87344524D01*
X179943810Y-87405000D01*
X180004286Y-87465476D01*
X180064762Y-87586429D01*
X180064762Y-87767857D01*
X180004286Y-87888810D01*
X179943810Y-87949286D01*
X179822857Y-88009762D01*
X179339048Y-88009762D01*
X180609048Y-88614524D02*
X180609048Y-87344524D01*
X181213810Y-88614524D02*
X181213810Y-87344524D01*
X181939524Y-88614524D01*
X181939524Y-87344524D01*
X182544286Y-88614524D02*
X182544286Y-87344524D01*
X182544286Y-87949286D02*
X183270000Y-87949286D01*
X183270000Y-88614524D02*
X183270000Y-87344524D01*
X183874762Y-88614524D02*
X183874762Y-87344524D01*
X184177143Y-87344524D01*
X184358571Y-87405000D01*
X184479524Y-87525952D01*
X184540000Y-87646905D01*
X184600476Y-87888810D01*
X184600476Y-88070238D01*
X184540000Y-88312143D01*
X184479524Y-88433095D01*
X184358571Y-88554048D01*
X184177143Y-88614524D01*
X183874762Y-88614524D01*
X185144762Y-88130714D02*
X186112381Y-88130714D01*
X187382381Y-88614524D02*
X186656667Y-88614524D01*
X187019524Y-88614524D02*
X187019524Y-87344524D01*
X186898572Y-87525952D01*
X186777619Y-87646905D01*
X186656667Y-87707381D01*
X187805715Y-87344524D02*
X188652381Y-88614524D01*
X188652381Y-87344524D02*
X187805715Y-88614524D01*
X189801429Y-88614524D02*
X189075715Y-88614524D01*
X189438572Y-88614524D02*
X189438572Y-87344524D01*
X189317620Y-87525952D01*
X189196667Y-87646905D01*
X189075715Y-87707381D01*
D13*
X164042019Y-50422495D02*
X164583886Y-51235295D01*
X164583886Y-50422495D02*
X164042019Y-51235295D01*
X165319276Y-51235295D02*
X164854819Y-51235295D01*
X165087048Y-51235295D02*
X165087048Y-50422495D01*
X165009638Y-50538610D01*
X164932229Y-50616019D01*
X164854819Y-50654724D01*
D18*
X161564916Y-51997295D02*
X161622973Y-52016648D01*
X161719735Y-52016648D01*
X161758439Y-51997295D01*
X161777792Y-51977943D01*
X161797144Y-51939238D01*
X161797144Y-51900533D01*
X161777792Y-51861829D01*
X161758439Y-51842476D01*
X161719735Y-51823124D01*
X161642325Y-51803771D01*
X161603620Y-51784419D01*
X161584268Y-51765067D01*
X161564916Y-51726362D01*
X161564916Y-51687657D01*
X161584268Y-51648952D01*
X161603620Y-51629600D01*
X161642325Y-51610248D01*
X161739087Y-51610248D01*
X161797144Y-51629600D01*
X161971316Y-52016648D02*
X161971316Y-51610248D01*
X162106783Y-51900533D01*
X162242249Y-51610248D01*
X162242249Y-52016648D01*
X162416421Y-51900533D02*
X162609944Y-51900533D01*
X162377716Y-52016648D02*
X162513182Y-51610248D01*
X162648649Y-52016648D01*
X163016344Y-51977943D02*
X162996992Y-51997295D01*
X162938935Y-52016648D01*
X162900230Y-52016648D01*
X162842173Y-51997295D01*
X162803468Y-51958590D01*
X162784116Y-51919886D01*
X162764764Y-51842476D01*
X162764764Y-51784419D01*
X162784116Y-51707010D01*
X162803468Y-51668305D01*
X162842173Y-51629600D01*
X162900230Y-51610248D01*
X162938935Y-51610248D01*
X162996992Y-51629600D01*
X163016344Y-51648952D01*
X163267925Y-51610248D02*
X163345335Y-51610248D01*
X163384040Y-51629600D01*
X163422744Y-51668305D01*
X163442097Y-51745714D01*
X163442097Y-51881181D01*
X163422744Y-51958590D01*
X163384040Y-51997295D01*
X163345335Y-52016648D01*
X163267925Y-52016648D01*
X163229221Y-51997295D01*
X163190516Y-51958590D01*
X163171164Y-51881181D01*
X163171164Y-51745714D01*
X163190516Y-51668305D01*
X163229221Y-51629600D01*
X163267925Y-51610248D01*
X163616268Y-52016648D02*
X163616268Y-51610248D01*
X163848496Y-52016648D01*
X163848496Y-51610248D01*
X164042020Y-52016648D02*
X164042020Y-51610248D01*
X164274248Y-52016648D01*
X164274248Y-51610248D01*
X164467772Y-51803771D02*
X164603239Y-51803771D01*
X164661296Y-52016648D02*
X164467772Y-52016648D01*
X164467772Y-51610248D01*
X164661296Y-51610248D01*
X165067695Y-51977943D02*
X165048343Y-51997295D01*
X164990286Y-52016648D01*
X164951581Y-52016648D01*
X164893524Y-51997295D01*
X164854819Y-51958590D01*
X164835467Y-51919886D01*
X164816115Y-51842476D01*
X164816115Y-51784419D01*
X164835467Y-51707010D01*
X164854819Y-51668305D01*
X164893524Y-51629600D01*
X164951581Y-51610248D01*
X164990286Y-51610248D01*
X165048343Y-51629600D01*
X165067695Y-51648952D01*
X165183810Y-51610248D02*
X165416038Y-51610248D01*
X165299924Y-52016648D02*
X165299924Y-51610248D01*
X165628914Y-51610248D02*
X165706324Y-51610248D01*
X165745029Y-51629600D01*
X165783733Y-51668305D01*
X165803086Y-51745714D01*
X165803086Y-51881181D01*
X165783733Y-51958590D01*
X165745029Y-51997295D01*
X165706324Y-52016648D01*
X165628914Y-52016648D01*
X165590210Y-51997295D01*
X165551505Y-51958590D01*
X165532153Y-51881181D01*
X165532153Y-51745714D01*
X165551505Y-51668305D01*
X165590210Y-51629600D01*
X165628914Y-51610248D01*
X166209485Y-52016648D02*
X166074019Y-51823124D01*
X165977257Y-52016648D02*
X165977257Y-51610248D01*
X166132076Y-51610248D01*
X166170781Y-51629600D01*
X166190133Y-51648952D01*
X166209485Y-51687657D01*
X166209485Y-51745714D01*
X166190133Y-51784419D01*
X166170781Y-51803771D01*
X166132076Y-51823124D01*
X165977257Y-51823124D01*
D15*
X159879943Y-128689094D02*
X159899295Y-128708446D01*
X159918648Y-128766503D01*
X159918648Y-128805208D01*
X159899295Y-128863265D01*
X159860590Y-128901970D01*
X159821886Y-128921322D01*
X159744476Y-128940674D01*
X159686419Y-128940674D01*
X159609010Y-128921322D01*
X159570305Y-128901970D01*
X159531600Y-128863265D01*
X159512248Y-128805208D01*
X159512248Y-128766503D01*
X159531600Y-128708446D01*
X159550952Y-128689094D01*
X159918648Y-128302046D02*
X159918648Y-128534274D01*
X159918648Y-128418160D02*
X159512248Y-128418160D01*
X159570305Y-128456865D01*
X159609010Y-128495570D01*
X159628362Y-128534274D01*
X161417248Y-129232170D02*
X161417248Y-129193465D01*
X161436600Y-129154760D01*
X161455952Y-129135408D01*
X161494657Y-129116055D01*
X161572067Y-129096703D01*
X161668829Y-129096703D01*
X161746238Y-129116055D01*
X161784943Y-129135408D01*
X161804295Y-129154760D01*
X161823648Y-129193465D01*
X161823648Y-129232170D01*
X161804295Y-129270874D01*
X161784943Y-129290227D01*
X161746238Y-129309579D01*
X161668829Y-129328931D01*
X161572067Y-129328931D01*
X161494657Y-129309579D01*
X161455952Y-129290227D01*
X161436600Y-129270874D01*
X161417248Y-129232170D01*
X161784943Y-128922531D02*
X161804295Y-128903179D01*
X161823648Y-128922531D01*
X161804295Y-128941883D01*
X161784943Y-128922531D01*
X161823648Y-128922531D01*
X161552714Y-128554836D02*
X161823648Y-128554836D01*
X161397895Y-128651598D02*
X161688181Y-128748359D01*
X161688181Y-128496779D01*
X161417248Y-128380664D02*
X161417248Y-128109731D01*
X161823648Y-128283902D01*
X161552714Y-127780740D02*
X161823648Y-127780740D01*
X161552714Y-127954911D02*
X161765590Y-127954911D01*
X161804295Y-127935559D01*
X161823648Y-127896854D01*
X161823648Y-127838797D01*
X161804295Y-127800092D01*
X161784943Y-127780740D01*
D16*
X183412867Y-116768324D02*
X183412867Y-117675467D01*
X183352391Y-117856895D01*
X183231439Y-117977848D01*
X183050010Y-118038324D01*
X182929058Y-118038324D01*
X184017629Y-118038324D02*
X184017629Y-116768324D01*
X184501438Y-116768324D01*
X184622391Y-116828800D01*
X184682867Y-116889276D01*
X184743343Y-117010229D01*
X184743343Y-117191657D01*
X184682867Y-117312610D01*
X184622391Y-117373086D01*
X184501438Y-117433562D01*
X184017629Y-117433562D01*
X185166677Y-116768324D02*
X185952867Y-116768324D01*
X185529534Y-117252133D01*
X185710962Y-117252133D01*
X185831915Y-117312610D01*
X185892391Y-117373086D01*
X185952867Y-117494038D01*
X185952867Y-117796419D01*
X185892391Y-117917371D01*
X185831915Y-117977848D01*
X185710962Y-118038324D01*
X185348105Y-118038324D01*
X185227153Y-117977848D01*
X185166677Y-117917371D01*
D17*
X178559048Y-113034524D02*
X178559048Y-111764524D01*
X179042857Y-111764524D01*
X179163810Y-111825000D01*
X179224286Y-111885476D01*
X179284762Y-112006429D01*
X179284762Y-112187857D01*
X179224286Y-112308810D01*
X179163810Y-112369286D01*
X179042857Y-112429762D01*
X178559048Y-112429762D01*
X179829048Y-113034524D02*
X179829048Y-111764524D01*
X180433810Y-113034524D02*
X180433810Y-111764524D01*
X181159524Y-113034524D01*
X181159524Y-111764524D01*
X181764286Y-113034524D02*
X181764286Y-111764524D01*
X181764286Y-112369286D02*
X182490000Y-112369286D01*
X182490000Y-113034524D02*
X182490000Y-111764524D01*
X183094762Y-113034524D02*
X183094762Y-111764524D01*
X183397143Y-111764524D01*
X183578571Y-111825000D01*
X183699524Y-111945952D01*
X183760000Y-112066905D01*
X183820476Y-112308810D01*
X183820476Y-112490238D01*
X183760000Y-112732143D01*
X183699524Y-112853095D01*
X183578571Y-112974048D01*
X183397143Y-113034524D01*
X183094762Y-113034524D01*
X184364762Y-112550714D02*
X185332381Y-112550714D01*
X186602381Y-113034524D02*
X185876667Y-113034524D01*
X186239524Y-113034524D02*
X186239524Y-111764524D01*
X186118572Y-111945952D01*
X185997619Y-112066905D01*
X185876667Y-112127381D01*
X187025715Y-111764524D02*
X187872381Y-113034524D01*
X187872381Y-111764524D02*
X187025715Y-113034524D01*
X189021429Y-113034524D02*
X188295715Y-113034524D01*
X188658572Y-113034524D02*
X188658572Y-111764524D01*
X188537620Y-111945952D01*
X188416667Y-112066905D01*
X188295715Y-112127381D01*
D16*
X180612867Y-116768324D02*
X180612867Y-117675467D01*
X180552391Y-117856895D01*
X180431439Y-117977848D01*
X180250010Y-118038324D01*
X180129058Y-118038324D01*
X181217629Y-118038324D02*
X181217629Y-116768324D01*
X181701438Y-116768324D01*
X181822391Y-116828800D01*
X181882867Y-116889276D01*
X181943343Y-117010229D01*
X181943343Y-117191657D01*
X181882867Y-117312610D01*
X181822391Y-117373086D01*
X181701438Y-117433562D01*
X181217629Y-117433562D01*
X183031915Y-117191657D02*
X183031915Y-118038324D01*
X182729534Y-116707848D02*
X182427153Y-117614990D01*
X183213343Y-117614990D01*
D17*
X175759048Y-113034524D02*
X175759048Y-111764524D01*
X176242857Y-111764524D01*
X176363810Y-111825000D01*
X176424286Y-111885476D01*
X176484762Y-112006429D01*
X176484762Y-112187857D01*
X176424286Y-112308810D01*
X176363810Y-112369286D01*
X176242857Y-112429762D01*
X175759048Y-112429762D01*
X177029048Y-113034524D02*
X177029048Y-111764524D01*
X177633810Y-113034524D02*
X177633810Y-111764524D01*
X178359524Y-113034524D01*
X178359524Y-111764524D01*
X178964286Y-113034524D02*
X178964286Y-111764524D01*
X178964286Y-112369286D02*
X179690000Y-112369286D01*
X179690000Y-113034524D02*
X179690000Y-111764524D01*
X180294762Y-113034524D02*
X180294762Y-111764524D01*
X180597143Y-111764524D01*
X180778571Y-111825000D01*
X180899524Y-111945952D01*
X180960000Y-112066905D01*
X181020476Y-112308810D01*
X181020476Y-112490238D01*
X180960000Y-112732143D01*
X180899524Y-112853095D01*
X180778571Y-112974048D01*
X180597143Y-113034524D01*
X180294762Y-113034524D01*
X181564762Y-112550714D02*
X182532381Y-112550714D01*
X183802381Y-113034524D02*
X183076667Y-113034524D01*
X183439524Y-113034524D02*
X183439524Y-111764524D01*
X183318572Y-111945952D01*
X183197619Y-112066905D01*
X183076667Y-112127381D01*
X184225715Y-111764524D02*
X185072381Y-113034524D01*
X185072381Y-111764524D02*
X184225715Y-113034524D01*
X186221429Y-113034524D02*
X185495715Y-113034524D01*
X185858572Y-113034524D02*
X185858572Y-111764524D01*
X185737620Y-111945952D01*
X185616667Y-112066905D01*
X185495715Y-112127381D01*
D16*
X173112867Y-116268324D02*
X173112867Y-117175467D01*
X173052391Y-117356895D01*
X172931439Y-117477848D01*
X172750010Y-117538324D01*
X172629058Y-117538324D01*
X173717629Y-117538324D02*
X173717629Y-116268324D01*
X174201438Y-116268324D01*
X174322391Y-116328800D01*
X174382867Y-116389276D01*
X174443343Y-116510229D01*
X174443343Y-116691657D01*
X174382867Y-116812610D01*
X174322391Y-116873086D01*
X174201438Y-116933562D01*
X173717629Y-116933562D01*
X175592391Y-116268324D02*
X174987629Y-116268324D01*
X174927153Y-116873086D01*
X174987629Y-116812610D01*
X175108581Y-116752133D01*
X175410962Y-116752133D01*
X175531915Y-116812610D01*
X175592391Y-116873086D01*
X175652867Y-116994038D01*
X175652867Y-117296419D01*
X175592391Y-117417371D01*
X175531915Y-117477848D01*
X175410962Y-117538324D01*
X175108581Y-117538324D01*
X174987629Y-117477848D01*
X174927153Y-117417371D01*
D17*
X168259048Y-112534524D02*
X168259048Y-111264524D01*
X168742857Y-111264524D01*
X168863810Y-111325000D01*
X168924286Y-111385476D01*
X168984762Y-111506429D01*
X168984762Y-111687857D01*
X168924286Y-111808810D01*
X168863810Y-111869286D01*
X168742857Y-111929762D01*
X168259048Y-111929762D01*
X169529048Y-112534524D02*
X169529048Y-111264524D01*
X170133810Y-112534524D02*
X170133810Y-111264524D01*
X170859524Y-112534524D01*
X170859524Y-111264524D01*
X171464286Y-112534524D02*
X171464286Y-111264524D01*
X171464286Y-111869286D02*
X172190000Y-111869286D01*
X172190000Y-112534524D02*
X172190000Y-111264524D01*
X172794762Y-112534524D02*
X172794762Y-111264524D01*
X173097143Y-111264524D01*
X173278571Y-111325000D01*
X173399524Y-111445952D01*
X173460000Y-111566905D01*
X173520476Y-111808810D01*
X173520476Y-111990238D01*
X173460000Y-112232143D01*
X173399524Y-112353095D01*
X173278571Y-112474048D01*
X173097143Y-112534524D01*
X172794762Y-112534524D01*
X174064762Y-112050714D02*
X175032381Y-112050714D01*
X176302381Y-112534524D02*
X175576667Y-112534524D01*
X175939524Y-112534524D02*
X175939524Y-111264524D01*
X175818572Y-111445952D01*
X175697619Y-111566905D01*
X175576667Y-111627381D01*
X176725715Y-111264524D02*
X177572381Y-112534524D01*
X177572381Y-111264524D02*
X176725715Y-112534524D01*
X178721429Y-112534524D02*
X177995715Y-112534524D01*
X178358572Y-112534524D02*
X178358572Y-111264524D01*
X178237620Y-111445952D01*
X178116667Y-111566905D01*
X177995715Y-111627381D01*
D16*
X161612867Y-116768324D02*
X161612867Y-117675467D01*
X161552391Y-117856895D01*
X161431439Y-117977848D01*
X161250010Y-118038324D01*
X161129058Y-118038324D01*
X162217629Y-118038324D02*
X162217629Y-116768324D01*
X162701438Y-116768324D01*
X162822391Y-116828800D01*
X162882867Y-116889276D01*
X162943343Y-117010229D01*
X162943343Y-117191657D01*
X162882867Y-117312610D01*
X162822391Y-117373086D01*
X162701438Y-117433562D01*
X162217629Y-117433562D01*
X164031915Y-116768324D02*
X163790010Y-116768324D01*
X163669058Y-116828800D01*
X163608581Y-116889276D01*
X163487629Y-117070705D01*
X163427153Y-117312610D01*
X163427153Y-117796419D01*
X163487629Y-117917371D01*
X163548105Y-117977848D01*
X163669058Y-118038324D01*
X163910962Y-118038324D01*
X164031915Y-117977848D01*
X164092391Y-117917371D01*
X164152867Y-117796419D01*
X164152867Y-117494038D01*
X164092391Y-117373086D01*
X164031915Y-117312610D01*
X163910962Y-117252133D01*
X163669058Y-117252133D01*
X163548105Y-117312610D01*
X163487629Y-117373086D01*
X163427153Y-117494038D01*
D17*
X156759048Y-113034524D02*
X156759048Y-111764524D01*
X157242857Y-111764524D01*
X157363810Y-111825000D01*
X157424286Y-111885476D01*
X157484762Y-112006429D01*
X157484762Y-112187857D01*
X157424286Y-112308810D01*
X157363810Y-112369286D01*
X157242857Y-112429762D01*
X156759048Y-112429762D01*
X158029048Y-113034524D02*
X158029048Y-111764524D01*
X158633810Y-113034524D02*
X158633810Y-111764524D01*
X159359524Y-113034524D01*
X159359524Y-111764524D01*
X159964286Y-113034524D02*
X159964286Y-111764524D01*
X159964286Y-112369286D02*
X160690000Y-112369286D01*
X160690000Y-113034524D02*
X160690000Y-111764524D01*
X161294762Y-113034524D02*
X161294762Y-111764524D01*
X161597143Y-111764524D01*
X161778571Y-111825000D01*
X161899524Y-111945952D01*
X161960000Y-112066905D01*
X162020476Y-112308810D01*
X162020476Y-112490238D01*
X161960000Y-112732143D01*
X161899524Y-112853095D01*
X161778571Y-112974048D01*
X161597143Y-113034524D01*
X161294762Y-113034524D01*
X162564762Y-112550714D02*
X163532381Y-112550714D01*
X164802381Y-113034524D02*
X164076667Y-113034524D01*
X164439524Y-113034524D02*
X164439524Y-111764524D01*
X164318572Y-111945952D01*
X164197619Y-112066905D01*
X164076667Y-112127381D01*
X165225715Y-111764524D02*
X166072381Y-113034524D01*
X166072381Y-111764524D02*
X165225715Y-113034524D01*
X167221429Y-113034524D02*
X166495715Y-113034524D01*
X166858572Y-113034524D02*
X166858572Y-111764524D01*
X166737620Y-111945952D01*
X166616667Y-112066905D01*
X166495715Y-112127381D01*
D16*
X165112867Y-116768324D02*
X165112867Y-117675467D01*
X165052391Y-117856895D01*
X164931439Y-117977848D01*
X164750010Y-118038324D01*
X164629058Y-118038324D01*
X165717629Y-118038324D02*
X165717629Y-116768324D01*
X166201438Y-116768324D01*
X166322391Y-116828800D01*
X166382867Y-116889276D01*
X166443343Y-117010229D01*
X166443343Y-117191657D01*
X166382867Y-117312610D01*
X166322391Y-117373086D01*
X166201438Y-117433562D01*
X165717629Y-117433562D01*
X166866677Y-116768324D02*
X167713343Y-116768324D01*
X167169058Y-118038324D01*
D17*
X160259048Y-113034524D02*
X160259048Y-111764524D01*
X160742857Y-111764524D01*
X160863810Y-111825000D01*
X160924286Y-111885476D01*
X160984762Y-112006429D01*
X160984762Y-112187857D01*
X160924286Y-112308810D01*
X160863810Y-112369286D01*
X160742857Y-112429762D01*
X160259048Y-112429762D01*
X161529048Y-113034524D02*
X161529048Y-111764524D01*
X162133810Y-113034524D02*
X162133810Y-111764524D01*
X162859524Y-113034524D01*
X162859524Y-111764524D01*
X163464286Y-113034524D02*
X163464286Y-111764524D01*
X163464286Y-112369286D02*
X164190000Y-112369286D01*
X164190000Y-113034524D02*
X164190000Y-111764524D01*
X164794762Y-113034524D02*
X164794762Y-111764524D01*
X165097143Y-111764524D01*
X165278571Y-111825000D01*
X165399524Y-111945952D01*
X165460000Y-112066905D01*
X165520476Y-112308810D01*
X165520476Y-112490238D01*
X165460000Y-112732143D01*
X165399524Y-112853095D01*
X165278571Y-112974048D01*
X165097143Y-113034524D01*
X164794762Y-113034524D01*
X166064762Y-112550714D02*
X167032381Y-112550714D01*
X168302381Y-113034524D02*
X167576667Y-113034524D01*
X167939524Y-113034524D02*
X167939524Y-111764524D01*
X167818572Y-111945952D01*
X167697619Y-112066905D01*
X167576667Y-112127381D01*
X168725715Y-111764524D02*
X169572381Y-113034524D01*
X169572381Y-111764524D02*
X168725715Y-113034524D01*
X170721429Y-113034524D02*
X169995715Y-113034524D01*
X170358572Y-113034524D02*
X170358572Y-111764524D01*
X170237620Y-111945952D01*
X170116667Y-112066905D01*
X169995715Y-112127381D01*
D13*
X184642019Y-149187295D02*
X185183886Y-150000095D01*
X185183886Y-149187295D02*
X184642019Y-150000095D01*
X185919276Y-150000095D02*
X185454819Y-150000095D01*
X185687048Y-150000095D02*
X185687048Y-149187295D01*
X185609638Y-149303410D01*
X185532229Y-149380819D01*
X185454819Y-149419524D01*
D18*
X183790516Y-148831695D02*
X183848573Y-148851048D01*
X183945335Y-148851048D01*
X183984039Y-148831695D01*
X184003392Y-148812343D01*
X184022744Y-148773638D01*
X184022744Y-148734933D01*
X184003392Y-148696229D01*
X183984039Y-148676876D01*
X183945335Y-148657524D01*
X183867925Y-148638171D01*
X183829220Y-148618819D01*
X183809868Y-148599467D01*
X183790516Y-148560762D01*
X183790516Y-148522057D01*
X183809868Y-148483352D01*
X183829220Y-148464000D01*
X183867925Y-148444648D01*
X183964687Y-148444648D01*
X184022744Y-148464000D01*
X184196916Y-148851048D02*
X184196916Y-148444648D01*
X184332383Y-148734933D01*
X184467849Y-148444648D01*
X184467849Y-148851048D01*
X184642021Y-148734933D02*
X184835544Y-148734933D01*
X184603316Y-148851048D02*
X184738782Y-148444648D01*
X184874249Y-148851048D01*
X185241944Y-148812343D02*
X185222592Y-148831695D01*
X185164535Y-148851048D01*
X185125830Y-148851048D01*
X185067773Y-148831695D01*
X185029068Y-148792990D01*
X185009716Y-148754286D01*
X184990364Y-148676876D01*
X184990364Y-148618819D01*
X185009716Y-148541410D01*
X185029068Y-148502705D01*
X185067773Y-148464000D01*
X185125830Y-148444648D01*
X185164535Y-148444648D01*
X185222592Y-148464000D01*
X185241944Y-148483352D01*
X185493525Y-148444648D02*
X185570935Y-148444648D01*
X185609640Y-148464000D01*
X185648344Y-148502705D01*
X185667697Y-148580114D01*
X185667697Y-148715581D01*
X185648344Y-148792990D01*
X185609640Y-148831695D01*
X185570935Y-148851048D01*
X185493525Y-148851048D01*
X185454821Y-148831695D01*
X185416116Y-148792990D01*
X185396764Y-148715581D01*
X185396764Y-148580114D01*
X185416116Y-148502705D01*
X185454821Y-148464000D01*
X185493525Y-148444648D01*
X185841868Y-148851048D02*
X185841868Y-148444648D01*
X186074096Y-148851048D01*
X186074096Y-148444648D01*
X186267620Y-148851048D02*
X186267620Y-148444648D01*
X186499848Y-148851048D01*
X186499848Y-148444648D01*
X186693372Y-148638171D02*
X186828839Y-148638171D01*
X186886896Y-148851048D02*
X186693372Y-148851048D01*
X186693372Y-148444648D01*
X186886896Y-148444648D01*
X187293295Y-148812343D02*
X187273943Y-148831695D01*
X187215886Y-148851048D01*
X187177181Y-148851048D01*
X187119124Y-148831695D01*
X187080419Y-148792990D01*
X187061067Y-148754286D01*
X187041715Y-148676876D01*
X187041715Y-148618819D01*
X187061067Y-148541410D01*
X187080419Y-148502705D01*
X187119124Y-148464000D01*
X187177181Y-148444648D01*
X187215886Y-148444648D01*
X187273943Y-148464000D01*
X187293295Y-148483352D01*
X187409410Y-148444648D02*
X187641638Y-148444648D01*
X187525524Y-148851048D02*
X187525524Y-148444648D01*
X187854514Y-148444648D02*
X187931924Y-148444648D01*
X187970629Y-148464000D01*
X188009333Y-148502705D01*
X188028686Y-148580114D01*
X188028686Y-148715581D01*
X188009333Y-148792990D01*
X187970629Y-148831695D01*
X187931924Y-148851048D01*
X187854514Y-148851048D01*
X187815810Y-148831695D01*
X187777105Y-148792990D01*
X187757753Y-148715581D01*
X187757753Y-148580114D01*
X187777105Y-148502705D01*
X187815810Y-148464000D01*
X187854514Y-148444648D01*
X188435085Y-148851048D02*
X188299619Y-148657524D01*
X188202857Y-148851048D02*
X188202857Y-148444648D01*
X188357676Y-148444648D01*
X188396381Y-148464000D01*
X188415733Y-148483352D01*
X188435085Y-148522057D01*
X188435085Y-148580114D01*
X188415733Y-148618819D01*
X188396381Y-148638171D01*
X188357676Y-148657524D01*
X188202857Y-148657524D01*
M02*
