%FSLAX45Y45*%
G04 Gerber Fmt 4.5, Leading zero omitted, Abs format (unit mm)*
G04 Created by KiCad (PCBNEW 4.0.6-e0-6349~53~ubuntu14.04.1) date Mon Apr 10 17:45:22 2017*
%MOMM*%
%LPD*%
G01*
G04 APERTURE LIST*
%ADD10C,0.127000*%
%ADD11C,0.100000*%
%ADD12C,0.150000*%
%ADD13C,0.200000*%
%ADD14C,0.300000*%
G04 APERTURE END LIST*
D10*
D11*
X15400000Y-5190000D02*
X15450000Y-5190000D01*
X15400000Y-7400000D02*
X15400000Y-5190000D01*
X14480000Y-7400000D02*
X15400000Y-7400000D01*
X14480000Y-5700000D02*
X14480000Y-7400000D01*
X14470000Y-5700000D02*
X14480000Y-5700000D01*
X17700000Y-9900000D02*
X19550000Y-9900000D01*
X17700000Y-10150000D02*
X19550000Y-10150000D01*
X17700000Y-9900000D02*
X17700000Y-10150000D01*
X15450000Y-14860000D02*
X15450000Y-14801000D01*
X15450000Y-12750000D02*
X15450000Y-14800000D01*
X14500000Y-12750000D02*
X15450000Y-12750000D01*
X14500000Y-14450000D02*
X14500000Y-12750000D01*
X14450000Y-14450000D02*
X14500000Y-14450000D01*
X14500000Y-9900000D02*
X12700000Y-9900000D01*
X14500000Y-7750000D02*
X14500000Y-9900000D01*
X15400000Y-7750000D02*
X14500000Y-7750000D01*
X15400000Y-9900000D02*
X15400000Y-7750000D01*
X17350000Y-9900000D02*
X15400000Y-9900000D01*
X17350000Y-10150000D02*
X17350000Y-9900000D01*
X15450000Y-10150000D02*
X17350000Y-10150000D01*
X15450000Y-12350000D02*
X15450000Y-10150000D01*
X14500000Y-12350000D02*
X15450000Y-12350000D01*
X14500000Y-10250000D02*
X14500000Y-12350000D01*
X12700000Y-10250000D02*
X14500000Y-10250000D01*
X12700000Y-9900000D02*
X12700000Y-10250000D01*
X12350000Y-10250000D02*
X10400000Y-10250000D01*
X12350000Y-9900000D02*
X12350000Y-10250000D01*
X10400000Y-9900000D02*
X12350000Y-9900000D01*
D12*
X10000000Y-15000000D02*
X10000000Y-5000000D01*
X20000000Y-15000000D02*
X10000000Y-15000000D01*
X20000000Y-5000000D02*
X20000000Y-15000000D01*
X10000000Y-5000000D02*
X20000000Y-5000000D01*
D11*
X14400000Y-5700000D02*
X10400000Y-5700000D01*
X14400000Y-5700000D02*
X14475000Y-5700000D01*
X14475000Y-5700000D02*
X14475000Y-5700000D01*
X14475000Y-5700000D02*
X14475000Y-5700000D01*
X10400000Y-5900000D02*
X10400000Y-5900000D01*
X10400000Y-5700000D02*
X10400000Y-5900000D01*
X10400000Y-9900000D02*
X10400000Y-9900000D01*
X10400000Y-9900000D02*
X10400000Y-5900000D01*
X14400000Y-14450000D02*
X14475000Y-14450000D01*
X10400000Y-10450000D02*
X10400000Y-10450000D01*
X10400000Y-10250000D02*
X10400000Y-10450000D01*
X10400000Y-14450000D02*
X10400000Y-14450000D01*
X14400000Y-14450000D02*
X10400000Y-14450000D01*
X10400000Y-14450000D02*
X10400000Y-10450000D01*
X19550000Y-5190000D02*
X19550000Y-9900000D01*
X15450000Y-5190000D02*
X19550000Y-5190000D01*
X19550000Y-10150000D02*
X19550000Y-14860000D01*
X19550000Y-14860000D02*
X15450000Y-14860000D01*
D13*
X11050000Y-5975000D02*
X11300000Y-6225000D01*
X11300000Y-5975000D02*
X11050000Y-6225000D01*
X11050000Y-10525000D02*
X11300000Y-10775000D01*
X11300000Y-10525000D02*
X11050000Y-10775000D01*
X14050000Y-9500000D02*
X14300000Y-9750000D01*
X14300000Y-9500000D02*
X14050000Y-9750000D01*
X14050000Y-14050000D02*
X14300000Y-14300000D01*
X14300000Y-14050000D02*
X14050000Y-14300000D01*
D14*
X10263929Y-15473214D02*
X10263929Y-15173214D01*
X10335357Y-15173214D01*
X10378214Y-15187500D01*
X10406786Y-15216071D01*
X10421071Y-15244643D01*
X10435357Y-15301786D01*
X10435357Y-15344643D01*
X10421071Y-15401786D01*
X10406786Y-15430357D01*
X10378214Y-15458929D01*
X10335357Y-15473214D01*
X10263929Y-15473214D01*
X10563929Y-15473214D02*
X10563929Y-15273214D01*
X10563929Y-15330357D02*
X10578214Y-15301786D01*
X10592500Y-15287500D01*
X10621071Y-15273214D01*
X10649643Y-15273214D01*
X10749643Y-15473214D02*
X10749643Y-15273214D01*
X10749643Y-15173214D02*
X10735357Y-15187500D01*
X10749643Y-15201786D01*
X10763929Y-15187500D01*
X10749643Y-15173214D01*
X10749643Y-15201786D01*
X10935357Y-15473214D02*
X10906786Y-15458929D01*
X10892500Y-15430357D01*
X10892500Y-15173214D01*
X11092500Y-15473214D02*
X11063929Y-15458929D01*
X11049643Y-15430357D01*
X11049643Y-15173214D01*
X11435357Y-15473214D02*
X11435357Y-15173214D01*
X11535357Y-15387500D01*
X11635357Y-15173214D01*
X11635357Y-15473214D01*
X11906786Y-15473214D02*
X11906786Y-15316071D01*
X11892500Y-15287500D01*
X11863928Y-15273214D01*
X11806786Y-15273214D01*
X11778214Y-15287500D01*
X11906786Y-15458929D02*
X11878214Y-15473214D01*
X11806786Y-15473214D01*
X11778214Y-15458929D01*
X11763928Y-15430357D01*
X11763928Y-15401786D01*
X11778214Y-15373214D01*
X11806786Y-15358929D01*
X11878214Y-15358929D01*
X11906786Y-15344643D01*
X12049643Y-15273214D02*
X12049643Y-15573214D01*
X12049643Y-15287500D02*
X12078214Y-15273214D01*
X12135357Y-15273214D01*
X12163928Y-15287500D01*
X12178214Y-15301786D01*
X12192500Y-15330357D01*
X12192500Y-15416071D01*
X12178214Y-15444643D01*
X12163928Y-15458929D01*
X12135357Y-15473214D01*
X12078214Y-15473214D01*
X12049643Y-15458929D01*
X12321071Y-15444643D02*
X12335357Y-15458929D01*
X12321071Y-15473214D01*
X12306786Y-15458929D01*
X12321071Y-15444643D01*
X12321071Y-15473214D01*
X12321071Y-15287500D02*
X12335357Y-15301786D01*
X12321071Y-15316071D01*
X12306786Y-15301786D01*
X12321071Y-15287500D01*
X12321071Y-15316071D01*
X9742500Y-15842500D02*
X9992500Y-16092500D01*
X9992500Y-15842500D02*
X9742500Y-16092500D01*
X10249643Y-15831786D02*
X10263929Y-15817500D01*
X10292500Y-15803214D01*
X10363929Y-15803214D01*
X10392500Y-15817500D01*
X10406786Y-15831786D01*
X10421071Y-15860357D01*
X10421071Y-15888929D01*
X10406786Y-15931786D01*
X10235357Y-16103214D01*
X10421071Y-16103214D01*
X10549643Y-16074643D02*
X10563929Y-16088929D01*
X10549643Y-16103214D01*
X10535357Y-16088929D01*
X10549643Y-16074643D01*
X10549643Y-16103214D01*
X10835357Y-15803214D02*
X10692500Y-15803214D01*
X10678214Y-15946071D01*
X10692500Y-15931786D01*
X10721071Y-15917500D01*
X10792500Y-15917500D01*
X10821071Y-15931786D01*
X10835357Y-15946071D01*
X10849643Y-15974643D01*
X10849643Y-16046071D01*
X10835357Y-16074643D01*
X10821071Y-16088929D01*
X10792500Y-16103214D01*
X10721071Y-16103214D01*
X10692500Y-16088929D01*
X10678214Y-16074643D01*
X11035357Y-15803214D02*
X11063929Y-15803214D01*
X11092500Y-15817500D01*
X11106786Y-15831786D01*
X11121071Y-15860357D01*
X11135357Y-15917500D01*
X11135357Y-15988929D01*
X11121071Y-16046071D01*
X11106786Y-16074643D01*
X11092500Y-16088929D01*
X11063929Y-16103214D01*
X11035357Y-16103214D01*
X11006786Y-16088929D01*
X10992500Y-16074643D01*
X10978214Y-16046071D01*
X10963929Y-15988929D01*
X10963929Y-15917500D01*
X10978214Y-15860357D01*
X10992500Y-15831786D01*
X11006786Y-15817500D01*
X11035357Y-15803214D01*
X11263928Y-16103214D02*
X11263928Y-15903214D01*
X11263928Y-15931786D02*
X11278214Y-15917500D01*
X11306786Y-15903214D01*
X11349643Y-15903214D01*
X11378214Y-15917500D01*
X11392500Y-15946071D01*
X11392500Y-16103214D01*
X11392500Y-15946071D02*
X11406786Y-15917500D01*
X11435357Y-15903214D01*
X11478214Y-15903214D01*
X11506786Y-15917500D01*
X11521071Y-15946071D01*
X11521071Y-16103214D01*
X11663928Y-16103214D02*
X11663928Y-15903214D01*
X11663928Y-15931786D02*
X11678214Y-15917500D01*
X11706786Y-15903214D01*
X11749643Y-15903214D01*
X11778214Y-15917500D01*
X11792500Y-15946071D01*
X11792500Y-16103214D01*
X11792500Y-15946071D02*
X11806786Y-15917500D01*
X11835357Y-15903214D01*
X11878214Y-15903214D01*
X11906786Y-15917500D01*
X11921071Y-15946071D01*
X11921071Y-16103214D01*
X12506786Y-15788929D02*
X12249643Y-16174643D01*
X12892500Y-15803214D02*
X12921071Y-15803214D01*
X12949643Y-15817500D01*
X12963928Y-15831786D01*
X12978214Y-15860357D01*
X12992500Y-15917500D01*
X12992500Y-15988929D01*
X12978214Y-16046071D01*
X12963928Y-16074643D01*
X12949643Y-16088929D01*
X12921071Y-16103214D01*
X12892500Y-16103214D01*
X12863928Y-16088929D01*
X12849643Y-16074643D01*
X12835357Y-16046071D01*
X12821071Y-15988929D01*
X12821071Y-15917500D01*
X12835357Y-15860357D01*
X12849643Y-15831786D01*
X12863928Y-15817500D01*
X12892500Y-15803214D01*
X13121071Y-16074643D02*
X13135357Y-16088929D01*
X13121071Y-16103214D01*
X13106786Y-16088929D01*
X13121071Y-16074643D01*
X13121071Y-16103214D01*
X13321071Y-15803214D02*
X13349643Y-15803214D01*
X13378214Y-15817500D01*
X13392500Y-15831786D01*
X13406785Y-15860357D01*
X13421071Y-15917500D01*
X13421071Y-15988929D01*
X13406785Y-16046071D01*
X13392500Y-16074643D01*
X13378214Y-16088929D01*
X13349643Y-16103214D01*
X13321071Y-16103214D01*
X13292500Y-16088929D01*
X13278214Y-16074643D01*
X13263928Y-16046071D01*
X13249643Y-15988929D01*
X13249643Y-15917500D01*
X13263928Y-15860357D01*
X13278214Y-15831786D01*
X13292500Y-15817500D01*
X13321071Y-15803214D01*
X13563928Y-16103214D02*
X13621071Y-16103214D01*
X13649643Y-16088929D01*
X13663928Y-16074643D01*
X13692500Y-16031786D01*
X13706785Y-15974643D01*
X13706785Y-15860357D01*
X13692500Y-15831786D01*
X13678214Y-15817500D01*
X13649643Y-15803214D01*
X13592500Y-15803214D01*
X13563928Y-15817500D01*
X13549643Y-15831786D01*
X13535357Y-15860357D01*
X13535357Y-15931786D01*
X13549643Y-15960357D01*
X13563928Y-15974643D01*
X13592500Y-15988929D01*
X13649643Y-15988929D01*
X13678214Y-15974643D01*
X13692500Y-15960357D01*
X13706785Y-15931786D01*
X13878214Y-15931786D02*
X13849643Y-15917500D01*
X13835357Y-15903214D01*
X13821071Y-15874643D01*
X13821071Y-15860357D01*
X13835357Y-15831786D01*
X13849643Y-15817500D01*
X13878214Y-15803214D01*
X13935357Y-15803214D01*
X13963928Y-15817500D01*
X13978214Y-15831786D01*
X13992500Y-15860357D01*
X13992500Y-15874643D01*
X13978214Y-15903214D01*
X13963928Y-15917500D01*
X13935357Y-15931786D01*
X13878214Y-15931786D01*
X13849643Y-15946071D01*
X13835357Y-15960357D01*
X13821071Y-15988929D01*
X13821071Y-16046071D01*
X13835357Y-16074643D01*
X13849643Y-16088929D01*
X13878214Y-16103214D01*
X13935357Y-16103214D01*
X13963928Y-16088929D01*
X13978214Y-16074643D01*
X13992500Y-16046071D01*
X13992500Y-15988929D01*
X13978214Y-15960357D01*
X13963928Y-15946071D01*
X13935357Y-15931786D01*
X14106786Y-15803214D02*
X14106786Y-15860357D01*
X14221071Y-15803214D02*
X14221071Y-15860357D01*
X14663928Y-16217500D02*
X14649643Y-16203214D01*
X14621071Y-16160357D01*
X14606785Y-16131786D01*
X14592500Y-16088929D01*
X14578214Y-16017500D01*
X14578214Y-15960357D01*
X14592500Y-15888929D01*
X14606785Y-15846071D01*
X14621071Y-15817500D01*
X14649643Y-15774643D01*
X14663928Y-15760357D01*
X14906785Y-15903214D02*
X14906785Y-16103214D01*
X14835357Y-15788929D02*
X14763928Y-16003214D01*
X14949643Y-16003214D01*
X15292500Y-16103214D02*
X15292500Y-15803214D01*
X15421071Y-16103214D02*
X15421071Y-15946071D01*
X15406785Y-15917500D01*
X15378214Y-15903214D01*
X15335357Y-15903214D01*
X15306785Y-15917500D01*
X15292500Y-15931786D01*
X15606785Y-16103214D02*
X15578214Y-16088929D01*
X15563928Y-16074643D01*
X15549643Y-16046071D01*
X15549643Y-15960357D01*
X15563928Y-15931786D01*
X15578214Y-15917500D01*
X15606785Y-15903214D01*
X15649643Y-15903214D01*
X15678214Y-15917500D01*
X15692500Y-15931786D01*
X15706785Y-15960357D01*
X15706785Y-16046071D01*
X15692500Y-16074643D01*
X15678214Y-16088929D01*
X15649643Y-16103214D01*
X15606785Y-16103214D01*
X15878214Y-16103214D02*
X15849643Y-16088929D01*
X15835357Y-16060357D01*
X15835357Y-15803214D01*
X16106786Y-16088929D02*
X16078214Y-16103214D01*
X16021071Y-16103214D01*
X15992500Y-16088929D01*
X15978214Y-16060357D01*
X15978214Y-15946071D01*
X15992500Y-15917500D01*
X16021071Y-15903214D01*
X16078214Y-15903214D01*
X16106786Y-15917500D01*
X16121071Y-15946071D01*
X16121071Y-15974643D01*
X15978214Y-16003214D01*
X16235357Y-16088929D02*
X16263928Y-16103214D01*
X16321071Y-16103214D01*
X16349643Y-16088929D01*
X16363928Y-16060357D01*
X16363928Y-16046071D01*
X16349643Y-16017500D01*
X16321071Y-16003214D01*
X16278214Y-16003214D01*
X16249643Y-15988929D01*
X16235357Y-15960357D01*
X16235357Y-15946071D01*
X16249643Y-15917500D01*
X16278214Y-15903214D01*
X16321071Y-15903214D01*
X16349643Y-15917500D01*
X16463928Y-16217500D02*
X16478214Y-16203214D01*
X16506786Y-16160357D01*
X16521071Y-16131786D01*
X16535357Y-16088929D01*
X16549643Y-16017500D01*
X16549643Y-15960357D01*
X16535357Y-15888929D01*
X16521071Y-15846071D01*
X16506786Y-15817500D01*
X16478214Y-15774643D01*
X16463928Y-15760357D01*
X17006786Y-16217500D02*
X16992500Y-16203214D01*
X16963928Y-16160357D01*
X16949643Y-16131786D01*
X16935357Y-16088929D01*
X16921071Y-16017500D01*
X16921071Y-15960357D01*
X16935357Y-15888929D01*
X16949643Y-15846071D01*
X16963928Y-15817500D01*
X16992500Y-15774643D01*
X17006786Y-15760357D01*
X17121071Y-15903214D02*
X17121071Y-16103214D01*
X17121071Y-15931786D02*
X17135357Y-15917500D01*
X17163928Y-15903214D01*
X17206786Y-15903214D01*
X17235357Y-15917500D01*
X17249643Y-15946071D01*
X17249643Y-16103214D01*
X17435357Y-16103214D02*
X17406786Y-16088929D01*
X17392500Y-16074643D01*
X17378214Y-16046071D01*
X17378214Y-15960357D01*
X17392500Y-15931786D01*
X17406786Y-15917500D01*
X17435357Y-15903214D01*
X17478214Y-15903214D01*
X17506786Y-15917500D01*
X17521071Y-15931786D01*
X17535357Y-15960357D01*
X17535357Y-16046071D01*
X17521071Y-16074643D01*
X17506786Y-16088929D01*
X17478214Y-16103214D01*
X17435357Y-16103214D01*
X17621071Y-15903214D02*
X17735357Y-15903214D01*
X17663929Y-15803214D02*
X17663929Y-16060357D01*
X17678214Y-16088929D01*
X17706786Y-16103214D01*
X17735357Y-16103214D01*
X18063929Y-15903214D02*
X18063929Y-16203214D01*
X18063929Y-15917500D02*
X18092500Y-15903214D01*
X18149643Y-15903214D01*
X18178214Y-15917500D01*
X18192500Y-15931786D01*
X18206786Y-15960357D01*
X18206786Y-16046071D01*
X18192500Y-16074643D01*
X18178214Y-16088929D01*
X18149643Y-16103214D01*
X18092500Y-16103214D01*
X18063929Y-16088929D01*
X18378214Y-16103214D02*
X18349643Y-16088929D01*
X18335357Y-16060357D01*
X18335357Y-15803214D01*
X18621071Y-16103214D02*
X18621071Y-15946071D01*
X18606786Y-15917500D01*
X18578214Y-15903214D01*
X18521071Y-15903214D01*
X18492500Y-15917500D01*
X18621071Y-16088929D02*
X18592500Y-16103214D01*
X18521071Y-16103214D01*
X18492500Y-16088929D01*
X18478214Y-16060357D01*
X18478214Y-16031786D01*
X18492500Y-16003214D01*
X18521071Y-15988929D01*
X18592500Y-15988929D01*
X18621071Y-15974643D01*
X18721071Y-15903214D02*
X18835357Y-15903214D01*
X18763929Y-15803214D02*
X18763929Y-16060357D01*
X18778214Y-16088929D01*
X18806786Y-16103214D01*
X18835357Y-16103214D01*
X19049643Y-16088929D02*
X19021072Y-16103214D01*
X18963929Y-16103214D01*
X18935357Y-16088929D01*
X18921072Y-16060357D01*
X18921072Y-15946071D01*
X18935357Y-15917500D01*
X18963929Y-15903214D01*
X19021072Y-15903214D01*
X19049643Y-15917500D01*
X19063929Y-15946071D01*
X19063929Y-15974643D01*
X18921072Y-16003214D01*
X19321072Y-16103214D02*
X19321072Y-15803214D01*
X19321072Y-16088929D02*
X19292500Y-16103214D01*
X19235357Y-16103214D01*
X19206786Y-16088929D01*
X19192500Y-16074643D01*
X19178214Y-16046071D01*
X19178214Y-15960357D01*
X19192500Y-15931786D01*
X19206786Y-15917500D01*
X19235357Y-15903214D01*
X19292500Y-15903214D01*
X19321072Y-15917500D01*
X19435357Y-16217500D02*
X19449643Y-16203214D01*
X19478214Y-16160357D01*
X19492500Y-16131786D01*
X19506786Y-16088929D01*
X19521072Y-16017500D01*
X19521072Y-15960357D01*
X19506786Y-15888929D01*
X19492500Y-15846071D01*
X19478214Y-15817500D01*
X19449643Y-15774643D01*
X19435357Y-15760357D01*
M02*
