M48
;DRILL file {KiCad 4.0.6-e0-6349~53~ubuntu14.04.1} date Mon Apr 10 17:45:20 2017
;FORMAT={3:3/ absolute / metric / suppress leading zeros}
FMAT,2
METRIC,TZ
T1C0.400
T2C1.000
T3C1.016
T4C1.499
T5C1.500
T6C1.598
T7C1.700
%
G90
G05
M71
T1
X110600Y-91900
X110600Y-137400
X114500Y-75500
X114500Y-85500
X114500Y-121000
X114500Y-131000
X115750Y-66750
X115750Y-112250
X117000Y-60500
X117000Y-66750
X117000Y-106000
X117000Y-112250
X119500Y-73500
X119500Y-119000
X120000Y-87000
X120000Y-132500
X129250Y-85250
X129250Y-130750
X129500Y-75750
X129500Y-121250
X134250Y-93250
X134250Y-138750
X160600Y-61900
X161200Y-82700
X161200Y-134700
X161500Y-132600
X165000Y-126600
X166800Y-117300
X166800Y-140400
X166900Y-63500
X168100Y-112800
X171700Y-83700
X172200Y-108600
X172700Y-60300
X177300Y-140200
X177800Y-91900
X178300Y-116800
X181900Y-87700
X183100Y-137000
X183200Y-60100
X183200Y-83200
X185000Y-73900
X188500Y-67900
X188800Y-65800
X188800Y-117800
X189400Y-138600
T2
X106900Y-61700
X106900Y-64240
X106900Y-66780
X106900Y-69320
X106900Y-71860
X106900Y-74400
X106900Y-76940
X106900Y-79480
X106900Y-82020
X106900Y-84560
X106900Y-87100
X106900Y-89640
X106900Y-107200
X106900Y-109740
X106900Y-112280
X106900Y-114820
X106900Y-117360
X106900Y-119900
X106900Y-122440
X106900Y-124980
X106900Y-127520
X106900Y-130060
X106900Y-132600
X106900Y-135140
X114600Y-94600
X114600Y-140100
X117140Y-94600
X117140Y-140100
X119680Y-94600
X119680Y-140100
X121700Y-61200
X121700Y-106700
X122220Y-94600
X122220Y-140100
X124240Y-61200
X124240Y-106700
X124750Y-97250
X124750Y-142750
X124760Y-94600
X124760Y-140100
X127300Y-94600
X127300Y-140100
X129840Y-94600
X129840Y-140100
X132380Y-94600
X132380Y-140100
X137500Y-73510
X137500Y-76050
X137500Y-78590
X137500Y-81130
X137500Y-83670
X137500Y-86210
X137500Y-88750
X137500Y-91290
X137500Y-93830
X137500Y-119010
X137500Y-121550
X137500Y-124090
X137500Y-126630
X137500Y-129170
X137500Y-131710
X137500Y-134250
X137500Y-136790
X137500Y-139330
X171360Y-143100
X173900Y-143100
X176100Y-57400
X178640Y-57400
T3
X156441Y-103826
X156441Y-106366
X156441Y-108906
X156441Y-111446
X156441Y-113986
X156441Y-116526
X156441Y-119066
X156441Y-121606
X156441Y-124146
X156441Y-126686
X156441Y-129226
X156441Y-131766
X156441Y-134306
X156441Y-136846
X156441Y-139386
X156441Y-141926
X156441Y-144466
X156441Y-147006
X156452Y-53494
X156452Y-56034
X156452Y-58574
X156452Y-61114
X156452Y-63654
X156452Y-66194
X156452Y-68734
X156452Y-71274
X156452Y-73814
X156452Y-76354
X156452Y-78894
X156452Y-81434
X156452Y-83974
X156452Y-86514
X156452Y-89054
X156452Y-91594
X156452Y-94134
X156452Y-96674
X163700Y-85500
X164500Y-115000
X166500Y-85500
X168000Y-115000
X174000Y-86000
X176000Y-114500
X182000Y-85500
X183500Y-115000
X185500Y-85500
X186300Y-115000
X193548Y-103826
X193548Y-106366
X193548Y-108906
X193548Y-111446
X193548Y-113986
X193548Y-116526
X193548Y-119066
X193548Y-121606
X193548Y-124146
X193548Y-126686
X193548Y-129226
X193548Y-131766
X193548Y-134306
X193548Y-136846
X193548Y-139386
X193548Y-141926
X193548Y-144466
X193548Y-147006
X193559Y-53494
X193559Y-56034
X193559Y-58574
X193559Y-61114
X193559Y-63654
X193559Y-66194
X193559Y-68734
X193559Y-71274
X193559Y-73814
X193559Y-76354
X193559Y-78894
X193559Y-81434
X193559Y-83974
X193559Y-86514
X193559Y-89054
X193559Y-91594
X193559Y-94134
X193559Y-96674
T4
X164700Y-56100
X185300Y-144400
T5
X139420Y-67100
X139420Y-112600
T6
X162160Y-53560
X162160Y-58640
X167240Y-53560
X167240Y-58640
X182760Y-141860
X182760Y-146940
X187840Y-141860
X187840Y-146940
T7
X136880Y-64560
X136880Y-69640
X136880Y-110060
X136880Y-115140
X141960Y-64560
X141960Y-69640
X141960Y-110060
X141960Y-115140
T0
M30
