G04 #@! TF.FileFunction,Copper,L2,Bot,Signal*
%FSLAX46Y46*%
G04 Gerber Fmt 4.6, Leading zero omitted, Abs format (unit mm)*
G04 Created by KiCad (PCBNEW 4.0.6-e0-6349~53~ubuntu14.04.1) date Mon Apr 10 17:45:15 2017*
%MOMM*%
%LPD*%
G01*
G04 APERTURE LIST*
%ADD10C,0.100000*%
%ADD11O,1.700000X1.700000*%
%ADD12R,1.700000X1.700000*%
%ADD13R,0.800000X0.750000*%
%ADD14R,0.900000X0.500000*%
%ADD15R,0.500000X0.900000*%
%ADD16R,0.650000X1.060000*%
%ADD17C,2.000000*%
%ADD18C,2.200000*%
%ADD19C,1.930400*%
%ADD20O,3.048000X1.524000*%
%ADD21C,2.540000*%
%ADD22C,0.800000*%
%ADD23C,0.600000*%
%ADD24C,0.600000*%
%ADD25C,1.000000*%
%ADD26C,0.550000*%
%ADD27C,0.350000*%
%ADD28C,1.370000*%
%ADD29C,0.254000*%
G04 APERTURE END LIST*
D10*
D11*
X137500000Y-73510000D03*
X137500000Y-76050000D03*
X137500000Y-78590000D03*
X137500000Y-81130000D03*
X137500000Y-83670000D03*
X137500000Y-86210000D03*
X137500000Y-88750000D03*
X137500000Y-91290000D03*
D12*
X137500000Y-93830000D03*
D13*
X123250000Y-63900000D03*
X121750000Y-63900000D03*
X123250000Y-70100000D03*
X121750000Y-70100000D03*
D12*
X106900000Y-61700000D03*
D11*
X106900000Y-64240000D03*
X106900000Y-66780000D03*
X106900000Y-69320000D03*
X106900000Y-71860000D03*
X106900000Y-74400000D03*
X106900000Y-76940000D03*
X106900000Y-79480000D03*
X106900000Y-82020000D03*
X106900000Y-84560000D03*
X106900000Y-87100000D03*
X106900000Y-89640000D03*
X132380000Y-94600000D03*
X129840000Y-94600000D03*
X127300000Y-94600000D03*
X124760000Y-94600000D03*
X122220000Y-94600000D03*
X119680000Y-94600000D03*
X117140000Y-94600000D03*
D12*
X114600000Y-94600000D03*
X121700000Y-61200000D03*
D11*
X124240000Y-61200000D03*
D14*
X119500000Y-65500000D03*
X119500000Y-67000000D03*
D15*
X116400000Y-68200000D03*
X117900000Y-68200000D03*
X117000000Y-64000000D03*
X118500000Y-64000000D03*
X114000000Y-64000000D03*
X115500000Y-64000000D03*
D16*
X121650000Y-67800000D03*
X123550000Y-67800000D03*
X123550000Y-65600000D03*
X122600000Y-65600000D03*
X121650000Y-65600000D03*
D17*
X139420000Y-67100000D03*
D18*
X141960000Y-69640000D03*
X141960000Y-64560000D03*
X136880000Y-64560000D03*
X136880000Y-69640000D03*
D12*
X124750000Y-97250000D03*
D11*
X137500000Y-119010000D03*
X137500000Y-121550000D03*
X137500000Y-124090000D03*
X137500000Y-126630000D03*
X137500000Y-129170000D03*
X137500000Y-131710000D03*
X137500000Y-134250000D03*
X137500000Y-136790000D03*
D12*
X137500000Y-139330000D03*
D13*
X123250000Y-109400000D03*
X121750000Y-109400000D03*
X123250000Y-115600000D03*
X121750000Y-115600000D03*
D12*
X106900000Y-107200000D03*
D11*
X106900000Y-109740000D03*
X106900000Y-112280000D03*
X106900000Y-114820000D03*
X106900000Y-117360000D03*
X106900000Y-119900000D03*
X106900000Y-122440000D03*
X106900000Y-124980000D03*
X106900000Y-127520000D03*
X106900000Y-130060000D03*
X106900000Y-132600000D03*
X106900000Y-135140000D03*
X132380000Y-140100000D03*
X129840000Y-140100000D03*
X127300000Y-140100000D03*
X124760000Y-140100000D03*
X122220000Y-140100000D03*
X119680000Y-140100000D03*
X117140000Y-140100000D03*
D12*
X114600000Y-140100000D03*
X121700000Y-106700000D03*
D11*
X124240000Y-106700000D03*
D14*
X119500000Y-111000000D03*
X119500000Y-112500000D03*
D15*
X116400000Y-113700000D03*
X117900000Y-113700000D03*
X117000000Y-109500000D03*
X118500000Y-109500000D03*
X114000000Y-109500000D03*
X115500000Y-109500000D03*
D16*
X121650000Y-113300000D03*
X123550000Y-113300000D03*
X123550000Y-111100000D03*
X122600000Y-111100000D03*
X121650000Y-111100000D03*
D17*
X139420000Y-112600000D03*
D18*
X141960000Y-115140000D03*
X141960000Y-110060000D03*
X136880000Y-110060000D03*
X136880000Y-115140000D03*
D12*
X124750000Y-142750000D03*
X176100000Y-57400000D03*
D11*
X178640000Y-57400000D03*
D19*
X163700000Y-85500000D03*
X166500000Y-85500000D03*
X174000000Y-86000000D03*
X185500000Y-85500000D03*
X182000000Y-85500000D03*
D20*
X156452240Y-53493600D03*
X156452240Y-56033600D03*
X156452240Y-58573600D03*
X156452240Y-61113600D03*
X156452240Y-63653600D03*
X156452240Y-66193600D03*
X156452240Y-68733600D03*
X156452240Y-71273600D03*
X156452240Y-73813600D03*
X156452240Y-76353600D03*
X156452240Y-78893600D03*
X156452240Y-81433600D03*
X156452240Y-83973600D03*
X156452240Y-86513600D03*
X156452240Y-89053600D03*
X156452240Y-91593600D03*
X156452240Y-94133600D03*
X156452240Y-96673600D03*
X193559100Y-96673600D03*
X193559100Y-94133600D03*
X193559100Y-91593600D03*
X193559100Y-89053600D03*
X193559100Y-86513600D03*
X193559100Y-83973600D03*
X193559100Y-81433600D03*
X193559100Y-78893600D03*
X193559100Y-76353600D03*
X193559100Y-73813600D03*
X193559100Y-71273600D03*
X193559100Y-68733600D03*
X193559100Y-66193600D03*
X193559100Y-63653600D03*
X193559100Y-61113600D03*
X193559100Y-58573600D03*
X193559100Y-56033600D03*
X193559100Y-53493600D03*
D21*
X164700000Y-56100000D03*
X162160000Y-53560000D03*
X167240000Y-53560000D03*
X162160000Y-58640000D03*
X167240000Y-58640000D03*
D12*
X173900000Y-143100000D03*
D11*
X171360000Y-143100000D03*
D19*
X186300000Y-115000000D03*
X183500000Y-115000000D03*
X176000000Y-114500000D03*
X164500000Y-115000000D03*
X168000000Y-115000000D03*
D20*
X193547760Y-147006400D03*
X193547760Y-144466400D03*
X193547760Y-141926400D03*
X193547760Y-139386400D03*
X193547760Y-136846400D03*
X193547760Y-134306400D03*
X193547760Y-131766400D03*
X193547760Y-129226400D03*
X193547760Y-126686400D03*
X193547760Y-124146400D03*
X193547760Y-121606400D03*
X193547760Y-119066400D03*
X193547760Y-116526400D03*
X193547760Y-113986400D03*
X193547760Y-111446400D03*
X193547760Y-108906400D03*
X193547760Y-106366400D03*
X193547760Y-103826400D03*
X156440900Y-103826400D03*
X156440900Y-106366400D03*
X156440900Y-108906400D03*
X156440900Y-111446400D03*
X156440900Y-113986400D03*
X156440900Y-116526400D03*
X156440900Y-119066400D03*
X156440900Y-121606400D03*
X156440900Y-124146400D03*
X156440900Y-126686400D03*
X156440900Y-129226400D03*
X156440900Y-131766400D03*
X156440900Y-134306400D03*
X156440900Y-136846400D03*
X156440900Y-139386400D03*
X156440900Y-141926400D03*
X156440900Y-144466400D03*
X156440900Y-147006400D03*
D21*
X185300000Y-144400000D03*
X187840000Y-146940000D03*
X182760000Y-146940000D03*
X187840000Y-141860000D03*
X182760000Y-141860000D03*
D22*
X110600000Y-91900000D03*
X134250000Y-93250000D03*
X117000000Y-60500000D03*
X114500000Y-75500000D03*
X114500000Y-85500000D03*
X120000000Y-87000000D03*
X129250000Y-85250000D03*
X129500000Y-75750000D03*
X110600000Y-137400000D03*
X134250000Y-138750000D03*
X117000000Y-106000000D03*
X114500000Y-121000000D03*
X114500000Y-131000000D03*
X120000000Y-132500000D03*
X129250000Y-130750000D03*
X129500000Y-121250000D03*
D23*
X160600000Y-61900000D03*
X161200000Y-82700000D03*
X171700000Y-83700000D03*
X185000000Y-73900000D03*
X183200000Y-83200000D03*
X181900000Y-87700000D03*
X177800000Y-91900000D03*
X166900000Y-63500000D03*
X172700000Y-60300000D03*
X183200000Y-60100000D03*
X189400000Y-138600000D03*
X188800000Y-117800000D03*
X178300000Y-116800000D03*
X165000000Y-126600000D03*
X166800000Y-117300000D03*
X168100000Y-112800000D03*
X172200000Y-108600000D03*
X183100000Y-137000000D03*
X177300000Y-140200000D03*
X166800000Y-140400000D03*
D22*
X119500000Y-73500000D03*
X119500000Y-119000000D03*
X115750000Y-66750000D03*
X115750000Y-112250000D03*
X117000000Y-66750000D03*
X117000000Y-112250000D03*
D23*
X188800000Y-65800000D03*
X161200000Y-134700000D03*
X188500000Y-67900000D03*
X161500000Y-132600000D03*
D24*
X110600000Y-91900000D02*
X110600000Y-91300000D01*
D25*
X124240000Y-61200000D02*
X131400000Y-61200000D01*
X131400000Y-61200000D02*
X132500000Y-62300000D01*
X131400000Y-61200000D02*
X132500000Y-62300000D01*
X124240000Y-61200000D02*
X124600000Y-61200000D01*
D26*
X134500000Y-93500000D02*
X134500000Y-93750000D01*
X134250000Y-93250000D02*
X134500000Y-93500000D01*
D24*
X117000000Y-60500000D02*
X116250000Y-60500000D01*
D26*
X114500000Y-75500000D02*
X114899999Y-75899999D01*
X114899999Y-75899999D02*
X115100001Y-75899999D01*
X114500000Y-85500000D02*
X114750000Y-85750000D01*
X120000000Y-87000000D02*
X120500000Y-86500000D01*
X129250000Y-85250000D02*
X128250000Y-85250000D01*
D27*
X122600000Y-64650000D02*
X123225000Y-64650000D01*
X123225000Y-64650000D02*
X123250000Y-64625000D01*
X123250000Y-64625000D02*
X123250000Y-63900000D01*
X122600000Y-65600000D02*
X122600000Y-64650000D01*
D24*
X110600000Y-137400000D02*
X110600000Y-136800000D01*
D25*
X124240000Y-106700000D02*
X131400000Y-106700000D01*
X131400000Y-106700000D02*
X132500000Y-107800000D01*
X131400000Y-106700000D02*
X132500000Y-107800000D01*
X124240000Y-106700000D02*
X124600000Y-106700000D01*
D26*
X134500000Y-139000000D02*
X134500000Y-139250000D01*
X134250000Y-138750000D02*
X134500000Y-139000000D01*
D24*
X117000000Y-106000000D02*
X116250000Y-106000000D01*
D26*
X114500000Y-121000000D02*
X114899999Y-121399999D01*
X114899999Y-121399999D02*
X115100001Y-121399999D01*
X114500000Y-131000000D02*
X114750000Y-131250000D01*
X120000000Y-132500000D02*
X120500000Y-132000000D01*
X129250000Y-130750000D02*
X128250000Y-130750000D01*
D27*
X122600000Y-110150000D02*
X123225000Y-110150000D01*
X123225000Y-110150000D02*
X123250000Y-110125000D01*
X123250000Y-110125000D02*
X123250000Y-109400000D01*
X122600000Y-111100000D02*
X122600000Y-110150000D01*
D28*
X160200000Y-62300000D02*
X160200000Y-62700000D01*
X160600000Y-61900000D02*
X160200000Y-62300000D01*
X160800000Y-83100000D02*
X161200000Y-82700000D01*
X171700000Y-83700000D02*
X171100000Y-83700000D01*
D25*
X184700000Y-73600000D02*
X185000000Y-73900000D01*
X183400000Y-83400000D02*
X183200000Y-83200000D01*
X181600000Y-88000000D02*
X181900000Y-87700000D01*
X166900000Y-63500000D02*
X166600000Y-63800000D01*
X166600000Y-63800000D02*
X166600000Y-64000000D01*
X172700000Y-60300000D02*
X172700000Y-59600000D01*
X183500000Y-59800000D02*
X183200000Y-60100000D01*
X166500000Y-64100000D02*
X166600000Y-64000000D01*
D28*
X189800000Y-138200000D02*
X189800000Y-137800000D01*
X189400000Y-138600000D02*
X189800000Y-138200000D01*
X189200000Y-117400000D02*
X188800000Y-117800000D01*
X178300000Y-116800000D02*
X178900000Y-116800000D01*
D25*
X165300000Y-126900000D02*
X165000000Y-126600000D01*
X166600000Y-117100000D02*
X166800000Y-117300000D01*
X168400000Y-112500000D02*
X168100000Y-112800000D01*
X183100000Y-137000000D02*
X183400000Y-136700000D01*
X183400000Y-136700000D02*
X183400000Y-136500000D01*
X177300000Y-140200000D02*
X177300000Y-140900000D01*
X166500000Y-140700000D02*
X166800000Y-140400000D01*
X183500000Y-136400000D02*
X183400000Y-136500000D01*
X119500000Y-72250000D02*
X119500000Y-73500000D01*
X119500000Y-117750000D02*
X119500000Y-119000000D01*
D26*
X116400000Y-68200000D02*
X116400000Y-67400000D01*
X116400000Y-67400000D02*
X115750000Y-66750000D01*
X116400000Y-113700000D02*
X116400000Y-112900000D01*
X116400000Y-112900000D02*
X115750000Y-112250000D01*
X117000000Y-64000000D02*
X115500000Y-64000000D01*
X117000000Y-66750000D02*
X117000000Y-64000000D01*
X117000000Y-109500000D02*
X115500000Y-109500000D01*
X117000000Y-112250000D02*
X117000000Y-109500000D01*
D27*
X119500000Y-67000000D02*
X120000000Y-67000000D01*
X120000000Y-67000000D02*
X120250000Y-66750000D01*
X120250000Y-66750000D02*
X123280000Y-66750000D01*
X123280000Y-66750000D02*
X123550000Y-66480000D01*
X123550000Y-66480000D02*
X123550000Y-65600000D01*
X119500000Y-112500000D02*
X120000000Y-112500000D01*
X120000000Y-112500000D02*
X120250000Y-112250000D01*
X120250000Y-112250000D02*
X123280000Y-112250000D01*
X123280000Y-112250000D02*
X123550000Y-111980000D01*
X123550000Y-111980000D02*
X123550000Y-111100000D01*
D25*
X188800000Y-65800000D02*
X190946400Y-63653600D01*
X190946400Y-63653600D02*
X193559100Y-63653600D01*
X161200000Y-134700000D02*
X159053600Y-136846400D01*
X159053600Y-136846400D02*
X156440900Y-136846400D01*
X187100000Y-64700000D02*
X190686400Y-61113600D01*
X190686400Y-61113600D02*
X193559100Y-61113600D01*
X187100000Y-66500000D02*
X187100000Y-64700000D01*
X188500000Y-67900000D02*
X187100000Y-66500000D01*
X162900000Y-135800000D02*
X159313600Y-139386400D01*
X159313600Y-139386400D02*
X156440900Y-139386400D01*
X162900000Y-134000000D02*
X162900000Y-135800000D01*
X161500000Y-132600000D02*
X162900000Y-134000000D01*
D29*
G36*
X122573000Y-62673000D02*
X122200000Y-62673000D01*
X122150590Y-62683006D01*
X122108965Y-62711447D01*
X122081685Y-62753841D01*
X122073000Y-62800000D01*
X122073000Y-64373000D01*
X122000000Y-64373000D01*
X121950590Y-64383006D01*
X121908965Y-64411447D01*
X121881685Y-64453841D01*
X121873000Y-64500000D01*
X121873000Y-64905241D01*
X121839635Y-65070000D01*
X121839635Y-66130000D01*
X121843022Y-66148000D01*
X120250000Y-66148000D01*
X120057846Y-66186222D01*
X120019624Y-66193825D01*
X119838819Y-66314635D01*
X119050000Y-66314635D01*
X118891763Y-66344409D01*
X118847332Y-66373000D01*
X118127000Y-66373000D01*
X118127000Y-59727000D01*
X122573000Y-59727000D01*
X122573000Y-62673000D01*
X122573000Y-62673000D01*
G37*
X122573000Y-62673000D02*
X122200000Y-62673000D01*
X122150590Y-62683006D01*
X122108965Y-62711447D01*
X122081685Y-62753841D01*
X122073000Y-62800000D01*
X122073000Y-64373000D01*
X122000000Y-64373000D01*
X121950590Y-64383006D01*
X121908965Y-64411447D01*
X121881685Y-64453841D01*
X121873000Y-64500000D01*
X121873000Y-64905241D01*
X121839635Y-65070000D01*
X121839635Y-66130000D01*
X121843022Y-66148000D01*
X120250000Y-66148000D01*
X120057846Y-66186222D01*
X120019624Y-66193825D01*
X119838819Y-66314635D01*
X119050000Y-66314635D01*
X118891763Y-66344409D01*
X118847332Y-66373000D01*
X118127000Y-66373000D01*
X118127000Y-59727000D01*
X122573000Y-59727000D01*
X122573000Y-62673000D01*
G36*
X118614635Y-67250000D02*
X118644409Y-67408237D01*
X118737927Y-67553567D01*
X118880619Y-67651064D01*
X119050000Y-67685365D01*
X119950000Y-67685365D01*
X120108237Y-67655591D01*
X120253567Y-67562073D01*
X120280465Y-67522706D01*
X120425678Y-67425678D01*
X120499356Y-67352000D01*
X122073000Y-67352000D01*
X122073000Y-74073000D01*
X117727000Y-74073000D01*
X117727000Y-67155703D01*
X117738919Y-67127000D01*
X118614635Y-67127000D01*
X118614635Y-67250000D01*
X118614635Y-67250000D01*
G37*
X118614635Y-67250000D02*
X118644409Y-67408237D01*
X118737927Y-67553567D01*
X118880619Y-67651064D01*
X119050000Y-67685365D01*
X119950000Y-67685365D01*
X120108237Y-67655591D01*
X120253567Y-67562073D01*
X120280465Y-67522706D01*
X120425678Y-67425678D01*
X120499356Y-67352000D01*
X122073000Y-67352000D01*
X122073000Y-74073000D01*
X117727000Y-74073000D01*
X117727000Y-67155703D01*
X117738919Y-67127000D01*
X118614635Y-67127000D01*
X118614635Y-67250000D01*
G36*
X127873000Y-73000000D02*
X127881685Y-73046159D01*
X127908965Y-73088553D01*
X127950590Y-73116994D01*
X128000000Y-73127000D01*
X136062090Y-73127000D01*
X135985907Y-73510000D01*
X136098946Y-74078285D01*
X136420853Y-74560054D01*
X136750026Y-74780000D01*
X136420853Y-74999946D01*
X136098946Y-75481715D01*
X135985907Y-76050000D01*
X136098946Y-76618285D01*
X136420853Y-77100054D01*
X136902622Y-77421961D01*
X137470907Y-77535000D01*
X137529093Y-77535000D01*
X138097378Y-77421961D01*
X138579147Y-77100054D01*
X138901054Y-76618285D01*
X139014093Y-76050000D01*
X138901054Y-75481715D01*
X138579147Y-74999946D01*
X138249974Y-74780000D01*
X138579147Y-74560054D01*
X138901054Y-74078285D01*
X139014093Y-73510000D01*
X138937910Y-73127000D01*
X144065000Y-73127000D01*
X144065000Y-98315000D01*
X126203901Y-98315000D01*
X126247440Y-98100000D01*
X126247440Y-96623305D01*
X139864674Y-96623305D01*
X140151043Y-97316372D01*
X140680839Y-97847093D01*
X141373405Y-98134672D01*
X142123305Y-98135326D01*
X142816372Y-97848957D01*
X143347093Y-97319161D01*
X143634672Y-96626595D01*
X143635326Y-95876695D01*
X143348957Y-95183628D01*
X142819161Y-94652907D01*
X142126595Y-94365328D01*
X141376695Y-94364674D01*
X140683628Y-94651043D01*
X140152907Y-95180839D01*
X139865328Y-95873405D01*
X139864674Y-96623305D01*
X126247440Y-96623305D01*
X126247440Y-96400000D01*
X126203162Y-96164683D01*
X126064090Y-95948559D01*
X125851890Y-95803569D01*
X125676883Y-95768129D01*
X125810054Y-95679147D01*
X126030000Y-95349974D01*
X126249946Y-95679147D01*
X126731715Y-96001054D01*
X127300000Y-96114093D01*
X127868285Y-96001054D01*
X128350054Y-95679147D01*
X128570000Y-95349974D01*
X128789946Y-95679147D01*
X129271715Y-96001054D01*
X129840000Y-96114093D01*
X130408285Y-96001054D01*
X130890054Y-95679147D01*
X131110000Y-95349974D01*
X131329946Y-95679147D01*
X131811715Y-96001054D01*
X132380000Y-96114093D01*
X132948285Y-96001054D01*
X133430054Y-95679147D01*
X133751961Y-95197378D01*
X133865000Y-94629093D01*
X133865000Y-94570907D01*
X133751961Y-94002622D01*
X133430054Y-93520853D01*
X132948285Y-93198946D01*
X132380000Y-93085907D01*
X131811715Y-93198946D01*
X131329946Y-93520853D01*
X131110000Y-93850026D01*
X130890054Y-93520853D01*
X130408285Y-93198946D01*
X129840000Y-93085907D01*
X129271715Y-93198946D01*
X128789946Y-93520853D01*
X128570000Y-93850026D01*
X128350054Y-93520853D01*
X127868285Y-93198946D01*
X127300000Y-93085907D01*
X126731715Y-93198946D01*
X126249946Y-93520853D01*
X126030000Y-93850026D01*
X125810054Y-93520853D01*
X125328285Y-93198946D01*
X124760000Y-93085907D01*
X124191715Y-93198946D01*
X123709946Y-93520853D01*
X123388039Y-94002622D01*
X123275000Y-94570907D01*
X123275000Y-94629093D01*
X123388039Y-95197378D01*
X123709946Y-95679147D01*
X123837435Y-95764332D01*
X123664683Y-95796838D01*
X123448559Y-95935910D01*
X123303569Y-96148110D01*
X123252560Y-96400000D01*
X123252560Y-98100000D01*
X123293015Y-98315000D01*
X104685000Y-98315000D01*
X104685000Y-93750000D01*
X113102560Y-93750000D01*
X113102560Y-95450000D01*
X113146838Y-95685317D01*
X113285910Y-95901441D01*
X113498110Y-96046431D01*
X113750000Y-96097440D01*
X115450000Y-96097440D01*
X115685317Y-96053162D01*
X115901441Y-95914090D01*
X116046431Y-95701890D01*
X116060086Y-95634459D01*
X116089946Y-95679147D01*
X116571715Y-96001054D01*
X117140000Y-96114093D01*
X117708285Y-96001054D01*
X118190054Y-95679147D01*
X118410000Y-95349974D01*
X118629946Y-95679147D01*
X119111715Y-96001054D01*
X119680000Y-96114093D01*
X120248285Y-96001054D01*
X120730054Y-95679147D01*
X121051961Y-95197378D01*
X121165000Y-94629093D01*
X121165000Y-94570907D01*
X121051961Y-94002622D01*
X120730054Y-93520853D01*
X120248285Y-93198946D01*
X119680000Y-93085907D01*
X119111715Y-93198946D01*
X118629946Y-93520853D01*
X118410000Y-93850026D01*
X118190054Y-93520853D01*
X117708285Y-93198946D01*
X117140000Y-93085907D01*
X116571715Y-93198946D01*
X116089946Y-93520853D01*
X116062150Y-93562452D01*
X116053162Y-93514683D01*
X115914090Y-93298559D01*
X115701890Y-93153569D01*
X115450000Y-93102560D01*
X113750000Y-93102560D01*
X113514683Y-93146838D01*
X113298559Y-93285910D01*
X113153569Y-93498110D01*
X113102560Y-93750000D01*
X104685000Y-93750000D01*
X104685000Y-92980000D01*
X136002560Y-92980000D01*
X136002560Y-94680000D01*
X136046838Y-94915317D01*
X136185910Y-95131441D01*
X136398110Y-95276431D01*
X136650000Y-95327440D01*
X138350000Y-95327440D01*
X138585317Y-95283162D01*
X138801441Y-95144090D01*
X138946431Y-94931890D01*
X138997440Y-94680000D01*
X138997440Y-92980000D01*
X138953162Y-92744683D01*
X138814090Y-92528559D01*
X138601890Y-92383569D01*
X138350000Y-92332560D01*
X136650000Y-92332560D01*
X136414683Y-92376838D01*
X136198559Y-92515910D01*
X136053569Y-92728110D01*
X136002560Y-92980000D01*
X104685000Y-92980000D01*
X104685000Y-89640000D01*
X105385907Y-89640000D01*
X105498946Y-90208285D01*
X105820853Y-90690054D01*
X106302622Y-91011961D01*
X106870907Y-91125000D01*
X106929093Y-91125000D01*
X107497378Y-91011961D01*
X107979147Y-90690054D01*
X108301054Y-90208285D01*
X108414093Y-89640000D01*
X108301054Y-89071715D01*
X107979147Y-88589946D01*
X107497378Y-88268039D01*
X106929093Y-88155000D01*
X106870907Y-88155000D01*
X106302622Y-88268039D01*
X105820853Y-88589946D01*
X105498946Y-89071715D01*
X105385907Y-89640000D01*
X104685000Y-89640000D01*
X104685000Y-76940000D01*
X105385907Y-76940000D01*
X105498946Y-77508285D01*
X105820853Y-77990054D01*
X106150026Y-78210000D01*
X105820853Y-78429946D01*
X105498946Y-78911715D01*
X105385907Y-79480000D01*
X105498946Y-80048285D01*
X105820853Y-80530054D01*
X106150026Y-80750000D01*
X105820853Y-80969946D01*
X105498946Y-81451715D01*
X105385907Y-82020000D01*
X105498946Y-82588285D01*
X105820853Y-83070054D01*
X106150026Y-83290000D01*
X105820853Y-83509946D01*
X105498946Y-83991715D01*
X105385907Y-84560000D01*
X105498946Y-85128285D01*
X105820853Y-85610054D01*
X106302622Y-85931961D01*
X106870907Y-86045000D01*
X106929093Y-86045000D01*
X107497378Y-85931961D01*
X107979147Y-85610054D01*
X108301054Y-85128285D01*
X108414093Y-84560000D01*
X108301054Y-83991715D01*
X107979147Y-83509946D01*
X107649974Y-83290000D01*
X107979147Y-83070054D01*
X108301054Y-82588285D01*
X108414093Y-82020000D01*
X108301054Y-81451715D01*
X108086092Y-81130000D01*
X135985907Y-81130000D01*
X136098946Y-81698285D01*
X136420853Y-82180054D01*
X136750026Y-82400000D01*
X136420853Y-82619946D01*
X136098946Y-83101715D01*
X135985907Y-83670000D01*
X136098946Y-84238285D01*
X136420853Y-84720054D01*
X136750026Y-84940000D01*
X136420853Y-85159946D01*
X136098946Y-85641715D01*
X135985907Y-86210000D01*
X136098946Y-86778285D01*
X136420853Y-87260054D01*
X136750026Y-87480000D01*
X136420853Y-87699946D01*
X136098946Y-88181715D01*
X135985907Y-88750000D01*
X136098946Y-89318285D01*
X136420853Y-89800054D01*
X136902622Y-90121961D01*
X137470907Y-90235000D01*
X137529093Y-90235000D01*
X138097378Y-90121961D01*
X138579147Y-89800054D01*
X138901054Y-89318285D01*
X139014093Y-88750000D01*
X138901054Y-88181715D01*
X138579147Y-87699946D01*
X138249974Y-87480000D01*
X138579147Y-87260054D01*
X138901054Y-86778285D01*
X139014093Y-86210000D01*
X138901054Y-85641715D01*
X138579147Y-85159946D01*
X138249974Y-84940000D01*
X138579147Y-84720054D01*
X138901054Y-84238285D01*
X139014093Y-83670000D01*
X138901054Y-83101715D01*
X138579147Y-82619946D01*
X138249974Y-82400000D01*
X138579147Y-82180054D01*
X138901054Y-81698285D01*
X139014093Y-81130000D01*
X138901054Y-80561715D01*
X138579147Y-80079946D01*
X138097378Y-79758039D01*
X137529093Y-79645000D01*
X137470907Y-79645000D01*
X136902622Y-79758039D01*
X136420853Y-80079946D01*
X136098946Y-80561715D01*
X135985907Y-81130000D01*
X108086092Y-81130000D01*
X107979147Y-80969946D01*
X107649974Y-80750000D01*
X107979147Y-80530054D01*
X108301054Y-80048285D01*
X108414093Y-79480000D01*
X108301054Y-78911715D01*
X107979147Y-78429946D01*
X107649974Y-78210000D01*
X107979147Y-77990054D01*
X108301054Y-77508285D01*
X108414093Y-76940000D01*
X108301054Y-76371715D01*
X107979147Y-75889946D01*
X107497378Y-75568039D01*
X106929093Y-75455000D01*
X106870907Y-75455000D01*
X106302622Y-75568039D01*
X105820853Y-75889946D01*
X105498946Y-76371715D01*
X105385907Y-76940000D01*
X104685000Y-76940000D01*
X104685000Y-64240000D01*
X105385907Y-64240000D01*
X105498946Y-64808285D01*
X105820853Y-65290054D01*
X106150026Y-65510000D01*
X105820853Y-65729946D01*
X105498946Y-66211715D01*
X105385907Y-66780000D01*
X105498946Y-67348285D01*
X105820853Y-67830054D01*
X106150026Y-68050000D01*
X105820853Y-68269946D01*
X105498946Y-68751715D01*
X105385907Y-69320000D01*
X105498946Y-69888285D01*
X105820853Y-70370054D01*
X106150026Y-70590000D01*
X105820853Y-70809946D01*
X105498946Y-71291715D01*
X105385907Y-71860000D01*
X105498946Y-72428285D01*
X105820853Y-72910054D01*
X106302622Y-73231961D01*
X106870907Y-73345000D01*
X106929093Y-73345000D01*
X107497378Y-73231961D01*
X107979147Y-72910054D01*
X108301054Y-72428285D01*
X108414093Y-71860000D01*
X108301054Y-71291715D01*
X107979147Y-70809946D01*
X107649974Y-70590000D01*
X107979147Y-70370054D01*
X108301054Y-69888285D01*
X108414093Y-69320000D01*
X108301054Y-68751715D01*
X107979147Y-68269946D01*
X107649974Y-68050000D01*
X107979147Y-67830054D01*
X108301054Y-67348285D01*
X108414093Y-66780000D01*
X108301054Y-66211715D01*
X107979147Y-65729946D01*
X107649974Y-65510000D01*
X107979147Y-65290054D01*
X108301054Y-64808285D01*
X108414093Y-64240000D01*
X108366354Y-64000000D01*
X114590000Y-64000000D01*
X114602560Y-64063143D01*
X114602560Y-64450000D01*
X114646838Y-64685317D01*
X114785910Y-64901441D01*
X114998110Y-65046431D01*
X115250000Y-65097440D01*
X115750000Y-65097440D01*
X115985317Y-65053162D01*
X116090000Y-64985800D01*
X116090000Y-65770499D01*
X115956777Y-65715180D01*
X115545029Y-65714821D01*
X115164485Y-65872058D01*
X114873081Y-66162954D01*
X114715180Y-66543223D01*
X114714821Y-66954971D01*
X114872058Y-67335515D01*
X115162954Y-67626919D01*
X115465693Y-67752627D01*
X115490000Y-67776934D01*
X115490000Y-68200000D01*
X115502560Y-68263143D01*
X115502560Y-68650000D01*
X115546838Y-68885317D01*
X115685910Y-69101441D01*
X115898110Y-69246431D01*
X116150000Y-69297440D01*
X116650000Y-69297440D01*
X116885317Y-69253162D01*
X116965000Y-69201887D01*
X116965000Y-74200000D01*
X117008427Y-74430795D01*
X117144827Y-74642767D01*
X117352949Y-74784971D01*
X117600000Y-74835000D01*
X122200000Y-74835000D01*
X122430795Y-74791573D01*
X122642767Y-74655173D01*
X122784971Y-74447051D01*
X122835000Y-74200000D01*
X122835000Y-67560000D01*
X123280000Y-67560000D01*
X123589974Y-67498342D01*
X123852756Y-67322756D01*
X124122757Y-67052756D01*
X124298343Y-66789973D01*
X124341768Y-66571658D01*
X124471431Y-66381890D01*
X124522440Y-66130000D01*
X124522440Y-65070000D01*
X124478162Y-64834683D01*
X124339090Y-64618559D01*
X124126890Y-64473569D01*
X123875000Y-64422560D01*
X123225000Y-64422560D01*
X122989683Y-64466838D01*
X122819545Y-64576319D01*
X122835000Y-64500000D01*
X122835000Y-63409598D01*
X122930795Y-63391573D01*
X123142767Y-63255173D01*
X123284971Y-63047051D01*
X123335000Y-62800000D01*
X123335000Y-59600000D01*
X123291573Y-59369205D01*
X123155173Y-59157233D01*
X122947051Y-59015029D01*
X122700000Y-58965000D01*
X118000000Y-58965000D01*
X117769205Y-59008427D01*
X117557233Y-59144827D01*
X117415029Y-59352949D01*
X117365000Y-59600000D01*
X117365000Y-62925848D01*
X117250000Y-62902560D01*
X116750000Y-62902560D01*
X116514683Y-62946838D01*
X116298559Y-63085910D01*
X116295764Y-63090000D01*
X116201563Y-63090000D01*
X116001890Y-62953569D01*
X115750000Y-62902560D01*
X115250000Y-62902560D01*
X115014683Y-62946838D01*
X114798559Y-63085910D01*
X114653569Y-63298110D01*
X114602560Y-63550000D01*
X114602560Y-63936857D01*
X114590000Y-64000000D01*
X108366354Y-64000000D01*
X108301054Y-63671715D01*
X107979147Y-63189946D01*
X107937548Y-63162150D01*
X107985317Y-63153162D01*
X108201441Y-63014090D01*
X108346431Y-62801890D01*
X108397440Y-62550000D01*
X108397440Y-61373305D01*
X109864674Y-61373305D01*
X110151043Y-62066372D01*
X110680839Y-62597093D01*
X111373405Y-62884672D01*
X112123305Y-62885326D01*
X112816372Y-62598957D01*
X113347093Y-62069161D01*
X113634672Y-61376595D01*
X113635326Y-60626695D01*
X113348957Y-59933628D01*
X112819161Y-59402907D01*
X112126595Y-59115328D01*
X111376695Y-59114674D01*
X110683628Y-59401043D01*
X110152907Y-59930839D01*
X109865328Y-60623405D01*
X109864674Y-61373305D01*
X108397440Y-61373305D01*
X108397440Y-60850000D01*
X108353162Y-60614683D01*
X108214090Y-60398559D01*
X108001890Y-60253569D01*
X107750000Y-60202560D01*
X106050000Y-60202560D01*
X105814683Y-60246838D01*
X105598559Y-60385910D01*
X105453569Y-60598110D01*
X105402560Y-60850000D01*
X105402560Y-62550000D01*
X105446838Y-62785317D01*
X105585910Y-63001441D01*
X105798110Y-63146431D01*
X105865541Y-63160086D01*
X105820853Y-63189946D01*
X105498946Y-63671715D01*
X105385907Y-64240000D01*
X104685000Y-64240000D01*
X104685000Y-57685000D01*
X127873000Y-57685000D01*
X127873000Y-73000000D01*
X127873000Y-73000000D01*
G37*
X127873000Y-73000000D02*
X127881685Y-73046159D01*
X127908965Y-73088553D01*
X127950590Y-73116994D01*
X128000000Y-73127000D01*
X136062090Y-73127000D01*
X135985907Y-73510000D01*
X136098946Y-74078285D01*
X136420853Y-74560054D01*
X136750026Y-74780000D01*
X136420853Y-74999946D01*
X136098946Y-75481715D01*
X135985907Y-76050000D01*
X136098946Y-76618285D01*
X136420853Y-77100054D01*
X136902622Y-77421961D01*
X137470907Y-77535000D01*
X137529093Y-77535000D01*
X138097378Y-77421961D01*
X138579147Y-77100054D01*
X138901054Y-76618285D01*
X139014093Y-76050000D01*
X138901054Y-75481715D01*
X138579147Y-74999946D01*
X138249974Y-74780000D01*
X138579147Y-74560054D01*
X138901054Y-74078285D01*
X139014093Y-73510000D01*
X138937910Y-73127000D01*
X144065000Y-73127000D01*
X144065000Y-98315000D01*
X126203901Y-98315000D01*
X126247440Y-98100000D01*
X126247440Y-96623305D01*
X139864674Y-96623305D01*
X140151043Y-97316372D01*
X140680839Y-97847093D01*
X141373405Y-98134672D01*
X142123305Y-98135326D01*
X142816372Y-97848957D01*
X143347093Y-97319161D01*
X143634672Y-96626595D01*
X143635326Y-95876695D01*
X143348957Y-95183628D01*
X142819161Y-94652907D01*
X142126595Y-94365328D01*
X141376695Y-94364674D01*
X140683628Y-94651043D01*
X140152907Y-95180839D01*
X139865328Y-95873405D01*
X139864674Y-96623305D01*
X126247440Y-96623305D01*
X126247440Y-96400000D01*
X126203162Y-96164683D01*
X126064090Y-95948559D01*
X125851890Y-95803569D01*
X125676883Y-95768129D01*
X125810054Y-95679147D01*
X126030000Y-95349974D01*
X126249946Y-95679147D01*
X126731715Y-96001054D01*
X127300000Y-96114093D01*
X127868285Y-96001054D01*
X128350054Y-95679147D01*
X128570000Y-95349974D01*
X128789946Y-95679147D01*
X129271715Y-96001054D01*
X129840000Y-96114093D01*
X130408285Y-96001054D01*
X130890054Y-95679147D01*
X131110000Y-95349974D01*
X131329946Y-95679147D01*
X131811715Y-96001054D01*
X132380000Y-96114093D01*
X132948285Y-96001054D01*
X133430054Y-95679147D01*
X133751961Y-95197378D01*
X133865000Y-94629093D01*
X133865000Y-94570907D01*
X133751961Y-94002622D01*
X133430054Y-93520853D01*
X132948285Y-93198946D01*
X132380000Y-93085907D01*
X131811715Y-93198946D01*
X131329946Y-93520853D01*
X131110000Y-93850026D01*
X130890054Y-93520853D01*
X130408285Y-93198946D01*
X129840000Y-93085907D01*
X129271715Y-93198946D01*
X128789946Y-93520853D01*
X128570000Y-93850026D01*
X128350054Y-93520853D01*
X127868285Y-93198946D01*
X127300000Y-93085907D01*
X126731715Y-93198946D01*
X126249946Y-93520853D01*
X126030000Y-93850026D01*
X125810054Y-93520853D01*
X125328285Y-93198946D01*
X124760000Y-93085907D01*
X124191715Y-93198946D01*
X123709946Y-93520853D01*
X123388039Y-94002622D01*
X123275000Y-94570907D01*
X123275000Y-94629093D01*
X123388039Y-95197378D01*
X123709946Y-95679147D01*
X123837435Y-95764332D01*
X123664683Y-95796838D01*
X123448559Y-95935910D01*
X123303569Y-96148110D01*
X123252560Y-96400000D01*
X123252560Y-98100000D01*
X123293015Y-98315000D01*
X104685000Y-98315000D01*
X104685000Y-93750000D01*
X113102560Y-93750000D01*
X113102560Y-95450000D01*
X113146838Y-95685317D01*
X113285910Y-95901441D01*
X113498110Y-96046431D01*
X113750000Y-96097440D01*
X115450000Y-96097440D01*
X115685317Y-96053162D01*
X115901441Y-95914090D01*
X116046431Y-95701890D01*
X116060086Y-95634459D01*
X116089946Y-95679147D01*
X116571715Y-96001054D01*
X117140000Y-96114093D01*
X117708285Y-96001054D01*
X118190054Y-95679147D01*
X118410000Y-95349974D01*
X118629946Y-95679147D01*
X119111715Y-96001054D01*
X119680000Y-96114093D01*
X120248285Y-96001054D01*
X120730054Y-95679147D01*
X121051961Y-95197378D01*
X121165000Y-94629093D01*
X121165000Y-94570907D01*
X121051961Y-94002622D01*
X120730054Y-93520853D01*
X120248285Y-93198946D01*
X119680000Y-93085907D01*
X119111715Y-93198946D01*
X118629946Y-93520853D01*
X118410000Y-93850026D01*
X118190054Y-93520853D01*
X117708285Y-93198946D01*
X117140000Y-93085907D01*
X116571715Y-93198946D01*
X116089946Y-93520853D01*
X116062150Y-93562452D01*
X116053162Y-93514683D01*
X115914090Y-93298559D01*
X115701890Y-93153569D01*
X115450000Y-93102560D01*
X113750000Y-93102560D01*
X113514683Y-93146838D01*
X113298559Y-93285910D01*
X113153569Y-93498110D01*
X113102560Y-93750000D01*
X104685000Y-93750000D01*
X104685000Y-92980000D01*
X136002560Y-92980000D01*
X136002560Y-94680000D01*
X136046838Y-94915317D01*
X136185910Y-95131441D01*
X136398110Y-95276431D01*
X136650000Y-95327440D01*
X138350000Y-95327440D01*
X138585317Y-95283162D01*
X138801441Y-95144090D01*
X138946431Y-94931890D01*
X138997440Y-94680000D01*
X138997440Y-92980000D01*
X138953162Y-92744683D01*
X138814090Y-92528559D01*
X138601890Y-92383569D01*
X138350000Y-92332560D01*
X136650000Y-92332560D01*
X136414683Y-92376838D01*
X136198559Y-92515910D01*
X136053569Y-92728110D01*
X136002560Y-92980000D01*
X104685000Y-92980000D01*
X104685000Y-89640000D01*
X105385907Y-89640000D01*
X105498946Y-90208285D01*
X105820853Y-90690054D01*
X106302622Y-91011961D01*
X106870907Y-91125000D01*
X106929093Y-91125000D01*
X107497378Y-91011961D01*
X107979147Y-90690054D01*
X108301054Y-90208285D01*
X108414093Y-89640000D01*
X108301054Y-89071715D01*
X107979147Y-88589946D01*
X107497378Y-88268039D01*
X106929093Y-88155000D01*
X106870907Y-88155000D01*
X106302622Y-88268039D01*
X105820853Y-88589946D01*
X105498946Y-89071715D01*
X105385907Y-89640000D01*
X104685000Y-89640000D01*
X104685000Y-76940000D01*
X105385907Y-76940000D01*
X105498946Y-77508285D01*
X105820853Y-77990054D01*
X106150026Y-78210000D01*
X105820853Y-78429946D01*
X105498946Y-78911715D01*
X105385907Y-79480000D01*
X105498946Y-80048285D01*
X105820853Y-80530054D01*
X106150026Y-80750000D01*
X105820853Y-80969946D01*
X105498946Y-81451715D01*
X105385907Y-82020000D01*
X105498946Y-82588285D01*
X105820853Y-83070054D01*
X106150026Y-83290000D01*
X105820853Y-83509946D01*
X105498946Y-83991715D01*
X105385907Y-84560000D01*
X105498946Y-85128285D01*
X105820853Y-85610054D01*
X106302622Y-85931961D01*
X106870907Y-86045000D01*
X106929093Y-86045000D01*
X107497378Y-85931961D01*
X107979147Y-85610054D01*
X108301054Y-85128285D01*
X108414093Y-84560000D01*
X108301054Y-83991715D01*
X107979147Y-83509946D01*
X107649974Y-83290000D01*
X107979147Y-83070054D01*
X108301054Y-82588285D01*
X108414093Y-82020000D01*
X108301054Y-81451715D01*
X108086092Y-81130000D01*
X135985907Y-81130000D01*
X136098946Y-81698285D01*
X136420853Y-82180054D01*
X136750026Y-82400000D01*
X136420853Y-82619946D01*
X136098946Y-83101715D01*
X135985907Y-83670000D01*
X136098946Y-84238285D01*
X136420853Y-84720054D01*
X136750026Y-84940000D01*
X136420853Y-85159946D01*
X136098946Y-85641715D01*
X135985907Y-86210000D01*
X136098946Y-86778285D01*
X136420853Y-87260054D01*
X136750026Y-87480000D01*
X136420853Y-87699946D01*
X136098946Y-88181715D01*
X135985907Y-88750000D01*
X136098946Y-89318285D01*
X136420853Y-89800054D01*
X136902622Y-90121961D01*
X137470907Y-90235000D01*
X137529093Y-90235000D01*
X138097378Y-90121961D01*
X138579147Y-89800054D01*
X138901054Y-89318285D01*
X139014093Y-88750000D01*
X138901054Y-88181715D01*
X138579147Y-87699946D01*
X138249974Y-87480000D01*
X138579147Y-87260054D01*
X138901054Y-86778285D01*
X139014093Y-86210000D01*
X138901054Y-85641715D01*
X138579147Y-85159946D01*
X138249974Y-84940000D01*
X138579147Y-84720054D01*
X138901054Y-84238285D01*
X139014093Y-83670000D01*
X138901054Y-83101715D01*
X138579147Y-82619946D01*
X138249974Y-82400000D01*
X138579147Y-82180054D01*
X138901054Y-81698285D01*
X139014093Y-81130000D01*
X138901054Y-80561715D01*
X138579147Y-80079946D01*
X138097378Y-79758039D01*
X137529093Y-79645000D01*
X137470907Y-79645000D01*
X136902622Y-79758039D01*
X136420853Y-80079946D01*
X136098946Y-80561715D01*
X135985907Y-81130000D01*
X108086092Y-81130000D01*
X107979147Y-80969946D01*
X107649974Y-80750000D01*
X107979147Y-80530054D01*
X108301054Y-80048285D01*
X108414093Y-79480000D01*
X108301054Y-78911715D01*
X107979147Y-78429946D01*
X107649974Y-78210000D01*
X107979147Y-77990054D01*
X108301054Y-77508285D01*
X108414093Y-76940000D01*
X108301054Y-76371715D01*
X107979147Y-75889946D01*
X107497378Y-75568039D01*
X106929093Y-75455000D01*
X106870907Y-75455000D01*
X106302622Y-75568039D01*
X105820853Y-75889946D01*
X105498946Y-76371715D01*
X105385907Y-76940000D01*
X104685000Y-76940000D01*
X104685000Y-64240000D01*
X105385907Y-64240000D01*
X105498946Y-64808285D01*
X105820853Y-65290054D01*
X106150026Y-65510000D01*
X105820853Y-65729946D01*
X105498946Y-66211715D01*
X105385907Y-66780000D01*
X105498946Y-67348285D01*
X105820853Y-67830054D01*
X106150026Y-68050000D01*
X105820853Y-68269946D01*
X105498946Y-68751715D01*
X105385907Y-69320000D01*
X105498946Y-69888285D01*
X105820853Y-70370054D01*
X106150026Y-70590000D01*
X105820853Y-70809946D01*
X105498946Y-71291715D01*
X105385907Y-71860000D01*
X105498946Y-72428285D01*
X105820853Y-72910054D01*
X106302622Y-73231961D01*
X106870907Y-73345000D01*
X106929093Y-73345000D01*
X107497378Y-73231961D01*
X107979147Y-72910054D01*
X108301054Y-72428285D01*
X108414093Y-71860000D01*
X108301054Y-71291715D01*
X107979147Y-70809946D01*
X107649974Y-70590000D01*
X107979147Y-70370054D01*
X108301054Y-69888285D01*
X108414093Y-69320000D01*
X108301054Y-68751715D01*
X107979147Y-68269946D01*
X107649974Y-68050000D01*
X107979147Y-67830054D01*
X108301054Y-67348285D01*
X108414093Y-66780000D01*
X108301054Y-66211715D01*
X107979147Y-65729946D01*
X107649974Y-65510000D01*
X107979147Y-65290054D01*
X108301054Y-64808285D01*
X108414093Y-64240000D01*
X108366354Y-64000000D01*
X114590000Y-64000000D01*
X114602560Y-64063143D01*
X114602560Y-64450000D01*
X114646838Y-64685317D01*
X114785910Y-64901441D01*
X114998110Y-65046431D01*
X115250000Y-65097440D01*
X115750000Y-65097440D01*
X115985317Y-65053162D01*
X116090000Y-64985800D01*
X116090000Y-65770499D01*
X115956777Y-65715180D01*
X115545029Y-65714821D01*
X115164485Y-65872058D01*
X114873081Y-66162954D01*
X114715180Y-66543223D01*
X114714821Y-66954971D01*
X114872058Y-67335515D01*
X115162954Y-67626919D01*
X115465693Y-67752627D01*
X115490000Y-67776934D01*
X115490000Y-68200000D01*
X115502560Y-68263143D01*
X115502560Y-68650000D01*
X115546838Y-68885317D01*
X115685910Y-69101441D01*
X115898110Y-69246431D01*
X116150000Y-69297440D01*
X116650000Y-69297440D01*
X116885317Y-69253162D01*
X116965000Y-69201887D01*
X116965000Y-74200000D01*
X117008427Y-74430795D01*
X117144827Y-74642767D01*
X117352949Y-74784971D01*
X117600000Y-74835000D01*
X122200000Y-74835000D01*
X122430795Y-74791573D01*
X122642767Y-74655173D01*
X122784971Y-74447051D01*
X122835000Y-74200000D01*
X122835000Y-67560000D01*
X123280000Y-67560000D01*
X123589974Y-67498342D01*
X123852756Y-67322756D01*
X124122757Y-67052756D01*
X124298343Y-66789973D01*
X124341768Y-66571658D01*
X124471431Y-66381890D01*
X124522440Y-66130000D01*
X124522440Y-65070000D01*
X124478162Y-64834683D01*
X124339090Y-64618559D01*
X124126890Y-64473569D01*
X123875000Y-64422560D01*
X123225000Y-64422560D01*
X122989683Y-64466838D01*
X122819545Y-64576319D01*
X122835000Y-64500000D01*
X122835000Y-63409598D01*
X122930795Y-63391573D01*
X123142767Y-63255173D01*
X123284971Y-63047051D01*
X123335000Y-62800000D01*
X123335000Y-59600000D01*
X123291573Y-59369205D01*
X123155173Y-59157233D01*
X122947051Y-59015029D01*
X122700000Y-58965000D01*
X118000000Y-58965000D01*
X117769205Y-59008427D01*
X117557233Y-59144827D01*
X117415029Y-59352949D01*
X117365000Y-59600000D01*
X117365000Y-62925848D01*
X117250000Y-62902560D01*
X116750000Y-62902560D01*
X116514683Y-62946838D01*
X116298559Y-63085910D01*
X116295764Y-63090000D01*
X116201563Y-63090000D01*
X116001890Y-62953569D01*
X115750000Y-62902560D01*
X115250000Y-62902560D01*
X115014683Y-62946838D01*
X114798559Y-63085910D01*
X114653569Y-63298110D01*
X114602560Y-63550000D01*
X114602560Y-63936857D01*
X114590000Y-64000000D01*
X108366354Y-64000000D01*
X108301054Y-63671715D01*
X107979147Y-63189946D01*
X107937548Y-63162150D01*
X107985317Y-63153162D01*
X108201441Y-63014090D01*
X108346431Y-62801890D01*
X108397440Y-62550000D01*
X108397440Y-61373305D01*
X109864674Y-61373305D01*
X110151043Y-62066372D01*
X110680839Y-62597093D01*
X111373405Y-62884672D01*
X112123305Y-62885326D01*
X112816372Y-62598957D01*
X113347093Y-62069161D01*
X113634672Y-61376595D01*
X113635326Y-60626695D01*
X113348957Y-59933628D01*
X112819161Y-59402907D01*
X112126595Y-59115328D01*
X111376695Y-59114674D01*
X110683628Y-59401043D01*
X110152907Y-59930839D01*
X109865328Y-60623405D01*
X109864674Y-61373305D01*
X108397440Y-61373305D01*
X108397440Y-60850000D01*
X108353162Y-60614683D01*
X108214090Y-60398559D01*
X108001890Y-60253569D01*
X107750000Y-60202560D01*
X106050000Y-60202560D01*
X105814683Y-60246838D01*
X105598559Y-60385910D01*
X105453569Y-60598110D01*
X105402560Y-60850000D01*
X105402560Y-62550000D01*
X105446838Y-62785317D01*
X105585910Y-63001441D01*
X105798110Y-63146431D01*
X105865541Y-63160086D01*
X105820853Y-63189946D01*
X105498946Y-63671715D01*
X105385907Y-64240000D01*
X104685000Y-64240000D01*
X104685000Y-57685000D01*
X127873000Y-57685000D01*
X127873000Y-73000000D01*
G36*
X144065000Y-71873000D02*
X129127000Y-71873000D01*
X129127000Y-67423795D01*
X137784716Y-67423795D01*
X138033106Y-68024943D01*
X138492637Y-68485278D01*
X139093352Y-68734716D01*
X139743795Y-68735284D01*
X140344943Y-68486894D01*
X140805278Y-68027363D01*
X141054716Y-67426648D01*
X141055284Y-66776205D01*
X140806894Y-66175057D01*
X140347363Y-65714722D01*
X139746648Y-65465284D01*
X139096205Y-65464716D01*
X138495057Y-65713106D01*
X138034722Y-66172637D01*
X137785284Y-66773352D01*
X137784716Y-67423795D01*
X129127000Y-67423795D01*
X129127000Y-61127000D01*
X144065000Y-61127000D01*
X144065000Y-71873000D01*
X144065000Y-71873000D01*
G37*
X144065000Y-71873000D02*
X129127000Y-71873000D01*
X129127000Y-67423795D01*
X137784716Y-67423795D01*
X138033106Y-68024943D01*
X138492637Y-68485278D01*
X139093352Y-68734716D01*
X139743795Y-68735284D01*
X140344943Y-68486894D01*
X140805278Y-68027363D01*
X141054716Y-67426648D01*
X141055284Y-66776205D01*
X140806894Y-66175057D01*
X140347363Y-65714722D01*
X139746648Y-65465284D01*
X139096205Y-65464716D01*
X138495057Y-65713106D01*
X138034722Y-66172637D01*
X137785284Y-66773352D01*
X137784716Y-67423795D01*
X129127000Y-67423795D01*
X129127000Y-61127000D01*
X144065000Y-61127000D01*
X144065000Y-71873000D01*
G36*
X122573000Y-108173000D02*
X122200000Y-108173000D01*
X122150590Y-108183006D01*
X122108965Y-108211447D01*
X122081685Y-108253841D01*
X122073000Y-108300000D01*
X122073000Y-109873000D01*
X122000000Y-109873000D01*
X121950590Y-109883006D01*
X121908965Y-109911447D01*
X121881685Y-109953841D01*
X121873000Y-110000000D01*
X121873000Y-110405241D01*
X121839635Y-110570000D01*
X121839635Y-111630000D01*
X121843022Y-111648000D01*
X120250000Y-111648000D01*
X120057846Y-111686222D01*
X120019624Y-111693825D01*
X119838819Y-111814635D01*
X119050000Y-111814635D01*
X118891763Y-111844409D01*
X118847332Y-111873000D01*
X118127000Y-111873000D01*
X118127000Y-105227000D01*
X122573000Y-105227000D01*
X122573000Y-108173000D01*
X122573000Y-108173000D01*
G37*
X122573000Y-108173000D02*
X122200000Y-108173000D01*
X122150590Y-108183006D01*
X122108965Y-108211447D01*
X122081685Y-108253841D01*
X122073000Y-108300000D01*
X122073000Y-109873000D01*
X122000000Y-109873000D01*
X121950590Y-109883006D01*
X121908965Y-109911447D01*
X121881685Y-109953841D01*
X121873000Y-110000000D01*
X121873000Y-110405241D01*
X121839635Y-110570000D01*
X121839635Y-111630000D01*
X121843022Y-111648000D01*
X120250000Y-111648000D01*
X120057846Y-111686222D01*
X120019624Y-111693825D01*
X119838819Y-111814635D01*
X119050000Y-111814635D01*
X118891763Y-111844409D01*
X118847332Y-111873000D01*
X118127000Y-111873000D01*
X118127000Y-105227000D01*
X122573000Y-105227000D01*
X122573000Y-108173000D01*
G36*
X118614635Y-112750000D02*
X118644409Y-112908237D01*
X118737927Y-113053567D01*
X118880619Y-113151064D01*
X119050000Y-113185365D01*
X119950000Y-113185365D01*
X120108237Y-113155591D01*
X120253567Y-113062073D01*
X120280465Y-113022706D01*
X120425678Y-112925678D01*
X120499356Y-112852000D01*
X122073000Y-112852000D01*
X122073000Y-119573000D01*
X117727000Y-119573000D01*
X117727000Y-112655703D01*
X117738919Y-112627000D01*
X118614635Y-112627000D01*
X118614635Y-112750000D01*
X118614635Y-112750000D01*
G37*
X118614635Y-112750000D02*
X118644409Y-112908237D01*
X118737927Y-113053567D01*
X118880619Y-113151064D01*
X119050000Y-113185365D01*
X119950000Y-113185365D01*
X120108237Y-113155591D01*
X120253567Y-113062073D01*
X120280465Y-113022706D01*
X120425678Y-112925678D01*
X120499356Y-112852000D01*
X122073000Y-112852000D01*
X122073000Y-119573000D01*
X117727000Y-119573000D01*
X117727000Y-112655703D01*
X117738919Y-112627000D01*
X118614635Y-112627000D01*
X118614635Y-112750000D01*
G36*
X127873000Y-118500000D02*
X127881685Y-118546159D01*
X127908965Y-118588553D01*
X127950590Y-118616994D01*
X128000000Y-118627000D01*
X136062090Y-118627000D01*
X135985907Y-119010000D01*
X136098946Y-119578285D01*
X136420853Y-120060054D01*
X136750026Y-120280000D01*
X136420853Y-120499946D01*
X136098946Y-120981715D01*
X135985907Y-121550000D01*
X136098946Y-122118285D01*
X136420853Y-122600054D01*
X136902622Y-122921961D01*
X137470907Y-123035000D01*
X137529093Y-123035000D01*
X138097378Y-122921961D01*
X138579147Y-122600054D01*
X138901054Y-122118285D01*
X139014093Y-121550000D01*
X138901054Y-120981715D01*
X138579147Y-120499946D01*
X138249974Y-120280000D01*
X138579147Y-120060054D01*
X138901054Y-119578285D01*
X139014093Y-119010000D01*
X138937910Y-118627000D01*
X144065000Y-118627000D01*
X144065000Y-143815000D01*
X126203901Y-143815000D01*
X126247440Y-143600000D01*
X126247440Y-142123305D01*
X139864674Y-142123305D01*
X140151043Y-142816372D01*
X140680839Y-143347093D01*
X141373405Y-143634672D01*
X142123305Y-143635326D01*
X142816372Y-143348957D01*
X143347093Y-142819161D01*
X143634672Y-142126595D01*
X143635326Y-141376695D01*
X143348957Y-140683628D01*
X142819161Y-140152907D01*
X142126595Y-139865328D01*
X141376695Y-139864674D01*
X140683628Y-140151043D01*
X140152907Y-140680839D01*
X139865328Y-141373405D01*
X139864674Y-142123305D01*
X126247440Y-142123305D01*
X126247440Y-141900000D01*
X126203162Y-141664683D01*
X126064090Y-141448559D01*
X125851890Y-141303569D01*
X125676883Y-141268129D01*
X125810054Y-141179147D01*
X126030000Y-140849974D01*
X126249946Y-141179147D01*
X126731715Y-141501054D01*
X127300000Y-141614093D01*
X127868285Y-141501054D01*
X128350054Y-141179147D01*
X128570000Y-140849974D01*
X128789946Y-141179147D01*
X129271715Y-141501054D01*
X129840000Y-141614093D01*
X130408285Y-141501054D01*
X130890054Y-141179147D01*
X131110000Y-140849974D01*
X131329946Y-141179147D01*
X131811715Y-141501054D01*
X132380000Y-141614093D01*
X132948285Y-141501054D01*
X133430054Y-141179147D01*
X133751961Y-140697378D01*
X133865000Y-140129093D01*
X133865000Y-140070907D01*
X133751961Y-139502622D01*
X133430054Y-139020853D01*
X132948285Y-138698946D01*
X132380000Y-138585907D01*
X131811715Y-138698946D01*
X131329946Y-139020853D01*
X131110000Y-139350026D01*
X130890054Y-139020853D01*
X130408285Y-138698946D01*
X129840000Y-138585907D01*
X129271715Y-138698946D01*
X128789946Y-139020853D01*
X128570000Y-139350026D01*
X128350054Y-139020853D01*
X127868285Y-138698946D01*
X127300000Y-138585907D01*
X126731715Y-138698946D01*
X126249946Y-139020853D01*
X126030000Y-139350026D01*
X125810054Y-139020853D01*
X125328285Y-138698946D01*
X124760000Y-138585907D01*
X124191715Y-138698946D01*
X123709946Y-139020853D01*
X123388039Y-139502622D01*
X123275000Y-140070907D01*
X123275000Y-140129093D01*
X123388039Y-140697378D01*
X123709946Y-141179147D01*
X123837435Y-141264332D01*
X123664683Y-141296838D01*
X123448559Y-141435910D01*
X123303569Y-141648110D01*
X123252560Y-141900000D01*
X123252560Y-143600000D01*
X123293015Y-143815000D01*
X104685000Y-143815000D01*
X104685000Y-139250000D01*
X113102560Y-139250000D01*
X113102560Y-140950000D01*
X113146838Y-141185317D01*
X113285910Y-141401441D01*
X113498110Y-141546431D01*
X113750000Y-141597440D01*
X115450000Y-141597440D01*
X115685317Y-141553162D01*
X115901441Y-141414090D01*
X116046431Y-141201890D01*
X116060086Y-141134459D01*
X116089946Y-141179147D01*
X116571715Y-141501054D01*
X117140000Y-141614093D01*
X117708285Y-141501054D01*
X118190054Y-141179147D01*
X118410000Y-140849974D01*
X118629946Y-141179147D01*
X119111715Y-141501054D01*
X119680000Y-141614093D01*
X120248285Y-141501054D01*
X120730054Y-141179147D01*
X121051961Y-140697378D01*
X121165000Y-140129093D01*
X121165000Y-140070907D01*
X121051961Y-139502622D01*
X120730054Y-139020853D01*
X120248285Y-138698946D01*
X119680000Y-138585907D01*
X119111715Y-138698946D01*
X118629946Y-139020853D01*
X118410000Y-139350026D01*
X118190054Y-139020853D01*
X117708285Y-138698946D01*
X117140000Y-138585907D01*
X116571715Y-138698946D01*
X116089946Y-139020853D01*
X116062150Y-139062452D01*
X116053162Y-139014683D01*
X115914090Y-138798559D01*
X115701890Y-138653569D01*
X115450000Y-138602560D01*
X113750000Y-138602560D01*
X113514683Y-138646838D01*
X113298559Y-138785910D01*
X113153569Y-138998110D01*
X113102560Y-139250000D01*
X104685000Y-139250000D01*
X104685000Y-138480000D01*
X136002560Y-138480000D01*
X136002560Y-140180000D01*
X136046838Y-140415317D01*
X136185910Y-140631441D01*
X136398110Y-140776431D01*
X136650000Y-140827440D01*
X138350000Y-140827440D01*
X138585317Y-140783162D01*
X138801441Y-140644090D01*
X138946431Y-140431890D01*
X138997440Y-140180000D01*
X138997440Y-138480000D01*
X138953162Y-138244683D01*
X138814090Y-138028559D01*
X138601890Y-137883569D01*
X138350000Y-137832560D01*
X136650000Y-137832560D01*
X136414683Y-137876838D01*
X136198559Y-138015910D01*
X136053569Y-138228110D01*
X136002560Y-138480000D01*
X104685000Y-138480000D01*
X104685000Y-135140000D01*
X105385907Y-135140000D01*
X105498946Y-135708285D01*
X105820853Y-136190054D01*
X106302622Y-136511961D01*
X106870907Y-136625000D01*
X106929093Y-136625000D01*
X107497378Y-136511961D01*
X107979147Y-136190054D01*
X108301054Y-135708285D01*
X108414093Y-135140000D01*
X108301054Y-134571715D01*
X107979147Y-134089946D01*
X107497378Y-133768039D01*
X106929093Y-133655000D01*
X106870907Y-133655000D01*
X106302622Y-133768039D01*
X105820853Y-134089946D01*
X105498946Y-134571715D01*
X105385907Y-135140000D01*
X104685000Y-135140000D01*
X104685000Y-122440000D01*
X105385907Y-122440000D01*
X105498946Y-123008285D01*
X105820853Y-123490054D01*
X106150026Y-123710000D01*
X105820853Y-123929946D01*
X105498946Y-124411715D01*
X105385907Y-124980000D01*
X105498946Y-125548285D01*
X105820853Y-126030054D01*
X106150026Y-126250000D01*
X105820853Y-126469946D01*
X105498946Y-126951715D01*
X105385907Y-127520000D01*
X105498946Y-128088285D01*
X105820853Y-128570054D01*
X106150026Y-128790000D01*
X105820853Y-129009946D01*
X105498946Y-129491715D01*
X105385907Y-130060000D01*
X105498946Y-130628285D01*
X105820853Y-131110054D01*
X106302622Y-131431961D01*
X106870907Y-131545000D01*
X106929093Y-131545000D01*
X107497378Y-131431961D01*
X107979147Y-131110054D01*
X108301054Y-130628285D01*
X108414093Y-130060000D01*
X108301054Y-129491715D01*
X107979147Y-129009946D01*
X107649974Y-128790000D01*
X107979147Y-128570054D01*
X108301054Y-128088285D01*
X108414093Y-127520000D01*
X108301054Y-126951715D01*
X108086092Y-126630000D01*
X135985907Y-126630000D01*
X136098946Y-127198285D01*
X136420853Y-127680054D01*
X136750026Y-127900000D01*
X136420853Y-128119946D01*
X136098946Y-128601715D01*
X135985907Y-129170000D01*
X136098946Y-129738285D01*
X136420853Y-130220054D01*
X136750026Y-130440000D01*
X136420853Y-130659946D01*
X136098946Y-131141715D01*
X135985907Y-131710000D01*
X136098946Y-132278285D01*
X136420853Y-132760054D01*
X136750026Y-132980000D01*
X136420853Y-133199946D01*
X136098946Y-133681715D01*
X135985907Y-134250000D01*
X136098946Y-134818285D01*
X136420853Y-135300054D01*
X136902622Y-135621961D01*
X137470907Y-135735000D01*
X137529093Y-135735000D01*
X138097378Y-135621961D01*
X138579147Y-135300054D01*
X138901054Y-134818285D01*
X139014093Y-134250000D01*
X138901054Y-133681715D01*
X138579147Y-133199946D01*
X138249974Y-132980000D01*
X138579147Y-132760054D01*
X138901054Y-132278285D01*
X139014093Y-131710000D01*
X138901054Y-131141715D01*
X138579147Y-130659946D01*
X138249974Y-130440000D01*
X138579147Y-130220054D01*
X138901054Y-129738285D01*
X139014093Y-129170000D01*
X138901054Y-128601715D01*
X138579147Y-128119946D01*
X138249974Y-127900000D01*
X138579147Y-127680054D01*
X138901054Y-127198285D01*
X139014093Y-126630000D01*
X138901054Y-126061715D01*
X138579147Y-125579946D01*
X138097378Y-125258039D01*
X137529093Y-125145000D01*
X137470907Y-125145000D01*
X136902622Y-125258039D01*
X136420853Y-125579946D01*
X136098946Y-126061715D01*
X135985907Y-126630000D01*
X108086092Y-126630000D01*
X107979147Y-126469946D01*
X107649974Y-126250000D01*
X107979147Y-126030054D01*
X108301054Y-125548285D01*
X108414093Y-124980000D01*
X108301054Y-124411715D01*
X107979147Y-123929946D01*
X107649974Y-123710000D01*
X107979147Y-123490054D01*
X108301054Y-123008285D01*
X108414093Y-122440000D01*
X108301054Y-121871715D01*
X107979147Y-121389946D01*
X107497378Y-121068039D01*
X106929093Y-120955000D01*
X106870907Y-120955000D01*
X106302622Y-121068039D01*
X105820853Y-121389946D01*
X105498946Y-121871715D01*
X105385907Y-122440000D01*
X104685000Y-122440000D01*
X104685000Y-109740000D01*
X105385907Y-109740000D01*
X105498946Y-110308285D01*
X105820853Y-110790054D01*
X106150026Y-111010000D01*
X105820853Y-111229946D01*
X105498946Y-111711715D01*
X105385907Y-112280000D01*
X105498946Y-112848285D01*
X105820853Y-113330054D01*
X106150026Y-113550000D01*
X105820853Y-113769946D01*
X105498946Y-114251715D01*
X105385907Y-114820000D01*
X105498946Y-115388285D01*
X105820853Y-115870054D01*
X106150026Y-116090000D01*
X105820853Y-116309946D01*
X105498946Y-116791715D01*
X105385907Y-117360000D01*
X105498946Y-117928285D01*
X105820853Y-118410054D01*
X106302622Y-118731961D01*
X106870907Y-118845000D01*
X106929093Y-118845000D01*
X107497378Y-118731961D01*
X107979147Y-118410054D01*
X108301054Y-117928285D01*
X108414093Y-117360000D01*
X108301054Y-116791715D01*
X107979147Y-116309946D01*
X107649974Y-116090000D01*
X107979147Y-115870054D01*
X108301054Y-115388285D01*
X108414093Y-114820000D01*
X108301054Y-114251715D01*
X107979147Y-113769946D01*
X107649974Y-113550000D01*
X107979147Y-113330054D01*
X108301054Y-112848285D01*
X108414093Y-112280000D01*
X108301054Y-111711715D01*
X107979147Y-111229946D01*
X107649974Y-111010000D01*
X107979147Y-110790054D01*
X108301054Y-110308285D01*
X108414093Y-109740000D01*
X108366354Y-109500000D01*
X114590000Y-109500000D01*
X114602560Y-109563143D01*
X114602560Y-109950000D01*
X114646838Y-110185317D01*
X114785910Y-110401441D01*
X114998110Y-110546431D01*
X115250000Y-110597440D01*
X115750000Y-110597440D01*
X115985317Y-110553162D01*
X116090000Y-110485800D01*
X116090000Y-111270499D01*
X115956777Y-111215180D01*
X115545029Y-111214821D01*
X115164485Y-111372058D01*
X114873081Y-111662954D01*
X114715180Y-112043223D01*
X114714821Y-112454971D01*
X114872058Y-112835515D01*
X115162954Y-113126919D01*
X115465693Y-113252627D01*
X115490000Y-113276934D01*
X115490000Y-113700000D01*
X115502560Y-113763143D01*
X115502560Y-114150000D01*
X115546838Y-114385317D01*
X115685910Y-114601441D01*
X115898110Y-114746431D01*
X116150000Y-114797440D01*
X116650000Y-114797440D01*
X116885317Y-114753162D01*
X116965000Y-114701887D01*
X116965000Y-119700000D01*
X117008427Y-119930795D01*
X117144827Y-120142767D01*
X117352949Y-120284971D01*
X117600000Y-120335000D01*
X122200000Y-120335000D01*
X122430795Y-120291573D01*
X122642767Y-120155173D01*
X122784971Y-119947051D01*
X122835000Y-119700000D01*
X122835000Y-113060000D01*
X123280000Y-113060000D01*
X123589974Y-112998342D01*
X123852756Y-112822756D01*
X124122757Y-112552756D01*
X124298343Y-112289973D01*
X124341768Y-112071658D01*
X124471431Y-111881890D01*
X124522440Y-111630000D01*
X124522440Y-110570000D01*
X124478162Y-110334683D01*
X124339090Y-110118559D01*
X124126890Y-109973569D01*
X123875000Y-109922560D01*
X123225000Y-109922560D01*
X122989683Y-109966838D01*
X122819545Y-110076319D01*
X122835000Y-110000000D01*
X122835000Y-108909598D01*
X122930795Y-108891573D01*
X123142767Y-108755173D01*
X123284971Y-108547051D01*
X123335000Y-108300000D01*
X123335000Y-105100000D01*
X123291573Y-104869205D01*
X123155173Y-104657233D01*
X122947051Y-104515029D01*
X122700000Y-104465000D01*
X118000000Y-104465000D01*
X117769205Y-104508427D01*
X117557233Y-104644827D01*
X117415029Y-104852949D01*
X117365000Y-105100000D01*
X117365000Y-108425848D01*
X117250000Y-108402560D01*
X116750000Y-108402560D01*
X116514683Y-108446838D01*
X116298559Y-108585910D01*
X116295764Y-108590000D01*
X116201563Y-108590000D01*
X116001890Y-108453569D01*
X115750000Y-108402560D01*
X115250000Y-108402560D01*
X115014683Y-108446838D01*
X114798559Y-108585910D01*
X114653569Y-108798110D01*
X114602560Y-109050000D01*
X114602560Y-109436857D01*
X114590000Y-109500000D01*
X108366354Y-109500000D01*
X108301054Y-109171715D01*
X107979147Y-108689946D01*
X107937548Y-108662150D01*
X107985317Y-108653162D01*
X108201441Y-108514090D01*
X108346431Y-108301890D01*
X108397440Y-108050000D01*
X108397440Y-106873305D01*
X109864674Y-106873305D01*
X110151043Y-107566372D01*
X110680839Y-108097093D01*
X111373405Y-108384672D01*
X112123305Y-108385326D01*
X112816372Y-108098957D01*
X113347093Y-107569161D01*
X113634672Y-106876595D01*
X113635326Y-106126695D01*
X113348957Y-105433628D01*
X112819161Y-104902907D01*
X112126595Y-104615328D01*
X111376695Y-104614674D01*
X110683628Y-104901043D01*
X110152907Y-105430839D01*
X109865328Y-106123405D01*
X109864674Y-106873305D01*
X108397440Y-106873305D01*
X108397440Y-106350000D01*
X108353162Y-106114683D01*
X108214090Y-105898559D01*
X108001890Y-105753569D01*
X107750000Y-105702560D01*
X106050000Y-105702560D01*
X105814683Y-105746838D01*
X105598559Y-105885910D01*
X105453569Y-106098110D01*
X105402560Y-106350000D01*
X105402560Y-108050000D01*
X105446838Y-108285317D01*
X105585910Y-108501441D01*
X105798110Y-108646431D01*
X105865541Y-108660086D01*
X105820853Y-108689946D01*
X105498946Y-109171715D01*
X105385907Y-109740000D01*
X104685000Y-109740000D01*
X104685000Y-103185000D01*
X127873000Y-103185000D01*
X127873000Y-118500000D01*
X127873000Y-118500000D01*
G37*
X127873000Y-118500000D02*
X127881685Y-118546159D01*
X127908965Y-118588553D01*
X127950590Y-118616994D01*
X128000000Y-118627000D01*
X136062090Y-118627000D01*
X135985907Y-119010000D01*
X136098946Y-119578285D01*
X136420853Y-120060054D01*
X136750026Y-120280000D01*
X136420853Y-120499946D01*
X136098946Y-120981715D01*
X135985907Y-121550000D01*
X136098946Y-122118285D01*
X136420853Y-122600054D01*
X136902622Y-122921961D01*
X137470907Y-123035000D01*
X137529093Y-123035000D01*
X138097378Y-122921961D01*
X138579147Y-122600054D01*
X138901054Y-122118285D01*
X139014093Y-121550000D01*
X138901054Y-120981715D01*
X138579147Y-120499946D01*
X138249974Y-120280000D01*
X138579147Y-120060054D01*
X138901054Y-119578285D01*
X139014093Y-119010000D01*
X138937910Y-118627000D01*
X144065000Y-118627000D01*
X144065000Y-143815000D01*
X126203901Y-143815000D01*
X126247440Y-143600000D01*
X126247440Y-142123305D01*
X139864674Y-142123305D01*
X140151043Y-142816372D01*
X140680839Y-143347093D01*
X141373405Y-143634672D01*
X142123305Y-143635326D01*
X142816372Y-143348957D01*
X143347093Y-142819161D01*
X143634672Y-142126595D01*
X143635326Y-141376695D01*
X143348957Y-140683628D01*
X142819161Y-140152907D01*
X142126595Y-139865328D01*
X141376695Y-139864674D01*
X140683628Y-140151043D01*
X140152907Y-140680839D01*
X139865328Y-141373405D01*
X139864674Y-142123305D01*
X126247440Y-142123305D01*
X126247440Y-141900000D01*
X126203162Y-141664683D01*
X126064090Y-141448559D01*
X125851890Y-141303569D01*
X125676883Y-141268129D01*
X125810054Y-141179147D01*
X126030000Y-140849974D01*
X126249946Y-141179147D01*
X126731715Y-141501054D01*
X127300000Y-141614093D01*
X127868285Y-141501054D01*
X128350054Y-141179147D01*
X128570000Y-140849974D01*
X128789946Y-141179147D01*
X129271715Y-141501054D01*
X129840000Y-141614093D01*
X130408285Y-141501054D01*
X130890054Y-141179147D01*
X131110000Y-140849974D01*
X131329946Y-141179147D01*
X131811715Y-141501054D01*
X132380000Y-141614093D01*
X132948285Y-141501054D01*
X133430054Y-141179147D01*
X133751961Y-140697378D01*
X133865000Y-140129093D01*
X133865000Y-140070907D01*
X133751961Y-139502622D01*
X133430054Y-139020853D01*
X132948285Y-138698946D01*
X132380000Y-138585907D01*
X131811715Y-138698946D01*
X131329946Y-139020853D01*
X131110000Y-139350026D01*
X130890054Y-139020853D01*
X130408285Y-138698946D01*
X129840000Y-138585907D01*
X129271715Y-138698946D01*
X128789946Y-139020853D01*
X128570000Y-139350026D01*
X128350054Y-139020853D01*
X127868285Y-138698946D01*
X127300000Y-138585907D01*
X126731715Y-138698946D01*
X126249946Y-139020853D01*
X126030000Y-139350026D01*
X125810054Y-139020853D01*
X125328285Y-138698946D01*
X124760000Y-138585907D01*
X124191715Y-138698946D01*
X123709946Y-139020853D01*
X123388039Y-139502622D01*
X123275000Y-140070907D01*
X123275000Y-140129093D01*
X123388039Y-140697378D01*
X123709946Y-141179147D01*
X123837435Y-141264332D01*
X123664683Y-141296838D01*
X123448559Y-141435910D01*
X123303569Y-141648110D01*
X123252560Y-141900000D01*
X123252560Y-143600000D01*
X123293015Y-143815000D01*
X104685000Y-143815000D01*
X104685000Y-139250000D01*
X113102560Y-139250000D01*
X113102560Y-140950000D01*
X113146838Y-141185317D01*
X113285910Y-141401441D01*
X113498110Y-141546431D01*
X113750000Y-141597440D01*
X115450000Y-141597440D01*
X115685317Y-141553162D01*
X115901441Y-141414090D01*
X116046431Y-141201890D01*
X116060086Y-141134459D01*
X116089946Y-141179147D01*
X116571715Y-141501054D01*
X117140000Y-141614093D01*
X117708285Y-141501054D01*
X118190054Y-141179147D01*
X118410000Y-140849974D01*
X118629946Y-141179147D01*
X119111715Y-141501054D01*
X119680000Y-141614093D01*
X120248285Y-141501054D01*
X120730054Y-141179147D01*
X121051961Y-140697378D01*
X121165000Y-140129093D01*
X121165000Y-140070907D01*
X121051961Y-139502622D01*
X120730054Y-139020853D01*
X120248285Y-138698946D01*
X119680000Y-138585907D01*
X119111715Y-138698946D01*
X118629946Y-139020853D01*
X118410000Y-139350026D01*
X118190054Y-139020853D01*
X117708285Y-138698946D01*
X117140000Y-138585907D01*
X116571715Y-138698946D01*
X116089946Y-139020853D01*
X116062150Y-139062452D01*
X116053162Y-139014683D01*
X115914090Y-138798559D01*
X115701890Y-138653569D01*
X115450000Y-138602560D01*
X113750000Y-138602560D01*
X113514683Y-138646838D01*
X113298559Y-138785910D01*
X113153569Y-138998110D01*
X113102560Y-139250000D01*
X104685000Y-139250000D01*
X104685000Y-138480000D01*
X136002560Y-138480000D01*
X136002560Y-140180000D01*
X136046838Y-140415317D01*
X136185910Y-140631441D01*
X136398110Y-140776431D01*
X136650000Y-140827440D01*
X138350000Y-140827440D01*
X138585317Y-140783162D01*
X138801441Y-140644090D01*
X138946431Y-140431890D01*
X138997440Y-140180000D01*
X138997440Y-138480000D01*
X138953162Y-138244683D01*
X138814090Y-138028559D01*
X138601890Y-137883569D01*
X138350000Y-137832560D01*
X136650000Y-137832560D01*
X136414683Y-137876838D01*
X136198559Y-138015910D01*
X136053569Y-138228110D01*
X136002560Y-138480000D01*
X104685000Y-138480000D01*
X104685000Y-135140000D01*
X105385907Y-135140000D01*
X105498946Y-135708285D01*
X105820853Y-136190054D01*
X106302622Y-136511961D01*
X106870907Y-136625000D01*
X106929093Y-136625000D01*
X107497378Y-136511961D01*
X107979147Y-136190054D01*
X108301054Y-135708285D01*
X108414093Y-135140000D01*
X108301054Y-134571715D01*
X107979147Y-134089946D01*
X107497378Y-133768039D01*
X106929093Y-133655000D01*
X106870907Y-133655000D01*
X106302622Y-133768039D01*
X105820853Y-134089946D01*
X105498946Y-134571715D01*
X105385907Y-135140000D01*
X104685000Y-135140000D01*
X104685000Y-122440000D01*
X105385907Y-122440000D01*
X105498946Y-123008285D01*
X105820853Y-123490054D01*
X106150026Y-123710000D01*
X105820853Y-123929946D01*
X105498946Y-124411715D01*
X105385907Y-124980000D01*
X105498946Y-125548285D01*
X105820853Y-126030054D01*
X106150026Y-126250000D01*
X105820853Y-126469946D01*
X105498946Y-126951715D01*
X105385907Y-127520000D01*
X105498946Y-128088285D01*
X105820853Y-128570054D01*
X106150026Y-128790000D01*
X105820853Y-129009946D01*
X105498946Y-129491715D01*
X105385907Y-130060000D01*
X105498946Y-130628285D01*
X105820853Y-131110054D01*
X106302622Y-131431961D01*
X106870907Y-131545000D01*
X106929093Y-131545000D01*
X107497378Y-131431961D01*
X107979147Y-131110054D01*
X108301054Y-130628285D01*
X108414093Y-130060000D01*
X108301054Y-129491715D01*
X107979147Y-129009946D01*
X107649974Y-128790000D01*
X107979147Y-128570054D01*
X108301054Y-128088285D01*
X108414093Y-127520000D01*
X108301054Y-126951715D01*
X108086092Y-126630000D01*
X135985907Y-126630000D01*
X136098946Y-127198285D01*
X136420853Y-127680054D01*
X136750026Y-127900000D01*
X136420853Y-128119946D01*
X136098946Y-128601715D01*
X135985907Y-129170000D01*
X136098946Y-129738285D01*
X136420853Y-130220054D01*
X136750026Y-130440000D01*
X136420853Y-130659946D01*
X136098946Y-131141715D01*
X135985907Y-131710000D01*
X136098946Y-132278285D01*
X136420853Y-132760054D01*
X136750026Y-132980000D01*
X136420853Y-133199946D01*
X136098946Y-133681715D01*
X135985907Y-134250000D01*
X136098946Y-134818285D01*
X136420853Y-135300054D01*
X136902622Y-135621961D01*
X137470907Y-135735000D01*
X137529093Y-135735000D01*
X138097378Y-135621961D01*
X138579147Y-135300054D01*
X138901054Y-134818285D01*
X139014093Y-134250000D01*
X138901054Y-133681715D01*
X138579147Y-133199946D01*
X138249974Y-132980000D01*
X138579147Y-132760054D01*
X138901054Y-132278285D01*
X139014093Y-131710000D01*
X138901054Y-131141715D01*
X138579147Y-130659946D01*
X138249974Y-130440000D01*
X138579147Y-130220054D01*
X138901054Y-129738285D01*
X139014093Y-129170000D01*
X138901054Y-128601715D01*
X138579147Y-128119946D01*
X138249974Y-127900000D01*
X138579147Y-127680054D01*
X138901054Y-127198285D01*
X139014093Y-126630000D01*
X138901054Y-126061715D01*
X138579147Y-125579946D01*
X138097378Y-125258039D01*
X137529093Y-125145000D01*
X137470907Y-125145000D01*
X136902622Y-125258039D01*
X136420853Y-125579946D01*
X136098946Y-126061715D01*
X135985907Y-126630000D01*
X108086092Y-126630000D01*
X107979147Y-126469946D01*
X107649974Y-126250000D01*
X107979147Y-126030054D01*
X108301054Y-125548285D01*
X108414093Y-124980000D01*
X108301054Y-124411715D01*
X107979147Y-123929946D01*
X107649974Y-123710000D01*
X107979147Y-123490054D01*
X108301054Y-123008285D01*
X108414093Y-122440000D01*
X108301054Y-121871715D01*
X107979147Y-121389946D01*
X107497378Y-121068039D01*
X106929093Y-120955000D01*
X106870907Y-120955000D01*
X106302622Y-121068039D01*
X105820853Y-121389946D01*
X105498946Y-121871715D01*
X105385907Y-122440000D01*
X104685000Y-122440000D01*
X104685000Y-109740000D01*
X105385907Y-109740000D01*
X105498946Y-110308285D01*
X105820853Y-110790054D01*
X106150026Y-111010000D01*
X105820853Y-111229946D01*
X105498946Y-111711715D01*
X105385907Y-112280000D01*
X105498946Y-112848285D01*
X105820853Y-113330054D01*
X106150026Y-113550000D01*
X105820853Y-113769946D01*
X105498946Y-114251715D01*
X105385907Y-114820000D01*
X105498946Y-115388285D01*
X105820853Y-115870054D01*
X106150026Y-116090000D01*
X105820853Y-116309946D01*
X105498946Y-116791715D01*
X105385907Y-117360000D01*
X105498946Y-117928285D01*
X105820853Y-118410054D01*
X106302622Y-118731961D01*
X106870907Y-118845000D01*
X106929093Y-118845000D01*
X107497378Y-118731961D01*
X107979147Y-118410054D01*
X108301054Y-117928285D01*
X108414093Y-117360000D01*
X108301054Y-116791715D01*
X107979147Y-116309946D01*
X107649974Y-116090000D01*
X107979147Y-115870054D01*
X108301054Y-115388285D01*
X108414093Y-114820000D01*
X108301054Y-114251715D01*
X107979147Y-113769946D01*
X107649974Y-113550000D01*
X107979147Y-113330054D01*
X108301054Y-112848285D01*
X108414093Y-112280000D01*
X108301054Y-111711715D01*
X107979147Y-111229946D01*
X107649974Y-111010000D01*
X107979147Y-110790054D01*
X108301054Y-110308285D01*
X108414093Y-109740000D01*
X108366354Y-109500000D01*
X114590000Y-109500000D01*
X114602560Y-109563143D01*
X114602560Y-109950000D01*
X114646838Y-110185317D01*
X114785910Y-110401441D01*
X114998110Y-110546431D01*
X115250000Y-110597440D01*
X115750000Y-110597440D01*
X115985317Y-110553162D01*
X116090000Y-110485800D01*
X116090000Y-111270499D01*
X115956777Y-111215180D01*
X115545029Y-111214821D01*
X115164485Y-111372058D01*
X114873081Y-111662954D01*
X114715180Y-112043223D01*
X114714821Y-112454971D01*
X114872058Y-112835515D01*
X115162954Y-113126919D01*
X115465693Y-113252627D01*
X115490000Y-113276934D01*
X115490000Y-113700000D01*
X115502560Y-113763143D01*
X115502560Y-114150000D01*
X115546838Y-114385317D01*
X115685910Y-114601441D01*
X115898110Y-114746431D01*
X116150000Y-114797440D01*
X116650000Y-114797440D01*
X116885317Y-114753162D01*
X116965000Y-114701887D01*
X116965000Y-119700000D01*
X117008427Y-119930795D01*
X117144827Y-120142767D01*
X117352949Y-120284971D01*
X117600000Y-120335000D01*
X122200000Y-120335000D01*
X122430795Y-120291573D01*
X122642767Y-120155173D01*
X122784971Y-119947051D01*
X122835000Y-119700000D01*
X122835000Y-113060000D01*
X123280000Y-113060000D01*
X123589974Y-112998342D01*
X123852756Y-112822756D01*
X124122757Y-112552756D01*
X124298343Y-112289973D01*
X124341768Y-112071658D01*
X124471431Y-111881890D01*
X124522440Y-111630000D01*
X124522440Y-110570000D01*
X124478162Y-110334683D01*
X124339090Y-110118559D01*
X124126890Y-109973569D01*
X123875000Y-109922560D01*
X123225000Y-109922560D01*
X122989683Y-109966838D01*
X122819545Y-110076319D01*
X122835000Y-110000000D01*
X122835000Y-108909598D01*
X122930795Y-108891573D01*
X123142767Y-108755173D01*
X123284971Y-108547051D01*
X123335000Y-108300000D01*
X123335000Y-105100000D01*
X123291573Y-104869205D01*
X123155173Y-104657233D01*
X122947051Y-104515029D01*
X122700000Y-104465000D01*
X118000000Y-104465000D01*
X117769205Y-104508427D01*
X117557233Y-104644827D01*
X117415029Y-104852949D01*
X117365000Y-105100000D01*
X117365000Y-108425848D01*
X117250000Y-108402560D01*
X116750000Y-108402560D01*
X116514683Y-108446838D01*
X116298559Y-108585910D01*
X116295764Y-108590000D01*
X116201563Y-108590000D01*
X116001890Y-108453569D01*
X115750000Y-108402560D01*
X115250000Y-108402560D01*
X115014683Y-108446838D01*
X114798559Y-108585910D01*
X114653569Y-108798110D01*
X114602560Y-109050000D01*
X114602560Y-109436857D01*
X114590000Y-109500000D01*
X108366354Y-109500000D01*
X108301054Y-109171715D01*
X107979147Y-108689946D01*
X107937548Y-108662150D01*
X107985317Y-108653162D01*
X108201441Y-108514090D01*
X108346431Y-108301890D01*
X108397440Y-108050000D01*
X108397440Y-106873305D01*
X109864674Y-106873305D01*
X110151043Y-107566372D01*
X110680839Y-108097093D01*
X111373405Y-108384672D01*
X112123305Y-108385326D01*
X112816372Y-108098957D01*
X113347093Y-107569161D01*
X113634672Y-106876595D01*
X113635326Y-106126695D01*
X113348957Y-105433628D01*
X112819161Y-104902907D01*
X112126595Y-104615328D01*
X111376695Y-104614674D01*
X110683628Y-104901043D01*
X110152907Y-105430839D01*
X109865328Y-106123405D01*
X109864674Y-106873305D01*
X108397440Y-106873305D01*
X108397440Y-106350000D01*
X108353162Y-106114683D01*
X108214090Y-105898559D01*
X108001890Y-105753569D01*
X107750000Y-105702560D01*
X106050000Y-105702560D01*
X105814683Y-105746838D01*
X105598559Y-105885910D01*
X105453569Y-106098110D01*
X105402560Y-106350000D01*
X105402560Y-108050000D01*
X105446838Y-108285317D01*
X105585910Y-108501441D01*
X105798110Y-108646431D01*
X105865541Y-108660086D01*
X105820853Y-108689946D01*
X105498946Y-109171715D01*
X105385907Y-109740000D01*
X104685000Y-109740000D01*
X104685000Y-103185000D01*
X127873000Y-103185000D01*
X127873000Y-118500000D01*
G36*
X144065000Y-117373000D02*
X129127000Y-117373000D01*
X129127000Y-112923795D01*
X137784716Y-112923795D01*
X138033106Y-113524943D01*
X138492637Y-113985278D01*
X139093352Y-114234716D01*
X139743795Y-114235284D01*
X140344943Y-113986894D01*
X140805278Y-113527363D01*
X141054716Y-112926648D01*
X141055284Y-112276205D01*
X140806894Y-111675057D01*
X140347363Y-111214722D01*
X139746648Y-110965284D01*
X139096205Y-110964716D01*
X138495057Y-111213106D01*
X138034722Y-111672637D01*
X137785284Y-112273352D01*
X137784716Y-112923795D01*
X129127000Y-112923795D01*
X129127000Y-106627000D01*
X144065000Y-106627000D01*
X144065000Y-117373000D01*
X144065000Y-117373000D01*
G37*
X144065000Y-117373000D02*
X129127000Y-117373000D01*
X129127000Y-112923795D01*
X137784716Y-112923795D01*
X138033106Y-113524943D01*
X138492637Y-113985278D01*
X139093352Y-114234716D01*
X139743795Y-114235284D01*
X140344943Y-113986894D01*
X140805278Y-113527363D01*
X141054716Y-112926648D01*
X141055284Y-112276205D01*
X140806894Y-111675057D01*
X140347363Y-111214722D01*
X139746648Y-110965284D01*
X139096205Y-110964716D01*
X138495057Y-111213106D01*
X138034722Y-111672637D01*
X137785284Y-112273352D01*
X137784716Y-112923795D01*
X129127000Y-112923795D01*
X129127000Y-106627000D01*
X144065000Y-106627000D01*
X144065000Y-117373000D01*
G36*
X191464143Y-52958991D02*
X191357803Y-53493600D01*
X191464143Y-54028209D01*
X191766975Y-54481428D01*
X192189274Y-54763600D01*
X191766975Y-55045772D01*
X191464143Y-55498991D01*
X191357803Y-56033600D01*
X191464143Y-56568209D01*
X191766975Y-57021428D01*
X192189274Y-57303600D01*
X191766975Y-57585772D01*
X191464143Y-58038991D01*
X191357803Y-58573600D01*
X191464143Y-59108209D01*
X191766975Y-59561428D01*
X192189274Y-59843600D01*
X191987233Y-59978600D01*
X190686400Y-59978600D01*
X190252055Y-60064996D01*
X189883834Y-60311033D01*
X186297434Y-63897434D01*
X186051397Y-64265654D01*
X185965000Y-64700000D01*
X185965000Y-66500000D01*
X186051397Y-66934346D01*
X186071988Y-66965162D01*
X186297434Y-67302566D01*
X187697434Y-68702566D01*
X188065655Y-68948603D01*
X188500000Y-69035000D01*
X188934345Y-68948603D01*
X189302566Y-68702566D01*
X189548603Y-68334345D01*
X189635000Y-67900000D01*
X189548603Y-67465655D01*
X189302566Y-67097434D01*
X189083700Y-66878568D01*
X189234345Y-66848603D01*
X189602566Y-66602566D01*
X191416532Y-64788600D01*
X191987233Y-64788600D01*
X192189274Y-64923600D01*
X191766975Y-65205772D01*
X191464143Y-65658991D01*
X191357803Y-66193600D01*
X191464143Y-66728209D01*
X191766975Y-67181428D01*
X192189274Y-67463600D01*
X191766975Y-67745772D01*
X191464143Y-68198991D01*
X191357803Y-68733600D01*
X191464143Y-69268209D01*
X191766975Y-69721428D01*
X192189274Y-70003600D01*
X191766975Y-70285772D01*
X191464143Y-70738991D01*
X191357803Y-71273600D01*
X191464143Y-71808209D01*
X191766975Y-72261428D01*
X192189274Y-72543600D01*
X191766975Y-72825772D01*
X191464143Y-73278991D01*
X191357803Y-73813600D01*
X191464143Y-74348209D01*
X191766975Y-74801428D01*
X192189274Y-75083600D01*
X191766975Y-75365772D01*
X191464143Y-75818991D01*
X191357803Y-76353600D01*
X191464143Y-76888209D01*
X191766975Y-77341428D01*
X192189274Y-77623600D01*
X191766975Y-77905772D01*
X191464143Y-78358991D01*
X191357803Y-78893600D01*
X191464143Y-79428209D01*
X191766975Y-79881428D01*
X192189274Y-80163600D01*
X191766975Y-80445772D01*
X191464143Y-80898991D01*
X191357803Y-81433600D01*
X191464143Y-81968209D01*
X191766975Y-82421428D01*
X192189274Y-82703600D01*
X191766975Y-82985772D01*
X191464143Y-83438991D01*
X191357803Y-83973600D01*
X191464143Y-84508209D01*
X191766975Y-84961428D01*
X192189274Y-85243600D01*
X191766975Y-85525772D01*
X191464143Y-85978991D01*
X191357803Y-86513600D01*
X191464143Y-87048209D01*
X191766975Y-87501428D01*
X192189274Y-87783600D01*
X191766975Y-88065772D01*
X191464143Y-88518991D01*
X191357803Y-89053600D01*
X191464143Y-89588209D01*
X191766975Y-90041428D01*
X192189274Y-90323600D01*
X191766975Y-90605772D01*
X191464143Y-91058991D01*
X191357803Y-91593600D01*
X191464143Y-92128209D01*
X191766975Y-92581428D01*
X192189274Y-92863600D01*
X191766975Y-93145772D01*
X191464143Y-93598991D01*
X191357803Y-94133600D01*
X191464143Y-94668209D01*
X191766975Y-95121428D01*
X192189274Y-95403600D01*
X191766975Y-95685772D01*
X191464143Y-96138991D01*
X191357803Y-96673600D01*
X191464143Y-97208209D01*
X191766975Y-97661428D01*
X192220194Y-97964260D01*
X192754803Y-98070600D01*
X194363397Y-98070600D01*
X194815000Y-97980771D01*
X194815000Y-98315000D01*
X155185000Y-98315000D01*
X155185000Y-97978515D01*
X155647943Y-98070600D01*
X157256537Y-98070600D01*
X157791146Y-97964260D01*
X158244365Y-97661428D01*
X158547197Y-97208209D01*
X158653537Y-96673600D01*
X158547197Y-96138991D01*
X158244365Y-95685772D01*
X157822066Y-95403600D01*
X158244365Y-95121428D01*
X158547197Y-94668209D01*
X158653537Y-94133600D01*
X158547197Y-93598991D01*
X158244365Y-93145772D01*
X157822066Y-92863600D01*
X158244365Y-92581428D01*
X158547197Y-92128209D01*
X158653537Y-91593600D01*
X158547197Y-91058991D01*
X158244365Y-90605772D01*
X157822066Y-90323600D01*
X158244365Y-90041428D01*
X158547197Y-89588209D01*
X158653537Y-89053600D01*
X158547197Y-88518991D01*
X158244365Y-88065772D01*
X157822066Y-87783600D01*
X158244365Y-87501428D01*
X158547197Y-87048209D01*
X158653537Y-86513600D01*
X158547197Y-85978991D01*
X158438893Y-85816903D01*
X162099523Y-85816903D01*
X162342625Y-86405256D01*
X162792376Y-86855793D01*
X163380304Y-87099922D01*
X164016903Y-87100477D01*
X164605256Y-86857375D01*
X165055793Y-86407624D01*
X165099807Y-86301627D01*
X165142625Y-86405256D01*
X165592376Y-86855793D01*
X166180304Y-87099922D01*
X166816903Y-87100477D01*
X167405256Y-86857375D01*
X167855793Y-86407624D01*
X167893463Y-86316903D01*
X172399523Y-86316903D01*
X172642625Y-86905256D01*
X173092376Y-87355793D01*
X173680304Y-87599922D01*
X174316903Y-87600477D01*
X174905256Y-87357375D01*
X175355793Y-86907624D01*
X175599922Y-86319696D01*
X175600360Y-85816903D01*
X183899523Y-85816903D01*
X184142625Y-86405256D01*
X184592376Y-86855793D01*
X185180304Y-87099922D01*
X185816903Y-87100477D01*
X186405256Y-86857375D01*
X186855793Y-86407624D01*
X187099922Y-85819696D01*
X187100477Y-85183097D01*
X186857375Y-84594744D01*
X186407624Y-84144207D01*
X185819696Y-83900078D01*
X185183097Y-83899523D01*
X184594744Y-84142625D01*
X184144207Y-84592376D01*
X183900078Y-85180304D01*
X183899523Y-85816903D01*
X175600360Y-85816903D01*
X175600477Y-85683097D01*
X175357375Y-85094744D01*
X174907624Y-84644207D01*
X174319696Y-84400078D01*
X173683097Y-84399523D01*
X173094744Y-84642625D01*
X172644207Y-85092376D01*
X172400078Y-85680304D01*
X172399523Y-86316903D01*
X167893463Y-86316903D01*
X168099922Y-85819696D01*
X168100477Y-85183097D01*
X167857375Y-84594744D01*
X167407624Y-84144207D01*
X166819696Y-83900078D01*
X166183097Y-83899523D01*
X165594744Y-84142625D01*
X165144207Y-84592376D01*
X165100193Y-84698373D01*
X165057375Y-84594744D01*
X164607624Y-84144207D01*
X164019696Y-83900078D01*
X163383097Y-83899523D01*
X162794744Y-84142625D01*
X162344207Y-84592376D01*
X162100078Y-85180304D01*
X162099523Y-85816903D01*
X158438893Y-85816903D01*
X158244365Y-85525772D01*
X157822066Y-85243600D01*
X158244365Y-84961428D01*
X158547197Y-84508209D01*
X158653537Y-83973600D01*
X158547197Y-83438991D01*
X158244365Y-82985772D01*
X157822066Y-82703600D01*
X158244365Y-82421428D01*
X158547197Y-81968209D01*
X158653537Y-81433600D01*
X158547197Y-80898991D01*
X158244365Y-80445772D01*
X157822066Y-80163600D01*
X158244365Y-79881428D01*
X158547197Y-79428209D01*
X158653537Y-78893600D01*
X158547197Y-78358991D01*
X158244365Y-77905772D01*
X157822066Y-77623600D01*
X158244365Y-77341428D01*
X158547197Y-76888209D01*
X158653537Y-76353600D01*
X158547197Y-75818991D01*
X158244365Y-75365772D01*
X157822066Y-75083600D01*
X158244365Y-74801428D01*
X158547197Y-74348209D01*
X158653537Y-73813600D01*
X158547197Y-73278991D01*
X158244365Y-72825772D01*
X157822066Y-72543600D01*
X158244365Y-72261428D01*
X158547197Y-71808209D01*
X158653537Y-71273600D01*
X158547197Y-70738991D01*
X158244365Y-70285772D01*
X157822066Y-70003600D01*
X158244365Y-69721428D01*
X158547197Y-69268209D01*
X158653537Y-68733600D01*
X158547197Y-68198991D01*
X158244365Y-67745772D01*
X157822066Y-67463600D01*
X158244365Y-67181428D01*
X158547197Y-66728209D01*
X158653537Y-66193600D01*
X158547197Y-65658991D01*
X158244365Y-65205772D01*
X157822066Y-64923600D01*
X158244365Y-64641428D01*
X158547197Y-64188209D01*
X158653537Y-63653600D01*
X158547197Y-63118991D01*
X158244365Y-62665772D01*
X157822066Y-62383600D01*
X158244365Y-62101428D01*
X158547197Y-61648209D01*
X158653537Y-61113600D01*
X158547197Y-60578991D01*
X158244365Y-60125772D01*
X157822066Y-59843600D01*
X158244365Y-59561428D01*
X158547197Y-59108209D01*
X158653537Y-58573600D01*
X158547197Y-58038991D01*
X158244365Y-57585772D01*
X157822066Y-57303600D01*
X158244365Y-57021428D01*
X158547197Y-56568209D01*
X158565286Y-56477265D01*
X162794670Y-56477265D01*
X163084078Y-57177686D01*
X163619495Y-57714039D01*
X164319410Y-58004668D01*
X165077265Y-58005330D01*
X165777686Y-57715922D01*
X166314039Y-57180505D01*
X166575846Y-56550000D01*
X174602560Y-56550000D01*
X174602560Y-58250000D01*
X174646838Y-58485317D01*
X174785910Y-58701441D01*
X174998110Y-58846431D01*
X175250000Y-58897440D01*
X176950000Y-58897440D01*
X177185317Y-58853162D01*
X177401441Y-58714090D01*
X177546431Y-58501890D01*
X177560086Y-58434459D01*
X177589946Y-58479147D01*
X178071715Y-58801054D01*
X178640000Y-58914093D01*
X179208285Y-58801054D01*
X179690054Y-58479147D01*
X180011961Y-57997378D01*
X180125000Y-57429093D01*
X180125000Y-57370907D01*
X180011961Y-56802622D01*
X179690054Y-56320853D01*
X179208285Y-55998946D01*
X178640000Y-55885907D01*
X178071715Y-55998946D01*
X177589946Y-56320853D01*
X177562150Y-56362452D01*
X177553162Y-56314683D01*
X177414090Y-56098559D01*
X177201890Y-55953569D01*
X176950000Y-55902560D01*
X175250000Y-55902560D01*
X175014683Y-55946838D01*
X174798559Y-56085910D01*
X174653569Y-56298110D01*
X174602560Y-56550000D01*
X166575846Y-56550000D01*
X166604668Y-56480590D01*
X166605330Y-55722735D01*
X166315922Y-55022314D01*
X165780505Y-54485961D01*
X165080590Y-54195332D01*
X164322735Y-54194670D01*
X163622314Y-54484078D01*
X163085961Y-55019495D01*
X162795332Y-55719410D01*
X162794670Y-56477265D01*
X158565286Y-56477265D01*
X158653537Y-56033600D01*
X158547197Y-55498991D01*
X158244365Y-55045772D01*
X157791146Y-54742940D01*
X157256537Y-54636600D01*
X155647943Y-54636600D01*
X155185000Y-54728685D01*
X155185000Y-52585000D01*
X191714036Y-52585000D01*
X191464143Y-52958991D01*
X191464143Y-52958991D01*
G37*
X191464143Y-52958991D02*
X191357803Y-53493600D01*
X191464143Y-54028209D01*
X191766975Y-54481428D01*
X192189274Y-54763600D01*
X191766975Y-55045772D01*
X191464143Y-55498991D01*
X191357803Y-56033600D01*
X191464143Y-56568209D01*
X191766975Y-57021428D01*
X192189274Y-57303600D01*
X191766975Y-57585772D01*
X191464143Y-58038991D01*
X191357803Y-58573600D01*
X191464143Y-59108209D01*
X191766975Y-59561428D01*
X192189274Y-59843600D01*
X191987233Y-59978600D01*
X190686400Y-59978600D01*
X190252055Y-60064996D01*
X189883834Y-60311033D01*
X186297434Y-63897434D01*
X186051397Y-64265654D01*
X185965000Y-64700000D01*
X185965000Y-66500000D01*
X186051397Y-66934346D01*
X186071988Y-66965162D01*
X186297434Y-67302566D01*
X187697434Y-68702566D01*
X188065655Y-68948603D01*
X188500000Y-69035000D01*
X188934345Y-68948603D01*
X189302566Y-68702566D01*
X189548603Y-68334345D01*
X189635000Y-67900000D01*
X189548603Y-67465655D01*
X189302566Y-67097434D01*
X189083700Y-66878568D01*
X189234345Y-66848603D01*
X189602566Y-66602566D01*
X191416532Y-64788600D01*
X191987233Y-64788600D01*
X192189274Y-64923600D01*
X191766975Y-65205772D01*
X191464143Y-65658991D01*
X191357803Y-66193600D01*
X191464143Y-66728209D01*
X191766975Y-67181428D01*
X192189274Y-67463600D01*
X191766975Y-67745772D01*
X191464143Y-68198991D01*
X191357803Y-68733600D01*
X191464143Y-69268209D01*
X191766975Y-69721428D01*
X192189274Y-70003600D01*
X191766975Y-70285772D01*
X191464143Y-70738991D01*
X191357803Y-71273600D01*
X191464143Y-71808209D01*
X191766975Y-72261428D01*
X192189274Y-72543600D01*
X191766975Y-72825772D01*
X191464143Y-73278991D01*
X191357803Y-73813600D01*
X191464143Y-74348209D01*
X191766975Y-74801428D01*
X192189274Y-75083600D01*
X191766975Y-75365772D01*
X191464143Y-75818991D01*
X191357803Y-76353600D01*
X191464143Y-76888209D01*
X191766975Y-77341428D01*
X192189274Y-77623600D01*
X191766975Y-77905772D01*
X191464143Y-78358991D01*
X191357803Y-78893600D01*
X191464143Y-79428209D01*
X191766975Y-79881428D01*
X192189274Y-80163600D01*
X191766975Y-80445772D01*
X191464143Y-80898991D01*
X191357803Y-81433600D01*
X191464143Y-81968209D01*
X191766975Y-82421428D01*
X192189274Y-82703600D01*
X191766975Y-82985772D01*
X191464143Y-83438991D01*
X191357803Y-83973600D01*
X191464143Y-84508209D01*
X191766975Y-84961428D01*
X192189274Y-85243600D01*
X191766975Y-85525772D01*
X191464143Y-85978991D01*
X191357803Y-86513600D01*
X191464143Y-87048209D01*
X191766975Y-87501428D01*
X192189274Y-87783600D01*
X191766975Y-88065772D01*
X191464143Y-88518991D01*
X191357803Y-89053600D01*
X191464143Y-89588209D01*
X191766975Y-90041428D01*
X192189274Y-90323600D01*
X191766975Y-90605772D01*
X191464143Y-91058991D01*
X191357803Y-91593600D01*
X191464143Y-92128209D01*
X191766975Y-92581428D01*
X192189274Y-92863600D01*
X191766975Y-93145772D01*
X191464143Y-93598991D01*
X191357803Y-94133600D01*
X191464143Y-94668209D01*
X191766975Y-95121428D01*
X192189274Y-95403600D01*
X191766975Y-95685772D01*
X191464143Y-96138991D01*
X191357803Y-96673600D01*
X191464143Y-97208209D01*
X191766975Y-97661428D01*
X192220194Y-97964260D01*
X192754803Y-98070600D01*
X194363397Y-98070600D01*
X194815000Y-97980771D01*
X194815000Y-98315000D01*
X155185000Y-98315000D01*
X155185000Y-97978515D01*
X155647943Y-98070600D01*
X157256537Y-98070600D01*
X157791146Y-97964260D01*
X158244365Y-97661428D01*
X158547197Y-97208209D01*
X158653537Y-96673600D01*
X158547197Y-96138991D01*
X158244365Y-95685772D01*
X157822066Y-95403600D01*
X158244365Y-95121428D01*
X158547197Y-94668209D01*
X158653537Y-94133600D01*
X158547197Y-93598991D01*
X158244365Y-93145772D01*
X157822066Y-92863600D01*
X158244365Y-92581428D01*
X158547197Y-92128209D01*
X158653537Y-91593600D01*
X158547197Y-91058991D01*
X158244365Y-90605772D01*
X157822066Y-90323600D01*
X158244365Y-90041428D01*
X158547197Y-89588209D01*
X158653537Y-89053600D01*
X158547197Y-88518991D01*
X158244365Y-88065772D01*
X157822066Y-87783600D01*
X158244365Y-87501428D01*
X158547197Y-87048209D01*
X158653537Y-86513600D01*
X158547197Y-85978991D01*
X158438893Y-85816903D01*
X162099523Y-85816903D01*
X162342625Y-86405256D01*
X162792376Y-86855793D01*
X163380304Y-87099922D01*
X164016903Y-87100477D01*
X164605256Y-86857375D01*
X165055793Y-86407624D01*
X165099807Y-86301627D01*
X165142625Y-86405256D01*
X165592376Y-86855793D01*
X166180304Y-87099922D01*
X166816903Y-87100477D01*
X167405256Y-86857375D01*
X167855793Y-86407624D01*
X167893463Y-86316903D01*
X172399523Y-86316903D01*
X172642625Y-86905256D01*
X173092376Y-87355793D01*
X173680304Y-87599922D01*
X174316903Y-87600477D01*
X174905256Y-87357375D01*
X175355793Y-86907624D01*
X175599922Y-86319696D01*
X175600360Y-85816903D01*
X183899523Y-85816903D01*
X184142625Y-86405256D01*
X184592376Y-86855793D01*
X185180304Y-87099922D01*
X185816903Y-87100477D01*
X186405256Y-86857375D01*
X186855793Y-86407624D01*
X187099922Y-85819696D01*
X187100477Y-85183097D01*
X186857375Y-84594744D01*
X186407624Y-84144207D01*
X185819696Y-83900078D01*
X185183097Y-83899523D01*
X184594744Y-84142625D01*
X184144207Y-84592376D01*
X183900078Y-85180304D01*
X183899523Y-85816903D01*
X175600360Y-85816903D01*
X175600477Y-85683097D01*
X175357375Y-85094744D01*
X174907624Y-84644207D01*
X174319696Y-84400078D01*
X173683097Y-84399523D01*
X173094744Y-84642625D01*
X172644207Y-85092376D01*
X172400078Y-85680304D01*
X172399523Y-86316903D01*
X167893463Y-86316903D01*
X168099922Y-85819696D01*
X168100477Y-85183097D01*
X167857375Y-84594744D01*
X167407624Y-84144207D01*
X166819696Y-83900078D01*
X166183097Y-83899523D01*
X165594744Y-84142625D01*
X165144207Y-84592376D01*
X165100193Y-84698373D01*
X165057375Y-84594744D01*
X164607624Y-84144207D01*
X164019696Y-83900078D01*
X163383097Y-83899523D01*
X162794744Y-84142625D01*
X162344207Y-84592376D01*
X162100078Y-85180304D01*
X162099523Y-85816903D01*
X158438893Y-85816903D01*
X158244365Y-85525772D01*
X157822066Y-85243600D01*
X158244365Y-84961428D01*
X158547197Y-84508209D01*
X158653537Y-83973600D01*
X158547197Y-83438991D01*
X158244365Y-82985772D01*
X157822066Y-82703600D01*
X158244365Y-82421428D01*
X158547197Y-81968209D01*
X158653537Y-81433600D01*
X158547197Y-80898991D01*
X158244365Y-80445772D01*
X157822066Y-80163600D01*
X158244365Y-79881428D01*
X158547197Y-79428209D01*
X158653537Y-78893600D01*
X158547197Y-78358991D01*
X158244365Y-77905772D01*
X157822066Y-77623600D01*
X158244365Y-77341428D01*
X158547197Y-76888209D01*
X158653537Y-76353600D01*
X158547197Y-75818991D01*
X158244365Y-75365772D01*
X157822066Y-75083600D01*
X158244365Y-74801428D01*
X158547197Y-74348209D01*
X158653537Y-73813600D01*
X158547197Y-73278991D01*
X158244365Y-72825772D01*
X157822066Y-72543600D01*
X158244365Y-72261428D01*
X158547197Y-71808209D01*
X158653537Y-71273600D01*
X158547197Y-70738991D01*
X158244365Y-70285772D01*
X157822066Y-70003600D01*
X158244365Y-69721428D01*
X158547197Y-69268209D01*
X158653537Y-68733600D01*
X158547197Y-68198991D01*
X158244365Y-67745772D01*
X157822066Y-67463600D01*
X158244365Y-67181428D01*
X158547197Y-66728209D01*
X158653537Y-66193600D01*
X158547197Y-65658991D01*
X158244365Y-65205772D01*
X157822066Y-64923600D01*
X158244365Y-64641428D01*
X158547197Y-64188209D01*
X158653537Y-63653600D01*
X158547197Y-63118991D01*
X158244365Y-62665772D01*
X157822066Y-62383600D01*
X158244365Y-62101428D01*
X158547197Y-61648209D01*
X158653537Y-61113600D01*
X158547197Y-60578991D01*
X158244365Y-60125772D01*
X157822066Y-59843600D01*
X158244365Y-59561428D01*
X158547197Y-59108209D01*
X158653537Y-58573600D01*
X158547197Y-58038991D01*
X158244365Y-57585772D01*
X157822066Y-57303600D01*
X158244365Y-57021428D01*
X158547197Y-56568209D01*
X158565286Y-56477265D01*
X162794670Y-56477265D01*
X163084078Y-57177686D01*
X163619495Y-57714039D01*
X164319410Y-58004668D01*
X165077265Y-58005330D01*
X165777686Y-57715922D01*
X166314039Y-57180505D01*
X166575846Y-56550000D01*
X174602560Y-56550000D01*
X174602560Y-58250000D01*
X174646838Y-58485317D01*
X174785910Y-58701441D01*
X174998110Y-58846431D01*
X175250000Y-58897440D01*
X176950000Y-58897440D01*
X177185317Y-58853162D01*
X177401441Y-58714090D01*
X177546431Y-58501890D01*
X177560086Y-58434459D01*
X177589946Y-58479147D01*
X178071715Y-58801054D01*
X178640000Y-58914093D01*
X179208285Y-58801054D01*
X179690054Y-58479147D01*
X180011961Y-57997378D01*
X180125000Y-57429093D01*
X180125000Y-57370907D01*
X180011961Y-56802622D01*
X179690054Y-56320853D01*
X179208285Y-55998946D01*
X178640000Y-55885907D01*
X178071715Y-55998946D01*
X177589946Y-56320853D01*
X177562150Y-56362452D01*
X177553162Y-56314683D01*
X177414090Y-56098559D01*
X177201890Y-55953569D01*
X176950000Y-55902560D01*
X175250000Y-55902560D01*
X175014683Y-55946838D01*
X174798559Y-56085910D01*
X174653569Y-56298110D01*
X174602560Y-56550000D01*
X166575846Y-56550000D01*
X166604668Y-56480590D01*
X166605330Y-55722735D01*
X166315922Y-55022314D01*
X165780505Y-54485961D01*
X165080590Y-54195332D01*
X164322735Y-54194670D01*
X163622314Y-54484078D01*
X163085961Y-55019495D01*
X162795332Y-55719410D01*
X162794670Y-56477265D01*
X158565286Y-56477265D01*
X158653537Y-56033600D01*
X158547197Y-55498991D01*
X158244365Y-55045772D01*
X157791146Y-54742940D01*
X157256537Y-54636600D01*
X155647943Y-54636600D01*
X155185000Y-54728685D01*
X155185000Y-52585000D01*
X191714036Y-52585000D01*
X191464143Y-52958991D01*
G36*
X158535857Y-147541009D02*
X158642197Y-147006400D01*
X158535857Y-146471791D01*
X158233025Y-146018572D01*
X157810726Y-145736400D01*
X158233025Y-145454228D01*
X158535857Y-145001009D01*
X158642197Y-144466400D01*
X158535857Y-143931791D01*
X158233025Y-143478572D01*
X157810726Y-143196400D01*
X158233025Y-142914228D01*
X158535857Y-142461009D01*
X158642197Y-141926400D01*
X158535857Y-141391791D01*
X158233025Y-140938572D01*
X157810726Y-140656400D01*
X158012767Y-140521400D01*
X159313600Y-140521400D01*
X159747945Y-140435004D01*
X160116166Y-140188967D01*
X163702566Y-136602566D01*
X163948603Y-136234346D01*
X164035000Y-135800000D01*
X164035000Y-134000000D01*
X163948603Y-133565654D01*
X163928012Y-133534838D01*
X163702566Y-133197434D01*
X162302566Y-131797434D01*
X161934345Y-131551397D01*
X161500000Y-131465000D01*
X161065655Y-131551397D01*
X160697434Y-131797434D01*
X160451397Y-132165655D01*
X160365000Y-132600000D01*
X160451397Y-133034345D01*
X160697434Y-133402566D01*
X160916300Y-133621432D01*
X160765655Y-133651397D01*
X160397434Y-133897434D01*
X158583468Y-135711400D01*
X158012767Y-135711400D01*
X157810726Y-135576400D01*
X158233025Y-135294228D01*
X158535857Y-134841009D01*
X158642197Y-134306400D01*
X158535857Y-133771791D01*
X158233025Y-133318572D01*
X157810726Y-133036400D01*
X158233025Y-132754228D01*
X158535857Y-132301009D01*
X158642197Y-131766400D01*
X158535857Y-131231791D01*
X158233025Y-130778572D01*
X157810726Y-130496400D01*
X158233025Y-130214228D01*
X158535857Y-129761009D01*
X158642197Y-129226400D01*
X158535857Y-128691791D01*
X158233025Y-128238572D01*
X157810726Y-127956400D01*
X158233025Y-127674228D01*
X158535857Y-127221009D01*
X158642197Y-126686400D01*
X158535857Y-126151791D01*
X158233025Y-125698572D01*
X157810726Y-125416400D01*
X158233025Y-125134228D01*
X158535857Y-124681009D01*
X158642197Y-124146400D01*
X158535857Y-123611791D01*
X158233025Y-123158572D01*
X157810726Y-122876400D01*
X158233025Y-122594228D01*
X158535857Y-122141009D01*
X158642197Y-121606400D01*
X158535857Y-121071791D01*
X158233025Y-120618572D01*
X157810726Y-120336400D01*
X158233025Y-120054228D01*
X158535857Y-119601009D01*
X158642197Y-119066400D01*
X158535857Y-118531791D01*
X158233025Y-118078572D01*
X157810726Y-117796400D01*
X158233025Y-117514228D01*
X158535857Y-117061009D01*
X158642197Y-116526400D01*
X158535857Y-115991791D01*
X158233025Y-115538572D01*
X157810726Y-115256400D01*
X158233025Y-114974228D01*
X158535857Y-114521009D01*
X158642197Y-113986400D01*
X158535857Y-113451791D01*
X158233025Y-112998572D01*
X157810726Y-112716400D01*
X158233025Y-112434228D01*
X158535857Y-111981009D01*
X158642197Y-111446400D01*
X158535857Y-110911791D01*
X158233025Y-110458572D01*
X157810726Y-110176400D01*
X158233025Y-109894228D01*
X158535857Y-109441009D01*
X158642197Y-108906400D01*
X158535857Y-108371791D01*
X158233025Y-107918572D01*
X157810726Y-107636400D01*
X158233025Y-107354228D01*
X158535857Y-106901009D01*
X158642197Y-106366400D01*
X158535857Y-105831791D01*
X158233025Y-105378572D01*
X157810726Y-105096400D01*
X158233025Y-104814228D01*
X158535857Y-104361009D01*
X158642197Y-103826400D01*
X158535857Y-103291791D01*
X158233025Y-102838572D01*
X157779806Y-102535740D01*
X157245197Y-102429400D01*
X155636603Y-102429400D01*
X155185000Y-102519229D01*
X155185000Y-102185000D01*
X194815000Y-102185000D01*
X194815000Y-102521485D01*
X194352057Y-102429400D01*
X192743463Y-102429400D01*
X192208854Y-102535740D01*
X191755635Y-102838572D01*
X191452803Y-103291791D01*
X191346463Y-103826400D01*
X191452803Y-104361009D01*
X191755635Y-104814228D01*
X192177934Y-105096400D01*
X191755635Y-105378572D01*
X191452803Y-105831791D01*
X191346463Y-106366400D01*
X191452803Y-106901009D01*
X191755635Y-107354228D01*
X192177934Y-107636400D01*
X191755635Y-107918572D01*
X191452803Y-108371791D01*
X191346463Y-108906400D01*
X191452803Y-109441009D01*
X191755635Y-109894228D01*
X192177934Y-110176400D01*
X191755635Y-110458572D01*
X191452803Y-110911791D01*
X191346463Y-111446400D01*
X191452803Y-111981009D01*
X191755635Y-112434228D01*
X192177934Y-112716400D01*
X191755635Y-112998572D01*
X191452803Y-113451791D01*
X191346463Y-113986400D01*
X191452803Y-114521009D01*
X191561107Y-114683097D01*
X187900477Y-114683097D01*
X187657375Y-114094744D01*
X187207624Y-113644207D01*
X186619696Y-113400078D01*
X185983097Y-113399523D01*
X185394744Y-113642625D01*
X184944207Y-114092376D01*
X184900193Y-114198373D01*
X184857375Y-114094744D01*
X184407624Y-113644207D01*
X183819696Y-113400078D01*
X183183097Y-113399523D01*
X182594744Y-113642625D01*
X182144207Y-114092376D01*
X182106537Y-114183097D01*
X177600477Y-114183097D01*
X177357375Y-113594744D01*
X176907624Y-113144207D01*
X176319696Y-112900078D01*
X175683097Y-112899523D01*
X175094744Y-113142625D01*
X174644207Y-113592376D01*
X174400078Y-114180304D01*
X174399640Y-114683097D01*
X166100477Y-114683097D01*
X165857375Y-114094744D01*
X165407624Y-113644207D01*
X164819696Y-113400078D01*
X164183097Y-113399523D01*
X163594744Y-113642625D01*
X163144207Y-114092376D01*
X162900078Y-114680304D01*
X162899523Y-115316903D01*
X163142625Y-115905256D01*
X163592376Y-116355793D01*
X164180304Y-116599922D01*
X164816903Y-116600477D01*
X165405256Y-116357375D01*
X165855793Y-115907624D01*
X166099922Y-115319696D01*
X166100477Y-114683097D01*
X174399640Y-114683097D01*
X174399523Y-114816903D01*
X174642625Y-115405256D01*
X175092376Y-115855793D01*
X175680304Y-116099922D01*
X176316903Y-116100477D01*
X176905256Y-115857375D01*
X177355793Y-115407624D01*
X177599922Y-114819696D01*
X177600477Y-114183097D01*
X182106537Y-114183097D01*
X181900078Y-114680304D01*
X181899523Y-115316903D01*
X182142625Y-115905256D01*
X182592376Y-116355793D01*
X183180304Y-116599922D01*
X183816903Y-116600477D01*
X184405256Y-116357375D01*
X184855793Y-115907624D01*
X184899807Y-115801627D01*
X184942625Y-115905256D01*
X185392376Y-116355793D01*
X185980304Y-116599922D01*
X186616903Y-116600477D01*
X187205256Y-116357375D01*
X187655793Y-115907624D01*
X187899922Y-115319696D01*
X187900477Y-114683097D01*
X191561107Y-114683097D01*
X191755635Y-114974228D01*
X192177934Y-115256400D01*
X191755635Y-115538572D01*
X191452803Y-115991791D01*
X191346463Y-116526400D01*
X191452803Y-117061009D01*
X191755635Y-117514228D01*
X192177934Y-117796400D01*
X191755635Y-118078572D01*
X191452803Y-118531791D01*
X191346463Y-119066400D01*
X191452803Y-119601009D01*
X191755635Y-120054228D01*
X192177934Y-120336400D01*
X191755635Y-120618572D01*
X191452803Y-121071791D01*
X191346463Y-121606400D01*
X191452803Y-122141009D01*
X191755635Y-122594228D01*
X192177934Y-122876400D01*
X191755635Y-123158572D01*
X191452803Y-123611791D01*
X191346463Y-124146400D01*
X191452803Y-124681009D01*
X191755635Y-125134228D01*
X192177934Y-125416400D01*
X191755635Y-125698572D01*
X191452803Y-126151791D01*
X191346463Y-126686400D01*
X191452803Y-127221009D01*
X191755635Y-127674228D01*
X192177934Y-127956400D01*
X191755635Y-128238572D01*
X191452803Y-128691791D01*
X191346463Y-129226400D01*
X191452803Y-129761009D01*
X191755635Y-130214228D01*
X192177934Y-130496400D01*
X191755635Y-130778572D01*
X191452803Y-131231791D01*
X191346463Y-131766400D01*
X191452803Y-132301009D01*
X191755635Y-132754228D01*
X192177934Y-133036400D01*
X191755635Y-133318572D01*
X191452803Y-133771791D01*
X191346463Y-134306400D01*
X191452803Y-134841009D01*
X191755635Y-135294228D01*
X192177934Y-135576400D01*
X191755635Y-135858572D01*
X191452803Y-136311791D01*
X191346463Y-136846400D01*
X191452803Y-137381009D01*
X191755635Y-137834228D01*
X192177934Y-138116400D01*
X191755635Y-138398572D01*
X191452803Y-138851791D01*
X191346463Y-139386400D01*
X191452803Y-139921009D01*
X191755635Y-140374228D01*
X192177934Y-140656400D01*
X191755635Y-140938572D01*
X191452803Y-141391791D01*
X191346463Y-141926400D01*
X191452803Y-142461009D01*
X191755635Y-142914228D01*
X192177934Y-143196400D01*
X191755635Y-143478572D01*
X191452803Y-143931791D01*
X191434714Y-144022735D01*
X187205330Y-144022735D01*
X186915922Y-143322314D01*
X186380505Y-142785961D01*
X185680590Y-142495332D01*
X184922735Y-142494670D01*
X184222314Y-142784078D01*
X183685961Y-143319495D01*
X183424154Y-143950000D01*
X175397440Y-143950000D01*
X175397440Y-142250000D01*
X175353162Y-142014683D01*
X175214090Y-141798559D01*
X175001890Y-141653569D01*
X174750000Y-141602560D01*
X173050000Y-141602560D01*
X172814683Y-141646838D01*
X172598559Y-141785910D01*
X172453569Y-141998110D01*
X172439914Y-142065541D01*
X172410054Y-142020853D01*
X171928285Y-141698946D01*
X171360000Y-141585907D01*
X170791715Y-141698946D01*
X170309946Y-142020853D01*
X169988039Y-142502622D01*
X169875000Y-143070907D01*
X169875000Y-143129093D01*
X169988039Y-143697378D01*
X170309946Y-144179147D01*
X170791715Y-144501054D01*
X171360000Y-144614093D01*
X171928285Y-144501054D01*
X172410054Y-144179147D01*
X172437850Y-144137548D01*
X172446838Y-144185317D01*
X172585910Y-144401441D01*
X172798110Y-144546431D01*
X173050000Y-144597440D01*
X174750000Y-144597440D01*
X174985317Y-144553162D01*
X175201441Y-144414090D01*
X175346431Y-144201890D01*
X175397440Y-143950000D01*
X183424154Y-143950000D01*
X183395332Y-144019410D01*
X183394670Y-144777265D01*
X183684078Y-145477686D01*
X184219495Y-146014039D01*
X184919410Y-146304668D01*
X185677265Y-146305330D01*
X186377686Y-146015922D01*
X186914039Y-145480505D01*
X187204668Y-144780590D01*
X187205330Y-144022735D01*
X191434714Y-144022735D01*
X191346463Y-144466400D01*
X191452803Y-145001009D01*
X191755635Y-145454228D01*
X192208854Y-145757060D01*
X192743463Y-145863400D01*
X194352057Y-145863400D01*
X194815000Y-145771315D01*
X194815000Y-147915000D01*
X158285964Y-147915000D01*
X158535857Y-147541009D01*
X158535857Y-147541009D01*
G37*
X158535857Y-147541009D02*
X158642197Y-147006400D01*
X158535857Y-146471791D01*
X158233025Y-146018572D01*
X157810726Y-145736400D01*
X158233025Y-145454228D01*
X158535857Y-145001009D01*
X158642197Y-144466400D01*
X158535857Y-143931791D01*
X158233025Y-143478572D01*
X157810726Y-143196400D01*
X158233025Y-142914228D01*
X158535857Y-142461009D01*
X158642197Y-141926400D01*
X158535857Y-141391791D01*
X158233025Y-140938572D01*
X157810726Y-140656400D01*
X158012767Y-140521400D01*
X159313600Y-140521400D01*
X159747945Y-140435004D01*
X160116166Y-140188967D01*
X163702566Y-136602566D01*
X163948603Y-136234346D01*
X164035000Y-135800000D01*
X164035000Y-134000000D01*
X163948603Y-133565654D01*
X163928012Y-133534838D01*
X163702566Y-133197434D01*
X162302566Y-131797434D01*
X161934345Y-131551397D01*
X161500000Y-131465000D01*
X161065655Y-131551397D01*
X160697434Y-131797434D01*
X160451397Y-132165655D01*
X160365000Y-132600000D01*
X160451397Y-133034345D01*
X160697434Y-133402566D01*
X160916300Y-133621432D01*
X160765655Y-133651397D01*
X160397434Y-133897434D01*
X158583468Y-135711400D01*
X158012767Y-135711400D01*
X157810726Y-135576400D01*
X158233025Y-135294228D01*
X158535857Y-134841009D01*
X158642197Y-134306400D01*
X158535857Y-133771791D01*
X158233025Y-133318572D01*
X157810726Y-133036400D01*
X158233025Y-132754228D01*
X158535857Y-132301009D01*
X158642197Y-131766400D01*
X158535857Y-131231791D01*
X158233025Y-130778572D01*
X157810726Y-130496400D01*
X158233025Y-130214228D01*
X158535857Y-129761009D01*
X158642197Y-129226400D01*
X158535857Y-128691791D01*
X158233025Y-128238572D01*
X157810726Y-127956400D01*
X158233025Y-127674228D01*
X158535857Y-127221009D01*
X158642197Y-126686400D01*
X158535857Y-126151791D01*
X158233025Y-125698572D01*
X157810726Y-125416400D01*
X158233025Y-125134228D01*
X158535857Y-124681009D01*
X158642197Y-124146400D01*
X158535857Y-123611791D01*
X158233025Y-123158572D01*
X157810726Y-122876400D01*
X158233025Y-122594228D01*
X158535857Y-122141009D01*
X158642197Y-121606400D01*
X158535857Y-121071791D01*
X158233025Y-120618572D01*
X157810726Y-120336400D01*
X158233025Y-120054228D01*
X158535857Y-119601009D01*
X158642197Y-119066400D01*
X158535857Y-118531791D01*
X158233025Y-118078572D01*
X157810726Y-117796400D01*
X158233025Y-117514228D01*
X158535857Y-117061009D01*
X158642197Y-116526400D01*
X158535857Y-115991791D01*
X158233025Y-115538572D01*
X157810726Y-115256400D01*
X158233025Y-114974228D01*
X158535857Y-114521009D01*
X158642197Y-113986400D01*
X158535857Y-113451791D01*
X158233025Y-112998572D01*
X157810726Y-112716400D01*
X158233025Y-112434228D01*
X158535857Y-111981009D01*
X158642197Y-111446400D01*
X158535857Y-110911791D01*
X158233025Y-110458572D01*
X157810726Y-110176400D01*
X158233025Y-109894228D01*
X158535857Y-109441009D01*
X158642197Y-108906400D01*
X158535857Y-108371791D01*
X158233025Y-107918572D01*
X157810726Y-107636400D01*
X158233025Y-107354228D01*
X158535857Y-106901009D01*
X158642197Y-106366400D01*
X158535857Y-105831791D01*
X158233025Y-105378572D01*
X157810726Y-105096400D01*
X158233025Y-104814228D01*
X158535857Y-104361009D01*
X158642197Y-103826400D01*
X158535857Y-103291791D01*
X158233025Y-102838572D01*
X157779806Y-102535740D01*
X157245197Y-102429400D01*
X155636603Y-102429400D01*
X155185000Y-102519229D01*
X155185000Y-102185000D01*
X194815000Y-102185000D01*
X194815000Y-102521485D01*
X194352057Y-102429400D01*
X192743463Y-102429400D01*
X192208854Y-102535740D01*
X191755635Y-102838572D01*
X191452803Y-103291791D01*
X191346463Y-103826400D01*
X191452803Y-104361009D01*
X191755635Y-104814228D01*
X192177934Y-105096400D01*
X191755635Y-105378572D01*
X191452803Y-105831791D01*
X191346463Y-106366400D01*
X191452803Y-106901009D01*
X191755635Y-107354228D01*
X192177934Y-107636400D01*
X191755635Y-107918572D01*
X191452803Y-108371791D01*
X191346463Y-108906400D01*
X191452803Y-109441009D01*
X191755635Y-109894228D01*
X192177934Y-110176400D01*
X191755635Y-110458572D01*
X191452803Y-110911791D01*
X191346463Y-111446400D01*
X191452803Y-111981009D01*
X191755635Y-112434228D01*
X192177934Y-112716400D01*
X191755635Y-112998572D01*
X191452803Y-113451791D01*
X191346463Y-113986400D01*
X191452803Y-114521009D01*
X191561107Y-114683097D01*
X187900477Y-114683097D01*
X187657375Y-114094744D01*
X187207624Y-113644207D01*
X186619696Y-113400078D01*
X185983097Y-113399523D01*
X185394744Y-113642625D01*
X184944207Y-114092376D01*
X184900193Y-114198373D01*
X184857375Y-114094744D01*
X184407624Y-113644207D01*
X183819696Y-113400078D01*
X183183097Y-113399523D01*
X182594744Y-113642625D01*
X182144207Y-114092376D01*
X182106537Y-114183097D01*
X177600477Y-114183097D01*
X177357375Y-113594744D01*
X176907624Y-113144207D01*
X176319696Y-112900078D01*
X175683097Y-112899523D01*
X175094744Y-113142625D01*
X174644207Y-113592376D01*
X174400078Y-114180304D01*
X174399640Y-114683097D01*
X166100477Y-114683097D01*
X165857375Y-114094744D01*
X165407624Y-113644207D01*
X164819696Y-113400078D01*
X164183097Y-113399523D01*
X163594744Y-113642625D01*
X163144207Y-114092376D01*
X162900078Y-114680304D01*
X162899523Y-115316903D01*
X163142625Y-115905256D01*
X163592376Y-116355793D01*
X164180304Y-116599922D01*
X164816903Y-116600477D01*
X165405256Y-116357375D01*
X165855793Y-115907624D01*
X166099922Y-115319696D01*
X166100477Y-114683097D01*
X174399640Y-114683097D01*
X174399523Y-114816903D01*
X174642625Y-115405256D01*
X175092376Y-115855793D01*
X175680304Y-116099922D01*
X176316903Y-116100477D01*
X176905256Y-115857375D01*
X177355793Y-115407624D01*
X177599922Y-114819696D01*
X177600477Y-114183097D01*
X182106537Y-114183097D01*
X181900078Y-114680304D01*
X181899523Y-115316903D01*
X182142625Y-115905256D01*
X182592376Y-116355793D01*
X183180304Y-116599922D01*
X183816903Y-116600477D01*
X184405256Y-116357375D01*
X184855793Y-115907624D01*
X184899807Y-115801627D01*
X184942625Y-115905256D01*
X185392376Y-116355793D01*
X185980304Y-116599922D01*
X186616903Y-116600477D01*
X187205256Y-116357375D01*
X187655793Y-115907624D01*
X187899922Y-115319696D01*
X187900477Y-114683097D01*
X191561107Y-114683097D01*
X191755635Y-114974228D01*
X192177934Y-115256400D01*
X191755635Y-115538572D01*
X191452803Y-115991791D01*
X191346463Y-116526400D01*
X191452803Y-117061009D01*
X191755635Y-117514228D01*
X192177934Y-117796400D01*
X191755635Y-118078572D01*
X191452803Y-118531791D01*
X191346463Y-119066400D01*
X191452803Y-119601009D01*
X191755635Y-120054228D01*
X192177934Y-120336400D01*
X191755635Y-120618572D01*
X191452803Y-121071791D01*
X191346463Y-121606400D01*
X191452803Y-122141009D01*
X191755635Y-122594228D01*
X192177934Y-122876400D01*
X191755635Y-123158572D01*
X191452803Y-123611791D01*
X191346463Y-124146400D01*
X191452803Y-124681009D01*
X191755635Y-125134228D01*
X192177934Y-125416400D01*
X191755635Y-125698572D01*
X191452803Y-126151791D01*
X191346463Y-126686400D01*
X191452803Y-127221009D01*
X191755635Y-127674228D01*
X192177934Y-127956400D01*
X191755635Y-128238572D01*
X191452803Y-128691791D01*
X191346463Y-129226400D01*
X191452803Y-129761009D01*
X191755635Y-130214228D01*
X192177934Y-130496400D01*
X191755635Y-130778572D01*
X191452803Y-131231791D01*
X191346463Y-131766400D01*
X191452803Y-132301009D01*
X191755635Y-132754228D01*
X192177934Y-133036400D01*
X191755635Y-133318572D01*
X191452803Y-133771791D01*
X191346463Y-134306400D01*
X191452803Y-134841009D01*
X191755635Y-135294228D01*
X192177934Y-135576400D01*
X191755635Y-135858572D01*
X191452803Y-136311791D01*
X191346463Y-136846400D01*
X191452803Y-137381009D01*
X191755635Y-137834228D01*
X192177934Y-138116400D01*
X191755635Y-138398572D01*
X191452803Y-138851791D01*
X191346463Y-139386400D01*
X191452803Y-139921009D01*
X191755635Y-140374228D01*
X192177934Y-140656400D01*
X191755635Y-140938572D01*
X191452803Y-141391791D01*
X191346463Y-141926400D01*
X191452803Y-142461009D01*
X191755635Y-142914228D01*
X192177934Y-143196400D01*
X191755635Y-143478572D01*
X191452803Y-143931791D01*
X191434714Y-144022735D01*
X187205330Y-144022735D01*
X186915922Y-143322314D01*
X186380505Y-142785961D01*
X185680590Y-142495332D01*
X184922735Y-142494670D01*
X184222314Y-142784078D01*
X183685961Y-143319495D01*
X183424154Y-143950000D01*
X175397440Y-143950000D01*
X175397440Y-142250000D01*
X175353162Y-142014683D01*
X175214090Y-141798559D01*
X175001890Y-141653569D01*
X174750000Y-141602560D01*
X173050000Y-141602560D01*
X172814683Y-141646838D01*
X172598559Y-141785910D01*
X172453569Y-141998110D01*
X172439914Y-142065541D01*
X172410054Y-142020853D01*
X171928285Y-141698946D01*
X171360000Y-141585907D01*
X170791715Y-141698946D01*
X170309946Y-142020853D01*
X169988039Y-142502622D01*
X169875000Y-143070907D01*
X169875000Y-143129093D01*
X169988039Y-143697378D01*
X170309946Y-144179147D01*
X170791715Y-144501054D01*
X171360000Y-144614093D01*
X171928285Y-144501054D01*
X172410054Y-144179147D01*
X172437850Y-144137548D01*
X172446838Y-144185317D01*
X172585910Y-144401441D01*
X172798110Y-144546431D01*
X173050000Y-144597440D01*
X174750000Y-144597440D01*
X174985317Y-144553162D01*
X175201441Y-144414090D01*
X175346431Y-144201890D01*
X175397440Y-143950000D01*
X183424154Y-143950000D01*
X183395332Y-144019410D01*
X183394670Y-144777265D01*
X183684078Y-145477686D01*
X184219495Y-146014039D01*
X184919410Y-146304668D01*
X185677265Y-146305330D01*
X186377686Y-146015922D01*
X186914039Y-145480505D01*
X187204668Y-144780590D01*
X187205330Y-144022735D01*
X191434714Y-144022735D01*
X191346463Y-144466400D01*
X191452803Y-145001009D01*
X191755635Y-145454228D01*
X192208854Y-145757060D01*
X192743463Y-145863400D01*
X194352057Y-145863400D01*
X194815000Y-145771315D01*
X194815000Y-147915000D01*
X158285964Y-147915000D01*
X158535857Y-147541009D01*
M02*
