G04 #@! TF.FileFunction,Profile,NP*
%FSLAX46Y46*%
G04 Gerber Fmt 4.6, Leading zero omitted, Abs format (unit mm)*
G04 Created by KiCad (PCBNEW 4.0.6-e0-6349~53~ubuntu14.04.1) date Thu Apr  6 15:25:57 2017*
%MOMM*%
%LPD*%
G01*
G04 APERTURE LIST*
%ADD10C,0.100000*%
G04 APERTURE END LIST*
D10*
X100000000Y-50000000D02*
X100000000Y-150000000D01*
X200000000Y-50000000D02*
X100000000Y-50000000D01*
X200000000Y-150000000D02*
X200000000Y-50000000D01*
X100000000Y-150000000D02*
X200000000Y-150000000D01*
X110556666Y-134490000D02*
G75*
G03X110556666Y-134490000I-1666666J0D01*
G01*
X106390000Y-134490000D02*
X111390000Y-134490000D01*
X108890000Y-131990000D02*
X108890000Y-136990000D01*
X188576666Y-55130000D02*
G75*
G03X188576666Y-55130000I-1666666J0D01*
G01*
X184410000Y-55130000D02*
X189410000Y-55130000D01*
X186910000Y-52630000D02*
X186910000Y-57630000D01*
X197416666Y-140600000D02*
G75*
G03X197416666Y-140600000I-1666666J0D01*
G01*
X193250000Y-140600000D02*
X198250000Y-140600000D01*
X195750000Y-138100000D02*
X195750000Y-143100000D01*
X108996666Y-86730000D02*
G75*
G03X108996666Y-86730000I-1666666J0D01*
G01*
X104830000Y-86730000D02*
X109830000Y-86730000D01*
X107330000Y-84230000D02*
X107330000Y-89230000D01*
X109126666Y-54750000D02*
G75*
G03X109126666Y-54750000I-1666666J0D01*
G01*
X104960000Y-54750000D02*
X109960000Y-54750000D01*
X107460000Y-52250000D02*
X107460000Y-57250000D01*
X145370000Y-115990000D02*
X145360000Y-98170000D01*
X147810000Y-115990000D02*
X145370000Y-115990000D01*
X147800000Y-104690000D02*
X147810000Y-115990000D01*
X147810000Y-120630000D02*
X147800000Y-148770000D01*
X145360000Y-120630000D02*
X147810000Y-120630000D01*
X145360000Y-134670000D02*
X145360000Y-120630000D01*
X181780000Y-103210000D02*
X198880000Y-103200000D01*
X181780000Y-104650000D02*
X181780000Y-103210000D01*
X199300000Y-104650000D02*
X181780000Y-104650000D01*
X174900000Y-104670000D02*
X147800000Y-104680000D01*
X174900000Y-103140000D02*
X174900000Y-104670000D01*
X170470000Y-103140000D02*
X174900000Y-103140000D01*
X154690000Y-103150000D02*
X170470000Y-103140000D01*
X154690000Y-71470000D02*
X154680000Y-51630000D01*
X146530000Y-71470000D02*
X154690000Y-71470000D01*
X146520000Y-53230000D02*
X146530000Y-71470000D01*
X154690000Y-77260000D02*
X154690000Y-103140000D01*
X146510000Y-77260000D02*
X154690000Y-77260000D01*
X146520000Y-91210000D02*
X146510000Y-77260000D01*
X128340000Y-96670000D02*
X143880000Y-96670000D01*
X128340000Y-92710000D02*
X128340000Y-96670000D01*
X145000000Y-92720000D02*
X128340000Y-92710000D01*
X121650000Y-96650000D02*
X104870000Y-96670000D01*
X121650000Y-92720000D02*
X121650000Y-96650000D01*
X106020000Y-92720000D02*
X121650000Y-92720000D01*
X154680000Y-51640000D02*
X154780000Y-51640000D01*
X198880000Y-51640000D02*
X198880000Y-103140000D01*
X154680000Y-51640000D02*
X198880000Y-51640000D01*
X144990000Y-51720000D02*
X107520000Y-51720000D01*
X104520000Y-54730000D02*
X104520000Y-91260000D01*
X146520000Y-53220000D02*
G75*
G03X145020000Y-51720000I-1500000J0D01*
G01*
X145020000Y-92720000D02*
G75*
G03X146520000Y-91220000I0J1500000D01*
G01*
X104520000Y-91220000D02*
G75*
G03X106020000Y-92720000I1500000J0D01*
G01*
X107520000Y-51720000D02*
G75*
G03X104520000Y-54720000I0J-3000000D01*
G01*
X147800000Y-148880000D02*
X147800000Y-148780000D01*
X199300000Y-148880000D02*
X147800000Y-148880000D01*
X199300000Y-104680000D02*
X199300000Y-148880000D01*
X104890000Y-137670000D02*
X142360000Y-137670000D01*
X103360000Y-98180000D02*
X103360000Y-136180000D01*
X103360000Y-136170000D02*
G75*
G03X104860000Y-137670000I1500000J0D01*
G01*
X104860000Y-96670000D02*
G75*
G03X103360000Y-98170000I0J-1500000D01*
G01*
X145360000Y-98170000D02*
G75*
G03X143860000Y-96670000I-1500000J0D01*
G01*
X142360000Y-137670000D02*
G75*
G03X145360000Y-134670000I0J3000000D01*
G01*
M02*
