G04 #@! TF.FileFunction,Legend,Bot*
%FSLAX46Y46*%
G04 Gerber Fmt 4.6, Leading zero omitted, Abs format (unit mm)*
G04 Created by KiCad (PCBNEW 4.0.6-e0-6349~53~ubuntu14.04.1) date Thu Apr  6 15:25:57 2017*
%MOMM*%
%LPD*%
G01*
G04 APERTURE LIST*
%ADD10C,0.100000*%
%ADD11C,0.152400*%
%ADD12C,0.127000*%
%ADD13C,0.381000*%
%ADD14C,0.120000*%
%ADD15C,0.203200*%
%ADD16C,0.050800*%
%ADD17C,0.101600*%
%ADD18C,0.025400*%
%ADD19C,0.150000*%
G04 APERTURE END LIST*
D10*
D11*
X163875000Y-89755000D02*
X165145000Y-89755000D01*
X165145000Y-89755000D02*
X165780000Y-90390000D01*
X165780000Y-90390000D02*
X165780000Y-91660000D01*
X165780000Y-91660000D02*
X165145000Y-92295000D01*
X163240000Y-90390000D02*
X163240000Y-91660000D01*
X163875000Y-89755000D02*
X163240000Y-90390000D01*
X163240000Y-91660000D02*
X163875000Y-92295000D01*
X165145000Y-92295000D02*
X163875000Y-92295000D01*
X167685000Y-89755000D02*
X168955000Y-89755000D01*
X168955000Y-89755000D02*
X169590000Y-90390000D01*
X169590000Y-90390000D02*
X169590000Y-91660000D01*
X169590000Y-91660000D02*
X168955000Y-92295000D01*
X167050000Y-90390000D02*
X167050000Y-91660000D01*
X167685000Y-89755000D02*
X167050000Y-90390000D01*
X167050000Y-91660000D02*
X167685000Y-92295000D01*
X168955000Y-92295000D02*
X167685000Y-92295000D01*
X172130000Y-89755000D02*
X173400000Y-89755000D01*
X173400000Y-89755000D02*
X174035000Y-90390000D01*
X174035000Y-90390000D02*
X174035000Y-91660000D01*
X174035000Y-91660000D02*
X173400000Y-92295000D01*
X171495000Y-90390000D02*
X171495000Y-91660000D01*
X172130000Y-89755000D02*
X171495000Y-90390000D01*
X171495000Y-91660000D02*
X172130000Y-92295000D01*
X173400000Y-92295000D02*
X172130000Y-92295000D01*
X182345000Y-89970000D02*
X183615000Y-89970000D01*
X183615000Y-89970000D02*
X184250000Y-90605000D01*
X184250000Y-90605000D02*
X184250000Y-91875000D01*
X184250000Y-91875000D02*
X183615000Y-92510000D01*
X181710000Y-90605000D02*
X181710000Y-91875000D01*
X182345000Y-89970000D02*
X181710000Y-90605000D01*
X181710000Y-91875000D02*
X182345000Y-92510000D01*
X183615000Y-92510000D02*
X182345000Y-92510000D01*
X160345000Y-89770000D02*
X161615000Y-89770000D01*
X161615000Y-89770000D02*
X162250000Y-90405000D01*
X162250000Y-90405000D02*
X162250000Y-91675000D01*
X162250000Y-91675000D02*
X161615000Y-92310000D01*
X159710000Y-90405000D02*
X159710000Y-91675000D01*
X160345000Y-89770000D02*
X159710000Y-90405000D01*
X159710000Y-91675000D02*
X160345000Y-92310000D01*
X161615000Y-92310000D02*
X160345000Y-92310000D01*
D12*
X176651200Y-96511400D02*
X176651200Y-96110080D01*
X176651200Y-96110080D02*
X182848800Y-96110080D01*
X182848800Y-96110080D02*
X182848800Y-96511400D01*
X176651200Y-99508600D02*
X176651200Y-99909920D01*
X176651200Y-99909920D02*
X182848800Y-99909920D01*
X182848800Y-99909920D02*
X182848800Y-99508600D01*
D13*
X190007940Y-75240000D02*
X189952060Y-75240000D01*
D14*
X123870000Y-58520000D02*
X123170000Y-58520000D01*
X123170000Y-59720000D02*
X123870000Y-59720000D01*
X123920000Y-66070000D02*
X124620000Y-66070000D01*
X124620000Y-64870000D02*
X123920000Y-64870000D01*
X119220000Y-60800000D02*
X120220000Y-60800000D01*
X120220000Y-59440000D02*
X119220000Y-59440000D01*
X125880000Y-61320000D02*
X125880000Y-63120000D01*
X122660000Y-63120000D02*
X122660000Y-60670000D01*
D12*
X139820080Y-66220080D02*
X143619920Y-66220080D01*
X139820080Y-70019920D02*
X140320460Y-70019920D01*
X143119540Y-70019920D02*
X143619920Y-70019920D01*
D15*
X127822040Y-56067520D02*
X127321660Y-56067520D01*
X127321660Y-56067520D02*
X127321660Y-52572480D01*
X127321660Y-52572480D02*
X136318340Y-52572480D01*
X136318340Y-52572480D02*
X136318340Y-56067520D01*
X136318340Y-56067520D02*
X135817960Y-56067520D01*
D11*
X185915000Y-139685000D02*
X185915000Y-138415000D01*
X185915000Y-138415000D02*
X186550000Y-137780000D01*
X186550000Y-137780000D02*
X187820000Y-137780000D01*
X187820000Y-137780000D02*
X188455000Y-138415000D01*
X186550000Y-140320000D02*
X187820000Y-140320000D01*
X185915000Y-139685000D02*
X186550000Y-140320000D01*
X187820000Y-140320000D02*
X188455000Y-139685000D01*
X188455000Y-138415000D02*
X188455000Y-139685000D01*
X185915000Y-135875000D02*
X185915000Y-134605000D01*
X185915000Y-134605000D02*
X186550000Y-133970000D01*
X186550000Y-133970000D02*
X187820000Y-133970000D01*
X187820000Y-133970000D02*
X188455000Y-134605000D01*
X186550000Y-136510000D02*
X187820000Y-136510000D01*
X185915000Y-135875000D02*
X186550000Y-136510000D01*
X187820000Y-136510000D02*
X188455000Y-135875000D01*
X188455000Y-134605000D02*
X188455000Y-135875000D01*
X185915000Y-131430000D02*
X185915000Y-130160000D01*
X185915000Y-130160000D02*
X186550000Y-129525000D01*
X186550000Y-129525000D02*
X187820000Y-129525000D01*
X187820000Y-129525000D02*
X188455000Y-130160000D01*
X186550000Y-132065000D02*
X187820000Y-132065000D01*
X185915000Y-131430000D02*
X186550000Y-132065000D01*
X187820000Y-132065000D02*
X188455000Y-131430000D01*
X188455000Y-130160000D02*
X188455000Y-131430000D01*
X186130000Y-121215000D02*
X186130000Y-119945000D01*
X186130000Y-119945000D02*
X186765000Y-119310000D01*
X186765000Y-119310000D02*
X188035000Y-119310000D01*
X188035000Y-119310000D02*
X188670000Y-119945000D01*
X186765000Y-121850000D02*
X188035000Y-121850000D01*
X186130000Y-121215000D02*
X186765000Y-121850000D01*
X188035000Y-121850000D02*
X188670000Y-121215000D01*
X188670000Y-119945000D02*
X188670000Y-121215000D01*
X185930000Y-143215000D02*
X185930000Y-141945000D01*
X185930000Y-141945000D02*
X186565000Y-141310000D01*
X186565000Y-141310000D02*
X187835000Y-141310000D01*
X187835000Y-141310000D02*
X188470000Y-141945000D01*
X186565000Y-143850000D02*
X187835000Y-143850000D01*
X185930000Y-143215000D02*
X186565000Y-143850000D01*
X187835000Y-143850000D02*
X188470000Y-143215000D01*
X188470000Y-141945000D02*
X188470000Y-143215000D01*
D12*
X192671400Y-126908800D02*
X192270080Y-126908800D01*
X192270080Y-126908800D02*
X192270080Y-120711200D01*
X192270080Y-120711200D02*
X192671400Y-120711200D01*
X195668600Y-126908800D02*
X196069920Y-126908800D01*
X196069920Y-126908800D02*
X196069920Y-120711200D01*
X196069920Y-120711200D02*
X195668600Y-120711200D01*
D13*
X171400000Y-113552060D02*
X171400000Y-113607940D01*
D14*
X126010000Y-130870000D02*
X126710000Y-130870000D01*
X126710000Y-129670000D02*
X126010000Y-129670000D01*
X125960000Y-123320000D02*
X125260000Y-123320000D01*
X125260000Y-124520000D02*
X125960000Y-124520000D01*
X130660000Y-128590000D02*
X129660000Y-128590000D01*
X129660000Y-129950000D02*
X130660000Y-129950000D01*
X124000000Y-128070000D02*
X124000000Y-126270000D01*
X127220000Y-126270000D02*
X127220000Y-128720000D01*
D12*
X110059920Y-123169920D02*
X106260080Y-123169920D01*
X110059920Y-119370080D02*
X109559540Y-119370080D01*
X106760460Y-119370080D02*
X106260080Y-119370080D01*
D15*
X122057960Y-133322480D02*
X122558340Y-133322480D01*
X122558340Y-133322480D02*
X122558340Y-136817520D01*
X122558340Y-136817520D02*
X113561660Y-136817520D01*
X113561660Y-136817520D02*
X113561660Y-133322480D01*
X113561660Y-133322480D02*
X114062040Y-133322480D01*
D11*
X164487019Y-50422495D02*
X165028886Y-51235295D01*
X165028886Y-50422495D02*
X164487019Y-51235295D01*
X165764276Y-51235295D02*
X165299819Y-51235295D01*
X165532048Y-51235295D02*
X165532048Y-50422495D01*
X165454638Y-50538610D01*
X165377229Y-50616019D01*
X165299819Y-50654724D01*
D16*
X162009916Y-51997295D02*
X162067973Y-52016648D01*
X162164735Y-52016648D01*
X162203439Y-51997295D01*
X162222792Y-51977943D01*
X162242144Y-51939238D01*
X162242144Y-51900533D01*
X162222792Y-51861829D01*
X162203439Y-51842476D01*
X162164735Y-51823124D01*
X162087325Y-51803771D01*
X162048620Y-51784419D01*
X162029268Y-51765067D01*
X162009916Y-51726362D01*
X162009916Y-51687657D01*
X162029268Y-51648952D01*
X162048620Y-51629600D01*
X162087325Y-51610248D01*
X162184087Y-51610248D01*
X162242144Y-51629600D01*
X162416316Y-52016648D02*
X162416316Y-51610248D01*
X162551783Y-51900533D01*
X162687249Y-51610248D01*
X162687249Y-52016648D01*
X162861421Y-51900533D02*
X163054944Y-51900533D01*
X162822716Y-52016648D02*
X162958182Y-51610248D01*
X163093649Y-52016648D01*
X163461344Y-51977943D02*
X163441992Y-51997295D01*
X163383935Y-52016648D01*
X163345230Y-52016648D01*
X163287173Y-51997295D01*
X163248468Y-51958590D01*
X163229116Y-51919886D01*
X163209764Y-51842476D01*
X163209764Y-51784419D01*
X163229116Y-51707010D01*
X163248468Y-51668305D01*
X163287173Y-51629600D01*
X163345230Y-51610248D01*
X163383935Y-51610248D01*
X163441992Y-51629600D01*
X163461344Y-51648952D01*
X163712925Y-51610248D02*
X163790335Y-51610248D01*
X163829040Y-51629600D01*
X163867744Y-51668305D01*
X163887097Y-51745714D01*
X163887097Y-51881181D01*
X163867744Y-51958590D01*
X163829040Y-51997295D01*
X163790335Y-52016648D01*
X163712925Y-52016648D01*
X163674221Y-51997295D01*
X163635516Y-51958590D01*
X163616164Y-51881181D01*
X163616164Y-51745714D01*
X163635516Y-51668305D01*
X163674221Y-51629600D01*
X163712925Y-51610248D01*
X164061268Y-52016648D02*
X164061268Y-51610248D01*
X164293496Y-52016648D01*
X164293496Y-51610248D01*
X164487020Y-52016648D02*
X164487020Y-51610248D01*
X164719248Y-52016648D01*
X164719248Y-51610248D01*
X164912772Y-51803771D02*
X165048239Y-51803771D01*
X165106296Y-52016648D02*
X164912772Y-52016648D01*
X164912772Y-51610248D01*
X165106296Y-51610248D01*
X165512695Y-51977943D02*
X165493343Y-51997295D01*
X165435286Y-52016648D01*
X165396581Y-52016648D01*
X165338524Y-51997295D01*
X165299819Y-51958590D01*
X165280467Y-51919886D01*
X165261115Y-51842476D01*
X165261115Y-51784419D01*
X165280467Y-51707010D01*
X165299819Y-51668305D01*
X165338524Y-51629600D01*
X165396581Y-51610248D01*
X165435286Y-51610248D01*
X165493343Y-51629600D01*
X165512695Y-51648952D01*
X165628810Y-51610248D02*
X165861038Y-51610248D01*
X165744924Y-52016648D02*
X165744924Y-51610248D01*
X166073914Y-51610248D02*
X166151324Y-51610248D01*
X166190029Y-51629600D01*
X166228733Y-51668305D01*
X166248086Y-51745714D01*
X166248086Y-51881181D01*
X166228733Y-51958590D01*
X166190029Y-51997295D01*
X166151324Y-52016648D01*
X166073914Y-52016648D01*
X166035210Y-51997295D01*
X165996505Y-51958590D01*
X165977153Y-51881181D01*
X165977153Y-51745714D01*
X165996505Y-51668305D01*
X166035210Y-51629600D01*
X166073914Y-51610248D01*
X166654485Y-52016648D02*
X166519019Y-51823124D01*
X166422257Y-52016648D02*
X166422257Y-51610248D01*
X166577076Y-51610248D01*
X166615781Y-51629600D01*
X166635133Y-51648952D01*
X166654485Y-51687657D01*
X166654485Y-51745714D01*
X166635133Y-51784419D01*
X166615781Y-51803771D01*
X166577076Y-51823124D01*
X166422257Y-51823124D01*
D12*
X165280467Y-87865724D02*
X165280467Y-88772867D01*
X165219991Y-88954295D01*
X165099039Y-89075248D01*
X164917610Y-89135724D01*
X164796658Y-89135724D01*
X165885229Y-89135724D02*
X165885229Y-87865724D01*
X166369038Y-87865724D01*
X166489991Y-87926200D01*
X166550467Y-87986676D01*
X166610943Y-88107629D01*
X166610943Y-88289057D01*
X166550467Y-88410010D01*
X166489991Y-88470486D01*
X166369038Y-88530962D01*
X165885229Y-88530962D01*
X167034277Y-87865724D02*
X167820467Y-87865724D01*
X167397134Y-88349533D01*
X167578562Y-88349533D01*
X167699515Y-88410010D01*
X167759991Y-88470486D01*
X167820467Y-88591438D01*
X167820467Y-88893819D01*
X167759991Y-89014771D01*
X167699515Y-89075248D01*
X167578562Y-89135724D01*
X167215705Y-89135724D01*
X167094753Y-89075248D01*
X167034277Y-89014771D01*
D17*
X161849048Y-94139524D02*
X161849048Y-92869524D01*
X162332857Y-92869524D01*
X162453810Y-92930000D01*
X162514286Y-92990476D01*
X162574762Y-93111429D01*
X162574762Y-93292857D01*
X162514286Y-93413810D01*
X162453810Y-93474286D01*
X162332857Y-93534762D01*
X161849048Y-93534762D01*
X163119048Y-94139524D02*
X163119048Y-92869524D01*
X163723810Y-94139524D02*
X163723810Y-92869524D01*
X164449524Y-94139524D01*
X164449524Y-92869524D01*
X165054286Y-94139524D02*
X165054286Y-92869524D01*
X165054286Y-93474286D02*
X165780000Y-93474286D01*
X165780000Y-94139524D02*
X165780000Y-92869524D01*
X166384762Y-94139524D02*
X166384762Y-92869524D01*
X166687143Y-92869524D01*
X166868571Y-92930000D01*
X166989524Y-93050952D01*
X167050000Y-93171905D01*
X167110476Y-93413810D01*
X167110476Y-93595238D01*
X167050000Y-93837143D01*
X166989524Y-93958095D01*
X166868571Y-94079048D01*
X166687143Y-94139524D01*
X166384762Y-94139524D01*
X167654762Y-93655714D02*
X168622381Y-93655714D01*
X169892381Y-94139524D02*
X169166667Y-94139524D01*
X169529524Y-94139524D02*
X169529524Y-92869524D01*
X169408572Y-93050952D01*
X169287619Y-93171905D01*
X169166667Y-93232381D01*
X170315715Y-92869524D02*
X171162381Y-94139524D01*
X171162381Y-92869524D02*
X170315715Y-94139524D01*
X172311429Y-94139524D02*
X171585715Y-94139524D01*
X171948572Y-94139524D02*
X171948572Y-92869524D01*
X171827620Y-93050952D01*
X171706667Y-93171905D01*
X171585715Y-93232381D01*
D12*
X169090467Y-87865724D02*
X169090467Y-88772867D01*
X169029991Y-88954295D01*
X168909039Y-89075248D01*
X168727610Y-89135724D01*
X168606658Y-89135724D01*
X169695229Y-89135724D02*
X169695229Y-87865724D01*
X170179038Y-87865724D01*
X170299991Y-87926200D01*
X170360467Y-87986676D01*
X170420943Y-88107629D01*
X170420943Y-88289057D01*
X170360467Y-88410010D01*
X170299991Y-88470486D01*
X170179038Y-88530962D01*
X169695229Y-88530962D01*
X171509515Y-88289057D02*
X171509515Y-89135724D01*
X171207134Y-87805248D02*
X170904753Y-88712390D01*
X171690943Y-88712390D01*
D17*
X165659048Y-94139524D02*
X165659048Y-92869524D01*
X166142857Y-92869524D01*
X166263810Y-92930000D01*
X166324286Y-92990476D01*
X166384762Y-93111429D01*
X166384762Y-93292857D01*
X166324286Y-93413810D01*
X166263810Y-93474286D01*
X166142857Y-93534762D01*
X165659048Y-93534762D01*
X166929048Y-94139524D02*
X166929048Y-92869524D01*
X167533810Y-94139524D02*
X167533810Y-92869524D01*
X168259524Y-94139524D01*
X168259524Y-92869524D01*
X168864286Y-94139524D02*
X168864286Y-92869524D01*
X168864286Y-93474286D02*
X169590000Y-93474286D01*
X169590000Y-94139524D02*
X169590000Y-92869524D01*
X170194762Y-94139524D02*
X170194762Y-92869524D01*
X170497143Y-92869524D01*
X170678571Y-92930000D01*
X170799524Y-93050952D01*
X170860000Y-93171905D01*
X170920476Y-93413810D01*
X170920476Y-93595238D01*
X170860000Y-93837143D01*
X170799524Y-93958095D01*
X170678571Y-94079048D01*
X170497143Y-94139524D01*
X170194762Y-94139524D01*
X171464762Y-93655714D02*
X172432381Y-93655714D01*
X173702381Y-94139524D02*
X172976667Y-94139524D01*
X173339524Y-94139524D02*
X173339524Y-92869524D01*
X173218572Y-93050952D01*
X173097619Y-93171905D01*
X172976667Y-93232381D01*
X174125715Y-92869524D02*
X174972381Y-94139524D01*
X174972381Y-92869524D02*
X174125715Y-94139524D01*
X176121429Y-94139524D02*
X175395715Y-94139524D01*
X175758572Y-94139524D02*
X175758572Y-92869524D01*
X175637620Y-93050952D01*
X175516667Y-93171905D01*
X175395715Y-93232381D01*
D12*
X173535467Y-87865724D02*
X173535467Y-88772867D01*
X173474991Y-88954295D01*
X173354039Y-89075248D01*
X173172610Y-89135724D01*
X173051658Y-89135724D01*
X174140229Y-89135724D02*
X174140229Y-87865724D01*
X174624038Y-87865724D01*
X174744991Y-87926200D01*
X174805467Y-87986676D01*
X174865943Y-88107629D01*
X174865943Y-88289057D01*
X174805467Y-88410010D01*
X174744991Y-88470486D01*
X174624038Y-88530962D01*
X174140229Y-88530962D01*
X176014991Y-87865724D02*
X175410229Y-87865724D01*
X175349753Y-88470486D01*
X175410229Y-88410010D01*
X175531181Y-88349533D01*
X175833562Y-88349533D01*
X175954515Y-88410010D01*
X176014991Y-88470486D01*
X176075467Y-88591438D01*
X176075467Y-88893819D01*
X176014991Y-89014771D01*
X175954515Y-89075248D01*
X175833562Y-89135724D01*
X175531181Y-89135724D01*
X175410229Y-89075248D01*
X175349753Y-89014771D01*
D17*
X170104048Y-94139524D02*
X170104048Y-92869524D01*
X170587857Y-92869524D01*
X170708810Y-92930000D01*
X170769286Y-92990476D01*
X170829762Y-93111429D01*
X170829762Y-93292857D01*
X170769286Y-93413810D01*
X170708810Y-93474286D01*
X170587857Y-93534762D01*
X170104048Y-93534762D01*
X171374048Y-94139524D02*
X171374048Y-92869524D01*
X171978810Y-94139524D02*
X171978810Y-92869524D01*
X172704524Y-94139524D01*
X172704524Y-92869524D01*
X173309286Y-94139524D02*
X173309286Y-92869524D01*
X173309286Y-93474286D02*
X174035000Y-93474286D01*
X174035000Y-94139524D02*
X174035000Y-92869524D01*
X174639762Y-94139524D02*
X174639762Y-92869524D01*
X174942143Y-92869524D01*
X175123571Y-92930000D01*
X175244524Y-93050952D01*
X175305000Y-93171905D01*
X175365476Y-93413810D01*
X175365476Y-93595238D01*
X175305000Y-93837143D01*
X175244524Y-93958095D01*
X175123571Y-94079048D01*
X174942143Y-94139524D01*
X174639762Y-94139524D01*
X175909762Y-93655714D02*
X176877381Y-93655714D01*
X178147381Y-94139524D02*
X177421667Y-94139524D01*
X177784524Y-94139524D02*
X177784524Y-92869524D01*
X177663572Y-93050952D01*
X177542619Y-93171905D01*
X177421667Y-93232381D01*
X178570715Y-92869524D02*
X179417381Y-94139524D01*
X179417381Y-92869524D02*
X178570715Y-94139524D01*
X180566429Y-94139524D02*
X179840715Y-94139524D01*
X180203572Y-94139524D02*
X180203572Y-92869524D01*
X180082620Y-93050952D01*
X179961667Y-93171905D01*
X179840715Y-93232381D01*
D12*
X183750467Y-88080724D02*
X183750467Y-88987867D01*
X183689991Y-89169295D01*
X183569039Y-89290248D01*
X183387610Y-89350724D01*
X183266658Y-89350724D01*
X184355229Y-89350724D02*
X184355229Y-88080724D01*
X184839038Y-88080724D01*
X184959991Y-88141200D01*
X185020467Y-88201676D01*
X185080943Y-88322629D01*
X185080943Y-88504057D01*
X185020467Y-88625010D01*
X184959991Y-88685486D01*
X184839038Y-88745962D01*
X184355229Y-88745962D01*
X186169515Y-88080724D02*
X185927610Y-88080724D01*
X185806658Y-88141200D01*
X185746181Y-88201676D01*
X185625229Y-88383105D01*
X185564753Y-88625010D01*
X185564753Y-89108819D01*
X185625229Y-89229771D01*
X185685705Y-89290248D01*
X185806658Y-89350724D01*
X186048562Y-89350724D01*
X186169515Y-89290248D01*
X186229991Y-89229771D01*
X186290467Y-89108819D01*
X186290467Y-88806438D01*
X186229991Y-88685486D01*
X186169515Y-88625010D01*
X186048562Y-88564533D01*
X185806658Y-88564533D01*
X185685705Y-88625010D01*
X185625229Y-88685486D01*
X185564753Y-88806438D01*
D17*
X180319048Y-94354524D02*
X180319048Y-93084524D01*
X180802857Y-93084524D01*
X180923810Y-93145000D01*
X180984286Y-93205476D01*
X181044762Y-93326429D01*
X181044762Y-93507857D01*
X180984286Y-93628810D01*
X180923810Y-93689286D01*
X180802857Y-93749762D01*
X180319048Y-93749762D01*
X181589048Y-94354524D02*
X181589048Y-93084524D01*
X182193810Y-94354524D02*
X182193810Y-93084524D01*
X182919524Y-94354524D01*
X182919524Y-93084524D01*
X183524286Y-94354524D02*
X183524286Y-93084524D01*
X183524286Y-93689286D02*
X184250000Y-93689286D01*
X184250000Y-94354524D02*
X184250000Y-93084524D01*
X184854762Y-94354524D02*
X184854762Y-93084524D01*
X185157143Y-93084524D01*
X185338571Y-93145000D01*
X185459524Y-93265952D01*
X185520000Y-93386905D01*
X185580476Y-93628810D01*
X185580476Y-93810238D01*
X185520000Y-94052143D01*
X185459524Y-94173095D01*
X185338571Y-94294048D01*
X185157143Y-94354524D01*
X184854762Y-94354524D01*
X186124762Y-93870714D02*
X187092381Y-93870714D01*
X188362381Y-94354524D02*
X187636667Y-94354524D01*
X187999524Y-94354524D02*
X187999524Y-93084524D01*
X187878572Y-93265952D01*
X187757619Y-93386905D01*
X187636667Y-93447381D01*
X188785715Y-93084524D02*
X189632381Y-94354524D01*
X189632381Y-93084524D02*
X188785715Y-94354524D01*
X190781429Y-94354524D02*
X190055715Y-94354524D01*
X190418572Y-94354524D02*
X190418572Y-93084524D01*
X190297620Y-93265952D01*
X190176667Y-93386905D01*
X190055715Y-93447381D01*
D12*
X161750467Y-87880724D02*
X161750467Y-88787867D01*
X161689991Y-88969295D01*
X161569039Y-89090248D01*
X161387610Y-89150724D01*
X161266658Y-89150724D01*
X162355229Y-89150724D02*
X162355229Y-87880724D01*
X162839038Y-87880724D01*
X162959991Y-87941200D01*
X163020467Y-88001676D01*
X163080943Y-88122629D01*
X163080943Y-88304057D01*
X163020467Y-88425010D01*
X162959991Y-88485486D01*
X162839038Y-88545962D01*
X162355229Y-88545962D01*
X163504277Y-87880724D02*
X164350943Y-87880724D01*
X163806658Y-89150724D01*
D17*
X158319048Y-94154524D02*
X158319048Y-92884524D01*
X158802857Y-92884524D01*
X158923810Y-92945000D01*
X158984286Y-93005476D01*
X159044762Y-93126429D01*
X159044762Y-93307857D01*
X158984286Y-93428810D01*
X158923810Y-93489286D01*
X158802857Y-93549762D01*
X158319048Y-93549762D01*
X159589048Y-94154524D02*
X159589048Y-92884524D01*
X160193810Y-94154524D02*
X160193810Y-92884524D01*
X160919524Y-94154524D01*
X160919524Y-92884524D01*
X161524286Y-94154524D02*
X161524286Y-92884524D01*
X161524286Y-93489286D02*
X162250000Y-93489286D01*
X162250000Y-94154524D02*
X162250000Y-92884524D01*
X162854762Y-94154524D02*
X162854762Y-92884524D01*
X163157143Y-92884524D01*
X163338571Y-92945000D01*
X163459524Y-93065952D01*
X163520000Y-93186905D01*
X163580476Y-93428810D01*
X163580476Y-93610238D01*
X163520000Y-93852143D01*
X163459524Y-93973095D01*
X163338571Y-94094048D01*
X163157143Y-94154524D01*
X162854762Y-94154524D01*
X164124762Y-93670714D02*
X165092381Y-93670714D01*
X166362381Y-94154524D02*
X165636667Y-94154524D01*
X165999524Y-94154524D02*
X165999524Y-92884524D01*
X165878572Y-93065952D01*
X165757619Y-93186905D01*
X165636667Y-93247381D01*
X166785715Y-92884524D02*
X167632381Y-94154524D01*
X167632381Y-92884524D02*
X166785715Y-94154524D01*
X168781429Y-94154524D02*
X168055715Y-94154524D01*
X168418572Y-94154524D02*
X168418572Y-92884524D01*
X168297620Y-93065952D01*
X168176667Y-93186905D01*
X168055715Y-93247381D01*
D11*
X177655347Y-95763430D02*
X177771461Y-95802135D01*
X177964985Y-95802135D01*
X178042395Y-95763430D01*
X178081099Y-95724726D01*
X178119804Y-95647316D01*
X178119804Y-95569907D01*
X178081099Y-95492497D01*
X178042395Y-95453792D01*
X177964985Y-95415088D01*
X177810166Y-95376383D01*
X177732757Y-95337678D01*
X177694052Y-95298973D01*
X177655347Y-95221564D01*
X177655347Y-95144154D01*
X177694052Y-95066745D01*
X177732757Y-95028040D01*
X177810166Y-94989335D01*
X178003690Y-94989335D01*
X178119804Y-95028040D01*
X178390737Y-94989335D02*
X178584261Y-95802135D01*
X178739080Y-95221564D01*
X178893899Y-95802135D01*
X179087423Y-94989335D01*
X179822813Y-95802135D02*
X179358356Y-95802135D01*
X179590585Y-95802135D02*
X179590585Y-94989335D01*
X179513175Y-95105450D01*
X179435766Y-95182859D01*
X179358356Y-95221564D01*
D16*
X177412354Y-100419855D02*
X177470411Y-100439208D01*
X177567173Y-100439208D01*
X177605877Y-100419855D01*
X177625230Y-100400503D01*
X177644582Y-100361798D01*
X177644582Y-100323093D01*
X177625230Y-100284389D01*
X177605877Y-100265036D01*
X177567173Y-100245684D01*
X177489763Y-100226331D01*
X177451058Y-100206979D01*
X177431706Y-100187627D01*
X177412354Y-100148922D01*
X177412354Y-100110217D01*
X177431706Y-100071512D01*
X177451058Y-100052160D01*
X177489763Y-100032808D01*
X177586525Y-100032808D01*
X177644582Y-100052160D01*
X177780049Y-100032808D02*
X177876811Y-100439208D01*
X177954221Y-100148922D01*
X178031630Y-100439208D01*
X178128392Y-100032808D01*
X178496087Y-100439208D02*
X178263859Y-100439208D01*
X178379973Y-100439208D02*
X178379973Y-100032808D01*
X178341268Y-100090865D01*
X178302563Y-100129570D01*
X178263859Y-100148922D01*
D18*
X191090343Y-75434734D02*
X191109695Y-75454086D01*
X191129048Y-75512143D01*
X191129048Y-75550848D01*
X191109695Y-75608905D01*
X191070990Y-75647610D01*
X191032286Y-75666962D01*
X190954876Y-75686314D01*
X190896819Y-75686314D01*
X190819410Y-75666962D01*
X190780705Y-75647610D01*
X190742000Y-75608905D01*
X190722648Y-75550848D01*
X190722648Y-75512143D01*
X190742000Y-75454086D01*
X190761352Y-75434734D01*
X191129048Y-75047686D02*
X191129048Y-75279914D01*
X191129048Y-75163800D02*
X190722648Y-75163800D01*
X190780705Y-75202505D01*
X190819410Y-75241210D01*
X190838762Y-75279914D01*
X188817648Y-76130210D02*
X188817648Y-76091505D01*
X188837000Y-76052800D01*
X188856352Y-76033448D01*
X188895057Y-76014095D01*
X188972467Y-75994743D01*
X189069229Y-75994743D01*
X189146638Y-76014095D01*
X189185343Y-76033448D01*
X189204695Y-76052800D01*
X189224048Y-76091505D01*
X189224048Y-76130210D01*
X189204695Y-76168914D01*
X189185343Y-76188267D01*
X189146638Y-76207619D01*
X189069229Y-76226971D01*
X188972467Y-76226971D01*
X188895057Y-76207619D01*
X188856352Y-76188267D01*
X188837000Y-76168914D01*
X188817648Y-76130210D01*
X189185343Y-75820571D02*
X189204695Y-75801219D01*
X189224048Y-75820571D01*
X189204695Y-75839923D01*
X189185343Y-75820571D01*
X189224048Y-75820571D01*
X188953114Y-75452876D02*
X189224048Y-75452876D01*
X188798295Y-75549638D02*
X189088581Y-75646399D01*
X189088581Y-75394819D01*
X188817648Y-75278704D02*
X188817648Y-75007771D01*
X189224048Y-75181942D01*
X188953114Y-74678780D02*
X189224048Y-74678780D01*
X188953114Y-74852951D02*
X189165990Y-74852951D01*
X189204695Y-74833599D01*
X189224048Y-74794894D01*
X189224048Y-74736837D01*
X189204695Y-74698132D01*
X189185343Y-74678780D01*
D19*
X123686666Y-57977143D02*
X123734285Y-58024762D01*
X123877142Y-58072381D01*
X123972380Y-58072381D01*
X124115238Y-58024762D01*
X124210476Y-57929524D01*
X124258095Y-57834286D01*
X124305714Y-57643810D01*
X124305714Y-57500952D01*
X124258095Y-57310476D01*
X124210476Y-57215238D01*
X124115238Y-57120000D01*
X123972380Y-57072381D01*
X123877142Y-57072381D01*
X123734285Y-57120000D01*
X123686666Y-57167619D01*
X123305714Y-57167619D02*
X123258095Y-57120000D01*
X123162857Y-57072381D01*
X122924761Y-57072381D01*
X122829523Y-57120000D01*
X122781904Y-57167619D01*
X122734285Y-57262857D01*
X122734285Y-57358095D01*
X122781904Y-57500952D01*
X123353333Y-58072381D01*
X122734285Y-58072381D01*
X124436666Y-67327143D02*
X124484285Y-67374762D01*
X124627142Y-67422381D01*
X124722380Y-67422381D01*
X124865238Y-67374762D01*
X124960476Y-67279524D01*
X125008095Y-67184286D01*
X125055714Y-66993810D01*
X125055714Y-66850952D01*
X125008095Y-66660476D01*
X124960476Y-66565238D01*
X124865238Y-66470000D01*
X124722380Y-66422381D01*
X124627142Y-66422381D01*
X124484285Y-66470000D01*
X124436666Y-66517619D01*
X124103333Y-66422381D02*
X123484285Y-66422381D01*
X123817619Y-66803333D01*
X123674761Y-66803333D01*
X123579523Y-66850952D01*
X123531904Y-66898571D01*
X123484285Y-66993810D01*
X123484285Y-67231905D01*
X123531904Y-67327143D01*
X123579523Y-67374762D01*
X123674761Y-67422381D01*
X123960476Y-67422381D01*
X124055714Y-67374762D01*
X124103333Y-67327143D01*
X119886666Y-59122381D02*
X120220000Y-58646190D01*
X120458095Y-59122381D02*
X120458095Y-58122381D01*
X120077142Y-58122381D01*
X119981904Y-58170000D01*
X119934285Y-58217619D01*
X119886666Y-58312857D01*
X119886666Y-58455714D01*
X119934285Y-58550952D01*
X119981904Y-58598571D01*
X120077142Y-58646190D01*
X120458095Y-58646190D01*
X118934285Y-59122381D02*
X119505714Y-59122381D01*
X119220000Y-59122381D02*
X119220000Y-58122381D01*
X119315238Y-58265238D01*
X119410476Y-58360476D01*
X119505714Y-58408095D01*
X120822381Y-61458095D02*
X121631905Y-61458095D01*
X121727143Y-61505714D01*
X121774762Y-61553333D01*
X121822381Y-61648571D01*
X121822381Y-61839048D01*
X121774762Y-61934286D01*
X121727143Y-61981905D01*
X121631905Y-62029524D01*
X120822381Y-62029524D01*
X120917619Y-62458095D02*
X120870000Y-62505714D01*
X120822381Y-62600952D01*
X120822381Y-62839048D01*
X120870000Y-62934286D01*
X120917619Y-62981905D01*
X121012857Y-63029524D01*
X121108095Y-63029524D01*
X121250952Y-62981905D01*
X121822381Y-62410476D01*
X121822381Y-63029524D01*
D11*
X145807295Y-62377981D02*
X146620095Y-61836114D01*
X145807295Y-61836114D02*
X146620095Y-62377981D01*
X146620095Y-61100724D02*
X146620095Y-61565181D01*
X146620095Y-61332952D02*
X145807295Y-61332952D01*
X145923410Y-61410362D01*
X146000819Y-61487771D01*
X146039524Y-61565181D01*
D16*
X145451695Y-63229484D02*
X145471048Y-63171427D01*
X145471048Y-63074665D01*
X145451695Y-63035961D01*
X145432343Y-63016608D01*
X145393638Y-62997256D01*
X145354933Y-62997256D01*
X145316229Y-63016608D01*
X145296876Y-63035961D01*
X145277524Y-63074665D01*
X145258171Y-63152075D01*
X145238819Y-63190780D01*
X145219467Y-63210132D01*
X145180762Y-63229484D01*
X145142057Y-63229484D01*
X145103352Y-63210132D01*
X145084000Y-63190780D01*
X145064648Y-63152075D01*
X145064648Y-63055313D01*
X145084000Y-62997256D01*
X145471048Y-62823084D02*
X145064648Y-62823084D01*
X145354933Y-62687617D01*
X145064648Y-62552151D01*
X145471048Y-62552151D01*
X145354933Y-62377979D02*
X145354933Y-62184456D01*
X145471048Y-62416684D02*
X145064648Y-62281218D01*
X145471048Y-62145751D01*
X145432343Y-61778056D02*
X145451695Y-61797408D01*
X145471048Y-61855465D01*
X145471048Y-61894170D01*
X145451695Y-61952227D01*
X145412990Y-61990932D01*
X145374286Y-62010284D01*
X145296876Y-62029636D01*
X145238819Y-62029636D01*
X145161410Y-62010284D01*
X145122705Y-61990932D01*
X145084000Y-61952227D01*
X145064648Y-61894170D01*
X145064648Y-61855465D01*
X145084000Y-61797408D01*
X145103352Y-61778056D01*
X145064648Y-61526475D02*
X145064648Y-61449065D01*
X145084000Y-61410360D01*
X145122705Y-61371656D01*
X145200114Y-61352303D01*
X145335581Y-61352303D01*
X145412990Y-61371656D01*
X145451695Y-61410360D01*
X145471048Y-61449065D01*
X145471048Y-61526475D01*
X145451695Y-61565179D01*
X145412990Y-61603884D01*
X145335581Y-61623236D01*
X145200114Y-61623236D01*
X145122705Y-61603884D01*
X145084000Y-61565179D01*
X145064648Y-61526475D01*
X145471048Y-61178132D02*
X145064648Y-61178132D01*
X145471048Y-60945904D01*
X145064648Y-60945904D01*
X145471048Y-60752380D02*
X145064648Y-60752380D01*
X145471048Y-60520152D01*
X145064648Y-60520152D01*
X145258171Y-60326628D02*
X145258171Y-60191161D01*
X145471048Y-60133104D02*
X145471048Y-60326628D01*
X145064648Y-60326628D01*
X145064648Y-60133104D01*
X145432343Y-59726705D02*
X145451695Y-59746057D01*
X145471048Y-59804114D01*
X145471048Y-59842819D01*
X145451695Y-59900876D01*
X145412990Y-59939581D01*
X145374286Y-59958933D01*
X145296876Y-59978285D01*
X145238819Y-59978285D01*
X145161410Y-59958933D01*
X145122705Y-59939581D01*
X145084000Y-59900876D01*
X145064648Y-59842819D01*
X145064648Y-59804114D01*
X145084000Y-59746057D01*
X145103352Y-59726705D01*
X145064648Y-59610590D02*
X145064648Y-59378362D01*
X145471048Y-59494476D02*
X145064648Y-59494476D01*
X145064648Y-59165486D02*
X145064648Y-59088076D01*
X145084000Y-59049371D01*
X145122705Y-59010667D01*
X145200114Y-58991314D01*
X145335581Y-58991314D01*
X145412990Y-59010667D01*
X145451695Y-59049371D01*
X145471048Y-59088076D01*
X145471048Y-59165486D01*
X145451695Y-59204190D01*
X145412990Y-59242895D01*
X145335581Y-59262247D01*
X145200114Y-59262247D01*
X145122705Y-59242895D01*
X145084000Y-59204190D01*
X145064648Y-59165486D01*
X145471048Y-58584915D02*
X145277524Y-58720381D01*
X145471048Y-58817143D02*
X145064648Y-58817143D01*
X145064648Y-58662324D01*
X145084000Y-58623619D01*
X145103352Y-58604267D01*
X145142057Y-58584915D01*
X145200114Y-58584915D01*
X145238819Y-58604267D01*
X145258171Y-58623619D01*
X145277524Y-58662324D01*
X145277524Y-58817143D01*
D11*
X140781047Y-65949630D02*
X140897161Y-65988335D01*
X141090685Y-65988335D01*
X141168095Y-65949630D01*
X141206799Y-65910926D01*
X141245504Y-65833516D01*
X141245504Y-65756107D01*
X141206799Y-65678697D01*
X141168095Y-65639992D01*
X141090685Y-65601288D01*
X140935866Y-65562583D01*
X140858457Y-65523878D01*
X140819752Y-65485173D01*
X140781047Y-65407764D01*
X140781047Y-65330354D01*
X140819752Y-65252945D01*
X140858457Y-65214240D01*
X140935866Y-65175535D01*
X141129390Y-65175535D01*
X141245504Y-65214240D01*
X141516437Y-65175535D02*
X141709961Y-65988335D01*
X141864780Y-65407764D01*
X142019599Y-65988335D01*
X142213123Y-65175535D01*
X142948513Y-65988335D02*
X142484056Y-65988335D01*
X142716285Y-65988335D02*
X142716285Y-65175535D01*
X142638875Y-65291650D01*
X142561466Y-65369059D01*
X142484056Y-65407764D01*
D16*
X136506712Y-66938295D02*
X136564769Y-66957648D01*
X136661531Y-66957648D01*
X136700235Y-66938295D01*
X136719588Y-66918943D01*
X136738940Y-66880238D01*
X136738940Y-66841533D01*
X136719588Y-66802829D01*
X136700235Y-66783476D01*
X136661531Y-66764124D01*
X136584121Y-66744771D01*
X136545416Y-66725419D01*
X136526064Y-66706067D01*
X136506712Y-66667362D01*
X136506712Y-66628657D01*
X136526064Y-66589952D01*
X136545416Y-66570600D01*
X136584121Y-66551248D01*
X136680883Y-66551248D01*
X136738940Y-66570600D01*
X136874407Y-66551248D02*
X136971169Y-66957648D01*
X137048579Y-66667362D01*
X137125988Y-66957648D01*
X137222750Y-66551248D01*
X137377569Y-66957648D02*
X137377569Y-66551248D01*
X137513036Y-66551248D02*
X137745264Y-66551248D01*
X137629150Y-66957648D02*
X137629150Y-66551248D01*
X138112959Y-66918943D02*
X138093607Y-66938295D01*
X138035550Y-66957648D01*
X137996845Y-66957648D01*
X137938788Y-66938295D01*
X137900083Y-66899590D01*
X137880731Y-66860886D01*
X137861379Y-66783476D01*
X137861379Y-66725419D01*
X137880731Y-66648010D01*
X137900083Y-66609305D01*
X137938788Y-66570600D01*
X137996845Y-66551248D01*
X138035550Y-66551248D01*
X138093607Y-66570600D01*
X138112959Y-66589952D01*
X138287131Y-66957648D02*
X138287131Y-66551248D01*
X138287131Y-66744771D02*
X138519359Y-66744771D01*
X138519359Y-66957648D02*
X138519359Y-66551248D01*
X138616121Y-66996352D02*
X138925759Y-66996352D01*
X139022521Y-66957648D02*
X139022521Y-66551248D01*
X139177340Y-66551248D01*
X139216045Y-66570600D01*
X139235397Y-66589952D01*
X139254749Y-66628657D01*
X139254749Y-66686714D01*
X139235397Y-66725419D01*
X139216045Y-66744771D01*
X139177340Y-66764124D01*
X139022521Y-66764124D01*
X139428921Y-66551248D02*
X139428921Y-66880238D01*
X139448273Y-66918943D01*
X139467626Y-66938295D01*
X139506330Y-66957648D01*
X139583740Y-66957648D01*
X139622445Y-66938295D01*
X139641797Y-66918943D01*
X139661149Y-66880238D01*
X139661149Y-66551248D01*
X139835321Y-66938295D02*
X139893378Y-66957648D01*
X139990140Y-66957648D01*
X140028844Y-66938295D01*
X140048197Y-66918943D01*
X140067549Y-66880238D01*
X140067549Y-66841533D01*
X140048197Y-66802829D01*
X140028844Y-66783476D01*
X139990140Y-66764124D01*
X139912730Y-66744771D01*
X139874025Y-66725419D01*
X139854673Y-66706067D01*
X139835321Y-66667362D01*
X139835321Y-66628657D01*
X139854673Y-66589952D01*
X139874025Y-66570600D01*
X139912730Y-66551248D01*
X140009492Y-66551248D01*
X140067549Y-66570600D01*
X140241721Y-66957648D02*
X140241721Y-66551248D01*
X140241721Y-66744771D02*
X140473949Y-66744771D01*
X140473949Y-66957648D02*
X140473949Y-66551248D01*
X140802940Y-66744771D02*
X140860997Y-66764124D01*
X140880349Y-66783476D01*
X140899701Y-66822181D01*
X140899701Y-66880238D01*
X140880349Y-66918943D01*
X140860997Y-66938295D01*
X140822292Y-66957648D01*
X140667473Y-66957648D01*
X140667473Y-66551248D01*
X140802940Y-66551248D01*
X140841644Y-66570600D01*
X140860997Y-66589952D01*
X140880349Y-66628657D01*
X140880349Y-66667362D01*
X140860997Y-66706067D01*
X140841644Y-66725419D01*
X140802940Y-66744771D01*
X140667473Y-66744771D01*
X141073873Y-66551248D02*
X141073873Y-66880238D01*
X141093225Y-66918943D01*
X141112578Y-66938295D01*
X141151282Y-66957648D01*
X141228692Y-66957648D01*
X141267397Y-66938295D01*
X141286749Y-66918943D01*
X141306101Y-66880238D01*
X141306101Y-66551248D01*
X141441568Y-66551248D02*
X141673796Y-66551248D01*
X141557682Y-66957648D02*
X141557682Y-66551248D01*
X141751206Y-66551248D02*
X141983434Y-66551248D01*
X141867320Y-66957648D02*
X141867320Y-66551248D01*
X142196310Y-66551248D02*
X142273720Y-66551248D01*
X142312425Y-66570600D01*
X142351129Y-66609305D01*
X142370482Y-66686714D01*
X142370482Y-66822181D01*
X142351129Y-66899590D01*
X142312425Y-66938295D01*
X142273720Y-66957648D01*
X142196310Y-66957648D01*
X142157606Y-66938295D01*
X142118901Y-66899590D01*
X142099549Y-66822181D01*
X142099549Y-66686714D01*
X142118901Y-66609305D01*
X142157606Y-66570600D01*
X142196310Y-66551248D01*
X142544653Y-66957648D02*
X142544653Y-66551248D01*
X142776881Y-66957648D01*
X142776881Y-66551248D01*
X143202633Y-66918943D02*
X143183281Y-66938295D01*
X143125224Y-66957648D01*
X143086519Y-66957648D01*
X143028462Y-66938295D01*
X142989757Y-66899590D01*
X142970405Y-66860886D01*
X142951053Y-66783476D01*
X142951053Y-66725419D01*
X142970405Y-66648010D01*
X142989757Y-66609305D01*
X143028462Y-66570600D01*
X143086519Y-66551248D01*
X143125224Y-66551248D01*
X143183281Y-66570600D01*
X143202633Y-66589952D01*
X143705795Y-66957648D02*
X143686443Y-66957648D01*
X143647738Y-66938295D01*
X143589681Y-66880238D01*
X143492919Y-66764124D01*
X143454214Y-66706067D01*
X143434862Y-66648010D01*
X143434862Y-66609305D01*
X143454214Y-66570600D01*
X143492919Y-66551248D01*
X143512272Y-66551248D01*
X143550976Y-66570600D01*
X143570329Y-66609305D01*
X143570329Y-66628657D01*
X143550976Y-66667362D01*
X143531624Y-66686714D01*
X143415510Y-66764124D01*
X143396157Y-66783476D01*
X143376805Y-66822181D01*
X143376805Y-66880238D01*
X143396157Y-66918943D01*
X143415510Y-66938295D01*
X143454214Y-66957648D01*
X143512272Y-66957648D01*
X143550976Y-66938295D01*
X143570329Y-66918943D01*
X143628386Y-66841533D01*
X143647738Y-66783476D01*
X143647738Y-66744771D01*
X143879967Y-66957648D02*
X143879967Y-66551248D01*
X144112195Y-66957648D02*
X143938024Y-66725419D01*
X144112195Y-66551248D02*
X143879967Y-66783476D01*
X144189605Y-66996352D02*
X144499243Y-66996352D01*
X144596005Y-66957648D02*
X144596005Y-66551248D01*
X144828233Y-66957648D02*
X144654062Y-66725419D01*
X144828233Y-66551248D02*
X144596005Y-66783476D01*
X144983053Y-66938295D02*
X145041110Y-66957648D01*
X145137872Y-66957648D01*
X145176576Y-66938295D01*
X145195929Y-66918943D01*
X145215281Y-66880238D01*
X145215281Y-66841533D01*
X145195929Y-66802829D01*
X145176576Y-66783476D01*
X145137872Y-66764124D01*
X145060462Y-66744771D01*
X145021757Y-66725419D01*
X145002405Y-66706067D01*
X144983053Y-66667362D01*
X144983053Y-66628657D01*
X145002405Y-66589952D01*
X145021757Y-66570600D01*
X145060462Y-66551248D01*
X145157224Y-66551248D01*
X145215281Y-66570600D01*
X145370101Y-66938295D02*
X145428158Y-66957648D01*
X145524920Y-66957648D01*
X145563624Y-66938295D01*
X145582977Y-66918943D01*
X145602329Y-66880238D01*
X145602329Y-66841533D01*
X145582977Y-66802829D01*
X145563624Y-66783476D01*
X145524920Y-66764124D01*
X145447510Y-66744771D01*
X145408805Y-66725419D01*
X145389453Y-66706067D01*
X145370101Y-66667362D01*
X145370101Y-66628657D01*
X145389453Y-66589952D01*
X145408805Y-66570600D01*
X145447510Y-66551248D01*
X145544272Y-66551248D01*
X145602329Y-66570600D01*
X131609543Y-53626943D02*
X131696629Y-53655971D01*
X131841772Y-53655971D01*
X131899829Y-53626943D01*
X131928858Y-53597914D01*
X131957886Y-53539857D01*
X131957886Y-53481800D01*
X131928858Y-53423743D01*
X131899829Y-53394714D01*
X131841772Y-53365686D01*
X131725658Y-53336657D01*
X131667600Y-53307629D01*
X131638572Y-53278600D01*
X131609543Y-53220543D01*
X131609543Y-53162486D01*
X131638572Y-53104429D01*
X131667600Y-53075400D01*
X131725658Y-53046371D01*
X131870800Y-53046371D01*
X131957886Y-53075400D01*
X132538457Y-53655971D02*
X132190114Y-53655971D01*
X132364286Y-53655971D02*
X132364286Y-53046371D01*
X132306229Y-53133457D01*
X132248171Y-53191514D01*
X132190114Y-53220543D01*
X128198686Y-55531943D02*
X128285772Y-55560971D01*
X128430915Y-55560971D01*
X128488972Y-55531943D01*
X128518001Y-55502914D01*
X128547029Y-55444857D01*
X128547029Y-55386800D01*
X128518001Y-55328743D01*
X128488972Y-55299714D01*
X128430915Y-55270686D01*
X128314801Y-55241657D01*
X128256743Y-55212629D01*
X128227715Y-55183600D01*
X128198686Y-55125543D01*
X128198686Y-55067486D01*
X128227715Y-55009429D01*
X128256743Y-54980400D01*
X128314801Y-54951371D01*
X128459943Y-54951371D01*
X128547029Y-54980400D01*
X128750229Y-54951371D02*
X128895372Y-55560971D01*
X129011486Y-55125543D01*
X129127600Y-55560971D01*
X129272743Y-54951371D01*
X129504972Y-55560971D02*
X129504972Y-54951371D01*
X129708172Y-54951371D02*
X130056515Y-54951371D01*
X129882344Y-55560971D02*
X129882344Y-54951371D01*
X130608058Y-55502914D02*
X130579029Y-55531943D01*
X130491943Y-55560971D01*
X130433886Y-55560971D01*
X130346801Y-55531943D01*
X130288743Y-55473886D01*
X130259715Y-55415829D01*
X130230686Y-55299714D01*
X130230686Y-55212629D01*
X130259715Y-55096514D01*
X130288743Y-55038457D01*
X130346801Y-54980400D01*
X130433886Y-54951371D01*
X130491943Y-54951371D01*
X130579029Y-54980400D01*
X130608058Y-55009429D01*
X130869315Y-55560971D02*
X130869315Y-54951371D01*
X130869315Y-55241657D02*
X131217658Y-55241657D01*
X131217658Y-55560971D02*
X131217658Y-54951371D01*
X131507944Y-55328743D02*
X131972401Y-55328743D01*
X132233658Y-55531943D02*
X132320744Y-55560971D01*
X132465887Y-55560971D01*
X132523944Y-55531943D01*
X132552973Y-55502914D01*
X132582001Y-55444857D01*
X132582001Y-55386800D01*
X132552973Y-55328743D01*
X132523944Y-55299714D01*
X132465887Y-55270686D01*
X132349773Y-55241657D01*
X132291715Y-55212629D01*
X132262687Y-55183600D01*
X132233658Y-55125543D01*
X132233658Y-55067486D01*
X132262687Y-55009429D01*
X132291715Y-54980400D01*
X132349773Y-54951371D01*
X132494915Y-54951371D01*
X132582001Y-54980400D01*
X132843258Y-55560971D02*
X132843258Y-54951371D01*
X133075486Y-54951371D01*
X133133544Y-54980400D01*
X133162572Y-55009429D01*
X133191601Y-55067486D01*
X133191601Y-55154571D01*
X133162572Y-55212629D01*
X133133544Y-55241657D01*
X133075486Y-55270686D01*
X132843258Y-55270686D01*
X133452858Y-55560971D02*
X133452858Y-54951371D01*
X133598001Y-54951371D01*
X133685086Y-54980400D01*
X133743144Y-55038457D01*
X133772172Y-55096514D01*
X133801201Y-55212629D01*
X133801201Y-55299714D01*
X133772172Y-55415829D01*
X133743144Y-55473886D01*
X133685086Y-55531943D01*
X133598001Y-55560971D01*
X133452858Y-55560971D01*
X133975372Y-54951371D02*
X134323715Y-54951371D01*
X134149544Y-55560971D02*
X134149544Y-54951371D01*
X134526915Y-55560971D02*
X134526915Y-54951371D01*
X134759143Y-54951371D01*
X134817201Y-54980400D01*
X134846229Y-55009429D01*
X134875258Y-55067486D01*
X134875258Y-55154571D01*
X134846229Y-55212629D01*
X134817201Y-55241657D01*
X134759143Y-55270686D01*
X134526915Y-55270686D01*
X135049429Y-54951371D02*
X135397772Y-54951371D01*
X135223601Y-55560971D02*
X135223601Y-54951371D01*
X135600972Y-55560971D02*
X135600972Y-54951371D01*
X135600972Y-55241657D02*
X135949315Y-55241657D01*
X135949315Y-55560971D02*
X135949315Y-54951371D01*
X136210572Y-55009429D02*
X136239601Y-54980400D01*
X136297658Y-54951371D01*
X136442801Y-54951371D01*
X136500858Y-54980400D01*
X136529887Y-55009429D01*
X136558915Y-55067486D01*
X136558915Y-55125543D01*
X136529887Y-55212629D01*
X136181544Y-55560971D01*
X136558915Y-55560971D01*
D11*
X146582495Y-139072981D02*
X147395295Y-138531114D01*
X146582495Y-138531114D02*
X147395295Y-139072981D01*
X147395295Y-137795724D02*
X147395295Y-138260181D01*
X147395295Y-138027952D02*
X146582495Y-138027952D01*
X146698610Y-138105362D01*
X146776019Y-138182771D01*
X146814724Y-138260181D01*
D16*
X148157295Y-141550084D02*
X148176648Y-141492027D01*
X148176648Y-141395265D01*
X148157295Y-141356561D01*
X148137943Y-141337208D01*
X148099238Y-141317856D01*
X148060533Y-141317856D01*
X148021829Y-141337208D01*
X148002476Y-141356561D01*
X147983124Y-141395265D01*
X147963771Y-141472675D01*
X147944419Y-141511380D01*
X147925067Y-141530732D01*
X147886362Y-141550084D01*
X147847657Y-141550084D01*
X147808952Y-141530732D01*
X147789600Y-141511380D01*
X147770248Y-141472675D01*
X147770248Y-141375913D01*
X147789600Y-141317856D01*
X148176648Y-141143684D02*
X147770248Y-141143684D01*
X148060533Y-141008217D01*
X147770248Y-140872751D01*
X148176648Y-140872751D01*
X148060533Y-140698579D02*
X148060533Y-140505056D01*
X148176648Y-140737284D02*
X147770248Y-140601818D01*
X148176648Y-140466351D01*
X148137943Y-140098656D02*
X148157295Y-140118008D01*
X148176648Y-140176065D01*
X148176648Y-140214770D01*
X148157295Y-140272827D01*
X148118590Y-140311532D01*
X148079886Y-140330884D01*
X148002476Y-140350236D01*
X147944419Y-140350236D01*
X147867010Y-140330884D01*
X147828305Y-140311532D01*
X147789600Y-140272827D01*
X147770248Y-140214770D01*
X147770248Y-140176065D01*
X147789600Y-140118008D01*
X147808952Y-140098656D01*
X147770248Y-139847075D02*
X147770248Y-139769665D01*
X147789600Y-139730960D01*
X147828305Y-139692256D01*
X147905714Y-139672903D01*
X148041181Y-139672903D01*
X148118590Y-139692256D01*
X148157295Y-139730960D01*
X148176648Y-139769665D01*
X148176648Y-139847075D01*
X148157295Y-139885779D01*
X148118590Y-139924484D01*
X148041181Y-139943836D01*
X147905714Y-139943836D01*
X147828305Y-139924484D01*
X147789600Y-139885779D01*
X147770248Y-139847075D01*
X148176648Y-139498732D02*
X147770248Y-139498732D01*
X148176648Y-139266504D01*
X147770248Y-139266504D01*
X148176648Y-139072980D02*
X147770248Y-139072980D01*
X148176648Y-138840752D01*
X147770248Y-138840752D01*
X147963771Y-138647228D02*
X147963771Y-138511761D01*
X148176648Y-138453704D02*
X148176648Y-138647228D01*
X147770248Y-138647228D01*
X147770248Y-138453704D01*
X148137943Y-138047305D02*
X148157295Y-138066657D01*
X148176648Y-138124714D01*
X148176648Y-138163419D01*
X148157295Y-138221476D01*
X148118590Y-138260181D01*
X148079886Y-138279533D01*
X148002476Y-138298885D01*
X147944419Y-138298885D01*
X147867010Y-138279533D01*
X147828305Y-138260181D01*
X147789600Y-138221476D01*
X147770248Y-138163419D01*
X147770248Y-138124714D01*
X147789600Y-138066657D01*
X147808952Y-138047305D01*
X147770248Y-137931190D02*
X147770248Y-137698962D01*
X148176648Y-137815076D02*
X147770248Y-137815076D01*
X147770248Y-137486086D02*
X147770248Y-137408676D01*
X147789600Y-137369971D01*
X147828305Y-137331267D01*
X147905714Y-137311914D01*
X148041181Y-137311914D01*
X148118590Y-137331267D01*
X148157295Y-137369971D01*
X148176648Y-137408676D01*
X148176648Y-137486086D01*
X148157295Y-137524790D01*
X148118590Y-137563495D01*
X148041181Y-137582847D01*
X147905714Y-137582847D01*
X147828305Y-137563495D01*
X147789600Y-137524790D01*
X147770248Y-137486086D01*
X148176648Y-136905515D02*
X147983124Y-137040981D01*
X148176648Y-137137743D02*
X147770248Y-137137743D01*
X147770248Y-136982924D01*
X147789600Y-136944219D01*
X147808952Y-136924867D01*
X147847657Y-136905515D01*
X147905714Y-136905515D01*
X147944419Y-136924867D01*
X147963771Y-136944219D01*
X147983124Y-136982924D01*
X147983124Y-137137743D01*
D12*
X184025724Y-138279533D02*
X184932867Y-138279533D01*
X185114295Y-138340009D01*
X185235248Y-138460961D01*
X185295724Y-138642390D01*
X185295724Y-138763342D01*
X185295724Y-137674771D02*
X184025724Y-137674771D01*
X184025724Y-137190962D01*
X184086200Y-137070009D01*
X184146676Y-137009533D01*
X184267629Y-136949057D01*
X184449057Y-136949057D01*
X184570010Y-137009533D01*
X184630486Y-137070009D01*
X184690962Y-137190962D01*
X184690962Y-137674771D01*
X184025724Y-136525723D02*
X184025724Y-135739533D01*
X184509533Y-136162866D01*
X184509533Y-135981438D01*
X184570010Y-135860485D01*
X184630486Y-135800009D01*
X184751438Y-135739533D01*
X185053819Y-135739533D01*
X185174771Y-135800009D01*
X185235248Y-135860485D01*
X185295724Y-135981438D01*
X185295724Y-136344295D01*
X185235248Y-136465247D01*
X185174771Y-136525723D01*
D17*
X190299524Y-141710952D02*
X189029524Y-141710952D01*
X189029524Y-141227143D01*
X189090000Y-141106190D01*
X189150476Y-141045714D01*
X189271429Y-140985238D01*
X189452857Y-140985238D01*
X189573810Y-141045714D01*
X189634286Y-141106190D01*
X189694762Y-141227143D01*
X189694762Y-141710952D01*
X190299524Y-140440952D02*
X189029524Y-140440952D01*
X190299524Y-139836190D02*
X189029524Y-139836190D01*
X190299524Y-139110476D01*
X189029524Y-139110476D01*
X190299524Y-138505714D02*
X189029524Y-138505714D01*
X189634286Y-138505714D02*
X189634286Y-137780000D01*
X190299524Y-137780000D02*
X189029524Y-137780000D01*
X190299524Y-137175238D02*
X189029524Y-137175238D01*
X189029524Y-136872857D01*
X189090000Y-136691429D01*
X189210952Y-136570476D01*
X189331905Y-136510000D01*
X189573810Y-136449524D01*
X189755238Y-136449524D01*
X189997143Y-136510000D01*
X190118095Y-136570476D01*
X190239048Y-136691429D01*
X190299524Y-136872857D01*
X190299524Y-137175238D01*
X189815714Y-135905238D02*
X189815714Y-134937619D01*
X190299524Y-133667619D02*
X190299524Y-134393333D01*
X190299524Y-134030476D02*
X189029524Y-134030476D01*
X189210952Y-134151428D01*
X189331905Y-134272381D01*
X189392381Y-134393333D01*
X189029524Y-133244285D02*
X190299524Y-132397619D01*
X189029524Y-132397619D02*
X190299524Y-133244285D01*
X190299524Y-131248571D02*
X190299524Y-131974285D01*
X190299524Y-131611428D02*
X189029524Y-131611428D01*
X189210952Y-131732380D01*
X189331905Y-131853333D01*
X189392381Y-131974285D01*
D12*
X184025724Y-134469533D02*
X184932867Y-134469533D01*
X185114295Y-134530009D01*
X185235248Y-134650961D01*
X185295724Y-134832390D01*
X185295724Y-134953342D01*
X185295724Y-133864771D02*
X184025724Y-133864771D01*
X184025724Y-133380962D01*
X184086200Y-133260009D01*
X184146676Y-133199533D01*
X184267629Y-133139057D01*
X184449057Y-133139057D01*
X184570010Y-133199533D01*
X184630486Y-133260009D01*
X184690962Y-133380962D01*
X184690962Y-133864771D01*
X184449057Y-132050485D02*
X185295724Y-132050485D01*
X183965248Y-132352866D02*
X184872390Y-132655247D01*
X184872390Y-131869057D01*
D17*
X190299524Y-137900952D02*
X189029524Y-137900952D01*
X189029524Y-137417143D01*
X189090000Y-137296190D01*
X189150476Y-137235714D01*
X189271429Y-137175238D01*
X189452857Y-137175238D01*
X189573810Y-137235714D01*
X189634286Y-137296190D01*
X189694762Y-137417143D01*
X189694762Y-137900952D01*
X190299524Y-136630952D02*
X189029524Y-136630952D01*
X190299524Y-136026190D02*
X189029524Y-136026190D01*
X190299524Y-135300476D01*
X189029524Y-135300476D01*
X190299524Y-134695714D02*
X189029524Y-134695714D01*
X189634286Y-134695714D02*
X189634286Y-133970000D01*
X190299524Y-133970000D02*
X189029524Y-133970000D01*
X190299524Y-133365238D02*
X189029524Y-133365238D01*
X189029524Y-133062857D01*
X189090000Y-132881429D01*
X189210952Y-132760476D01*
X189331905Y-132700000D01*
X189573810Y-132639524D01*
X189755238Y-132639524D01*
X189997143Y-132700000D01*
X190118095Y-132760476D01*
X190239048Y-132881429D01*
X190299524Y-133062857D01*
X190299524Y-133365238D01*
X189815714Y-132095238D02*
X189815714Y-131127619D01*
X190299524Y-129857619D02*
X190299524Y-130583333D01*
X190299524Y-130220476D02*
X189029524Y-130220476D01*
X189210952Y-130341428D01*
X189331905Y-130462381D01*
X189392381Y-130583333D01*
X189029524Y-129434285D02*
X190299524Y-128587619D01*
X189029524Y-128587619D02*
X190299524Y-129434285D01*
X190299524Y-127438571D02*
X190299524Y-128164285D01*
X190299524Y-127801428D02*
X189029524Y-127801428D01*
X189210952Y-127922380D01*
X189331905Y-128043333D01*
X189392381Y-128164285D01*
D12*
X184025724Y-130024533D02*
X184932867Y-130024533D01*
X185114295Y-130085009D01*
X185235248Y-130205961D01*
X185295724Y-130387390D01*
X185295724Y-130508342D01*
X185295724Y-129419771D02*
X184025724Y-129419771D01*
X184025724Y-128935962D01*
X184086200Y-128815009D01*
X184146676Y-128754533D01*
X184267629Y-128694057D01*
X184449057Y-128694057D01*
X184570010Y-128754533D01*
X184630486Y-128815009D01*
X184690962Y-128935962D01*
X184690962Y-129419771D01*
X184025724Y-127545009D02*
X184025724Y-128149771D01*
X184630486Y-128210247D01*
X184570010Y-128149771D01*
X184509533Y-128028819D01*
X184509533Y-127726438D01*
X184570010Y-127605485D01*
X184630486Y-127545009D01*
X184751438Y-127484533D01*
X185053819Y-127484533D01*
X185174771Y-127545009D01*
X185235248Y-127605485D01*
X185295724Y-127726438D01*
X185295724Y-128028819D01*
X185235248Y-128149771D01*
X185174771Y-128210247D01*
D17*
X190299524Y-133455952D02*
X189029524Y-133455952D01*
X189029524Y-132972143D01*
X189090000Y-132851190D01*
X189150476Y-132790714D01*
X189271429Y-132730238D01*
X189452857Y-132730238D01*
X189573810Y-132790714D01*
X189634286Y-132851190D01*
X189694762Y-132972143D01*
X189694762Y-133455952D01*
X190299524Y-132185952D02*
X189029524Y-132185952D01*
X190299524Y-131581190D02*
X189029524Y-131581190D01*
X190299524Y-130855476D01*
X189029524Y-130855476D01*
X190299524Y-130250714D02*
X189029524Y-130250714D01*
X189634286Y-130250714D02*
X189634286Y-129525000D01*
X190299524Y-129525000D02*
X189029524Y-129525000D01*
X190299524Y-128920238D02*
X189029524Y-128920238D01*
X189029524Y-128617857D01*
X189090000Y-128436429D01*
X189210952Y-128315476D01*
X189331905Y-128255000D01*
X189573810Y-128194524D01*
X189755238Y-128194524D01*
X189997143Y-128255000D01*
X190118095Y-128315476D01*
X190239048Y-128436429D01*
X190299524Y-128617857D01*
X190299524Y-128920238D01*
X189815714Y-127650238D02*
X189815714Y-126682619D01*
X190299524Y-125412619D02*
X190299524Y-126138333D01*
X190299524Y-125775476D02*
X189029524Y-125775476D01*
X189210952Y-125896428D01*
X189331905Y-126017381D01*
X189392381Y-126138333D01*
X189029524Y-124989285D02*
X190299524Y-124142619D01*
X189029524Y-124142619D02*
X190299524Y-124989285D01*
X190299524Y-122993571D02*
X190299524Y-123719285D01*
X190299524Y-123356428D02*
X189029524Y-123356428D01*
X189210952Y-123477380D01*
X189331905Y-123598333D01*
X189392381Y-123719285D01*
D12*
X184240724Y-119809533D02*
X185147867Y-119809533D01*
X185329295Y-119870009D01*
X185450248Y-119990961D01*
X185510724Y-120172390D01*
X185510724Y-120293342D01*
X185510724Y-119204771D02*
X184240724Y-119204771D01*
X184240724Y-118720962D01*
X184301200Y-118600009D01*
X184361676Y-118539533D01*
X184482629Y-118479057D01*
X184664057Y-118479057D01*
X184785010Y-118539533D01*
X184845486Y-118600009D01*
X184905962Y-118720962D01*
X184905962Y-119204771D01*
X184240724Y-117390485D02*
X184240724Y-117632390D01*
X184301200Y-117753342D01*
X184361676Y-117813819D01*
X184543105Y-117934771D01*
X184785010Y-117995247D01*
X185268819Y-117995247D01*
X185389771Y-117934771D01*
X185450248Y-117874295D01*
X185510724Y-117753342D01*
X185510724Y-117511438D01*
X185450248Y-117390485D01*
X185389771Y-117330009D01*
X185268819Y-117269533D01*
X184966438Y-117269533D01*
X184845486Y-117330009D01*
X184785010Y-117390485D01*
X184724533Y-117511438D01*
X184724533Y-117753342D01*
X184785010Y-117874295D01*
X184845486Y-117934771D01*
X184966438Y-117995247D01*
D17*
X190514524Y-123240952D02*
X189244524Y-123240952D01*
X189244524Y-122757143D01*
X189305000Y-122636190D01*
X189365476Y-122575714D01*
X189486429Y-122515238D01*
X189667857Y-122515238D01*
X189788810Y-122575714D01*
X189849286Y-122636190D01*
X189909762Y-122757143D01*
X189909762Y-123240952D01*
X190514524Y-121970952D02*
X189244524Y-121970952D01*
X190514524Y-121366190D02*
X189244524Y-121366190D01*
X190514524Y-120640476D01*
X189244524Y-120640476D01*
X190514524Y-120035714D02*
X189244524Y-120035714D01*
X189849286Y-120035714D02*
X189849286Y-119310000D01*
X190514524Y-119310000D02*
X189244524Y-119310000D01*
X190514524Y-118705238D02*
X189244524Y-118705238D01*
X189244524Y-118402857D01*
X189305000Y-118221429D01*
X189425952Y-118100476D01*
X189546905Y-118040000D01*
X189788810Y-117979524D01*
X189970238Y-117979524D01*
X190212143Y-118040000D01*
X190333095Y-118100476D01*
X190454048Y-118221429D01*
X190514524Y-118402857D01*
X190514524Y-118705238D01*
X190030714Y-117435238D02*
X190030714Y-116467619D01*
X190514524Y-115197619D02*
X190514524Y-115923333D01*
X190514524Y-115560476D02*
X189244524Y-115560476D01*
X189425952Y-115681428D01*
X189546905Y-115802381D01*
X189607381Y-115923333D01*
X189244524Y-114774285D02*
X190514524Y-113927619D01*
X189244524Y-113927619D02*
X190514524Y-114774285D01*
X190514524Y-112778571D02*
X190514524Y-113504285D01*
X190514524Y-113141428D02*
X189244524Y-113141428D01*
X189425952Y-113262380D01*
X189546905Y-113383333D01*
X189607381Y-113504285D01*
D12*
X184040724Y-141809533D02*
X184947867Y-141809533D01*
X185129295Y-141870009D01*
X185250248Y-141990961D01*
X185310724Y-142172390D01*
X185310724Y-142293342D01*
X185310724Y-141204771D02*
X184040724Y-141204771D01*
X184040724Y-140720962D01*
X184101200Y-140600009D01*
X184161676Y-140539533D01*
X184282629Y-140479057D01*
X184464057Y-140479057D01*
X184585010Y-140539533D01*
X184645486Y-140600009D01*
X184705962Y-140720962D01*
X184705962Y-141204771D01*
X184040724Y-140055723D02*
X184040724Y-139209057D01*
X185310724Y-139753342D01*
D17*
X190314524Y-145240952D02*
X189044524Y-145240952D01*
X189044524Y-144757143D01*
X189105000Y-144636190D01*
X189165476Y-144575714D01*
X189286429Y-144515238D01*
X189467857Y-144515238D01*
X189588810Y-144575714D01*
X189649286Y-144636190D01*
X189709762Y-144757143D01*
X189709762Y-145240952D01*
X190314524Y-143970952D02*
X189044524Y-143970952D01*
X190314524Y-143366190D02*
X189044524Y-143366190D01*
X190314524Y-142640476D01*
X189044524Y-142640476D01*
X190314524Y-142035714D02*
X189044524Y-142035714D01*
X189649286Y-142035714D02*
X189649286Y-141310000D01*
X190314524Y-141310000D02*
X189044524Y-141310000D01*
X190314524Y-140705238D02*
X189044524Y-140705238D01*
X189044524Y-140402857D01*
X189105000Y-140221429D01*
X189225952Y-140100476D01*
X189346905Y-140040000D01*
X189588810Y-139979524D01*
X189770238Y-139979524D01*
X190012143Y-140040000D01*
X190133095Y-140100476D01*
X190254048Y-140221429D01*
X190314524Y-140402857D01*
X190314524Y-140705238D01*
X189830714Y-139435238D02*
X189830714Y-138467619D01*
X190314524Y-137197619D02*
X190314524Y-137923333D01*
X190314524Y-137560476D02*
X189044524Y-137560476D01*
X189225952Y-137681428D01*
X189346905Y-137802381D01*
X189407381Y-137923333D01*
X189044524Y-136774285D02*
X190314524Y-135927619D01*
X189044524Y-135927619D02*
X190314524Y-136774285D01*
X190314524Y-134778571D02*
X190314524Y-135504285D01*
X190314524Y-135141428D02*
X189044524Y-135141428D01*
X189225952Y-135262380D01*
X189346905Y-135383333D01*
X189407381Y-135504285D01*
D11*
X191923430Y-125904653D02*
X191962135Y-125788539D01*
X191962135Y-125595015D01*
X191923430Y-125517605D01*
X191884726Y-125478901D01*
X191807316Y-125440196D01*
X191729907Y-125440196D01*
X191652497Y-125478901D01*
X191613792Y-125517605D01*
X191575088Y-125595015D01*
X191536383Y-125749834D01*
X191497678Y-125827243D01*
X191458973Y-125865948D01*
X191381564Y-125904653D01*
X191304154Y-125904653D01*
X191226745Y-125865948D01*
X191188040Y-125827243D01*
X191149335Y-125749834D01*
X191149335Y-125556310D01*
X191188040Y-125440196D01*
X191149335Y-125169263D02*
X191962135Y-124975739D01*
X191381564Y-124820920D01*
X191962135Y-124666101D01*
X191149335Y-124472577D01*
X191962135Y-123737187D02*
X191962135Y-124201644D01*
X191962135Y-123969415D02*
X191149335Y-123969415D01*
X191265450Y-124046825D01*
X191342859Y-124124234D01*
X191381564Y-124201644D01*
D16*
X196579855Y-126147646D02*
X196599208Y-126089589D01*
X196599208Y-125992827D01*
X196579855Y-125954123D01*
X196560503Y-125934770D01*
X196521798Y-125915418D01*
X196483093Y-125915418D01*
X196444389Y-125934770D01*
X196425036Y-125954123D01*
X196405684Y-125992827D01*
X196386331Y-126070237D01*
X196366979Y-126108942D01*
X196347627Y-126128294D01*
X196308922Y-126147646D01*
X196270217Y-126147646D01*
X196231512Y-126128294D01*
X196212160Y-126108942D01*
X196192808Y-126070237D01*
X196192808Y-125973475D01*
X196212160Y-125915418D01*
X196192808Y-125779951D02*
X196599208Y-125683189D01*
X196308922Y-125605779D01*
X196599208Y-125528370D01*
X196192808Y-125431608D01*
X196599208Y-125063913D02*
X196599208Y-125296141D01*
X196599208Y-125180027D02*
X196192808Y-125180027D01*
X196250865Y-125218732D01*
X196289570Y-125257437D01*
X196308922Y-125296141D01*
D18*
X171459266Y-112759943D02*
X171439914Y-112779295D01*
X171381857Y-112798648D01*
X171343152Y-112798648D01*
X171285095Y-112779295D01*
X171246390Y-112740590D01*
X171227038Y-112701886D01*
X171207686Y-112624476D01*
X171207686Y-112566419D01*
X171227038Y-112489010D01*
X171246390Y-112450305D01*
X171285095Y-112411600D01*
X171343152Y-112392248D01*
X171381857Y-112392248D01*
X171439914Y-112411600D01*
X171459266Y-112430952D01*
X171846314Y-112798648D02*
X171614086Y-112798648D01*
X171730200Y-112798648D02*
X171730200Y-112392248D01*
X171691495Y-112450305D01*
X171652790Y-112489010D01*
X171614086Y-112508362D01*
X170916190Y-114297248D02*
X170954895Y-114297248D01*
X170993600Y-114316600D01*
X171012952Y-114335952D01*
X171032305Y-114374657D01*
X171051657Y-114452067D01*
X171051657Y-114548829D01*
X171032305Y-114626238D01*
X171012952Y-114664943D01*
X170993600Y-114684295D01*
X170954895Y-114703648D01*
X170916190Y-114703648D01*
X170877486Y-114684295D01*
X170858133Y-114664943D01*
X170838781Y-114626238D01*
X170819429Y-114548829D01*
X170819429Y-114452067D01*
X170838781Y-114374657D01*
X170858133Y-114335952D01*
X170877486Y-114316600D01*
X170916190Y-114297248D01*
X171225829Y-114664943D02*
X171245181Y-114684295D01*
X171225829Y-114703648D01*
X171206477Y-114684295D01*
X171225829Y-114664943D01*
X171225829Y-114703648D01*
X171593524Y-114432714D02*
X171593524Y-114703648D01*
X171496762Y-114277895D02*
X171400001Y-114568181D01*
X171651581Y-114568181D01*
X171767696Y-114297248D02*
X172038629Y-114297248D01*
X171864458Y-114703648D01*
X172367620Y-114432714D02*
X172367620Y-114703648D01*
X172193449Y-114432714D02*
X172193449Y-114645590D01*
X172212801Y-114684295D01*
X172251506Y-114703648D01*
X172309563Y-114703648D01*
X172348268Y-114684295D01*
X172367620Y-114664943D01*
D19*
X126526666Y-132127143D02*
X126574285Y-132174762D01*
X126717142Y-132222381D01*
X126812380Y-132222381D01*
X126955238Y-132174762D01*
X127050476Y-132079524D01*
X127098095Y-131984286D01*
X127145714Y-131793810D01*
X127145714Y-131650952D01*
X127098095Y-131460476D01*
X127050476Y-131365238D01*
X126955238Y-131270000D01*
X126812380Y-131222381D01*
X126717142Y-131222381D01*
X126574285Y-131270000D01*
X126526666Y-131317619D01*
X126145714Y-131317619D02*
X126098095Y-131270000D01*
X126002857Y-131222381D01*
X125764761Y-131222381D01*
X125669523Y-131270000D01*
X125621904Y-131317619D01*
X125574285Y-131412857D01*
X125574285Y-131508095D01*
X125621904Y-131650952D01*
X126193333Y-132222381D01*
X125574285Y-132222381D01*
X125776666Y-122777143D02*
X125824285Y-122824762D01*
X125967142Y-122872381D01*
X126062380Y-122872381D01*
X126205238Y-122824762D01*
X126300476Y-122729524D01*
X126348095Y-122634286D01*
X126395714Y-122443810D01*
X126395714Y-122300952D01*
X126348095Y-122110476D01*
X126300476Y-122015238D01*
X126205238Y-121920000D01*
X126062380Y-121872381D01*
X125967142Y-121872381D01*
X125824285Y-121920000D01*
X125776666Y-121967619D01*
X125443333Y-121872381D02*
X124824285Y-121872381D01*
X125157619Y-122253333D01*
X125014761Y-122253333D01*
X124919523Y-122300952D01*
X124871904Y-122348571D01*
X124824285Y-122443810D01*
X124824285Y-122681905D01*
X124871904Y-122777143D01*
X124919523Y-122824762D01*
X125014761Y-122872381D01*
X125300476Y-122872381D01*
X125395714Y-122824762D01*
X125443333Y-122777143D01*
X130326666Y-131172381D02*
X130660000Y-130696190D01*
X130898095Y-131172381D02*
X130898095Y-130172381D01*
X130517142Y-130172381D01*
X130421904Y-130220000D01*
X130374285Y-130267619D01*
X130326666Y-130362857D01*
X130326666Y-130505714D01*
X130374285Y-130600952D01*
X130421904Y-130648571D01*
X130517142Y-130696190D01*
X130898095Y-130696190D01*
X129374285Y-131172381D02*
X129945714Y-131172381D01*
X129660000Y-131172381D02*
X129660000Y-130172381D01*
X129755238Y-130315238D01*
X129850476Y-130410476D01*
X129945714Y-130458095D01*
X127962381Y-126408095D02*
X128771905Y-126408095D01*
X128867143Y-126455714D01*
X128914762Y-126503333D01*
X128962381Y-126598571D01*
X128962381Y-126789048D01*
X128914762Y-126884286D01*
X128867143Y-126931905D01*
X128771905Y-126979524D01*
X127962381Y-126979524D01*
X128057619Y-127408095D02*
X128010000Y-127455714D01*
X127962381Y-127550952D01*
X127962381Y-127789048D01*
X128010000Y-127884286D01*
X128057619Y-127931905D01*
X128152857Y-127979524D01*
X128248095Y-127979524D01*
X128390952Y-127931905D01*
X128962381Y-127360476D01*
X128962381Y-127979524D01*
D11*
X103182495Y-128327981D02*
X103995295Y-127786114D01*
X103182495Y-127786114D02*
X103995295Y-128327981D01*
X103995295Y-127050724D02*
X103995295Y-127515181D01*
X103995295Y-127282952D02*
X103182495Y-127282952D01*
X103298610Y-127360362D01*
X103376019Y-127437771D01*
X103414724Y-127515181D01*
D16*
X104757295Y-130805084D02*
X104776648Y-130747027D01*
X104776648Y-130650265D01*
X104757295Y-130611561D01*
X104737943Y-130592208D01*
X104699238Y-130572856D01*
X104660533Y-130572856D01*
X104621829Y-130592208D01*
X104602476Y-130611561D01*
X104583124Y-130650265D01*
X104563771Y-130727675D01*
X104544419Y-130766380D01*
X104525067Y-130785732D01*
X104486362Y-130805084D01*
X104447657Y-130805084D01*
X104408952Y-130785732D01*
X104389600Y-130766380D01*
X104370248Y-130727675D01*
X104370248Y-130630913D01*
X104389600Y-130572856D01*
X104776648Y-130398684D02*
X104370248Y-130398684D01*
X104660533Y-130263217D01*
X104370248Y-130127751D01*
X104776648Y-130127751D01*
X104660533Y-129953579D02*
X104660533Y-129760056D01*
X104776648Y-129992284D02*
X104370248Y-129856818D01*
X104776648Y-129721351D01*
X104737943Y-129353656D02*
X104757295Y-129373008D01*
X104776648Y-129431065D01*
X104776648Y-129469770D01*
X104757295Y-129527827D01*
X104718590Y-129566532D01*
X104679886Y-129585884D01*
X104602476Y-129605236D01*
X104544419Y-129605236D01*
X104467010Y-129585884D01*
X104428305Y-129566532D01*
X104389600Y-129527827D01*
X104370248Y-129469770D01*
X104370248Y-129431065D01*
X104389600Y-129373008D01*
X104408952Y-129353656D01*
X104370248Y-129102075D02*
X104370248Y-129024665D01*
X104389600Y-128985960D01*
X104428305Y-128947256D01*
X104505714Y-128927903D01*
X104641181Y-128927903D01*
X104718590Y-128947256D01*
X104757295Y-128985960D01*
X104776648Y-129024665D01*
X104776648Y-129102075D01*
X104757295Y-129140779D01*
X104718590Y-129179484D01*
X104641181Y-129198836D01*
X104505714Y-129198836D01*
X104428305Y-129179484D01*
X104389600Y-129140779D01*
X104370248Y-129102075D01*
X104776648Y-128753732D02*
X104370248Y-128753732D01*
X104776648Y-128521504D01*
X104370248Y-128521504D01*
X104776648Y-128327980D02*
X104370248Y-128327980D01*
X104776648Y-128095752D01*
X104370248Y-128095752D01*
X104563771Y-127902228D02*
X104563771Y-127766761D01*
X104776648Y-127708704D02*
X104776648Y-127902228D01*
X104370248Y-127902228D01*
X104370248Y-127708704D01*
X104737943Y-127302305D02*
X104757295Y-127321657D01*
X104776648Y-127379714D01*
X104776648Y-127418419D01*
X104757295Y-127476476D01*
X104718590Y-127515181D01*
X104679886Y-127534533D01*
X104602476Y-127553885D01*
X104544419Y-127553885D01*
X104467010Y-127534533D01*
X104428305Y-127515181D01*
X104389600Y-127476476D01*
X104370248Y-127418419D01*
X104370248Y-127379714D01*
X104389600Y-127321657D01*
X104408952Y-127302305D01*
X104370248Y-127186190D02*
X104370248Y-126953962D01*
X104776648Y-127070076D02*
X104370248Y-127070076D01*
X104370248Y-126741086D02*
X104370248Y-126663676D01*
X104389600Y-126624971D01*
X104428305Y-126586267D01*
X104505714Y-126566914D01*
X104641181Y-126566914D01*
X104718590Y-126586267D01*
X104757295Y-126624971D01*
X104776648Y-126663676D01*
X104776648Y-126741086D01*
X104757295Y-126779790D01*
X104718590Y-126818495D01*
X104641181Y-126837847D01*
X104505714Y-126837847D01*
X104428305Y-126818495D01*
X104389600Y-126779790D01*
X104370248Y-126741086D01*
X104776648Y-126160515D02*
X104583124Y-126295981D01*
X104776648Y-126392743D02*
X104370248Y-126392743D01*
X104370248Y-126237924D01*
X104389600Y-126199219D01*
X104408952Y-126179867D01*
X104447657Y-126160515D01*
X104505714Y-126160515D01*
X104544419Y-126179867D01*
X104563771Y-126199219D01*
X104583124Y-126237924D01*
X104583124Y-126392743D01*
D11*
X106931487Y-124098350D02*
X107047601Y-124137055D01*
X107241125Y-124137055D01*
X107318535Y-124098350D01*
X107357239Y-124059646D01*
X107395944Y-123982236D01*
X107395944Y-123904827D01*
X107357239Y-123827417D01*
X107318535Y-123788712D01*
X107241125Y-123750008D01*
X107086306Y-123711303D01*
X107008897Y-123672598D01*
X106970192Y-123633893D01*
X106931487Y-123556484D01*
X106931487Y-123479074D01*
X106970192Y-123401665D01*
X107008897Y-123362960D01*
X107086306Y-123324255D01*
X107279830Y-123324255D01*
X107395944Y-123362960D01*
X107666877Y-123324255D02*
X107860401Y-124137055D01*
X108015220Y-123556484D01*
X108170039Y-124137055D01*
X108363563Y-123324255D01*
X109098953Y-124137055D02*
X108634496Y-124137055D01*
X108866725Y-124137055D02*
X108866725Y-123324255D01*
X108789315Y-123440370D01*
X108711906Y-123517779D01*
X108634496Y-123556484D01*
D16*
X104277672Y-122780695D02*
X104335729Y-122800048D01*
X104432491Y-122800048D01*
X104471195Y-122780695D01*
X104490548Y-122761343D01*
X104509900Y-122722638D01*
X104509900Y-122683933D01*
X104490548Y-122645229D01*
X104471195Y-122625876D01*
X104432491Y-122606524D01*
X104355081Y-122587171D01*
X104316376Y-122567819D01*
X104297024Y-122548467D01*
X104277672Y-122509762D01*
X104277672Y-122471057D01*
X104297024Y-122432352D01*
X104316376Y-122413000D01*
X104355081Y-122393648D01*
X104451843Y-122393648D01*
X104509900Y-122413000D01*
X104645367Y-122393648D02*
X104742129Y-122800048D01*
X104819539Y-122509762D01*
X104896948Y-122800048D01*
X104993710Y-122393648D01*
X105148529Y-122800048D02*
X105148529Y-122393648D01*
X105283996Y-122393648D02*
X105516224Y-122393648D01*
X105400110Y-122800048D02*
X105400110Y-122393648D01*
X105883919Y-122761343D02*
X105864567Y-122780695D01*
X105806510Y-122800048D01*
X105767805Y-122800048D01*
X105709748Y-122780695D01*
X105671043Y-122741990D01*
X105651691Y-122703286D01*
X105632339Y-122625876D01*
X105632339Y-122567819D01*
X105651691Y-122490410D01*
X105671043Y-122451705D01*
X105709748Y-122413000D01*
X105767805Y-122393648D01*
X105806510Y-122393648D01*
X105864567Y-122413000D01*
X105883919Y-122432352D01*
X106058091Y-122800048D02*
X106058091Y-122393648D01*
X106058091Y-122587171D02*
X106290319Y-122587171D01*
X106290319Y-122800048D02*
X106290319Y-122393648D01*
X106387081Y-122838752D02*
X106696719Y-122838752D01*
X106793481Y-122800048D02*
X106793481Y-122393648D01*
X106948300Y-122393648D01*
X106987005Y-122413000D01*
X107006357Y-122432352D01*
X107025709Y-122471057D01*
X107025709Y-122529114D01*
X107006357Y-122567819D01*
X106987005Y-122587171D01*
X106948300Y-122606524D01*
X106793481Y-122606524D01*
X107199881Y-122393648D02*
X107199881Y-122722638D01*
X107219233Y-122761343D01*
X107238586Y-122780695D01*
X107277290Y-122800048D01*
X107354700Y-122800048D01*
X107393405Y-122780695D01*
X107412757Y-122761343D01*
X107432109Y-122722638D01*
X107432109Y-122393648D01*
X107606281Y-122780695D02*
X107664338Y-122800048D01*
X107761100Y-122800048D01*
X107799804Y-122780695D01*
X107819157Y-122761343D01*
X107838509Y-122722638D01*
X107838509Y-122683933D01*
X107819157Y-122645229D01*
X107799804Y-122625876D01*
X107761100Y-122606524D01*
X107683690Y-122587171D01*
X107644985Y-122567819D01*
X107625633Y-122548467D01*
X107606281Y-122509762D01*
X107606281Y-122471057D01*
X107625633Y-122432352D01*
X107644985Y-122413000D01*
X107683690Y-122393648D01*
X107780452Y-122393648D01*
X107838509Y-122413000D01*
X108012681Y-122800048D02*
X108012681Y-122393648D01*
X108012681Y-122587171D02*
X108244909Y-122587171D01*
X108244909Y-122800048D02*
X108244909Y-122393648D01*
X108573900Y-122587171D02*
X108631957Y-122606524D01*
X108651309Y-122625876D01*
X108670661Y-122664581D01*
X108670661Y-122722638D01*
X108651309Y-122761343D01*
X108631957Y-122780695D01*
X108593252Y-122800048D01*
X108438433Y-122800048D01*
X108438433Y-122393648D01*
X108573900Y-122393648D01*
X108612604Y-122413000D01*
X108631957Y-122432352D01*
X108651309Y-122471057D01*
X108651309Y-122509762D01*
X108631957Y-122548467D01*
X108612604Y-122567819D01*
X108573900Y-122587171D01*
X108438433Y-122587171D01*
X108844833Y-122393648D02*
X108844833Y-122722638D01*
X108864185Y-122761343D01*
X108883538Y-122780695D01*
X108922242Y-122800048D01*
X108999652Y-122800048D01*
X109038357Y-122780695D01*
X109057709Y-122761343D01*
X109077061Y-122722638D01*
X109077061Y-122393648D01*
X109212528Y-122393648D02*
X109444756Y-122393648D01*
X109328642Y-122800048D02*
X109328642Y-122393648D01*
X109522166Y-122393648D02*
X109754394Y-122393648D01*
X109638280Y-122800048D02*
X109638280Y-122393648D01*
X109967270Y-122393648D02*
X110044680Y-122393648D01*
X110083385Y-122413000D01*
X110122089Y-122451705D01*
X110141442Y-122529114D01*
X110141442Y-122664581D01*
X110122089Y-122741990D01*
X110083385Y-122780695D01*
X110044680Y-122800048D01*
X109967270Y-122800048D01*
X109928566Y-122780695D01*
X109889861Y-122741990D01*
X109870509Y-122664581D01*
X109870509Y-122529114D01*
X109889861Y-122451705D01*
X109928566Y-122413000D01*
X109967270Y-122393648D01*
X110315613Y-122800048D02*
X110315613Y-122393648D01*
X110547841Y-122800048D01*
X110547841Y-122393648D01*
X110973593Y-122761343D02*
X110954241Y-122780695D01*
X110896184Y-122800048D01*
X110857479Y-122800048D01*
X110799422Y-122780695D01*
X110760717Y-122741990D01*
X110741365Y-122703286D01*
X110722013Y-122625876D01*
X110722013Y-122567819D01*
X110741365Y-122490410D01*
X110760717Y-122451705D01*
X110799422Y-122413000D01*
X110857479Y-122393648D01*
X110896184Y-122393648D01*
X110954241Y-122413000D01*
X110973593Y-122432352D01*
X111476755Y-122800048D02*
X111457403Y-122800048D01*
X111418698Y-122780695D01*
X111360641Y-122722638D01*
X111263879Y-122606524D01*
X111225174Y-122548467D01*
X111205822Y-122490410D01*
X111205822Y-122451705D01*
X111225174Y-122413000D01*
X111263879Y-122393648D01*
X111283232Y-122393648D01*
X111321936Y-122413000D01*
X111341289Y-122451705D01*
X111341289Y-122471057D01*
X111321936Y-122509762D01*
X111302584Y-122529114D01*
X111186470Y-122606524D01*
X111167117Y-122625876D01*
X111147765Y-122664581D01*
X111147765Y-122722638D01*
X111167117Y-122761343D01*
X111186470Y-122780695D01*
X111225174Y-122800048D01*
X111283232Y-122800048D01*
X111321936Y-122780695D01*
X111341289Y-122761343D01*
X111399346Y-122683933D01*
X111418698Y-122625876D01*
X111418698Y-122587171D01*
X111650927Y-122800048D02*
X111650927Y-122393648D01*
X111883155Y-122800048D02*
X111708984Y-122567819D01*
X111883155Y-122393648D02*
X111650927Y-122625876D01*
X111960565Y-122838752D02*
X112270203Y-122838752D01*
X112366965Y-122800048D02*
X112366965Y-122393648D01*
X112599193Y-122800048D02*
X112425022Y-122567819D01*
X112599193Y-122393648D02*
X112366965Y-122625876D01*
X112754013Y-122780695D02*
X112812070Y-122800048D01*
X112908832Y-122800048D01*
X112947536Y-122780695D01*
X112966889Y-122761343D01*
X112986241Y-122722638D01*
X112986241Y-122683933D01*
X112966889Y-122645229D01*
X112947536Y-122625876D01*
X112908832Y-122606524D01*
X112831422Y-122587171D01*
X112792717Y-122567819D01*
X112773365Y-122548467D01*
X112754013Y-122509762D01*
X112754013Y-122471057D01*
X112773365Y-122432352D01*
X112792717Y-122413000D01*
X112831422Y-122393648D01*
X112928184Y-122393648D01*
X112986241Y-122413000D01*
X113141061Y-122780695D02*
X113199118Y-122800048D01*
X113295880Y-122800048D01*
X113334584Y-122780695D01*
X113353937Y-122761343D01*
X113373289Y-122722638D01*
X113373289Y-122683933D01*
X113353937Y-122645229D01*
X113334584Y-122625876D01*
X113295880Y-122606524D01*
X113218470Y-122587171D01*
X113179765Y-122567819D01*
X113160413Y-122548467D01*
X113141061Y-122509762D01*
X113141061Y-122471057D01*
X113160413Y-122432352D01*
X113179765Y-122413000D01*
X113218470Y-122393648D01*
X113315232Y-122393648D01*
X113373289Y-122413000D01*
X117341543Y-136256543D02*
X117428629Y-136285571D01*
X117573772Y-136285571D01*
X117631829Y-136256543D01*
X117660858Y-136227514D01*
X117689886Y-136169457D01*
X117689886Y-136111400D01*
X117660858Y-136053343D01*
X117631829Y-136024314D01*
X117573772Y-135995286D01*
X117457658Y-135966257D01*
X117399600Y-135937229D01*
X117370572Y-135908200D01*
X117341543Y-135850143D01*
X117341543Y-135792086D01*
X117370572Y-135734029D01*
X117399600Y-135705000D01*
X117457658Y-135675971D01*
X117602800Y-135675971D01*
X117689886Y-135705000D01*
X118270457Y-136285571D02*
X117922114Y-136285571D01*
X118096286Y-136285571D02*
X118096286Y-135675971D01*
X118038229Y-135763057D01*
X117980171Y-135821114D01*
X117922114Y-135850143D01*
X113321086Y-134351543D02*
X113408172Y-134380571D01*
X113553315Y-134380571D01*
X113611372Y-134351543D01*
X113640401Y-134322514D01*
X113669429Y-134264457D01*
X113669429Y-134206400D01*
X113640401Y-134148343D01*
X113611372Y-134119314D01*
X113553315Y-134090286D01*
X113437201Y-134061257D01*
X113379143Y-134032229D01*
X113350115Y-134003200D01*
X113321086Y-133945143D01*
X113321086Y-133887086D01*
X113350115Y-133829029D01*
X113379143Y-133800000D01*
X113437201Y-133770971D01*
X113582343Y-133770971D01*
X113669429Y-133800000D01*
X113872629Y-133770971D02*
X114017772Y-134380571D01*
X114133886Y-133945143D01*
X114250000Y-134380571D01*
X114395143Y-133770971D01*
X114627372Y-134380571D02*
X114627372Y-133770971D01*
X114830572Y-133770971D02*
X115178915Y-133770971D01*
X115004744Y-134380571D02*
X115004744Y-133770971D01*
X115730458Y-134322514D02*
X115701429Y-134351543D01*
X115614343Y-134380571D01*
X115556286Y-134380571D01*
X115469201Y-134351543D01*
X115411143Y-134293486D01*
X115382115Y-134235429D01*
X115353086Y-134119314D01*
X115353086Y-134032229D01*
X115382115Y-133916114D01*
X115411143Y-133858057D01*
X115469201Y-133800000D01*
X115556286Y-133770971D01*
X115614343Y-133770971D01*
X115701429Y-133800000D01*
X115730458Y-133829029D01*
X115991715Y-134380571D02*
X115991715Y-133770971D01*
X115991715Y-134061257D02*
X116340058Y-134061257D01*
X116340058Y-134380571D02*
X116340058Y-133770971D01*
X116630344Y-134148343D02*
X117094801Y-134148343D01*
X117356058Y-134351543D02*
X117443144Y-134380571D01*
X117588287Y-134380571D01*
X117646344Y-134351543D01*
X117675373Y-134322514D01*
X117704401Y-134264457D01*
X117704401Y-134206400D01*
X117675373Y-134148343D01*
X117646344Y-134119314D01*
X117588287Y-134090286D01*
X117472173Y-134061257D01*
X117414115Y-134032229D01*
X117385087Y-134003200D01*
X117356058Y-133945143D01*
X117356058Y-133887086D01*
X117385087Y-133829029D01*
X117414115Y-133800000D01*
X117472173Y-133770971D01*
X117617315Y-133770971D01*
X117704401Y-133800000D01*
X117965658Y-134380571D02*
X117965658Y-133770971D01*
X118197886Y-133770971D01*
X118255944Y-133800000D01*
X118284972Y-133829029D01*
X118314001Y-133887086D01*
X118314001Y-133974171D01*
X118284972Y-134032229D01*
X118255944Y-134061257D01*
X118197886Y-134090286D01*
X117965658Y-134090286D01*
X118575258Y-134380571D02*
X118575258Y-133770971D01*
X118720401Y-133770971D01*
X118807486Y-133800000D01*
X118865544Y-133858057D01*
X118894572Y-133916114D01*
X118923601Y-134032229D01*
X118923601Y-134119314D01*
X118894572Y-134235429D01*
X118865544Y-134293486D01*
X118807486Y-134351543D01*
X118720401Y-134380571D01*
X118575258Y-134380571D01*
X119097772Y-133770971D02*
X119446115Y-133770971D01*
X119271944Y-134380571D02*
X119271944Y-133770971D01*
X119649315Y-134380571D02*
X119649315Y-133770971D01*
X119881543Y-133770971D01*
X119939601Y-133800000D01*
X119968629Y-133829029D01*
X119997658Y-133887086D01*
X119997658Y-133974171D01*
X119968629Y-134032229D01*
X119939601Y-134061257D01*
X119881543Y-134090286D01*
X119649315Y-134090286D01*
X120171829Y-133770971D02*
X120520172Y-133770971D01*
X120346001Y-134380571D02*
X120346001Y-133770971D01*
X120723372Y-134380571D02*
X120723372Y-133770971D01*
X120723372Y-134061257D02*
X121071715Y-134061257D01*
X121071715Y-134380571D02*
X121071715Y-133770971D01*
X121332972Y-133829029D02*
X121362001Y-133800000D01*
X121420058Y-133770971D01*
X121565201Y-133770971D01*
X121623258Y-133800000D01*
X121652287Y-133829029D01*
X121681315Y-133887086D01*
X121681315Y-133945143D01*
X121652287Y-134032229D01*
X121303944Y-134380571D01*
X121681315Y-134380571D01*
M02*
