G04 #@! TF.FileFunction,Soldermask,Bot*
%FSLAX46Y46*%
G04 Gerber Fmt 4.6, Leading zero omitted, Abs format (unit mm)*
G04 Created by KiCad (PCBNEW 4.0.6-e0-6349~53~ubuntu14.04.1) date Thu Apr  6 15:25:57 2017*
%MOMM*%
%LPD*%
G01*
G04 APERTURE LIST*
%ADD10C,0.100000*%
%ADD11O,3.048000X1.524000*%
%ADD12C,2.500000*%
%ADD13R,0.800000X0.750000*%
%ADD14R,1.700000X1.700000*%
%ADD15O,1.700000X1.700000*%
%ADD16R,0.500000X0.900000*%
%ADD17R,0.650000X1.060000*%
%ADD18O,1.524000X3.048000*%
%ADD19C,0.600000*%
G04 APERTURE END LIST*
D10*
D11*
X157531140Y-58230000D03*
X157531140Y-60770000D03*
X157531140Y-63310000D03*
X157531140Y-65850000D03*
X157531140Y-68390000D03*
X157531140Y-70930000D03*
X157531140Y-73470000D03*
X157531140Y-76010000D03*
X157531140Y-78550000D03*
X157531140Y-81090000D03*
X157531140Y-83630000D03*
X157531140Y-86170000D03*
X157531140Y-88710000D03*
X157531140Y-91250000D03*
X157531140Y-93790000D03*
X157531140Y-96330000D03*
X157531140Y-98870000D03*
X157531140Y-101410000D03*
X194638000Y-101410000D03*
X194638000Y-98870000D03*
X194638000Y-96330000D03*
X194638000Y-93790000D03*
X194638000Y-91250000D03*
X194638000Y-88710000D03*
X194638000Y-86170000D03*
X194638000Y-83630000D03*
X194638000Y-81090000D03*
X194638000Y-78550000D03*
X194638000Y-76010000D03*
X194638000Y-73470000D03*
X194638000Y-70930000D03*
X194638000Y-68390000D03*
X194638000Y-65850000D03*
X194638000Y-63310000D03*
X194638000Y-60770000D03*
X194638000Y-58230000D03*
D12*
X141020000Y-54820000D03*
X107320000Y-86720000D03*
D13*
X124270000Y-59120000D03*
X122770000Y-59120000D03*
X123520000Y-65470000D03*
X125020000Y-65470000D03*
D14*
X110320000Y-61780000D03*
D15*
X110320000Y-64320000D03*
X110320000Y-66860000D03*
D14*
X139020000Y-80970000D03*
D15*
X139020000Y-78430000D03*
X139020000Y-75890000D03*
D14*
X142520000Y-88720000D03*
D15*
X139980000Y-88720000D03*
X137440000Y-88720000D03*
D14*
X110520000Y-80460000D03*
D15*
X110520000Y-77920000D03*
X110520000Y-75380000D03*
X110520000Y-72840000D03*
D14*
X113020000Y-88720000D03*
D15*
X115560000Y-88720000D03*
X118100000Y-88720000D03*
X120640000Y-88720000D03*
X123180000Y-88720000D03*
X125720000Y-88720000D03*
X128260000Y-88720000D03*
X130800000Y-88720000D03*
D14*
X143270000Y-78320000D03*
D15*
X143270000Y-80860000D03*
D14*
X122180000Y-56120000D03*
D15*
X124720000Y-56120000D03*
D16*
X120470000Y-60120000D03*
X118970000Y-60120000D03*
D17*
X123320000Y-61120000D03*
X124270000Y-61120000D03*
X125220000Y-61120000D03*
X125220000Y-63320000D03*
X123320000Y-63320000D03*
D14*
X116120000Y-56020000D03*
D18*
X154390000Y-146028860D03*
X156930000Y-146028860D03*
X159470000Y-146028860D03*
X162010000Y-146028860D03*
X164550000Y-146028860D03*
X167090000Y-146028860D03*
X169630000Y-146028860D03*
X172170000Y-146028860D03*
X174710000Y-146028860D03*
X177250000Y-146028860D03*
X179790000Y-146028860D03*
X182330000Y-146028860D03*
X184870000Y-146028860D03*
X187410000Y-146028860D03*
X189950000Y-146028860D03*
X192490000Y-146028860D03*
X195030000Y-146028860D03*
X197570000Y-146028860D03*
X197570000Y-108922000D03*
X195030000Y-108922000D03*
X192490000Y-108922000D03*
X189950000Y-108922000D03*
X187410000Y-108922000D03*
X184870000Y-108922000D03*
X182330000Y-108922000D03*
X179790000Y-108922000D03*
X177250000Y-108922000D03*
X174710000Y-108922000D03*
X172170000Y-108922000D03*
X169630000Y-108922000D03*
X167090000Y-108922000D03*
X164550000Y-108922000D03*
X162010000Y-108922000D03*
X159470000Y-108922000D03*
X156930000Y-108922000D03*
X154390000Y-108922000D03*
D12*
X108860000Y-134570000D03*
X142560000Y-102670000D03*
D13*
X125610000Y-130270000D03*
X127110000Y-130270000D03*
X126360000Y-123920000D03*
X124860000Y-123920000D03*
D14*
X139560000Y-127610000D03*
D15*
X139560000Y-125070000D03*
X139560000Y-122530000D03*
D14*
X110860000Y-108420000D03*
D15*
X110860000Y-110960000D03*
X110860000Y-113500000D03*
D14*
X107360000Y-100670000D03*
D15*
X109900000Y-100670000D03*
X112440000Y-100670000D03*
D14*
X139360000Y-108930000D03*
D15*
X139360000Y-111470000D03*
X139360000Y-114010000D03*
X139360000Y-116550000D03*
D14*
X136860000Y-100670000D03*
D15*
X134320000Y-100670000D03*
X131780000Y-100670000D03*
X129240000Y-100670000D03*
X126700000Y-100670000D03*
X124160000Y-100670000D03*
X121620000Y-100670000D03*
X119080000Y-100670000D03*
D14*
X106610000Y-111070000D03*
D15*
X106610000Y-108530000D03*
D14*
X127700000Y-133270000D03*
D15*
X125160000Y-133270000D03*
D16*
X129410000Y-129270000D03*
X130910000Y-129270000D03*
D17*
X126560000Y-128270000D03*
X125610000Y-128270000D03*
X124660000Y-128270000D03*
X124660000Y-126070000D03*
X126560000Y-126070000D03*
D14*
X133760000Y-133370000D03*
D19*
X145720000Y-70520000D03*
X111520000Y-69120000D03*
X104160000Y-118870000D03*
X138360000Y-120270000D03*
X112120000Y-59020000D03*
X135520000Y-83220000D03*
X130420000Y-65320000D03*
X136920000Y-71520000D03*
X113320000Y-59920000D03*
X132520000Y-63920000D03*
X117120000Y-69720000D03*
X136120000Y-79720000D03*
X132120000Y-60920000D03*
X122120000Y-81720000D03*
X117320000Y-79920000D03*
X137760000Y-130370000D03*
X114360000Y-106170000D03*
X119460000Y-124070000D03*
X112960000Y-117870000D03*
X136560000Y-129470000D03*
X117360000Y-125470000D03*
X132760000Y-119670000D03*
X113760000Y-109670000D03*
X117760000Y-128470000D03*
X127760000Y-107670000D03*
X132560000Y-109470000D03*
X115320000Y-58320000D03*
X121320000Y-66520000D03*
X122920000Y-66920000D03*
X131120000Y-70120000D03*
X136720000Y-70320000D03*
X134560000Y-131070000D03*
X128560000Y-122870000D03*
X126960000Y-122470000D03*
X118760000Y-119270000D03*
X113160000Y-119070000D03*
X121620000Y-61620000D03*
X128260000Y-127770000D03*
X133920000Y-84520000D03*
X133920000Y-89920000D03*
X115960000Y-104870000D03*
X115960000Y-99470000D03*
X131720000Y-81720000D03*
X118160000Y-107670000D03*
X129720000Y-81720000D03*
X120160000Y-107670000D03*
X128320000Y-79920000D03*
X121560000Y-109470000D03*
X119020000Y-58820000D03*
X130860000Y-130570000D03*
X126720000Y-61120000D03*
X123160000Y-128270000D03*
M02*
