%FSLAX45Y45*%
G04 Gerber Fmt 4.5, Leading zero omitted, Abs format (unit mm)*
G04 Created by KiCad (PCBNEW 4.0.6-e0-6349~53~ubuntu14.04.1) date Thu Apr  6 15:26:07 2017*
%MOMM*%
%LPD*%
G01*
G04 APERTURE LIST*
%ADD10C,0.127000*%
%ADD11C,0.100000*%
%ADD12C,0.200000*%
%ADD13C,0.300000*%
G04 APERTURE END LIST*
D10*
D11*
X10000000Y-5000000D02*
X10000000Y-15000000D01*
X20000000Y-5000000D02*
X10000000Y-5000000D01*
X20000000Y-15000000D02*
X20000000Y-5000000D01*
X10000000Y-15000000D02*
X20000000Y-15000000D01*
X14537000Y-11599000D02*
X14536000Y-9817000D01*
X14781000Y-11599000D02*
X14537000Y-11599000D01*
X14780000Y-10469000D02*
X14781000Y-11599000D01*
X14781000Y-12063000D02*
X14780000Y-14877000D01*
X14536000Y-12063000D02*
X14781000Y-12063000D01*
X14536000Y-13467000D02*
X14536000Y-12063000D01*
X18178000Y-10321000D02*
X19888000Y-10320000D01*
X18178000Y-10465000D02*
X18178000Y-10321000D01*
X19930000Y-10465000D02*
X18178000Y-10465000D01*
X17490000Y-10467000D02*
X14780000Y-10468000D01*
X17490000Y-10314000D02*
X17490000Y-10467000D01*
X17047000Y-10314000D02*
X17490000Y-10314000D01*
X15469000Y-10315000D02*
X17047000Y-10314000D01*
X15469000Y-7147000D02*
X15468000Y-5163000D01*
X14653000Y-7147000D02*
X15469000Y-7147000D01*
X14652000Y-5323000D02*
X14653000Y-7147000D01*
X15469000Y-7726000D02*
X15469000Y-10314000D01*
X14651000Y-7726000D02*
X15469000Y-7726000D01*
X14652000Y-9121000D02*
X14651000Y-7726000D01*
X12834000Y-9667000D02*
X14388000Y-9667000D01*
X12834000Y-9271000D02*
X12834000Y-9667000D01*
X14500000Y-9272000D02*
X12834000Y-9271000D01*
X12165000Y-9665000D02*
X10487000Y-9667000D01*
X12165000Y-9272000D02*
X12165000Y-9665000D01*
X10602000Y-9272000D02*
X12165000Y-9272000D01*
X15468000Y-5164000D02*
X15478000Y-5164000D01*
X19888000Y-5164000D02*
X19888000Y-10314000D01*
X15468000Y-5164000D02*
X19888000Y-5164000D01*
X14499000Y-5172000D02*
X10752000Y-5172000D01*
X10452000Y-5473000D02*
X10452000Y-9126000D01*
X14652000Y-5322000D02*
G75*
G03X14502000Y-5172000I-150000J0D01*
G01*
X14502000Y-9272000D02*
G75*
G03X14652000Y-9122000I0J150000D01*
G01*
X10452000Y-9122000D02*
G75*
G03X10602000Y-9272000I150000J0D01*
G01*
X10752000Y-5172000D02*
G75*
G03X10452000Y-5472000I0J-300000D01*
G01*
X14780000Y-14888000D02*
X14780000Y-14878000D01*
X19930000Y-14888000D02*
X14780000Y-14888000D01*
X19930000Y-10468000D02*
X19930000Y-14888000D01*
X10489000Y-13767000D02*
X14236000Y-13767000D01*
X10336000Y-9818000D02*
X10336000Y-13618000D01*
X10336000Y-13617000D02*
G75*
G03X10486000Y-13767000I150000J0D01*
G01*
X10486000Y-9667000D02*
G75*
G03X10336000Y-9817000I0J-150000D01*
G01*
X14536000Y-9817000D02*
G75*
G03X14386000Y-9667000I-150000J0D01*
G01*
X14236000Y-13767000D02*
G75*
G03X14536000Y-13467000I0J300000D01*
G01*
D12*
X10607000Y-8547000D02*
X10857000Y-8797000D01*
X10857000Y-8547000D02*
X10607000Y-8797000D01*
X10761000Y-13332000D02*
X11011000Y-13582000D01*
X11011000Y-13332000D02*
X10761000Y-13582000D01*
X13977000Y-5357000D02*
X14227000Y-5607000D01*
X14227000Y-5357000D02*
X13977000Y-5607000D01*
X14131000Y-10142000D02*
X14381000Y-10392000D01*
X14381000Y-10142000D02*
X14131000Y-10392000D01*
D13*
X10266429Y-15470714D02*
X10266429Y-15170714D01*
X10337857Y-15170714D01*
X10380714Y-15185000D01*
X10409286Y-15213571D01*
X10423571Y-15242143D01*
X10437857Y-15299286D01*
X10437857Y-15342143D01*
X10423571Y-15399286D01*
X10409286Y-15427857D01*
X10380714Y-15456429D01*
X10337857Y-15470714D01*
X10266429Y-15470714D01*
X10566429Y-15470714D02*
X10566429Y-15270714D01*
X10566429Y-15327857D02*
X10580714Y-15299286D01*
X10595000Y-15285000D01*
X10623571Y-15270714D01*
X10652143Y-15270714D01*
X10752143Y-15470714D02*
X10752143Y-15270714D01*
X10752143Y-15170714D02*
X10737857Y-15185000D01*
X10752143Y-15199286D01*
X10766429Y-15185000D01*
X10752143Y-15170714D01*
X10752143Y-15199286D01*
X10937857Y-15470714D02*
X10909286Y-15456429D01*
X10895000Y-15427857D01*
X10895000Y-15170714D01*
X11095000Y-15470714D02*
X11066429Y-15456429D01*
X11052143Y-15427857D01*
X11052143Y-15170714D01*
X11437857Y-15470714D02*
X11437857Y-15170714D01*
X11537857Y-15385000D01*
X11637857Y-15170714D01*
X11637857Y-15470714D01*
X11909286Y-15470714D02*
X11909286Y-15313571D01*
X11895000Y-15285000D01*
X11866428Y-15270714D01*
X11809286Y-15270714D01*
X11780714Y-15285000D01*
X11909286Y-15456429D02*
X11880714Y-15470714D01*
X11809286Y-15470714D01*
X11780714Y-15456429D01*
X11766428Y-15427857D01*
X11766428Y-15399286D01*
X11780714Y-15370714D01*
X11809286Y-15356429D01*
X11880714Y-15356429D01*
X11909286Y-15342143D01*
X12052143Y-15270714D02*
X12052143Y-15570714D01*
X12052143Y-15285000D02*
X12080714Y-15270714D01*
X12137857Y-15270714D01*
X12166428Y-15285000D01*
X12180714Y-15299286D01*
X12195000Y-15327857D01*
X12195000Y-15413571D01*
X12180714Y-15442143D01*
X12166428Y-15456429D01*
X12137857Y-15470714D01*
X12080714Y-15470714D01*
X12052143Y-15456429D01*
X12323571Y-15442143D02*
X12337857Y-15456429D01*
X12323571Y-15470714D01*
X12309286Y-15456429D01*
X12323571Y-15442143D01*
X12323571Y-15470714D01*
X12323571Y-15285000D02*
X12337857Y-15299286D01*
X12323571Y-15313571D01*
X12309286Y-15299286D01*
X12323571Y-15285000D01*
X12323571Y-15313571D01*
X9745000Y-15840000D02*
X9995000Y-16090000D01*
X9995000Y-15840000D02*
X9745000Y-16090000D01*
X10252143Y-15829286D02*
X10266429Y-15815000D01*
X10295000Y-15800714D01*
X10366429Y-15800714D01*
X10395000Y-15815000D01*
X10409286Y-15829286D01*
X10423571Y-15857857D01*
X10423571Y-15886429D01*
X10409286Y-15929286D01*
X10237857Y-16100714D01*
X10423571Y-16100714D01*
X10552143Y-16072143D02*
X10566429Y-16086429D01*
X10552143Y-16100714D01*
X10537857Y-16086429D01*
X10552143Y-16072143D01*
X10552143Y-16100714D01*
X10837857Y-15800714D02*
X10695000Y-15800714D01*
X10680714Y-15943571D01*
X10695000Y-15929286D01*
X10723571Y-15915000D01*
X10795000Y-15915000D01*
X10823571Y-15929286D01*
X10837857Y-15943571D01*
X10852143Y-15972143D01*
X10852143Y-16043571D01*
X10837857Y-16072143D01*
X10823571Y-16086429D01*
X10795000Y-16100714D01*
X10723571Y-16100714D01*
X10695000Y-16086429D01*
X10680714Y-16072143D01*
X11037857Y-15800714D02*
X11066429Y-15800714D01*
X11095000Y-15815000D01*
X11109286Y-15829286D01*
X11123571Y-15857857D01*
X11137857Y-15915000D01*
X11137857Y-15986429D01*
X11123571Y-16043571D01*
X11109286Y-16072143D01*
X11095000Y-16086429D01*
X11066429Y-16100714D01*
X11037857Y-16100714D01*
X11009286Y-16086429D01*
X10995000Y-16072143D01*
X10980714Y-16043571D01*
X10966429Y-15986429D01*
X10966429Y-15915000D01*
X10980714Y-15857857D01*
X10995000Y-15829286D01*
X11009286Y-15815000D01*
X11037857Y-15800714D01*
X11266428Y-16100714D02*
X11266428Y-15900714D01*
X11266428Y-15929286D02*
X11280714Y-15915000D01*
X11309286Y-15900714D01*
X11352143Y-15900714D01*
X11380714Y-15915000D01*
X11395000Y-15943571D01*
X11395000Y-16100714D01*
X11395000Y-15943571D02*
X11409286Y-15915000D01*
X11437857Y-15900714D01*
X11480714Y-15900714D01*
X11509286Y-15915000D01*
X11523571Y-15943571D01*
X11523571Y-16100714D01*
X11666428Y-16100714D02*
X11666428Y-15900714D01*
X11666428Y-15929286D02*
X11680714Y-15915000D01*
X11709286Y-15900714D01*
X11752143Y-15900714D01*
X11780714Y-15915000D01*
X11795000Y-15943571D01*
X11795000Y-16100714D01*
X11795000Y-15943571D02*
X11809286Y-15915000D01*
X11837857Y-15900714D01*
X11880714Y-15900714D01*
X11909286Y-15915000D01*
X11923571Y-15943571D01*
X11923571Y-16100714D01*
X12509286Y-15786429D02*
X12252143Y-16172143D01*
X12895000Y-15800714D02*
X12923571Y-15800714D01*
X12952143Y-15815000D01*
X12966428Y-15829286D01*
X12980714Y-15857857D01*
X12995000Y-15915000D01*
X12995000Y-15986429D01*
X12980714Y-16043571D01*
X12966428Y-16072143D01*
X12952143Y-16086429D01*
X12923571Y-16100714D01*
X12895000Y-16100714D01*
X12866428Y-16086429D01*
X12852143Y-16072143D01*
X12837857Y-16043571D01*
X12823571Y-15986429D01*
X12823571Y-15915000D01*
X12837857Y-15857857D01*
X12852143Y-15829286D01*
X12866428Y-15815000D01*
X12895000Y-15800714D01*
X13123571Y-16072143D02*
X13137857Y-16086429D01*
X13123571Y-16100714D01*
X13109286Y-16086429D01*
X13123571Y-16072143D01*
X13123571Y-16100714D01*
X13323571Y-15800714D02*
X13352143Y-15800714D01*
X13380714Y-15815000D01*
X13395000Y-15829286D01*
X13409285Y-15857857D01*
X13423571Y-15915000D01*
X13423571Y-15986429D01*
X13409285Y-16043571D01*
X13395000Y-16072143D01*
X13380714Y-16086429D01*
X13352143Y-16100714D01*
X13323571Y-16100714D01*
X13295000Y-16086429D01*
X13280714Y-16072143D01*
X13266428Y-16043571D01*
X13252143Y-15986429D01*
X13252143Y-15915000D01*
X13266428Y-15857857D01*
X13280714Y-15829286D01*
X13295000Y-15815000D01*
X13323571Y-15800714D01*
X13566428Y-16100714D02*
X13623571Y-16100714D01*
X13652143Y-16086429D01*
X13666428Y-16072143D01*
X13695000Y-16029286D01*
X13709285Y-15972143D01*
X13709285Y-15857857D01*
X13695000Y-15829286D01*
X13680714Y-15815000D01*
X13652143Y-15800714D01*
X13595000Y-15800714D01*
X13566428Y-15815000D01*
X13552143Y-15829286D01*
X13537857Y-15857857D01*
X13537857Y-15929286D01*
X13552143Y-15957857D01*
X13566428Y-15972143D01*
X13595000Y-15986429D01*
X13652143Y-15986429D01*
X13680714Y-15972143D01*
X13695000Y-15957857D01*
X13709285Y-15929286D01*
X13880714Y-15929286D02*
X13852143Y-15915000D01*
X13837857Y-15900714D01*
X13823571Y-15872143D01*
X13823571Y-15857857D01*
X13837857Y-15829286D01*
X13852143Y-15815000D01*
X13880714Y-15800714D01*
X13937857Y-15800714D01*
X13966428Y-15815000D01*
X13980714Y-15829286D01*
X13995000Y-15857857D01*
X13995000Y-15872143D01*
X13980714Y-15900714D01*
X13966428Y-15915000D01*
X13937857Y-15929286D01*
X13880714Y-15929286D01*
X13852143Y-15943571D01*
X13837857Y-15957857D01*
X13823571Y-15986429D01*
X13823571Y-16043571D01*
X13837857Y-16072143D01*
X13852143Y-16086429D01*
X13880714Y-16100714D01*
X13937857Y-16100714D01*
X13966428Y-16086429D01*
X13980714Y-16072143D01*
X13995000Y-16043571D01*
X13995000Y-15986429D01*
X13980714Y-15957857D01*
X13966428Y-15943571D01*
X13937857Y-15929286D01*
X14109286Y-15800714D02*
X14109286Y-15857857D01*
X14223571Y-15800714D02*
X14223571Y-15857857D01*
X14666428Y-16215000D02*
X14652143Y-16200714D01*
X14623571Y-16157857D01*
X14609285Y-16129286D01*
X14595000Y-16086429D01*
X14580714Y-16015000D01*
X14580714Y-15957857D01*
X14595000Y-15886429D01*
X14609285Y-15843571D01*
X14623571Y-15815000D01*
X14652143Y-15772143D01*
X14666428Y-15757857D01*
X14909285Y-15900714D02*
X14909285Y-16100714D01*
X14837857Y-15786429D02*
X14766428Y-16000714D01*
X14952143Y-16000714D01*
X15295000Y-16100714D02*
X15295000Y-15800714D01*
X15423571Y-16100714D02*
X15423571Y-15943571D01*
X15409285Y-15915000D01*
X15380714Y-15900714D01*
X15337857Y-15900714D01*
X15309285Y-15915000D01*
X15295000Y-15929286D01*
X15609285Y-16100714D02*
X15580714Y-16086429D01*
X15566428Y-16072143D01*
X15552143Y-16043571D01*
X15552143Y-15957857D01*
X15566428Y-15929286D01*
X15580714Y-15915000D01*
X15609285Y-15900714D01*
X15652143Y-15900714D01*
X15680714Y-15915000D01*
X15695000Y-15929286D01*
X15709285Y-15957857D01*
X15709285Y-16043571D01*
X15695000Y-16072143D01*
X15680714Y-16086429D01*
X15652143Y-16100714D01*
X15609285Y-16100714D01*
X15880714Y-16100714D02*
X15852143Y-16086429D01*
X15837857Y-16057857D01*
X15837857Y-15800714D01*
X16109286Y-16086429D02*
X16080714Y-16100714D01*
X16023571Y-16100714D01*
X15995000Y-16086429D01*
X15980714Y-16057857D01*
X15980714Y-15943571D01*
X15995000Y-15915000D01*
X16023571Y-15900714D01*
X16080714Y-15900714D01*
X16109286Y-15915000D01*
X16123571Y-15943571D01*
X16123571Y-15972143D01*
X15980714Y-16000714D01*
X16237857Y-16086429D02*
X16266428Y-16100714D01*
X16323571Y-16100714D01*
X16352143Y-16086429D01*
X16366428Y-16057857D01*
X16366428Y-16043571D01*
X16352143Y-16015000D01*
X16323571Y-16000714D01*
X16280714Y-16000714D01*
X16252143Y-15986429D01*
X16237857Y-15957857D01*
X16237857Y-15943571D01*
X16252143Y-15915000D01*
X16280714Y-15900714D01*
X16323571Y-15900714D01*
X16352143Y-15915000D01*
X16466428Y-16215000D02*
X16480714Y-16200714D01*
X16509286Y-16157857D01*
X16523571Y-16129286D01*
X16537857Y-16086429D01*
X16552143Y-16015000D01*
X16552143Y-15957857D01*
X16537857Y-15886429D01*
X16523571Y-15843571D01*
X16509286Y-15815000D01*
X16480714Y-15772143D01*
X16466428Y-15757857D01*
X17009286Y-16215000D02*
X16995000Y-16200714D01*
X16966428Y-16157857D01*
X16952143Y-16129286D01*
X16937857Y-16086429D01*
X16923571Y-16015000D01*
X16923571Y-15957857D01*
X16937857Y-15886429D01*
X16952143Y-15843571D01*
X16966428Y-15815000D01*
X16995000Y-15772143D01*
X17009286Y-15757857D01*
X17123571Y-15900714D02*
X17123571Y-16100714D01*
X17123571Y-15929286D02*
X17137857Y-15915000D01*
X17166428Y-15900714D01*
X17209286Y-15900714D01*
X17237857Y-15915000D01*
X17252143Y-15943571D01*
X17252143Y-16100714D01*
X17437857Y-16100714D02*
X17409286Y-16086429D01*
X17395000Y-16072143D01*
X17380714Y-16043571D01*
X17380714Y-15957857D01*
X17395000Y-15929286D01*
X17409286Y-15915000D01*
X17437857Y-15900714D01*
X17480714Y-15900714D01*
X17509286Y-15915000D01*
X17523571Y-15929286D01*
X17537857Y-15957857D01*
X17537857Y-16043571D01*
X17523571Y-16072143D01*
X17509286Y-16086429D01*
X17480714Y-16100714D01*
X17437857Y-16100714D01*
X17623571Y-15900714D02*
X17737857Y-15900714D01*
X17666429Y-15800714D02*
X17666429Y-16057857D01*
X17680714Y-16086429D01*
X17709286Y-16100714D01*
X17737857Y-16100714D01*
X18066429Y-15900714D02*
X18066429Y-16200714D01*
X18066429Y-15915000D02*
X18095000Y-15900714D01*
X18152143Y-15900714D01*
X18180714Y-15915000D01*
X18195000Y-15929286D01*
X18209286Y-15957857D01*
X18209286Y-16043571D01*
X18195000Y-16072143D01*
X18180714Y-16086429D01*
X18152143Y-16100714D01*
X18095000Y-16100714D01*
X18066429Y-16086429D01*
X18380714Y-16100714D02*
X18352143Y-16086429D01*
X18337857Y-16057857D01*
X18337857Y-15800714D01*
X18623571Y-16100714D02*
X18623571Y-15943571D01*
X18609286Y-15915000D01*
X18580714Y-15900714D01*
X18523571Y-15900714D01*
X18495000Y-15915000D01*
X18623571Y-16086429D02*
X18595000Y-16100714D01*
X18523571Y-16100714D01*
X18495000Y-16086429D01*
X18480714Y-16057857D01*
X18480714Y-16029286D01*
X18495000Y-16000714D01*
X18523571Y-15986429D01*
X18595000Y-15986429D01*
X18623571Y-15972143D01*
X18723571Y-15900714D02*
X18837857Y-15900714D01*
X18766429Y-15800714D02*
X18766429Y-16057857D01*
X18780714Y-16086429D01*
X18809286Y-16100714D01*
X18837857Y-16100714D01*
X19052143Y-16086429D02*
X19023572Y-16100714D01*
X18966429Y-16100714D01*
X18937857Y-16086429D01*
X18923572Y-16057857D01*
X18923572Y-15943571D01*
X18937857Y-15915000D01*
X18966429Y-15900714D01*
X19023572Y-15900714D01*
X19052143Y-15915000D01*
X19066429Y-15943571D01*
X19066429Y-15972143D01*
X18923572Y-16000714D01*
X19323572Y-16100714D02*
X19323572Y-15800714D01*
X19323572Y-16086429D02*
X19295000Y-16100714D01*
X19237857Y-16100714D01*
X19209286Y-16086429D01*
X19195000Y-16072143D01*
X19180714Y-16043571D01*
X19180714Y-15957857D01*
X19195000Y-15929286D01*
X19209286Y-15915000D01*
X19237857Y-15900714D01*
X19295000Y-15900714D01*
X19323572Y-15915000D01*
X19437857Y-16215000D02*
X19452143Y-16200714D01*
X19480714Y-16157857D01*
X19495000Y-16129286D01*
X19509286Y-16086429D01*
X19523572Y-16015000D01*
X19523572Y-15957857D01*
X19509286Y-15886429D01*
X19495000Y-15843571D01*
X19480714Y-15815000D01*
X19452143Y-15772143D01*
X19437857Y-15757857D01*
M02*
