%FSLAX45Y45*%
G04 Gerber Fmt 4.5, Leading zero omitted, Abs format (unit mm)*
G04 Created by KiCad (PCBNEW 4.0.6-e0-6349~53~ubuntu14.04.1) date Thu Apr  6 15:26:07 2017*
%MOMM*%
%LPD*%
G01*
G04 APERTURE LIST*
%ADD10C,0.127000*%
%ADD11C,0.100000*%
%ADD12C,0.200000*%
%ADD13C,0.300000*%
G04 APERTURE END LIST*
D10*
D11*
X10000000Y-5000000D02*
X10000000Y-15000000D01*
X20000000Y-5000000D02*
X10000000Y-5000000D01*
X20000000Y-15000000D02*
X20000000Y-5000000D01*
X10000000Y-15000000D02*
X20000000Y-15000000D01*
X14537000Y-11599000D02*
X14536000Y-9817000D01*
X14781000Y-11599000D02*
X14537000Y-11599000D01*
X14780000Y-10469000D02*
X14781000Y-11599000D01*
X14781000Y-12063000D02*
X14780000Y-14877000D01*
X14536000Y-12063000D02*
X14781000Y-12063000D01*
X14536000Y-13467000D02*
X14536000Y-12063000D01*
X18178000Y-10321000D02*
X19888000Y-10320000D01*
X18178000Y-10465000D02*
X18178000Y-10321000D01*
X19930000Y-10465000D02*
X18178000Y-10465000D01*
X17490000Y-10467000D02*
X14780000Y-10468000D01*
X17490000Y-10314000D02*
X17490000Y-10467000D01*
X17047000Y-10314000D02*
X17490000Y-10314000D01*
X15469000Y-10315000D02*
X17047000Y-10314000D01*
X15469000Y-7147000D02*
X15468000Y-5163000D01*
X14653000Y-7147000D02*
X15469000Y-7147000D01*
X14652000Y-5323000D02*
X14653000Y-7147000D01*
X15469000Y-7726000D02*
X15469000Y-10314000D01*
X14651000Y-7726000D02*
X15469000Y-7726000D01*
X14652000Y-9121000D02*
X14651000Y-7726000D01*
X12834000Y-9667000D02*
X14388000Y-9667000D01*
X12834000Y-9271000D02*
X12834000Y-9667000D01*
X14500000Y-9272000D02*
X12834000Y-9271000D01*
X12165000Y-9665000D02*
X10487000Y-9667000D01*
X12165000Y-9272000D02*
X12165000Y-9665000D01*
X10602000Y-9272000D02*
X12165000Y-9272000D01*
X15468000Y-5164000D02*
X15478000Y-5164000D01*
X19888000Y-5164000D02*
X19888000Y-10314000D01*
X15468000Y-5164000D02*
X19888000Y-5164000D01*
X14499000Y-5172000D02*
X10752000Y-5172000D01*
X10452000Y-5473000D02*
X10452000Y-9126000D01*
X14652000Y-5322000D02*
G75*
G03X14502000Y-5172000I-150000J0D01*
G01*
X14502000Y-9272000D02*
G75*
G03X14652000Y-9122000I0J150000D01*
G01*
X10452000Y-9122000D02*
G75*
G03X10602000Y-9272000I150000J0D01*
G01*
X10752000Y-5172000D02*
G75*
G03X10452000Y-5472000I0J-300000D01*
G01*
X14780000Y-14888000D02*
X14780000Y-14878000D01*
X19930000Y-14888000D02*
X14780000Y-14888000D01*
X19930000Y-10468000D02*
X19930000Y-14888000D01*
X10489000Y-13767000D02*
X14236000Y-13767000D01*
X10336000Y-9818000D02*
X10336000Y-13618000D01*
X10336000Y-13617000D02*
G75*
G03X10486000Y-13767000I150000J0D01*
G01*
X10486000Y-9667000D02*
G75*
G03X10336000Y-9817000I0J-150000D01*
G01*
X14536000Y-9817000D02*
G75*
G03X14386000Y-9667000I-150000J0D01*
G01*
X14236000Y-13767000D02*
G75*
G03X14536000Y-13467000I0J300000D01*
G01*
D12*
X10396000Y-11867000D02*
X10436000Y-11907000D01*
X10436000Y-11867000D02*
X10396000Y-11907000D01*
X11132000Y-6892000D02*
X11172000Y-6932000D01*
X11172000Y-6892000D02*
X11132000Y-6932000D01*
X11192000Y-5882000D02*
X11232000Y-5922000D01*
X11232000Y-5882000D02*
X11192000Y-5922000D01*
X11276000Y-11767000D02*
X11316000Y-11807000D01*
X11316000Y-11767000D02*
X11276000Y-11807000D01*
X11296000Y-11887000D02*
X11336000Y-11927000D01*
X11336000Y-11887000D02*
X11296000Y-11927000D01*
X11312000Y-5972000D02*
X11352000Y-6012000D01*
X11352000Y-5972000D02*
X11312000Y-6012000D01*
X11356000Y-10947000D02*
X11396000Y-10987000D01*
X11396000Y-10947000D02*
X11356000Y-10987000D01*
X11416000Y-10597000D02*
X11456000Y-10637000D01*
X11456000Y-10597000D02*
X11416000Y-10637000D01*
X11512000Y-5812000D02*
X11552000Y-5852000D01*
X11552000Y-5812000D02*
X11512000Y-5852000D01*
X11576000Y-9927000D02*
X11616000Y-9967000D01*
X11616000Y-9927000D02*
X11576000Y-9967000D01*
X11576000Y-10467000D02*
X11616000Y-10507000D01*
X11616000Y-10467000D02*
X11576000Y-10507000D01*
X11692000Y-6952000D02*
X11732000Y-6992000D01*
X11732000Y-6952000D02*
X11692000Y-6992000D01*
X11712000Y-7972000D02*
X11752000Y-8012000D01*
X11752000Y-7972000D02*
X11712000Y-8012000D01*
X11716000Y-12527000D02*
X11756000Y-12567000D01*
X11756000Y-12527000D02*
X11716000Y-12567000D01*
X11756000Y-12827000D02*
X11796000Y-12867000D01*
X11796000Y-12827000D02*
X11756000Y-12867000D01*
X11796000Y-10747000D02*
X11836000Y-10787000D01*
X11836000Y-10747000D02*
X11796000Y-10787000D01*
X11856000Y-11907000D02*
X11896000Y-11947000D01*
X11896000Y-11907000D02*
X11856000Y-11947000D01*
X11882000Y-5862000D02*
X11922000Y-5902000D01*
X11922000Y-5862000D02*
X11882000Y-5902000D01*
X11926000Y-12387000D02*
X11966000Y-12427000D01*
X11966000Y-12387000D02*
X11926000Y-12427000D01*
X11996000Y-10747000D02*
X12036000Y-10787000D01*
X12036000Y-10747000D02*
X11996000Y-10787000D01*
X12112000Y-6632000D02*
X12152000Y-6672000D01*
X12152000Y-6632000D02*
X12112000Y-6672000D01*
X12136000Y-10927000D02*
X12176000Y-10967000D01*
X12176000Y-10927000D02*
X12136000Y-10967000D01*
X12142000Y-6142000D02*
X12182000Y-6182000D01*
X12182000Y-6142000D02*
X12142000Y-6182000D01*
X12192000Y-8152000D02*
X12232000Y-8192000D01*
X12232000Y-8152000D02*
X12192000Y-8192000D01*
X12272000Y-6672000D02*
X12312000Y-6712000D01*
X12312000Y-6672000D02*
X12272000Y-6712000D01*
X12296000Y-12807000D02*
X12336000Y-12847000D01*
X12336000Y-12807000D02*
X12296000Y-12847000D01*
X12652000Y-6092000D02*
X12692000Y-6132000D01*
X12692000Y-6092000D02*
X12652000Y-6132000D01*
X12676000Y-12227000D02*
X12716000Y-12267000D01*
X12716000Y-12227000D02*
X12676000Y-12267000D01*
X12756000Y-10747000D02*
X12796000Y-10787000D01*
X12796000Y-10747000D02*
X12756000Y-10787000D01*
X12806000Y-12757000D02*
X12846000Y-12797000D01*
X12846000Y-12757000D02*
X12806000Y-12797000D01*
X12812000Y-7972000D02*
X12852000Y-8012000D01*
X12852000Y-7972000D02*
X12812000Y-8012000D01*
X12836000Y-12267000D02*
X12876000Y-12307000D01*
X12876000Y-12267000D02*
X12836000Y-12307000D01*
X12952000Y-8152000D02*
X12992000Y-8192000D01*
X12992000Y-8152000D02*
X12952000Y-8192000D01*
X13022000Y-6512000D02*
X13062000Y-6552000D01*
X13062000Y-6512000D02*
X13022000Y-6552000D01*
X13066000Y-13037000D02*
X13106000Y-13077000D01*
X13106000Y-13037000D02*
X13066000Y-13077000D01*
X13092000Y-6992000D02*
X13132000Y-7032000D01*
X13132000Y-6992000D02*
X13092000Y-7032000D01*
X13152000Y-8152000D02*
X13192000Y-8192000D01*
X13192000Y-8152000D02*
X13152000Y-8192000D01*
X13192000Y-6072000D02*
X13232000Y-6112000D01*
X13232000Y-6072000D02*
X13192000Y-6112000D01*
X13232000Y-6372000D02*
X13272000Y-6412000D01*
X13272000Y-6372000D02*
X13232000Y-6412000D01*
X13236000Y-10927000D02*
X13276000Y-10967000D01*
X13276000Y-10927000D02*
X13236000Y-10967000D01*
X13256000Y-11947000D02*
X13296000Y-11987000D01*
X13296000Y-11947000D02*
X13256000Y-11987000D01*
X13372000Y-8432000D02*
X13412000Y-8472000D01*
X13412000Y-8432000D02*
X13372000Y-8472000D01*
X13372000Y-8972000D02*
X13412000Y-9012000D01*
X13412000Y-8972000D02*
X13372000Y-9012000D01*
X13436000Y-13087000D02*
X13476000Y-13127000D01*
X13476000Y-13087000D02*
X13436000Y-13127000D01*
X13532000Y-8302000D02*
X13572000Y-8342000D01*
X13572000Y-8302000D02*
X13532000Y-8342000D01*
X13592000Y-7952000D02*
X13632000Y-7992000D01*
X13632000Y-7952000D02*
X13592000Y-7992000D01*
X13636000Y-12927000D02*
X13676000Y-12967000D01*
X13676000Y-12927000D02*
X13636000Y-12967000D01*
X13652000Y-7012000D02*
X13692000Y-7052000D01*
X13692000Y-7012000D02*
X13652000Y-7052000D01*
X13672000Y-7132000D02*
X13712000Y-7172000D01*
X13712000Y-7132000D02*
X13672000Y-7172000D01*
X13756000Y-13017000D02*
X13796000Y-13057000D01*
X13796000Y-13017000D02*
X13756000Y-13057000D01*
X13816000Y-12007000D02*
X13856000Y-12047000D01*
X13856000Y-12007000D02*
X13816000Y-12047000D01*
X14552000Y-7032000D02*
X14592000Y-7072000D01*
X14592000Y-7032000D02*
X14552000Y-7072000D01*
X10711000Y-10853000D02*
G75*
G03X10711000Y-10853000I-50000J0D01*
G01*
X10711000Y-11107000D02*
G75*
G03X10711000Y-11107000I-50000J0D01*
G01*
X10786000Y-10067000D02*
G75*
G03X10786000Y-10067000I-50000J0D01*
G01*
X11040000Y-10067000D02*
G75*
G03X11040000Y-10067000I-50000J0D01*
G01*
X11082000Y-6178000D02*
G75*
G03X11082000Y-6178000I-50000J0D01*
G01*
X11082000Y-6432000D02*
G75*
G03X11082000Y-6432000I-50000J0D01*
G01*
X11082000Y-6686000D02*
G75*
G03X11082000Y-6686000I-50000J0D01*
G01*
X11102000Y-7284000D02*
G75*
G03X11102000Y-7284000I-50000J0D01*
G01*
X11102000Y-7538000D02*
G75*
G03X11102000Y-7538000I-50000J0D01*
G01*
X11102000Y-7792000D02*
G75*
G03X11102000Y-7792000I-50000J0D01*
G01*
X11102000Y-8046000D02*
G75*
G03X11102000Y-8046000I-50000J0D01*
G01*
X11136000Y-10842000D02*
G75*
G03X11136000Y-10842000I-50000J0D01*
G01*
X11136000Y-11096000D02*
G75*
G03X11136000Y-11096000I-50000J0D01*
G01*
X11136000Y-11350000D02*
G75*
G03X11136000Y-11350000I-50000J0D01*
G01*
X11294000Y-10067000D02*
G75*
G03X11294000Y-10067000I-50000J0D01*
G01*
X11352000Y-8872000D02*
G75*
G03X11352000Y-8872000I-50000J0D01*
G01*
X11606000Y-8872000D02*
G75*
G03X11606000Y-8872000I-50000J0D01*
G01*
X11662000Y-5602000D02*
G75*
G03X11662000Y-5602000I-50000J0D01*
G01*
X11860000Y-8872000D02*
G75*
G03X11860000Y-8872000I-50000J0D01*
G01*
X11958000Y-10067000D02*
G75*
G03X11958000Y-10067000I-50000J0D01*
G01*
X12114000Y-8872000D02*
G75*
G03X12114000Y-8872000I-50000J0D01*
G01*
X12212000Y-10067000D02*
G75*
G03X12212000Y-10067000I-50000J0D01*
G01*
X12268000Y-5612000D02*
G75*
G03X12268000Y-5612000I-50000J0D01*
G01*
X12368000Y-8872000D02*
G75*
G03X12368000Y-8872000I-50000J0D01*
G01*
X12466000Y-10067000D02*
G75*
G03X12466000Y-10067000I-50000J0D01*
G01*
X12522000Y-5612000D02*
G75*
G03X12522000Y-5612000I-50000J0D01*
G01*
X12566000Y-13327000D02*
G75*
G03X12566000Y-13327000I-50000J0D01*
G01*
X12622000Y-8872000D02*
G75*
G03X12622000Y-8872000I-50000J0D01*
G01*
X12720000Y-10067000D02*
G75*
G03X12720000Y-10067000I-50000J0D01*
G01*
X12820000Y-13327000D02*
G75*
G03X12820000Y-13327000I-50000J0D01*
G01*
X12876000Y-8872000D02*
G75*
G03X12876000Y-8872000I-50000J0D01*
G01*
X12974000Y-10067000D02*
G75*
G03X12974000Y-10067000I-50000J0D01*
G01*
X13130000Y-8872000D02*
G75*
G03X13130000Y-8872000I-50000J0D01*
G01*
X13228000Y-10067000D02*
G75*
G03X13228000Y-10067000I-50000J0D01*
G01*
X13426000Y-13337000D02*
G75*
G03X13426000Y-13337000I-50000J0D01*
G01*
X13482000Y-10067000D02*
G75*
G03X13482000Y-10067000I-50000J0D01*
G01*
X13736000Y-10067000D02*
G75*
G03X13736000Y-10067000I-50000J0D01*
G01*
X13794000Y-8872000D02*
G75*
G03X13794000Y-8872000I-50000J0D01*
G01*
X13952000Y-7589000D02*
G75*
G03X13952000Y-7589000I-50000J0D01*
G01*
X13952000Y-7843000D02*
G75*
G03X13952000Y-7843000I-50000J0D01*
G01*
X13952000Y-8097000D02*
G75*
G03X13952000Y-8097000I-50000J0D01*
G01*
X13986000Y-10893000D02*
G75*
G03X13986000Y-10893000I-50000J0D01*
G01*
X13986000Y-11147000D02*
G75*
G03X13986000Y-11147000I-50000J0D01*
G01*
X13986000Y-11401000D02*
G75*
G03X13986000Y-11401000I-50000J0D01*
G01*
X13986000Y-11655000D02*
G75*
G03X13986000Y-11655000I-50000J0D01*
G01*
X14006000Y-12253000D02*
G75*
G03X14006000Y-12253000I-50000J0D01*
G01*
X14006000Y-12507000D02*
G75*
G03X14006000Y-12507000I-50000J0D01*
G01*
X14006000Y-12761000D02*
G75*
G03X14006000Y-12761000I-50000J0D01*
G01*
X14048000Y-8872000D02*
G75*
G03X14048000Y-8872000I-50000J0D01*
G01*
X14302000Y-8872000D02*
G75*
G03X14302000Y-8872000I-50000J0D01*
G01*
X14377000Y-7832000D02*
G75*
G03X14377000Y-7832000I-50000J0D01*
G01*
X14377000Y-8086000D02*
G75*
G03X14377000Y-8086000I-50000J0D01*
G01*
X15439000Y-10841400D02*
X15439000Y-10943000D01*
X15388200Y-10892200D02*
X15489800Y-10892200D01*
X15439000Y-14552086D02*
X15439000Y-14653686D01*
X15388200Y-14602886D02*
X15489800Y-14602886D01*
X15693000Y-10841400D02*
X15693000Y-10943000D01*
X15642200Y-10892200D02*
X15743800Y-10892200D01*
X15693000Y-14552086D02*
X15693000Y-14653686D01*
X15642200Y-14602886D02*
X15743800Y-14602886D01*
X15753114Y-5772200D02*
X15753114Y-5873800D01*
X15702314Y-5823000D02*
X15803914Y-5823000D01*
X15753114Y-6026200D02*
X15753114Y-6127800D01*
X15702314Y-6077000D02*
X15803914Y-6077000D01*
X15753114Y-6280200D02*
X15753114Y-6381800D01*
X15702314Y-6331000D02*
X15803914Y-6331000D01*
X15753114Y-6534200D02*
X15753114Y-6635800D01*
X15702314Y-6585000D02*
X15803914Y-6585000D01*
X15753114Y-6788200D02*
X15753114Y-6889800D01*
X15702314Y-6839000D02*
X15803914Y-6839000D01*
X15753114Y-7042200D02*
X15753114Y-7143800D01*
X15702314Y-7093000D02*
X15803914Y-7093000D01*
X15753114Y-7296200D02*
X15753114Y-7397800D01*
X15702314Y-7347000D02*
X15803914Y-7347000D01*
X15753114Y-7550200D02*
X15753114Y-7651800D01*
X15702314Y-7601000D02*
X15803914Y-7601000D01*
X15753114Y-7804200D02*
X15753114Y-7905800D01*
X15702314Y-7855000D02*
X15803914Y-7855000D01*
X15753114Y-8058200D02*
X15753114Y-8159800D01*
X15702314Y-8109000D02*
X15803914Y-8109000D01*
X15753114Y-8312200D02*
X15753114Y-8413800D01*
X15702314Y-8363000D02*
X15803914Y-8363000D01*
X15753114Y-8566200D02*
X15753114Y-8667800D01*
X15702314Y-8617000D02*
X15803914Y-8617000D01*
X15753114Y-8820200D02*
X15753114Y-8921800D01*
X15702314Y-8871000D02*
X15803914Y-8871000D01*
X15753114Y-9074200D02*
X15753114Y-9175800D01*
X15702314Y-9125000D02*
X15803914Y-9125000D01*
X15753114Y-9328200D02*
X15753114Y-9429800D01*
X15702314Y-9379000D02*
X15803914Y-9379000D01*
X15753114Y-9582200D02*
X15753114Y-9683800D01*
X15702314Y-9633000D02*
X15803914Y-9633000D01*
X15753114Y-9836200D02*
X15753114Y-9937800D01*
X15702314Y-9887000D02*
X15803914Y-9887000D01*
X15753114Y-10090200D02*
X15753114Y-10191800D01*
X15702314Y-10141000D02*
X15803914Y-10141000D01*
X15947000Y-10841400D02*
X15947000Y-10943000D01*
X15896200Y-10892200D02*
X15997800Y-10892200D01*
X15947000Y-14552086D02*
X15947000Y-14653686D01*
X15896200Y-14602886D02*
X15997800Y-14602886D01*
X16098000Y-9053200D02*
X16098000Y-9154800D01*
X16047200Y-9104000D02*
X16148800Y-9104000D01*
X16201000Y-10841400D02*
X16201000Y-10943000D01*
X16150200Y-10892200D02*
X16251800Y-10892200D01*
X16201000Y-14552086D02*
X16201000Y-14653686D01*
X16150200Y-14602886D02*
X16251800Y-14602886D01*
X16451000Y-9051700D02*
X16451000Y-9153300D01*
X16400200Y-9102500D02*
X16501800Y-9102500D01*
X16455000Y-10841400D02*
X16455000Y-10943000D01*
X16404200Y-10892200D02*
X16505800Y-10892200D01*
X16455000Y-14552086D02*
X16455000Y-14653686D01*
X16404200Y-14602886D02*
X16505800Y-14602886D01*
X16709000Y-10841400D02*
X16709000Y-10943000D01*
X16658200Y-10892200D02*
X16759800Y-10892200D01*
X16709000Y-14552086D02*
X16709000Y-14653686D01*
X16658200Y-14602886D02*
X16759800Y-14602886D01*
X16832000Y-9051700D02*
X16832000Y-9153300D01*
X16781200Y-9102500D02*
X16882800Y-9102500D01*
X16963000Y-10841400D02*
X16963000Y-10943000D01*
X16912200Y-10892200D02*
X17013800Y-10892200D01*
X16963000Y-14552086D02*
X16963000Y-14653686D01*
X16912200Y-14602886D02*
X17013800Y-14602886D01*
X17217000Y-10841400D02*
X17217000Y-10943000D01*
X17166200Y-10892200D02*
X17267800Y-10892200D01*
X17217000Y-14552086D02*
X17217000Y-14653686D01*
X17166200Y-14602886D02*
X17267800Y-14602886D01*
X17276500Y-9051700D02*
X17276500Y-9153300D01*
X17225700Y-9102500D02*
X17327300Y-9102500D01*
X17471000Y-10841400D02*
X17471000Y-10943000D01*
X17420200Y-10892200D02*
X17521800Y-10892200D01*
X17471000Y-14552086D02*
X17471000Y-14653686D01*
X17420200Y-14602886D02*
X17521800Y-14602886D01*
X17725000Y-10841400D02*
X17725000Y-10943000D01*
X17674200Y-10892200D02*
X17775800Y-10892200D01*
X17725000Y-14552086D02*
X17725000Y-14653686D01*
X17674200Y-14602886D02*
X17775800Y-14602886D01*
X17979000Y-10841400D02*
X17979000Y-10943000D01*
X17928200Y-10892200D02*
X18029800Y-10892200D01*
X17979000Y-14552086D02*
X17979000Y-14653686D01*
X17928200Y-14602886D02*
X18029800Y-14602886D01*
X18233000Y-10841400D02*
X18233000Y-10943000D01*
X18182200Y-10892200D02*
X18283800Y-10892200D01*
X18233000Y-14552086D02*
X18233000Y-14653686D01*
X18182200Y-14602886D02*
X18283800Y-14602886D01*
X18298000Y-9073200D02*
X18298000Y-9174800D01*
X18247200Y-9124000D02*
X18348800Y-9124000D01*
X18487000Y-10841400D02*
X18487000Y-10943000D01*
X18436200Y-10892200D02*
X18537800Y-10892200D01*
X18487000Y-14552086D02*
X18487000Y-14653686D01*
X18436200Y-14602886D02*
X18537800Y-14602886D01*
X18718500Y-13028700D02*
X18718500Y-13130300D01*
X18667700Y-13079500D02*
X18769300Y-13079500D01*
X18718500Y-13473200D02*
X18718500Y-13574800D01*
X18667700Y-13524000D02*
X18769300Y-13524000D01*
X18718500Y-13854200D02*
X18718500Y-13955800D01*
X18667700Y-13905000D02*
X18769300Y-13905000D01*
X18720000Y-14207200D02*
X18720000Y-14308800D01*
X18669200Y-14258000D02*
X18770800Y-14258000D01*
X18740000Y-12007200D02*
X18740000Y-12108800D01*
X18689200Y-12058000D02*
X18790800Y-12058000D01*
X18741000Y-10841400D02*
X18741000Y-10943000D01*
X18690200Y-10892200D02*
X18791800Y-10892200D01*
X18741000Y-14552086D02*
X18741000Y-14653686D01*
X18690200Y-14602886D02*
X18791800Y-14602886D01*
X18995000Y-10841400D02*
X18995000Y-10943000D01*
X18944200Y-10892200D02*
X19045800Y-10892200D01*
X18995000Y-14552086D02*
X18995000Y-14653686D01*
X18944200Y-14602886D02*
X19045800Y-14602886D01*
X19249000Y-10841400D02*
X19249000Y-10943000D01*
X19198200Y-10892200D02*
X19299800Y-10892200D01*
X19249000Y-14552086D02*
X19249000Y-14653686D01*
X19198200Y-14602886D02*
X19299800Y-14602886D01*
X19463800Y-5772200D02*
X19463800Y-5873800D01*
X19413000Y-5823000D02*
X19514600Y-5823000D01*
X19463800Y-6026200D02*
X19463800Y-6127800D01*
X19413000Y-6077000D02*
X19514600Y-6077000D01*
X19463800Y-6280200D02*
X19463800Y-6381800D01*
X19413000Y-6331000D02*
X19514600Y-6331000D01*
X19463800Y-6534200D02*
X19463800Y-6635800D01*
X19413000Y-6585000D02*
X19514600Y-6585000D01*
X19463800Y-6788200D02*
X19463800Y-6889800D01*
X19413000Y-6839000D02*
X19514600Y-6839000D01*
X19463800Y-7042200D02*
X19463800Y-7143800D01*
X19413000Y-7093000D02*
X19514600Y-7093000D01*
X19463800Y-7296200D02*
X19463800Y-7397800D01*
X19413000Y-7347000D02*
X19514600Y-7347000D01*
X19463800Y-7550200D02*
X19463800Y-7651800D01*
X19413000Y-7601000D02*
X19514600Y-7601000D01*
X19463800Y-7804200D02*
X19463800Y-7905800D01*
X19413000Y-7855000D02*
X19514600Y-7855000D01*
X19463800Y-8058200D02*
X19463800Y-8159800D01*
X19413000Y-8109000D02*
X19514600Y-8109000D01*
X19463800Y-8312200D02*
X19463800Y-8413800D01*
X19413000Y-8363000D02*
X19514600Y-8363000D01*
X19463800Y-8566200D02*
X19463800Y-8667800D01*
X19413000Y-8617000D02*
X19514600Y-8617000D01*
X19463800Y-8820200D02*
X19463800Y-8921800D01*
X19413000Y-8871000D02*
X19514600Y-8871000D01*
X19463800Y-9074200D02*
X19463800Y-9175800D01*
X19413000Y-9125000D02*
X19514600Y-9125000D01*
X19463800Y-9328200D02*
X19463800Y-9429800D01*
X19413000Y-9379000D02*
X19514600Y-9379000D01*
X19463800Y-9582200D02*
X19463800Y-9683800D01*
X19413000Y-9633000D02*
X19514600Y-9633000D01*
X19463800Y-9836200D02*
X19463800Y-9937800D01*
X19413000Y-9887000D02*
X19514600Y-9887000D01*
X19463800Y-10090200D02*
X19463800Y-10191800D01*
X19413000Y-10141000D02*
X19514600Y-10141000D01*
X19503000Y-10841400D02*
X19503000Y-10943000D01*
X19452200Y-10892200D02*
X19553800Y-10892200D01*
X19503000Y-14552086D02*
X19503000Y-14653686D01*
X19452200Y-14602886D02*
X19553800Y-14602886D01*
X19757000Y-10841400D02*
X19757000Y-10943000D01*
X19706200Y-10892200D02*
X19807800Y-10892200D01*
X19757000Y-14552086D02*
X19757000Y-14653686D01*
X19706200Y-14602886D02*
X19807800Y-14602886D01*
X17696024Y-9846890D02*
X17696024Y-9755111D01*
X17604245Y-9755111D01*
X17604245Y-9846890D01*
X17696024Y-9846890D01*
X18345756Y-9846890D02*
X18345756Y-9755111D01*
X18253977Y-9755111D01*
X18253977Y-9846890D01*
X18345756Y-9846890D01*
X19462890Y-12102023D02*
X19462890Y-12010244D01*
X19371111Y-12010244D01*
X19371111Y-12102023D01*
X19462890Y-12102023D01*
X19462890Y-12751755D02*
X19462890Y-12659976D01*
X19371111Y-12659976D01*
X19371111Y-12751755D01*
X19462890Y-12751755D01*
X10886000Y-12841930D02*
X10960930Y-12767000D01*
X10886000Y-12692070D01*
X10811070Y-12767000D01*
X10886000Y-12841930D01*
X14102000Y-6246930D02*
X14176930Y-6172000D01*
X14102000Y-6097070D01*
X14027070Y-6172000D01*
X14102000Y-6246930D01*
X15226000Y-13916430D02*
X15300930Y-13841500D01*
X15226000Y-13766570D01*
X15151070Y-13841500D01*
X15226000Y-13916430D01*
X16514500Y-5684930D02*
X16589430Y-5610000D01*
X16514500Y-5535070D01*
X16439570Y-5610000D01*
X16514500Y-5684930D01*
X10552117Y-12433117D02*
X10711883Y-12592883D01*
X10711883Y-12433117D02*
X10552117Y-12592883D01*
X10711883Y-12513000D02*
G75*
G03X10711883Y-12513000I-79883J0D01*
G01*
X10552117Y-12941117D02*
X10711883Y-13100883D01*
X10711883Y-12941117D02*
X10552117Y-13100883D01*
X10711883Y-13021000D02*
G75*
G03X10711883Y-13021000I-79883J0D01*
G01*
X11060117Y-12433117D02*
X11219883Y-12592883D01*
X11219883Y-12433117D02*
X11060117Y-12592883D01*
X11219883Y-12513000D02*
G75*
G03X11219883Y-12513000I-79883J0D01*
G01*
X11060117Y-12941117D02*
X11219883Y-13100883D01*
X11219883Y-12941117D02*
X11060117Y-13100883D01*
X11219883Y-13021000D02*
G75*
G03X11219883Y-13021000I-79883J0D01*
G01*
X13768117Y-5838117D02*
X13927883Y-5997883D01*
X13927883Y-5838117D02*
X13768117Y-5997883D01*
X13927883Y-5918000D02*
G75*
G03X13927883Y-5918000I-79883J0D01*
G01*
X13768117Y-6346117D02*
X13927883Y-6505883D01*
X13927883Y-6346117D02*
X13768117Y-6505883D01*
X13927883Y-6426000D02*
G75*
G03X13927883Y-6426000I-79883J0D01*
G01*
X14276117Y-5838117D02*
X14435883Y-5997883D01*
X14435883Y-5838117D02*
X14276117Y-5997883D01*
X14435883Y-5918000D02*
G75*
G03X14435883Y-5918000I-79883J0D01*
G01*
X14276117Y-6346117D02*
X14435883Y-6505883D01*
X14435883Y-6346117D02*
X14276117Y-6505883D01*
X14435883Y-6426000D02*
G75*
G03X14435883Y-6426000I-79883J0D01*
G01*
X14892117Y-13507617D02*
X15051883Y-13667383D01*
X15051883Y-13507617D02*
X14892117Y-13667383D01*
X15051883Y-13587500D02*
G75*
G03X15051883Y-13587500I-79883J0D01*
G01*
X14892117Y-14015617D02*
X15051883Y-14175383D01*
X15051883Y-14015617D02*
X14892117Y-14175383D01*
X15051883Y-14095500D02*
G75*
G03X15051883Y-14095500I-79883J0D01*
G01*
X15400117Y-13507617D02*
X15559883Y-13667383D01*
X15559883Y-13507617D02*
X15400117Y-13667383D01*
X15559883Y-13587500D02*
G75*
G03X15559883Y-13587500I-79883J0D01*
G01*
X15400117Y-14015617D02*
X15559883Y-14175383D01*
X15559883Y-14015617D02*
X15400117Y-14175383D01*
X15559883Y-14095500D02*
G75*
G03X15559883Y-14095500I-79883J0D01*
G01*
X16180617Y-5276117D02*
X16340383Y-5435883D01*
X16340383Y-5276117D02*
X16180617Y-5435883D01*
X16340383Y-5356000D02*
G75*
G03X16340383Y-5356000I-79883J0D01*
G01*
X16180617Y-5784117D02*
X16340383Y-5943883D01*
X16340383Y-5784117D02*
X16180617Y-5943883D01*
X16340383Y-5864000D02*
G75*
G03X16340383Y-5864000I-79883J0D01*
G01*
X16688617Y-5276117D02*
X16848383Y-5435883D01*
X16848383Y-5276117D02*
X16688617Y-5435883D01*
X16848383Y-5356000D02*
G75*
G03X16848383Y-5356000I-79883J0D01*
G01*
X16688617Y-5784117D02*
X16848383Y-5943883D01*
X16848383Y-5784117D02*
X16688617Y-5943883D01*
X16848383Y-5864000D02*
G75*
G03X16848383Y-5864000I-79883J0D01*
G01*
D13*
X10266429Y-15470714D02*
X10266429Y-15170714D01*
X10337857Y-15170714D01*
X10380714Y-15185000D01*
X10409286Y-15213571D01*
X10423571Y-15242143D01*
X10437857Y-15299286D01*
X10437857Y-15342143D01*
X10423571Y-15399286D01*
X10409286Y-15427857D01*
X10380714Y-15456429D01*
X10337857Y-15470714D01*
X10266429Y-15470714D01*
X10566429Y-15470714D02*
X10566429Y-15270714D01*
X10566429Y-15327857D02*
X10580714Y-15299286D01*
X10595000Y-15285000D01*
X10623571Y-15270714D01*
X10652143Y-15270714D01*
X10752143Y-15470714D02*
X10752143Y-15270714D01*
X10752143Y-15170714D02*
X10737857Y-15185000D01*
X10752143Y-15199286D01*
X10766429Y-15185000D01*
X10752143Y-15170714D01*
X10752143Y-15199286D01*
X10937857Y-15470714D02*
X10909286Y-15456429D01*
X10895000Y-15427857D01*
X10895000Y-15170714D01*
X11095000Y-15470714D02*
X11066429Y-15456429D01*
X11052143Y-15427857D01*
X11052143Y-15170714D01*
X11437857Y-15470714D02*
X11437857Y-15170714D01*
X11537857Y-15385000D01*
X11637857Y-15170714D01*
X11637857Y-15470714D01*
X11909286Y-15470714D02*
X11909286Y-15313571D01*
X11895000Y-15285000D01*
X11866428Y-15270714D01*
X11809286Y-15270714D01*
X11780714Y-15285000D01*
X11909286Y-15456429D02*
X11880714Y-15470714D01*
X11809286Y-15470714D01*
X11780714Y-15456429D01*
X11766428Y-15427857D01*
X11766428Y-15399286D01*
X11780714Y-15370714D01*
X11809286Y-15356429D01*
X11880714Y-15356429D01*
X11909286Y-15342143D01*
X12052143Y-15270714D02*
X12052143Y-15570714D01*
X12052143Y-15285000D02*
X12080714Y-15270714D01*
X12137857Y-15270714D01*
X12166428Y-15285000D01*
X12180714Y-15299286D01*
X12195000Y-15327857D01*
X12195000Y-15413571D01*
X12180714Y-15442143D01*
X12166428Y-15456429D01*
X12137857Y-15470714D01*
X12080714Y-15470714D01*
X12052143Y-15456429D01*
X12323571Y-15442143D02*
X12337857Y-15456429D01*
X12323571Y-15470714D01*
X12309286Y-15456429D01*
X12323571Y-15442143D01*
X12323571Y-15470714D01*
X12323571Y-15285000D02*
X12337857Y-15299286D01*
X12323571Y-15313571D01*
X12309286Y-15299286D01*
X12323571Y-15285000D01*
X12323571Y-15313571D01*
X9955000Y-15945000D02*
X9995000Y-15985000D01*
X9995000Y-15945000D02*
X9955000Y-15985000D01*
X10323571Y-15800714D02*
X10352143Y-15800714D01*
X10380714Y-15815000D01*
X10395000Y-15829286D01*
X10409286Y-15857857D01*
X10423571Y-15915000D01*
X10423571Y-15986429D01*
X10409286Y-16043571D01*
X10395000Y-16072143D01*
X10380714Y-16086429D01*
X10352143Y-16100714D01*
X10323571Y-16100714D01*
X10295000Y-16086429D01*
X10280714Y-16072143D01*
X10266429Y-16043571D01*
X10252143Y-15986429D01*
X10252143Y-15915000D01*
X10266429Y-15857857D01*
X10280714Y-15829286D01*
X10295000Y-15815000D01*
X10323571Y-15800714D01*
X10552143Y-16072143D02*
X10566429Y-16086429D01*
X10552143Y-16100714D01*
X10537857Y-16086429D01*
X10552143Y-16072143D01*
X10552143Y-16100714D01*
X10823571Y-15900714D02*
X10823571Y-16100714D01*
X10752143Y-15786429D02*
X10680714Y-16000714D01*
X10866428Y-16000714D01*
X11037857Y-15800714D02*
X11066429Y-15800714D01*
X11095000Y-15815000D01*
X11109286Y-15829286D01*
X11123571Y-15857857D01*
X11137857Y-15915000D01*
X11137857Y-15986429D01*
X11123571Y-16043571D01*
X11109286Y-16072143D01*
X11095000Y-16086429D01*
X11066429Y-16100714D01*
X11037857Y-16100714D01*
X11009286Y-16086429D01*
X10995000Y-16072143D01*
X10980714Y-16043571D01*
X10966429Y-15986429D01*
X10966429Y-15915000D01*
X10980714Y-15857857D01*
X10995000Y-15829286D01*
X11009286Y-15815000D01*
X11037857Y-15800714D01*
X11266428Y-16100714D02*
X11266428Y-15900714D01*
X11266428Y-15929286D02*
X11280714Y-15915000D01*
X11309286Y-15900714D01*
X11352143Y-15900714D01*
X11380714Y-15915000D01*
X11395000Y-15943571D01*
X11395000Y-16100714D01*
X11395000Y-15943571D02*
X11409286Y-15915000D01*
X11437857Y-15900714D01*
X11480714Y-15900714D01*
X11509286Y-15915000D01*
X11523571Y-15943571D01*
X11523571Y-16100714D01*
X11666428Y-16100714D02*
X11666428Y-15900714D01*
X11666428Y-15929286D02*
X11680714Y-15915000D01*
X11709286Y-15900714D01*
X11752143Y-15900714D01*
X11780714Y-15915000D01*
X11795000Y-15943571D01*
X11795000Y-16100714D01*
X11795000Y-15943571D02*
X11809286Y-15915000D01*
X11837857Y-15900714D01*
X11880714Y-15900714D01*
X11909286Y-15915000D01*
X11923571Y-15943571D01*
X11923571Y-16100714D01*
X12509286Y-15786429D02*
X12252143Y-16172143D01*
X12895000Y-15800714D02*
X12923571Y-15800714D01*
X12952143Y-15815000D01*
X12966428Y-15829286D01*
X12980714Y-15857857D01*
X12995000Y-15915000D01*
X12995000Y-15986429D01*
X12980714Y-16043571D01*
X12966428Y-16072143D01*
X12952143Y-16086429D01*
X12923571Y-16100714D01*
X12895000Y-16100714D01*
X12866428Y-16086429D01*
X12852143Y-16072143D01*
X12837857Y-16043571D01*
X12823571Y-15986429D01*
X12823571Y-15915000D01*
X12837857Y-15857857D01*
X12852143Y-15829286D01*
X12866428Y-15815000D01*
X12895000Y-15800714D01*
X13123571Y-16072143D02*
X13137857Y-16086429D01*
X13123571Y-16100714D01*
X13109286Y-16086429D01*
X13123571Y-16072143D01*
X13123571Y-16100714D01*
X13323571Y-15800714D02*
X13352143Y-15800714D01*
X13380714Y-15815000D01*
X13395000Y-15829286D01*
X13409285Y-15857857D01*
X13423571Y-15915000D01*
X13423571Y-15986429D01*
X13409285Y-16043571D01*
X13395000Y-16072143D01*
X13380714Y-16086429D01*
X13352143Y-16100714D01*
X13323571Y-16100714D01*
X13295000Y-16086429D01*
X13280714Y-16072143D01*
X13266428Y-16043571D01*
X13252143Y-15986429D01*
X13252143Y-15915000D01*
X13266428Y-15857857D01*
X13280714Y-15829286D01*
X13295000Y-15815000D01*
X13323571Y-15800714D01*
X13709285Y-16100714D02*
X13537857Y-16100714D01*
X13623571Y-16100714D02*
X13623571Y-15800714D01*
X13595000Y-15843571D01*
X13566428Y-15872143D01*
X13537857Y-15886429D01*
X13966428Y-15800714D02*
X13909285Y-15800714D01*
X13880714Y-15815000D01*
X13866428Y-15829286D01*
X13837857Y-15872143D01*
X13823571Y-15929286D01*
X13823571Y-16043571D01*
X13837857Y-16072143D01*
X13852143Y-16086429D01*
X13880714Y-16100714D01*
X13937857Y-16100714D01*
X13966428Y-16086429D01*
X13980714Y-16072143D01*
X13995000Y-16043571D01*
X13995000Y-15972143D01*
X13980714Y-15943571D01*
X13966428Y-15929286D01*
X13937857Y-15915000D01*
X13880714Y-15915000D01*
X13852143Y-15929286D01*
X13837857Y-15943571D01*
X13823571Y-15972143D01*
X14109286Y-15800714D02*
X14109286Y-15857857D01*
X14223571Y-15800714D02*
X14223571Y-15857857D01*
X14666428Y-16215000D02*
X14652143Y-16200714D01*
X14623571Y-16157857D01*
X14609285Y-16129286D01*
X14595000Y-16086429D01*
X14580714Y-16015000D01*
X14580714Y-15957857D01*
X14595000Y-15886429D01*
X14609285Y-15843571D01*
X14623571Y-15815000D01*
X14652143Y-15772143D01*
X14666428Y-15757857D01*
X14923571Y-15800714D02*
X14780714Y-15800714D01*
X14766428Y-15943571D01*
X14780714Y-15929286D01*
X14809285Y-15915000D01*
X14880714Y-15915000D01*
X14909285Y-15929286D01*
X14923571Y-15943571D01*
X14937857Y-15972143D01*
X14937857Y-16043571D01*
X14923571Y-16072143D01*
X14909285Y-16086429D01*
X14880714Y-16100714D01*
X14809285Y-16100714D01*
X14780714Y-16086429D01*
X14766428Y-16072143D01*
X15052143Y-15829286D02*
X15066428Y-15815000D01*
X15095000Y-15800714D01*
X15166428Y-15800714D01*
X15195000Y-15815000D01*
X15209285Y-15829286D01*
X15223571Y-15857857D01*
X15223571Y-15886429D01*
X15209285Y-15929286D01*
X15037857Y-16100714D01*
X15223571Y-16100714D01*
X15580714Y-16100714D02*
X15580714Y-15800714D01*
X15709285Y-16100714D02*
X15709285Y-15943571D01*
X15695000Y-15915000D01*
X15666428Y-15900714D01*
X15623571Y-15900714D01*
X15595000Y-15915000D01*
X15580714Y-15929286D01*
X15895000Y-16100714D02*
X15866428Y-16086429D01*
X15852143Y-16072143D01*
X15837857Y-16043571D01*
X15837857Y-15957857D01*
X15852143Y-15929286D01*
X15866428Y-15915000D01*
X15895000Y-15900714D01*
X15937857Y-15900714D01*
X15966428Y-15915000D01*
X15980714Y-15929286D01*
X15995000Y-15957857D01*
X15995000Y-16043571D01*
X15980714Y-16072143D01*
X15966428Y-16086429D01*
X15937857Y-16100714D01*
X15895000Y-16100714D01*
X16166428Y-16100714D02*
X16137857Y-16086429D01*
X16123571Y-16057857D01*
X16123571Y-15800714D01*
X16395000Y-16086429D02*
X16366428Y-16100714D01*
X16309286Y-16100714D01*
X16280714Y-16086429D01*
X16266428Y-16057857D01*
X16266428Y-15943571D01*
X16280714Y-15915000D01*
X16309286Y-15900714D01*
X16366428Y-15900714D01*
X16395000Y-15915000D01*
X16409286Y-15943571D01*
X16409286Y-15972143D01*
X16266428Y-16000714D01*
X16523571Y-16086429D02*
X16552143Y-16100714D01*
X16609286Y-16100714D01*
X16637857Y-16086429D01*
X16652143Y-16057857D01*
X16652143Y-16043571D01*
X16637857Y-16015000D01*
X16609286Y-16000714D01*
X16566428Y-16000714D01*
X16537857Y-15986429D01*
X16523571Y-15957857D01*
X16523571Y-15943571D01*
X16537857Y-15915000D01*
X16566428Y-15900714D01*
X16609286Y-15900714D01*
X16637857Y-15915000D01*
X16752143Y-16215000D02*
X16766428Y-16200714D01*
X16795000Y-16157857D01*
X16809286Y-16129286D01*
X16823571Y-16086429D01*
X16837857Y-16015000D01*
X16837857Y-15957857D01*
X16823571Y-15886429D01*
X16809286Y-15843571D01*
X16795000Y-15815000D01*
X16766428Y-15772143D01*
X16752143Y-15757857D01*
X9995000Y-16361000D02*
G75*
G03X9995000Y-16361000I-50000J0D01*
G01*
X10423571Y-16496714D02*
X10252143Y-16496714D01*
X10337857Y-16496714D02*
X10337857Y-16196714D01*
X10309286Y-16239571D01*
X10280714Y-16268143D01*
X10252143Y-16282429D01*
X10552143Y-16468143D02*
X10566429Y-16482429D01*
X10552143Y-16496714D01*
X10537857Y-16482429D01*
X10552143Y-16468143D01*
X10552143Y-16496714D01*
X10752143Y-16196714D02*
X10780714Y-16196714D01*
X10809286Y-16211000D01*
X10823571Y-16225286D01*
X10837857Y-16253857D01*
X10852143Y-16311000D01*
X10852143Y-16382429D01*
X10837857Y-16439571D01*
X10823571Y-16468143D01*
X10809286Y-16482429D01*
X10780714Y-16496714D01*
X10752143Y-16496714D01*
X10723571Y-16482429D01*
X10709286Y-16468143D01*
X10695000Y-16439571D01*
X10680714Y-16382429D01*
X10680714Y-16311000D01*
X10695000Y-16253857D01*
X10709286Y-16225286D01*
X10723571Y-16211000D01*
X10752143Y-16196714D01*
X11037857Y-16196714D02*
X11066429Y-16196714D01*
X11095000Y-16211000D01*
X11109286Y-16225286D01*
X11123571Y-16253857D01*
X11137857Y-16311000D01*
X11137857Y-16382429D01*
X11123571Y-16439571D01*
X11109286Y-16468143D01*
X11095000Y-16482429D01*
X11066429Y-16496714D01*
X11037857Y-16496714D01*
X11009286Y-16482429D01*
X10995000Y-16468143D01*
X10980714Y-16439571D01*
X10966429Y-16382429D01*
X10966429Y-16311000D01*
X10980714Y-16253857D01*
X10995000Y-16225286D01*
X11009286Y-16211000D01*
X11037857Y-16196714D01*
X11266428Y-16496714D02*
X11266428Y-16296714D01*
X11266428Y-16325286D02*
X11280714Y-16311000D01*
X11309286Y-16296714D01*
X11352143Y-16296714D01*
X11380714Y-16311000D01*
X11395000Y-16339571D01*
X11395000Y-16496714D01*
X11395000Y-16339571D02*
X11409286Y-16311000D01*
X11437857Y-16296714D01*
X11480714Y-16296714D01*
X11509286Y-16311000D01*
X11523571Y-16339571D01*
X11523571Y-16496714D01*
X11666428Y-16496714D02*
X11666428Y-16296714D01*
X11666428Y-16325286D02*
X11680714Y-16311000D01*
X11709286Y-16296714D01*
X11752143Y-16296714D01*
X11780714Y-16311000D01*
X11795000Y-16339571D01*
X11795000Y-16496714D01*
X11795000Y-16339571D02*
X11809286Y-16311000D01*
X11837857Y-16296714D01*
X11880714Y-16296714D01*
X11909286Y-16311000D01*
X11923571Y-16339571D01*
X11923571Y-16496714D01*
X12509286Y-16182429D02*
X12252143Y-16568143D01*
X12895000Y-16196714D02*
X12923571Y-16196714D01*
X12952143Y-16211000D01*
X12966428Y-16225286D01*
X12980714Y-16253857D01*
X12995000Y-16311000D01*
X12995000Y-16382429D01*
X12980714Y-16439571D01*
X12966428Y-16468143D01*
X12952143Y-16482429D01*
X12923571Y-16496714D01*
X12895000Y-16496714D01*
X12866428Y-16482429D01*
X12852143Y-16468143D01*
X12837857Y-16439571D01*
X12823571Y-16382429D01*
X12823571Y-16311000D01*
X12837857Y-16253857D01*
X12852143Y-16225286D01*
X12866428Y-16211000D01*
X12895000Y-16196714D01*
X13123571Y-16468143D02*
X13137857Y-16482429D01*
X13123571Y-16496714D01*
X13109286Y-16482429D01*
X13123571Y-16468143D01*
X13123571Y-16496714D01*
X13323571Y-16196714D02*
X13352143Y-16196714D01*
X13380714Y-16211000D01*
X13395000Y-16225286D01*
X13409285Y-16253857D01*
X13423571Y-16311000D01*
X13423571Y-16382429D01*
X13409285Y-16439571D01*
X13395000Y-16468143D01*
X13380714Y-16482429D01*
X13352143Y-16496714D01*
X13323571Y-16496714D01*
X13295000Y-16482429D01*
X13280714Y-16468143D01*
X13266428Y-16439571D01*
X13252143Y-16382429D01*
X13252143Y-16311000D01*
X13266428Y-16253857D01*
X13280714Y-16225286D01*
X13295000Y-16211000D01*
X13323571Y-16196714D01*
X13523571Y-16196714D02*
X13709285Y-16196714D01*
X13609285Y-16311000D01*
X13652143Y-16311000D01*
X13680714Y-16325286D01*
X13695000Y-16339571D01*
X13709285Y-16368143D01*
X13709285Y-16439571D01*
X13695000Y-16468143D01*
X13680714Y-16482429D01*
X13652143Y-16496714D01*
X13566428Y-16496714D01*
X13537857Y-16482429D01*
X13523571Y-16468143D01*
X13852143Y-16496714D02*
X13909285Y-16496714D01*
X13937857Y-16482429D01*
X13952143Y-16468143D01*
X13980714Y-16425286D01*
X13995000Y-16368143D01*
X13995000Y-16253857D01*
X13980714Y-16225286D01*
X13966428Y-16211000D01*
X13937857Y-16196714D01*
X13880714Y-16196714D01*
X13852143Y-16211000D01*
X13837857Y-16225286D01*
X13823571Y-16253857D01*
X13823571Y-16325286D01*
X13837857Y-16353857D01*
X13852143Y-16368143D01*
X13880714Y-16382429D01*
X13937857Y-16382429D01*
X13966428Y-16368143D01*
X13980714Y-16353857D01*
X13995000Y-16325286D01*
X14109286Y-16196714D02*
X14109286Y-16253857D01*
X14223571Y-16196714D02*
X14223571Y-16253857D01*
X14666428Y-16611000D02*
X14652143Y-16596714D01*
X14623571Y-16553857D01*
X14609285Y-16525286D01*
X14595000Y-16482429D01*
X14580714Y-16411000D01*
X14580714Y-16353857D01*
X14595000Y-16282429D01*
X14609285Y-16239571D01*
X14623571Y-16211000D01*
X14652143Y-16168143D01*
X14666428Y-16153857D01*
X14923571Y-16196714D02*
X14780714Y-16196714D01*
X14766428Y-16339571D01*
X14780714Y-16325286D01*
X14809285Y-16311000D01*
X14880714Y-16311000D01*
X14909285Y-16325286D01*
X14923571Y-16339571D01*
X14937857Y-16368143D01*
X14937857Y-16439571D01*
X14923571Y-16468143D01*
X14909285Y-16482429D01*
X14880714Y-16496714D01*
X14809285Y-16496714D01*
X14780714Y-16482429D01*
X14766428Y-16468143D01*
X15052143Y-16225286D02*
X15066428Y-16211000D01*
X15095000Y-16196714D01*
X15166428Y-16196714D01*
X15195000Y-16211000D01*
X15209285Y-16225286D01*
X15223571Y-16253857D01*
X15223571Y-16282429D01*
X15209285Y-16325286D01*
X15037857Y-16496714D01*
X15223571Y-16496714D01*
X15580714Y-16496714D02*
X15580714Y-16196714D01*
X15709285Y-16496714D02*
X15709285Y-16339571D01*
X15695000Y-16311000D01*
X15666428Y-16296714D01*
X15623571Y-16296714D01*
X15595000Y-16311000D01*
X15580714Y-16325286D01*
X15895000Y-16496714D02*
X15866428Y-16482429D01*
X15852143Y-16468143D01*
X15837857Y-16439571D01*
X15837857Y-16353857D01*
X15852143Y-16325286D01*
X15866428Y-16311000D01*
X15895000Y-16296714D01*
X15937857Y-16296714D01*
X15966428Y-16311000D01*
X15980714Y-16325286D01*
X15995000Y-16353857D01*
X15995000Y-16439571D01*
X15980714Y-16468143D01*
X15966428Y-16482429D01*
X15937857Y-16496714D01*
X15895000Y-16496714D01*
X16166428Y-16496714D02*
X16137857Y-16482429D01*
X16123571Y-16453857D01*
X16123571Y-16196714D01*
X16395000Y-16482429D02*
X16366428Y-16496714D01*
X16309286Y-16496714D01*
X16280714Y-16482429D01*
X16266428Y-16453857D01*
X16266428Y-16339571D01*
X16280714Y-16311000D01*
X16309286Y-16296714D01*
X16366428Y-16296714D01*
X16395000Y-16311000D01*
X16409286Y-16339571D01*
X16409286Y-16368143D01*
X16266428Y-16396714D01*
X16523571Y-16482429D02*
X16552143Y-16496714D01*
X16609286Y-16496714D01*
X16637857Y-16482429D01*
X16652143Y-16453857D01*
X16652143Y-16439571D01*
X16637857Y-16411000D01*
X16609286Y-16396714D01*
X16566428Y-16396714D01*
X16537857Y-16382429D01*
X16523571Y-16353857D01*
X16523571Y-16339571D01*
X16537857Y-16311000D01*
X16566428Y-16296714D01*
X16609286Y-16296714D01*
X16637857Y-16311000D01*
X16752143Y-16611000D02*
X16766428Y-16596714D01*
X16795000Y-16553857D01*
X16809286Y-16525286D01*
X16823571Y-16482429D01*
X16837857Y-16411000D01*
X16837857Y-16353857D01*
X16823571Y-16282429D01*
X16809286Y-16239571D01*
X16795000Y-16211000D01*
X16766428Y-16168143D01*
X16752143Y-16153857D01*
X9944200Y-16706200D02*
X9944200Y-16807800D01*
X9893400Y-16757000D02*
X9995000Y-16757000D01*
X10423571Y-16892714D02*
X10252143Y-16892714D01*
X10337857Y-16892714D02*
X10337857Y-16592714D01*
X10309286Y-16635571D01*
X10280714Y-16664143D01*
X10252143Y-16678429D01*
X10552143Y-16864143D02*
X10566429Y-16878429D01*
X10552143Y-16892714D01*
X10537857Y-16878429D01*
X10552143Y-16864143D01*
X10552143Y-16892714D01*
X10752143Y-16592714D02*
X10780714Y-16592714D01*
X10809286Y-16607000D01*
X10823571Y-16621286D01*
X10837857Y-16649857D01*
X10852143Y-16707000D01*
X10852143Y-16778429D01*
X10837857Y-16835572D01*
X10823571Y-16864143D01*
X10809286Y-16878429D01*
X10780714Y-16892714D01*
X10752143Y-16892714D01*
X10723571Y-16878429D01*
X10709286Y-16864143D01*
X10695000Y-16835572D01*
X10680714Y-16778429D01*
X10680714Y-16707000D01*
X10695000Y-16649857D01*
X10709286Y-16621286D01*
X10723571Y-16607000D01*
X10752143Y-16592714D01*
X10966429Y-16621286D02*
X10980714Y-16607000D01*
X11009286Y-16592714D01*
X11080714Y-16592714D01*
X11109286Y-16607000D01*
X11123571Y-16621286D01*
X11137857Y-16649857D01*
X11137857Y-16678429D01*
X11123571Y-16721286D01*
X10952143Y-16892714D01*
X11137857Y-16892714D01*
X11266428Y-16892714D02*
X11266428Y-16692714D01*
X11266428Y-16721286D02*
X11280714Y-16707000D01*
X11309286Y-16692714D01*
X11352143Y-16692714D01*
X11380714Y-16707000D01*
X11395000Y-16735571D01*
X11395000Y-16892714D01*
X11395000Y-16735571D02*
X11409286Y-16707000D01*
X11437857Y-16692714D01*
X11480714Y-16692714D01*
X11509286Y-16707000D01*
X11523571Y-16735571D01*
X11523571Y-16892714D01*
X11666428Y-16892714D02*
X11666428Y-16692714D01*
X11666428Y-16721286D02*
X11680714Y-16707000D01*
X11709286Y-16692714D01*
X11752143Y-16692714D01*
X11780714Y-16707000D01*
X11795000Y-16735571D01*
X11795000Y-16892714D01*
X11795000Y-16735571D02*
X11809286Y-16707000D01*
X11837857Y-16692714D01*
X11880714Y-16692714D01*
X11909286Y-16707000D01*
X11923571Y-16735571D01*
X11923571Y-16892714D01*
X12509286Y-16578429D02*
X12252143Y-16964143D01*
X12895000Y-16592714D02*
X12923571Y-16592714D01*
X12952143Y-16607000D01*
X12966428Y-16621286D01*
X12980714Y-16649857D01*
X12995000Y-16707000D01*
X12995000Y-16778429D01*
X12980714Y-16835572D01*
X12966428Y-16864143D01*
X12952143Y-16878429D01*
X12923571Y-16892714D01*
X12895000Y-16892714D01*
X12866428Y-16878429D01*
X12852143Y-16864143D01*
X12837857Y-16835572D01*
X12823571Y-16778429D01*
X12823571Y-16707000D01*
X12837857Y-16649857D01*
X12852143Y-16621286D01*
X12866428Y-16607000D01*
X12895000Y-16592714D01*
X13123571Y-16864143D02*
X13137857Y-16878429D01*
X13123571Y-16892714D01*
X13109286Y-16878429D01*
X13123571Y-16864143D01*
X13123571Y-16892714D01*
X13323571Y-16592714D02*
X13352143Y-16592714D01*
X13380714Y-16607000D01*
X13395000Y-16621286D01*
X13409285Y-16649857D01*
X13423571Y-16707000D01*
X13423571Y-16778429D01*
X13409285Y-16835572D01*
X13395000Y-16864143D01*
X13380714Y-16878429D01*
X13352143Y-16892714D01*
X13323571Y-16892714D01*
X13295000Y-16878429D01*
X13280714Y-16864143D01*
X13266428Y-16835572D01*
X13252143Y-16778429D01*
X13252143Y-16707000D01*
X13266428Y-16649857D01*
X13280714Y-16621286D01*
X13295000Y-16607000D01*
X13323571Y-16592714D01*
X13680714Y-16692714D02*
X13680714Y-16892714D01*
X13609285Y-16578429D02*
X13537857Y-16792714D01*
X13723571Y-16792714D01*
X13895000Y-16592714D02*
X13923571Y-16592714D01*
X13952143Y-16607000D01*
X13966428Y-16621286D01*
X13980714Y-16649857D01*
X13995000Y-16707000D01*
X13995000Y-16778429D01*
X13980714Y-16835572D01*
X13966428Y-16864143D01*
X13952143Y-16878429D01*
X13923571Y-16892714D01*
X13895000Y-16892714D01*
X13866428Y-16878429D01*
X13852143Y-16864143D01*
X13837857Y-16835572D01*
X13823571Y-16778429D01*
X13823571Y-16707000D01*
X13837857Y-16649857D01*
X13852143Y-16621286D01*
X13866428Y-16607000D01*
X13895000Y-16592714D01*
X14109286Y-16592714D02*
X14109286Y-16649857D01*
X14223571Y-16592714D02*
X14223571Y-16649857D01*
X14666428Y-17007000D02*
X14652143Y-16992714D01*
X14623571Y-16949857D01*
X14609285Y-16921286D01*
X14595000Y-16878429D01*
X14580714Y-16807000D01*
X14580714Y-16749857D01*
X14595000Y-16678429D01*
X14609285Y-16635571D01*
X14623571Y-16607000D01*
X14652143Y-16564143D01*
X14666428Y-16549857D01*
X14823571Y-16721286D02*
X14795000Y-16707000D01*
X14780714Y-16692714D01*
X14766428Y-16664143D01*
X14766428Y-16649857D01*
X14780714Y-16621286D01*
X14795000Y-16607000D01*
X14823571Y-16592714D01*
X14880714Y-16592714D01*
X14909285Y-16607000D01*
X14923571Y-16621286D01*
X14937857Y-16649857D01*
X14937857Y-16664143D01*
X14923571Y-16692714D01*
X14909285Y-16707000D01*
X14880714Y-16721286D01*
X14823571Y-16721286D01*
X14795000Y-16735571D01*
X14780714Y-16749857D01*
X14766428Y-16778429D01*
X14766428Y-16835572D01*
X14780714Y-16864143D01*
X14795000Y-16878429D01*
X14823571Y-16892714D01*
X14880714Y-16892714D01*
X14909285Y-16878429D01*
X14923571Y-16864143D01*
X14937857Y-16835572D01*
X14937857Y-16778429D01*
X14923571Y-16749857D01*
X14909285Y-16735571D01*
X14880714Y-16721286D01*
X15052143Y-16621286D02*
X15066428Y-16607000D01*
X15095000Y-16592714D01*
X15166428Y-16592714D01*
X15195000Y-16607000D01*
X15209285Y-16621286D01*
X15223571Y-16649857D01*
X15223571Y-16678429D01*
X15209285Y-16721286D01*
X15037857Y-16892714D01*
X15223571Y-16892714D01*
X15580714Y-16892714D02*
X15580714Y-16592714D01*
X15709285Y-16892714D02*
X15709285Y-16735571D01*
X15695000Y-16707000D01*
X15666428Y-16692714D01*
X15623571Y-16692714D01*
X15595000Y-16707000D01*
X15580714Y-16721286D01*
X15895000Y-16892714D02*
X15866428Y-16878429D01*
X15852143Y-16864143D01*
X15837857Y-16835572D01*
X15837857Y-16749857D01*
X15852143Y-16721286D01*
X15866428Y-16707000D01*
X15895000Y-16692714D01*
X15937857Y-16692714D01*
X15966428Y-16707000D01*
X15980714Y-16721286D01*
X15995000Y-16749857D01*
X15995000Y-16835572D01*
X15980714Y-16864143D01*
X15966428Y-16878429D01*
X15937857Y-16892714D01*
X15895000Y-16892714D01*
X16166428Y-16892714D02*
X16137857Y-16878429D01*
X16123571Y-16849857D01*
X16123571Y-16592714D01*
X16395000Y-16878429D02*
X16366428Y-16892714D01*
X16309286Y-16892714D01*
X16280714Y-16878429D01*
X16266428Y-16849857D01*
X16266428Y-16735571D01*
X16280714Y-16707000D01*
X16309286Y-16692714D01*
X16366428Y-16692714D01*
X16395000Y-16707000D01*
X16409286Y-16735571D01*
X16409286Y-16764143D01*
X16266428Y-16792714D01*
X16523571Y-16878429D02*
X16552143Y-16892714D01*
X16609286Y-16892714D01*
X16637857Y-16878429D01*
X16652143Y-16849857D01*
X16652143Y-16835572D01*
X16637857Y-16807000D01*
X16609286Y-16792714D01*
X16566428Y-16792714D01*
X16537857Y-16778429D01*
X16523571Y-16749857D01*
X16523571Y-16735571D01*
X16537857Y-16707000D01*
X16566428Y-16692714D01*
X16609286Y-16692714D01*
X16637857Y-16707000D01*
X16752143Y-17007000D02*
X16766428Y-16992714D01*
X16795000Y-16949857D01*
X16809286Y-16921286D01*
X16823571Y-16878429D01*
X16837857Y-16807000D01*
X16837857Y-16749857D01*
X16823571Y-16678429D01*
X16809286Y-16635571D01*
X16795000Y-16607000D01*
X16766428Y-16564143D01*
X16752143Y-16549857D01*
X9975992Y-17198890D02*
X9975992Y-17107111D01*
X9884213Y-17107111D01*
X9884213Y-17198890D01*
X9975992Y-17198890D01*
X10423571Y-17288714D02*
X10252143Y-17288714D01*
X10337857Y-17288714D02*
X10337857Y-16988714D01*
X10309286Y-17031572D01*
X10280714Y-17060143D01*
X10252143Y-17074429D01*
X10552143Y-17260143D02*
X10566429Y-17274429D01*
X10552143Y-17288714D01*
X10537857Y-17274429D01*
X10552143Y-17260143D01*
X10552143Y-17288714D01*
X10666428Y-16988714D02*
X10852143Y-16988714D01*
X10752143Y-17103000D01*
X10795000Y-17103000D01*
X10823571Y-17117286D01*
X10837857Y-17131572D01*
X10852143Y-17160143D01*
X10852143Y-17231572D01*
X10837857Y-17260143D01*
X10823571Y-17274429D01*
X10795000Y-17288714D01*
X10709286Y-17288714D01*
X10680714Y-17274429D01*
X10666428Y-17260143D01*
X11037857Y-16988714D02*
X11066429Y-16988714D01*
X11095000Y-17003000D01*
X11109286Y-17017286D01*
X11123571Y-17045857D01*
X11137857Y-17103000D01*
X11137857Y-17174429D01*
X11123571Y-17231572D01*
X11109286Y-17260143D01*
X11095000Y-17274429D01*
X11066429Y-17288714D01*
X11037857Y-17288714D01*
X11009286Y-17274429D01*
X10995000Y-17260143D01*
X10980714Y-17231572D01*
X10966429Y-17174429D01*
X10966429Y-17103000D01*
X10980714Y-17045857D01*
X10995000Y-17017286D01*
X11009286Y-17003000D01*
X11037857Y-16988714D01*
X11266428Y-17288714D02*
X11266428Y-17088714D01*
X11266428Y-17117286D02*
X11280714Y-17103000D01*
X11309286Y-17088714D01*
X11352143Y-17088714D01*
X11380714Y-17103000D01*
X11395000Y-17131572D01*
X11395000Y-17288714D01*
X11395000Y-17131572D02*
X11409286Y-17103000D01*
X11437857Y-17088714D01*
X11480714Y-17088714D01*
X11509286Y-17103000D01*
X11523571Y-17131572D01*
X11523571Y-17288714D01*
X11666428Y-17288714D02*
X11666428Y-17088714D01*
X11666428Y-17117286D02*
X11680714Y-17103000D01*
X11709286Y-17088714D01*
X11752143Y-17088714D01*
X11780714Y-17103000D01*
X11795000Y-17131572D01*
X11795000Y-17288714D01*
X11795000Y-17131572D02*
X11809286Y-17103000D01*
X11837857Y-17088714D01*
X11880714Y-17088714D01*
X11909286Y-17103000D01*
X11923571Y-17131572D01*
X11923571Y-17288714D01*
X12509286Y-16974429D02*
X12252143Y-17360143D01*
X12895000Y-16988714D02*
X12923571Y-16988714D01*
X12952143Y-17003000D01*
X12966428Y-17017286D01*
X12980714Y-17045857D01*
X12995000Y-17103000D01*
X12995000Y-17174429D01*
X12980714Y-17231572D01*
X12966428Y-17260143D01*
X12952143Y-17274429D01*
X12923571Y-17288714D01*
X12895000Y-17288714D01*
X12866428Y-17274429D01*
X12852143Y-17260143D01*
X12837857Y-17231572D01*
X12823571Y-17174429D01*
X12823571Y-17103000D01*
X12837857Y-17045857D01*
X12852143Y-17017286D01*
X12866428Y-17003000D01*
X12895000Y-16988714D01*
X13123571Y-17260143D02*
X13137857Y-17274429D01*
X13123571Y-17288714D01*
X13109286Y-17274429D01*
X13123571Y-17260143D01*
X13123571Y-17288714D01*
X13323571Y-16988714D02*
X13352143Y-16988714D01*
X13380714Y-17003000D01*
X13395000Y-17017286D01*
X13409285Y-17045857D01*
X13423571Y-17103000D01*
X13423571Y-17174429D01*
X13409285Y-17231572D01*
X13395000Y-17260143D01*
X13380714Y-17274429D01*
X13352143Y-17288714D01*
X13323571Y-17288714D01*
X13295000Y-17274429D01*
X13280714Y-17260143D01*
X13266428Y-17231572D01*
X13252143Y-17174429D01*
X13252143Y-17103000D01*
X13266428Y-17045857D01*
X13280714Y-17017286D01*
X13295000Y-17003000D01*
X13323571Y-16988714D01*
X13695000Y-16988714D02*
X13552143Y-16988714D01*
X13537857Y-17131572D01*
X13552143Y-17117286D01*
X13580714Y-17103000D01*
X13652143Y-17103000D01*
X13680714Y-17117286D01*
X13695000Y-17131572D01*
X13709285Y-17160143D01*
X13709285Y-17231572D01*
X13695000Y-17260143D01*
X13680714Y-17274429D01*
X13652143Y-17288714D01*
X13580714Y-17288714D01*
X13552143Y-17274429D01*
X13537857Y-17260143D01*
X13995000Y-17288714D02*
X13823571Y-17288714D01*
X13909285Y-17288714D02*
X13909285Y-16988714D01*
X13880714Y-17031572D01*
X13852143Y-17060143D01*
X13823571Y-17074429D01*
X14109286Y-16988714D02*
X14109286Y-17045857D01*
X14223571Y-16988714D02*
X14223571Y-17045857D01*
X14666428Y-17403000D02*
X14652143Y-17388714D01*
X14623571Y-17345857D01*
X14609285Y-17317286D01*
X14595000Y-17274429D01*
X14580714Y-17203000D01*
X14580714Y-17145857D01*
X14595000Y-17074429D01*
X14609285Y-17031572D01*
X14623571Y-17003000D01*
X14652143Y-16960143D01*
X14666428Y-16945857D01*
X14909285Y-17088714D02*
X14909285Y-17288714D01*
X14837857Y-16974429D02*
X14766428Y-17188714D01*
X14952143Y-17188714D01*
X15295000Y-17288714D02*
X15295000Y-16988714D01*
X15423571Y-17288714D02*
X15423571Y-17131572D01*
X15409285Y-17103000D01*
X15380714Y-17088714D01*
X15337857Y-17088714D01*
X15309285Y-17103000D01*
X15295000Y-17117286D01*
X15609285Y-17288714D02*
X15580714Y-17274429D01*
X15566428Y-17260143D01*
X15552143Y-17231572D01*
X15552143Y-17145857D01*
X15566428Y-17117286D01*
X15580714Y-17103000D01*
X15609285Y-17088714D01*
X15652143Y-17088714D01*
X15680714Y-17103000D01*
X15695000Y-17117286D01*
X15709285Y-17145857D01*
X15709285Y-17231572D01*
X15695000Y-17260143D01*
X15680714Y-17274429D01*
X15652143Y-17288714D01*
X15609285Y-17288714D01*
X15880714Y-17288714D02*
X15852143Y-17274429D01*
X15837857Y-17245857D01*
X15837857Y-16988714D01*
X16109286Y-17274429D02*
X16080714Y-17288714D01*
X16023571Y-17288714D01*
X15995000Y-17274429D01*
X15980714Y-17245857D01*
X15980714Y-17131572D01*
X15995000Y-17103000D01*
X16023571Y-17088714D01*
X16080714Y-17088714D01*
X16109286Y-17103000D01*
X16123571Y-17131572D01*
X16123571Y-17160143D01*
X15980714Y-17188714D01*
X16237857Y-17274429D02*
X16266428Y-17288714D01*
X16323571Y-17288714D01*
X16352143Y-17274429D01*
X16366428Y-17245857D01*
X16366428Y-17231572D01*
X16352143Y-17203000D01*
X16323571Y-17188714D01*
X16280714Y-17188714D01*
X16252143Y-17174429D01*
X16237857Y-17145857D01*
X16237857Y-17131572D01*
X16252143Y-17103000D01*
X16280714Y-17088714D01*
X16323571Y-17088714D01*
X16352143Y-17103000D01*
X16466428Y-17403000D02*
X16480714Y-17388714D01*
X16509286Y-17345857D01*
X16523571Y-17317286D01*
X16537857Y-17274429D01*
X16552143Y-17203000D01*
X16552143Y-17145857D01*
X16537857Y-17074429D01*
X16523571Y-17031572D01*
X16509286Y-17003000D01*
X16480714Y-16960143D01*
X16466428Y-16945857D01*
X9920070Y-17623930D02*
X9995000Y-17549000D01*
X9920070Y-17474070D01*
X9845140Y-17549000D01*
X9920070Y-17623930D01*
X10423571Y-17684714D02*
X10252143Y-17684714D01*
X10337857Y-17684714D02*
X10337857Y-17384714D01*
X10309286Y-17427572D01*
X10280714Y-17456143D01*
X10252143Y-17470429D01*
X10552143Y-17656143D02*
X10566429Y-17670429D01*
X10552143Y-17684714D01*
X10537857Y-17670429D01*
X10552143Y-17656143D01*
X10552143Y-17684714D01*
X10837857Y-17384714D02*
X10695000Y-17384714D01*
X10680714Y-17527572D01*
X10695000Y-17513286D01*
X10723571Y-17499000D01*
X10795000Y-17499000D01*
X10823571Y-17513286D01*
X10837857Y-17527572D01*
X10852143Y-17556143D01*
X10852143Y-17627572D01*
X10837857Y-17656143D01*
X10823571Y-17670429D01*
X10795000Y-17684714D01*
X10723571Y-17684714D01*
X10695000Y-17670429D01*
X10680714Y-17656143D01*
X11037857Y-17384714D02*
X11066429Y-17384714D01*
X11095000Y-17399000D01*
X11109286Y-17413286D01*
X11123571Y-17441857D01*
X11137857Y-17499000D01*
X11137857Y-17570429D01*
X11123571Y-17627572D01*
X11109286Y-17656143D01*
X11095000Y-17670429D01*
X11066429Y-17684714D01*
X11037857Y-17684714D01*
X11009286Y-17670429D01*
X10995000Y-17656143D01*
X10980714Y-17627572D01*
X10966429Y-17570429D01*
X10966429Y-17499000D01*
X10980714Y-17441857D01*
X10995000Y-17413286D01*
X11009286Y-17399000D01*
X11037857Y-17384714D01*
X11266428Y-17684714D02*
X11266428Y-17484714D01*
X11266428Y-17513286D02*
X11280714Y-17499000D01*
X11309286Y-17484714D01*
X11352143Y-17484714D01*
X11380714Y-17499000D01*
X11395000Y-17527572D01*
X11395000Y-17684714D01*
X11395000Y-17527572D02*
X11409286Y-17499000D01*
X11437857Y-17484714D01*
X11480714Y-17484714D01*
X11509286Y-17499000D01*
X11523571Y-17527572D01*
X11523571Y-17684714D01*
X11666428Y-17684714D02*
X11666428Y-17484714D01*
X11666428Y-17513286D02*
X11680714Y-17499000D01*
X11709286Y-17484714D01*
X11752143Y-17484714D01*
X11780714Y-17499000D01*
X11795000Y-17527572D01*
X11795000Y-17684714D01*
X11795000Y-17527572D02*
X11809286Y-17499000D01*
X11837857Y-17484714D01*
X11880714Y-17484714D01*
X11909286Y-17499000D01*
X11923571Y-17527572D01*
X11923571Y-17684714D01*
X12509286Y-17370429D02*
X12252143Y-17756143D01*
X12895000Y-17384714D02*
X12923571Y-17384714D01*
X12952143Y-17399000D01*
X12966428Y-17413286D01*
X12980714Y-17441857D01*
X12995000Y-17499000D01*
X12995000Y-17570429D01*
X12980714Y-17627572D01*
X12966428Y-17656143D01*
X12952143Y-17670429D01*
X12923571Y-17684714D01*
X12895000Y-17684714D01*
X12866428Y-17670429D01*
X12852143Y-17656143D01*
X12837857Y-17627572D01*
X12823571Y-17570429D01*
X12823571Y-17499000D01*
X12837857Y-17441857D01*
X12852143Y-17413286D01*
X12866428Y-17399000D01*
X12895000Y-17384714D01*
X13123571Y-17656143D02*
X13137857Y-17670429D01*
X13123571Y-17684714D01*
X13109286Y-17670429D01*
X13123571Y-17656143D01*
X13123571Y-17684714D01*
X13323571Y-17384714D02*
X13352143Y-17384714D01*
X13380714Y-17399000D01*
X13395000Y-17413286D01*
X13409285Y-17441857D01*
X13423571Y-17499000D01*
X13423571Y-17570429D01*
X13409285Y-17627572D01*
X13395000Y-17656143D01*
X13380714Y-17670429D01*
X13352143Y-17684714D01*
X13323571Y-17684714D01*
X13295000Y-17670429D01*
X13280714Y-17656143D01*
X13266428Y-17627572D01*
X13252143Y-17570429D01*
X13252143Y-17499000D01*
X13266428Y-17441857D01*
X13280714Y-17413286D01*
X13295000Y-17399000D01*
X13323571Y-17384714D01*
X13695000Y-17384714D02*
X13552143Y-17384714D01*
X13537857Y-17527572D01*
X13552143Y-17513286D01*
X13580714Y-17499000D01*
X13652143Y-17499000D01*
X13680714Y-17513286D01*
X13695000Y-17527572D01*
X13709285Y-17556143D01*
X13709285Y-17627572D01*
X13695000Y-17656143D01*
X13680714Y-17670429D01*
X13652143Y-17684714D01*
X13580714Y-17684714D01*
X13552143Y-17670429D01*
X13537857Y-17656143D01*
X13852143Y-17684714D02*
X13909285Y-17684714D01*
X13937857Y-17670429D01*
X13952143Y-17656143D01*
X13980714Y-17613286D01*
X13995000Y-17556143D01*
X13995000Y-17441857D01*
X13980714Y-17413286D01*
X13966428Y-17399000D01*
X13937857Y-17384714D01*
X13880714Y-17384714D01*
X13852143Y-17399000D01*
X13837857Y-17413286D01*
X13823571Y-17441857D01*
X13823571Y-17513286D01*
X13837857Y-17541857D01*
X13852143Y-17556143D01*
X13880714Y-17570429D01*
X13937857Y-17570429D01*
X13966428Y-17556143D01*
X13980714Y-17541857D01*
X13995000Y-17513286D01*
X14109286Y-17384714D02*
X14109286Y-17441857D01*
X14223571Y-17384714D02*
X14223571Y-17441857D01*
X14666428Y-17799000D02*
X14652143Y-17784714D01*
X14623571Y-17741857D01*
X14609285Y-17713286D01*
X14595000Y-17670429D01*
X14580714Y-17599000D01*
X14580714Y-17541857D01*
X14595000Y-17470429D01*
X14609285Y-17427572D01*
X14623571Y-17399000D01*
X14652143Y-17356143D01*
X14666428Y-17341857D01*
X14909285Y-17484714D02*
X14909285Y-17684714D01*
X14837857Y-17370429D02*
X14766428Y-17584714D01*
X14952143Y-17584714D01*
X15295000Y-17684714D02*
X15295000Y-17384714D01*
X15423571Y-17684714D02*
X15423571Y-17527572D01*
X15409285Y-17499000D01*
X15380714Y-17484714D01*
X15337857Y-17484714D01*
X15309285Y-17499000D01*
X15295000Y-17513286D01*
X15609285Y-17684714D02*
X15580714Y-17670429D01*
X15566428Y-17656143D01*
X15552143Y-17627572D01*
X15552143Y-17541857D01*
X15566428Y-17513286D01*
X15580714Y-17499000D01*
X15609285Y-17484714D01*
X15652143Y-17484714D01*
X15680714Y-17499000D01*
X15695000Y-17513286D01*
X15709285Y-17541857D01*
X15709285Y-17627572D01*
X15695000Y-17656143D01*
X15680714Y-17670429D01*
X15652143Y-17684714D01*
X15609285Y-17684714D01*
X15880714Y-17684714D02*
X15852143Y-17670429D01*
X15837857Y-17641857D01*
X15837857Y-17384714D01*
X16109286Y-17670429D02*
X16080714Y-17684714D01*
X16023571Y-17684714D01*
X15995000Y-17670429D01*
X15980714Y-17641857D01*
X15980714Y-17527572D01*
X15995000Y-17499000D01*
X16023571Y-17484714D01*
X16080714Y-17484714D01*
X16109286Y-17499000D01*
X16123571Y-17527572D01*
X16123571Y-17556143D01*
X15980714Y-17584714D01*
X16237857Y-17670429D02*
X16266428Y-17684714D01*
X16323571Y-17684714D01*
X16352143Y-17670429D01*
X16366428Y-17641857D01*
X16366428Y-17627572D01*
X16352143Y-17599000D01*
X16323571Y-17584714D01*
X16280714Y-17584714D01*
X16252143Y-17570429D01*
X16237857Y-17541857D01*
X16237857Y-17527572D01*
X16252143Y-17499000D01*
X16280714Y-17484714D01*
X16323571Y-17484714D01*
X16352143Y-17499000D01*
X16466428Y-17799000D02*
X16480714Y-17784714D01*
X16509286Y-17741857D01*
X16523571Y-17713286D01*
X16537857Y-17670429D01*
X16552143Y-17599000D01*
X16552143Y-17541857D01*
X16537857Y-17470429D01*
X16523571Y-17427572D01*
X16509286Y-17399000D01*
X16480714Y-17356143D01*
X16466428Y-17341857D01*
X9835234Y-17865117D02*
X9995000Y-18024883D01*
X9995000Y-17865117D02*
X9835234Y-18024883D01*
X9995000Y-17945000D02*
G75*
G03X9995000Y-17945000I-79883J0D01*
G01*
X10423571Y-18080714D02*
X10252143Y-18080714D01*
X10337857Y-18080714D02*
X10337857Y-17780714D01*
X10309286Y-17823572D01*
X10280714Y-17852143D01*
X10252143Y-17866429D01*
X10552143Y-18052143D02*
X10566429Y-18066429D01*
X10552143Y-18080714D01*
X10537857Y-18066429D01*
X10552143Y-18052143D01*
X10552143Y-18080714D01*
X10823571Y-17780714D02*
X10766428Y-17780714D01*
X10737857Y-17795000D01*
X10723571Y-17809286D01*
X10695000Y-17852143D01*
X10680714Y-17909286D01*
X10680714Y-18023572D01*
X10695000Y-18052143D01*
X10709286Y-18066429D01*
X10737857Y-18080714D01*
X10795000Y-18080714D01*
X10823571Y-18066429D01*
X10837857Y-18052143D01*
X10852143Y-18023572D01*
X10852143Y-17952143D01*
X10837857Y-17923572D01*
X10823571Y-17909286D01*
X10795000Y-17895000D01*
X10737857Y-17895000D01*
X10709286Y-17909286D01*
X10695000Y-17923572D01*
X10680714Y-17952143D01*
X11037857Y-17780714D02*
X11066429Y-17780714D01*
X11095000Y-17795000D01*
X11109286Y-17809286D01*
X11123571Y-17837857D01*
X11137857Y-17895000D01*
X11137857Y-17966429D01*
X11123571Y-18023572D01*
X11109286Y-18052143D01*
X11095000Y-18066429D01*
X11066429Y-18080714D01*
X11037857Y-18080714D01*
X11009286Y-18066429D01*
X10995000Y-18052143D01*
X10980714Y-18023572D01*
X10966429Y-17966429D01*
X10966429Y-17895000D01*
X10980714Y-17837857D01*
X10995000Y-17809286D01*
X11009286Y-17795000D01*
X11037857Y-17780714D01*
X11266428Y-18080714D02*
X11266428Y-17880714D01*
X11266428Y-17909286D02*
X11280714Y-17895000D01*
X11309286Y-17880714D01*
X11352143Y-17880714D01*
X11380714Y-17895000D01*
X11395000Y-17923572D01*
X11395000Y-18080714D01*
X11395000Y-17923572D02*
X11409286Y-17895000D01*
X11437857Y-17880714D01*
X11480714Y-17880714D01*
X11509286Y-17895000D01*
X11523571Y-17923572D01*
X11523571Y-18080714D01*
X11666428Y-18080714D02*
X11666428Y-17880714D01*
X11666428Y-17909286D02*
X11680714Y-17895000D01*
X11709286Y-17880714D01*
X11752143Y-17880714D01*
X11780714Y-17895000D01*
X11795000Y-17923572D01*
X11795000Y-18080714D01*
X11795000Y-17923572D02*
X11809286Y-17895000D01*
X11837857Y-17880714D01*
X11880714Y-17880714D01*
X11909286Y-17895000D01*
X11923571Y-17923572D01*
X11923571Y-18080714D01*
X12509286Y-17766429D02*
X12252143Y-18152143D01*
X12895000Y-17780714D02*
X12923571Y-17780714D01*
X12952143Y-17795000D01*
X12966428Y-17809286D01*
X12980714Y-17837857D01*
X12995000Y-17895000D01*
X12995000Y-17966429D01*
X12980714Y-18023572D01*
X12966428Y-18052143D01*
X12952143Y-18066429D01*
X12923571Y-18080714D01*
X12895000Y-18080714D01*
X12866428Y-18066429D01*
X12852143Y-18052143D01*
X12837857Y-18023572D01*
X12823571Y-17966429D01*
X12823571Y-17895000D01*
X12837857Y-17837857D01*
X12852143Y-17809286D01*
X12866428Y-17795000D01*
X12895000Y-17780714D01*
X13123571Y-18052143D02*
X13137857Y-18066429D01*
X13123571Y-18080714D01*
X13109286Y-18066429D01*
X13123571Y-18052143D01*
X13123571Y-18080714D01*
X13323571Y-17780714D02*
X13352143Y-17780714D01*
X13380714Y-17795000D01*
X13395000Y-17809286D01*
X13409285Y-17837857D01*
X13423571Y-17895000D01*
X13423571Y-17966429D01*
X13409285Y-18023572D01*
X13395000Y-18052143D01*
X13380714Y-18066429D01*
X13352143Y-18080714D01*
X13323571Y-18080714D01*
X13295000Y-18066429D01*
X13280714Y-18052143D01*
X13266428Y-18023572D01*
X13252143Y-17966429D01*
X13252143Y-17895000D01*
X13266428Y-17837857D01*
X13280714Y-17809286D01*
X13295000Y-17795000D01*
X13323571Y-17780714D01*
X13680714Y-17780714D02*
X13623571Y-17780714D01*
X13595000Y-17795000D01*
X13580714Y-17809286D01*
X13552143Y-17852143D01*
X13537857Y-17909286D01*
X13537857Y-18023572D01*
X13552143Y-18052143D01*
X13566428Y-18066429D01*
X13595000Y-18080714D01*
X13652143Y-18080714D01*
X13680714Y-18066429D01*
X13695000Y-18052143D01*
X13709285Y-18023572D01*
X13709285Y-17952143D01*
X13695000Y-17923572D01*
X13680714Y-17909286D01*
X13652143Y-17895000D01*
X13595000Y-17895000D01*
X13566428Y-17909286D01*
X13552143Y-17923572D01*
X13537857Y-17952143D01*
X13809285Y-17780714D02*
X13995000Y-17780714D01*
X13895000Y-17895000D01*
X13937857Y-17895000D01*
X13966428Y-17909286D01*
X13980714Y-17923572D01*
X13995000Y-17952143D01*
X13995000Y-18023572D01*
X13980714Y-18052143D01*
X13966428Y-18066429D01*
X13937857Y-18080714D01*
X13852143Y-18080714D01*
X13823571Y-18066429D01*
X13809285Y-18052143D01*
X14109286Y-17780714D02*
X14109286Y-17837857D01*
X14223571Y-17780714D02*
X14223571Y-17837857D01*
X14666428Y-18195000D02*
X14652143Y-18180714D01*
X14623571Y-18137857D01*
X14609285Y-18109286D01*
X14595000Y-18066429D01*
X14580714Y-17995000D01*
X14580714Y-17937857D01*
X14595000Y-17866429D01*
X14609285Y-17823572D01*
X14623571Y-17795000D01*
X14652143Y-17752143D01*
X14666428Y-17737857D01*
X14937857Y-18080714D02*
X14766428Y-18080714D01*
X14852143Y-18080714D02*
X14852143Y-17780714D01*
X14823571Y-17823572D01*
X14795000Y-17852143D01*
X14766428Y-17866429D01*
X15195000Y-17780714D02*
X15137857Y-17780714D01*
X15109285Y-17795000D01*
X15095000Y-17809286D01*
X15066428Y-17852143D01*
X15052143Y-17909286D01*
X15052143Y-18023572D01*
X15066428Y-18052143D01*
X15080714Y-18066429D01*
X15109285Y-18080714D01*
X15166428Y-18080714D01*
X15195000Y-18066429D01*
X15209285Y-18052143D01*
X15223571Y-18023572D01*
X15223571Y-17952143D01*
X15209285Y-17923572D01*
X15195000Y-17909286D01*
X15166428Y-17895000D01*
X15109285Y-17895000D01*
X15080714Y-17909286D01*
X15066428Y-17923572D01*
X15052143Y-17952143D01*
X15580714Y-18080714D02*
X15580714Y-17780714D01*
X15709285Y-18080714D02*
X15709285Y-17923572D01*
X15695000Y-17895000D01*
X15666428Y-17880714D01*
X15623571Y-17880714D01*
X15595000Y-17895000D01*
X15580714Y-17909286D01*
X15895000Y-18080714D02*
X15866428Y-18066429D01*
X15852143Y-18052143D01*
X15837857Y-18023572D01*
X15837857Y-17937857D01*
X15852143Y-17909286D01*
X15866428Y-17895000D01*
X15895000Y-17880714D01*
X15937857Y-17880714D01*
X15966428Y-17895000D01*
X15980714Y-17909286D01*
X15995000Y-17937857D01*
X15995000Y-18023572D01*
X15980714Y-18052143D01*
X15966428Y-18066429D01*
X15937857Y-18080714D01*
X15895000Y-18080714D01*
X16166428Y-18080714D02*
X16137857Y-18066429D01*
X16123571Y-18037857D01*
X16123571Y-17780714D01*
X16395000Y-18066429D02*
X16366428Y-18080714D01*
X16309286Y-18080714D01*
X16280714Y-18066429D01*
X16266428Y-18037857D01*
X16266428Y-17923572D01*
X16280714Y-17895000D01*
X16309286Y-17880714D01*
X16366428Y-17880714D01*
X16395000Y-17895000D01*
X16409286Y-17923572D01*
X16409286Y-17952143D01*
X16266428Y-17980714D01*
X16523571Y-18066429D02*
X16552143Y-18080714D01*
X16609286Y-18080714D01*
X16637857Y-18066429D01*
X16652143Y-18037857D01*
X16652143Y-18023572D01*
X16637857Y-17995000D01*
X16609286Y-17980714D01*
X16566428Y-17980714D01*
X16537857Y-17966429D01*
X16523571Y-17937857D01*
X16523571Y-17923572D01*
X16537857Y-17895000D01*
X16566428Y-17880714D01*
X16609286Y-17880714D01*
X16637857Y-17895000D01*
X16752143Y-18195000D02*
X16766428Y-18180714D01*
X16795000Y-18137857D01*
X16809286Y-18109286D01*
X16823571Y-18066429D01*
X16837857Y-17995000D01*
X16837857Y-17937857D01*
X16823571Y-17866429D01*
X16809286Y-17823572D01*
X16795000Y-17795000D01*
X16766428Y-17752143D01*
X16752143Y-17737857D01*
M02*
