M48
;DRILL file {KiCad 4.0.6-e0-6349~53~ubuntu14.04.1} date Thu Apr  6 15:26:06 2017
;FORMAT={3:3/ absolute / metric / suppress leading zeros}
FMAT,2
METRIC,TZ
T1C0.400
T2C1.000
T3C1.016
T4C1.298
T5C1.499
T6C1.598
%
G90
G05
M71
T1
X104160Y-118870
X111520Y-69120
X112120Y-59020
X112960Y-117870
X113160Y-119070
X113320Y-59920
X113760Y-109670
X114360Y-106170
X115320Y-58320
X115960Y-99470
X115960Y-104870
X117120Y-69720
X117320Y-79920
X117360Y-125470
X117760Y-128470
X118160Y-107670
X118760Y-119270
X119020Y-58820
X119460Y-124070
X120160Y-107670
X121320Y-66520
X121560Y-109470
X121620Y-61620
X122120Y-81720
X122920Y-66920
X123160Y-128270
X126720Y-61120
X126960Y-122470
X127760Y-107670
X128260Y-127770
X128320Y-79920
X128560Y-122870
X129720Y-81720
X130420Y-65320
X130860Y-130570
X131120Y-70120
X131720Y-81720
X132120Y-60920
X132520Y-63920
X132560Y-109470
X132760Y-119670
X133920Y-84520
X133920Y-89920
X134560Y-131070
X135520Y-83220
X136120Y-79720
X136560Y-129470
X136720Y-70320
X136920Y-71520
X137760Y-130370
X138360Y-120270
X145720Y-70520
T2
X106610Y-108530
X106610Y-111070
X107360Y-100670
X109900Y-100670
X110320Y-61780
X110320Y-64320
X110320Y-66860
X110520Y-72840
X110520Y-75380
X110520Y-77920
X110520Y-80460
X110860Y-108420
X110860Y-110960
X110860Y-113500
X112440Y-100670
X113020Y-88720
X115560Y-88720
X116120Y-56020
X118100Y-88720
X119080Y-100670
X120640Y-88720
X121620Y-100670
X122180Y-56120
X123180Y-88720
X124160Y-100670
X124720Y-56120
X125160Y-133270
X125720Y-88720
X126700Y-100670
X127700Y-133270
X128260Y-88720
X129240Y-100670
X130800Y-88720
X131780Y-100670
X133760Y-133370
X134320Y-100670
X136860Y-100670
X137440Y-88720
X139020Y-75890
X139020Y-78430
X139020Y-80970
X139360Y-108930
X139360Y-111470
X139360Y-114010
X139360Y-116550
X139560Y-122530
X139560Y-125070
X139560Y-127610
X139980Y-88720
X142520Y-88720
X143270Y-78320
X143270Y-80860
T3
X154390Y-108922
X154390Y-146029
X156930Y-108922
X156930Y-146029
X157531Y-58230
X157531Y-60770
X157531Y-63310
X157531Y-65850
X157531Y-68390
X157531Y-70930
X157531Y-73470
X157531Y-76010
X157531Y-78550
X157531Y-81090
X157531Y-83630
X157531Y-86170
X157531Y-88710
X157531Y-91250
X157531Y-93790
X157531Y-96330
X157531Y-98870
X157531Y-101410
X159470Y-108922
X159470Y-146029
X160980Y-91040
X162010Y-108922
X162010Y-146029
X164510Y-91025
X164550Y-108922
X164550Y-146029
X167090Y-108922
X167090Y-146029
X168320Y-91025
X169630Y-108922
X169630Y-146029
X172170Y-108922
X172170Y-146029
X172765Y-91025
X174710Y-108922
X174710Y-146029
X177250Y-108922
X177250Y-146029
X179790Y-108922
X179790Y-146029
X182330Y-108922
X182330Y-146029
X182980Y-91240
X184870Y-108922
X184870Y-146029
X187185Y-130795
X187185Y-135240
X187185Y-139050
X187200Y-142580
X187400Y-120580
X187410Y-108922
X187410Y-146029
X189950Y-108922
X189950Y-146029
X192490Y-108922
X192490Y-146029
X194638Y-58230
X194638Y-60770
X194638Y-63310
X194638Y-65850
X194638Y-68390
X194638Y-70930
X194638Y-73470
X194638Y-76010
X194638Y-78550
X194638Y-81090
X194638Y-83630
X194638Y-86170
X194638Y-88710
X194638Y-91250
X194638Y-93790
X194638Y-96330
X194638Y-98870
X194638Y-101410
X195030Y-108922
X195030Y-146029
X197570Y-108922
X197570Y-146029
T4
X176501Y-98010
X182999Y-98010
X194170Y-120561
X194170Y-127059
T5
X108860Y-127670
X141020Y-61720
X152260Y-138415
X165145Y-56100
T6
X106320Y-125130
X106320Y-130210
X111400Y-125130
X111400Y-130210
X138480Y-59180
X138480Y-64260
X143560Y-59180
X143560Y-64260
X149720Y-135875
X149720Y-140955
X154800Y-135875
X154800Y-140955
X162605Y-53560
X162605Y-58640
X167685Y-53560
X167685Y-58640
T0
M30
